%TF.GenerationSoftware,KiCad,Pcbnew,(6.0.9-0)*%
%TF.CreationDate,2022-12-26T10:40:34+01:00*%
%TF.ProjectId,RM3 mini ESP,524d3320-6d69-46e6-9920-4553502e6b69,rev?*%
%TF.SameCoordinates,Original*%
%TF.FileFunction,Soldermask,Bot*%
%TF.FilePolarity,Negative*%
%FSLAX46Y46*%
G04 Gerber Fmt 4.6, Leading zero omitted, Abs format (unit mm)*
G04 Created by KiCad (PCBNEW (6.0.9-0)) date 2022-12-26 10:40:34*
%MOMM*%
%LPD*%
G01*
G04 APERTURE LIST*
%ADD10C,2.000000*%
%ADD11R,1.100000X2.500000*%
%ADD12O,1.100000X2.500000*%
%ADD13O,2.500000X1.100000*%
%ADD14R,1.700000X1.700000*%
%ADD15O,1.700000X1.700000*%
%ADD16R,1.600000X1.600000*%
%ADD17C,1.600000*%
%ADD18C,0.650000*%
%ADD19O,1.600000X1.000000*%
%ADD20O,2.100000X1.000000*%
G04 APERTURE END LIST*
D10*
%TO.C,RST*%
X59650000Y-108050000D03*
X59650000Y-101550000D03*
X64150000Y-108050000D03*
X64150000Y-101550000D03*
%TD*%
D11*
%TO.C,U1*%
X52662500Y-95050000D03*
D12*
X54662500Y-95050000D03*
X56662500Y-95050000D03*
X58662500Y-95050000D03*
X60662500Y-95050000D03*
X62662500Y-95050000D03*
X64662500Y-95050000D03*
X66662500Y-95050000D03*
X66662500Y-79650000D03*
X64662500Y-79750000D03*
X62662500Y-79650000D03*
X60662500Y-79650000D03*
X58662500Y-79650000D03*
X56662500Y-79650000D03*
X54662500Y-79650000D03*
X52662500Y-79650000D03*
D13*
X68362500Y-92360000D03*
X68362500Y-90360000D03*
X68362500Y-88360000D03*
X68362500Y-86360000D03*
X68362500Y-84360000D03*
X68362500Y-82360000D03*
%TD*%
D14*
%TO.C,J4*%
X47800000Y-74500000D03*
D15*
X47800000Y-71960000D03*
X47800000Y-69420000D03*
%TD*%
D10*
%TO.C,FLASH*%
X67500000Y-108050000D03*
X67500000Y-101550000D03*
X72000000Y-101550000D03*
X72000000Y-108050000D03*
%TD*%
D16*
%TO.C,C4*%
X76500000Y-86050000D03*
D17*
X74000000Y-86050000D03*
%TD*%
D14*
%TO.C,J3*%
X57760000Y-72800000D03*
D15*
X60300000Y-72800000D03*
X62840000Y-72800000D03*
X65380000Y-72800000D03*
X67920000Y-72800000D03*
X70460000Y-72800000D03*
%TD*%
D18*
%TO.C,J1*%
X83400000Y-93810000D03*
X83400000Y-99590000D03*
D19*
X87050000Y-92380000D03*
D20*
X82870000Y-92380000D03*
D19*
X87050000Y-101020000D03*
D20*
X82870000Y-101020000D03*
%TD*%
D16*
%TO.C,C3*%
X76500000Y-80000000D03*
D17*
X74000000Y-80000000D03*
%TD*%
M02*
