%TF.GenerationSoftware,KiCad,Pcbnew,(6.0.9)*%
%TF.CreationDate,2022-12-26T20:31:52+01:00*%
%TF.ProjectId,RM3 mini ESP,524d3320-6d69-46e6-9920-4553502e6b69,rev?*%
%TF.SameCoordinates,Original*%
%TF.FileFunction,Copper,L1,Top*%
%TF.FilePolarity,Positive*%
%FSLAX46Y46*%
G04 Gerber Fmt 4.6, Leading zero omitted, Abs format (unit mm)*
G04 Created by KiCad (PCBNEW (6.0.9)) date 2022-12-26 20:31:52*
%MOMM*%
%LPD*%
G01*
G04 APERTURE LIST*
G04 Aperture macros list*
%AMRoundRect*
0 Rectangle with rounded corners*
0 $1 Rounding radius*
0 $2 $3 $4 $5 $6 $7 $8 $9 X,Y pos of 4 corners*
0 Add a 4 corners polygon primitive as box body*
4,1,4,$2,$3,$4,$5,$6,$7,$8,$9,$2,$3,0*
0 Add four circle primitives for the rounded corners*
1,1,$1+$1,$2,$3*
1,1,$1+$1,$4,$5*
1,1,$1+$1,$6,$7*
1,1,$1+$1,$8,$9*
0 Add four rect primitives between the rounded corners*
20,1,$1+$1,$2,$3,$4,$5,0*
20,1,$1+$1,$4,$5,$6,$7,0*
20,1,$1+$1,$6,$7,$8,$9,0*
20,1,$1+$1,$8,$9,$2,$3,0*%
G04 Aperture macros list end*
%TA.AperFunction,SMDPad,CuDef*%
%ADD10RoundRect,0.237500X0.237500X-0.250000X0.237500X0.250000X-0.237500X0.250000X-0.237500X-0.250000X0*%
%TD*%
%TA.AperFunction,SMDPad,CuDef*%
%ADD11RoundRect,0.237500X0.237500X-0.287500X0.237500X0.287500X-0.237500X0.287500X-0.237500X-0.287500X0*%
%TD*%
%TA.AperFunction,SMDPad,CuDef*%
%ADD12RoundRect,0.250000X-0.250000X-1.750000X0.250000X-1.750000X0.250000X1.750000X-0.250000X1.750000X0*%
%TD*%
%TA.AperFunction,ComponentPad*%
%ADD13C,2.000000*%
%TD*%
%TA.AperFunction,ComponentPad*%
%ADD14R,1.100000X2.500000*%
%TD*%
%TA.AperFunction,ComponentPad*%
%ADD15O,1.100000X2.500000*%
%TD*%
%TA.AperFunction,ComponentPad*%
%ADD16O,2.500000X1.100000*%
%TD*%
%TA.AperFunction,SMDPad,CuDef*%
%ADD17R,1.500000X2.000000*%
%TD*%
%TA.AperFunction,SMDPad,CuDef*%
%ADD18R,3.800000X2.000000*%
%TD*%
%TA.AperFunction,ComponentPad*%
%ADD19R,1.700000X1.700000*%
%TD*%
%TA.AperFunction,ComponentPad*%
%ADD20O,1.700000X1.700000*%
%TD*%
%TA.AperFunction,ComponentPad*%
%ADD21R,1.600000X1.600000*%
%TD*%
%TA.AperFunction,ComponentPad*%
%ADD22C,1.600000*%
%TD*%
%TA.AperFunction,SMDPad,CuDef*%
%ADD23RoundRect,0.237500X-0.237500X0.250000X-0.237500X-0.250000X0.237500X-0.250000X0.237500X0.250000X0*%
%TD*%
%TA.AperFunction,SMDPad,CuDef*%
%ADD24RoundRect,0.237500X0.237500X-0.300000X0.237500X0.300000X-0.237500X0.300000X-0.237500X-0.300000X0*%
%TD*%
%TA.AperFunction,SMDPad,CuDef*%
%ADD25R,1.450000X0.600000*%
%TD*%
%TA.AperFunction,SMDPad,CuDef*%
%ADD26R,1.450000X0.300000*%
%TD*%
%TA.AperFunction,ComponentPad*%
%ADD27O,1.600000X1.000000*%
%TD*%
%TA.AperFunction,ComponentPad*%
%ADD28O,2.100000X1.000000*%
%TD*%
%TA.AperFunction,SMDPad,CuDef*%
%ADD29RoundRect,0.237500X0.300000X0.237500X-0.300000X0.237500X-0.300000X-0.237500X0.300000X-0.237500X0*%
%TD*%
%TA.AperFunction,ViaPad*%
%ADD30C,0.800000*%
%TD*%
%TA.AperFunction,Conductor*%
%ADD31C,0.750000*%
%TD*%
%TA.AperFunction,Conductor*%
%ADD32C,0.500000*%
%TD*%
%TA.AperFunction,Conductor*%
%ADD33C,1.000000*%
%TD*%
%TA.AperFunction,Conductor*%
%ADD34C,0.250000*%
%TD*%
%TA.AperFunction,Conductor*%
%ADD35C,0.600000*%
%TD*%
G04 APERTURE END LIST*
D10*
%TO.P,R3,1*%
%TO.N,Net-(U1-Pad1)*%
X84000000Y-106912500D03*
%TO.P,R3,2*%
%TO.N,/3.3V*%
X84000000Y-105087500D03*
%TD*%
D11*
%TO.P,D4,1,K*%
%TO.N,GND*%
X45850000Y-100875000D03*
%TO.P,D4,2,A*%
%TO.N,Net-(D4-Pad2)*%
X45850000Y-99125000D03*
%TD*%
D12*
%TO.P,J2,1,Pin_1*%
%TO.N,/5V*%
X88500000Y-70500000D03*
%TO.P,J2,2,Pin_2*%
%TO.N,GND*%
X86500000Y-70500000D03*
%TO.P,J2,3,Pin_3*%
%TO.N,/IR_IN*%
X84500000Y-70500000D03*
%TO.P,J2,4,Pin_4*%
%TO.N,/IR_OUT*%
X82500000Y-70500000D03*
%TO.P,J2,5,Pin_5*%
%TO.N,GND*%
X80500000Y-70500000D03*
%TO.P,J2,6,Pin_6*%
%TO.N,/3.3V*%
X78500000Y-70500000D03*
%TD*%
D13*
%TO.P,RST,1,1*%
%TO.N,GND*%
X59650000Y-108050000D03*
X59650000Y-101550000D03*
%TO.P,RST,2,2*%
%TO.N,Net-(U1-Pad1)*%
X64150000Y-108050000D03*
X64150000Y-101550000D03*
%TD*%
D14*
%TO.P,U1,1,REST*%
%TO.N,Net-(U1-Pad1)*%
X52662500Y-95050000D03*
D15*
%TO.P,U1,2,ADC*%
%TO.N,/ADC0*%
X54662500Y-95050000D03*
%TO.P,U1,3,CH_PD*%
%TO.N,Net-(U1-Pad3)*%
X56662500Y-95050000D03*
%TO.P,U1,4,GPIO16*%
%TO.N,/D0*%
X58662500Y-95050000D03*
%TO.P,U1,5,GPIO14*%
%TO.N,/IR_IN*%
X60662500Y-95050000D03*
%TO.P,U1,6,GPIO12*%
%TO.N,/D6*%
X62662500Y-95050000D03*
%TO.P,U1,7,GPIO13*%
%TO.N,/IR_OUT*%
X64662500Y-95050000D03*
%TO.P,U1,8,VCC*%
%TO.N,/3.3V*%
X66662500Y-95050000D03*
%TO.P,U1,9,GND*%
%TO.N,GND*%
X66662500Y-79650000D03*
%TO.P,U1,10,GPIO15*%
%TO.N,Net-(U1-Pad10)*%
X64662500Y-79750000D03*
%TO.P,U1,11,GPIO2*%
%TO.N,/LED*%
X62662500Y-79650000D03*
%TO.P,U1,12,GPIO0*%
%TO.N,Net-(U1-Pad12)*%
X60662500Y-79650000D03*
%TO.P,U1,13,GPIO4*%
%TO.N,/D2*%
X58662500Y-79650000D03*
%TO.P,U1,14,GPIO5*%
%TO.N,/D1*%
X56662500Y-79650000D03*
%TO.P,U1,15,RXD*%
%TO.N,/RX*%
X54662500Y-79650000D03*
%TO.P,U1,16,TXD*%
%TO.N,/TX*%
X52662500Y-79650000D03*
D16*
%TO.P,U1,17,CS0*%
%TO.N,unconnected-(U1-Pad17)*%
X68362500Y-92360000D03*
%TO.P,U1,18,MISO*%
%TO.N,unconnected-(U1-Pad18)*%
X68362500Y-90360000D03*
%TO.P,U1,19,GPIO9*%
%TO.N,unconnected-(U1-Pad19)*%
X68362500Y-88360000D03*
%TO.P,U1,20,GPIO10*%
%TO.N,unconnected-(U1-Pad20)*%
X68362500Y-86360000D03*
%TO.P,U1,21,MOSI*%
%TO.N,unconnected-(U1-Pad21)*%
X68362500Y-84360000D03*
%TO.P,U1,22,SCLK*%
%TO.N,unconnected-(U1-Pad22)*%
X68362500Y-82360000D03*
%TD*%
D17*
%TO.P,U2,1,GND*%
%TO.N,GND*%
X80200000Y-87750000D03*
D18*
%TO.P,U2,2,VO*%
%TO.N,/3.3V*%
X82500000Y-81450000D03*
D17*
X82500000Y-87750000D03*
%TO.P,U2,3,VI*%
%TO.N,/5V*%
X84800000Y-87750000D03*
%TD*%
D19*
%TO.P,J4,1,Pin_1*%
%TO.N,GND*%
X47800000Y-74500000D03*
D20*
%TO.P,J4,2,Pin_2*%
%TO.N,/RX*%
X47800000Y-71960000D03*
%TO.P,J4,3,Pin_3*%
%TO.N,/TX*%
X47800000Y-69420000D03*
%TD*%
D13*
%TO.P,FLASH,1,1*%
%TO.N,Net-(U1-Pad12)*%
X67500000Y-108050000D03*
X67500000Y-101550000D03*
%TO.P,FLASH,2,2*%
%TO.N,GND*%
X72000000Y-101550000D03*
X72000000Y-108050000D03*
%TD*%
D21*
%TO.P,C4,1*%
%TO.N,/5V*%
X76500000Y-86050000D03*
D22*
%TO.P,C4,2*%
%TO.N,GND*%
X74000000Y-86050000D03*
%TD*%
D23*
%TO.P,R2,1*%
%TO.N,GND*%
X86000000Y-105087500D03*
%TO.P,R2,2*%
%TO.N,Net-(J1-PadB5)*%
X86000000Y-106912500D03*
%TD*%
D24*
%TO.P,C1,1*%
%TO.N,/3.3V*%
X71350000Y-94862500D03*
%TO.P,C1,2*%
%TO.N,GND*%
X71350000Y-93137500D03*
%TD*%
D19*
%TO.P,J3,1,Pin_1*%
%TO.N,/ADC0*%
X57760000Y-72800000D03*
D20*
%TO.P,J3,2,Pin_2*%
%TO.N,GND*%
X60300000Y-72800000D03*
%TO.P,J3,3,Pin_3*%
%TO.N,/D6*%
X62840000Y-72800000D03*
%TO.P,J3,4,Pin_4*%
%TO.N,/D2*%
X65380000Y-72800000D03*
%TO.P,J3,5,Pin_5*%
%TO.N,/D1*%
X67920000Y-72800000D03*
%TO.P,J3,6,Pin_6*%
%TO.N,/D0*%
X70460000Y-72800000D03*
%TD*%
D23*
%TO.P,R5,1*%
%TO.N,Net-(U1-Pad10)*%
X80000000Y-105087500D03*
%TO.P,R5,2*%
%TO.N,GND*%
X80000000Y-106912500D03*
%TD*%
D25*
%TO.P,J1,A1,GND*%
%TO.N,GND*%
X81955000Y-99950000D03*
%TO.P,J1,A4,VBUS*%
%TO.N,/5V*%
X81955000Y-99150000D03*
D26*
%TO.P,J1,A5,CC1*%
%TO.N,Net-(J1-PadA5)*%
X81955000Y-97950000D03*
%TO.P,J1,A6,D+*%
%TO.N,unconnected-(J1-PadA6)*%
X81955000Y-96950000D03*
%TO.P,J1,A7,D-*%
%TO.N,unconnected-(J1-PadA7)*%
X81955000Y-96450000D03*
%TO.P,J1,A8,SBU1*%
%TO.N,unconnected-(J1-PadA8)*%
X81955000Y-95450000D03*
D25*
%TO.P,J1,A9,VBUS*%
%TO.N,/5V*%
X81955000Y-94250000D03*
%TO.P,J1,A12,GND*%
%TO.N,GND*%
X81955000Y-93450000D03*
%TO.P,J1,B1,GND*%
X81955000Y-93450000D03*
%TO.P,J1,B4,VBUS*%
%TO.N,/5V*%
X81955000Y-94250000D03*
D26*
%TO.P,J1,B5,CC2*%
%TO.N,Net-(J1-PadB5)*%
X81955000Y-94950000D03*
%TO.P,J1,B6,D+*%
%TO.N,unconnected-(J1-PadB6)*%
X81955000Y-95950000D03*
%TO.P,J1,B7,D-*%
%TO.N,unconnected-(J1-PadB7)*%
X81955000Y-97450000D03*
%TO.P,J1,B8,SBU2*%
%TO.N,unconnected-(J1-PadB8)*%
X81955000Y-98450000D03*
D25*
%TO.P,J1,B9,VBUS*%
%TO.N,/5V*%
X81955000Y-99150000D03*
%TO.P,J1,B12,GND*%
%TO.N,GND*%
X81955000Y-99950000D03*
D27*
%TO.P,J1,S1,SHIELD*%
X87050000Y-92380000D03*
D28*
X82870000Y-92380000D03*
D27*
X87050000Y-101020000D03*
D28*
X82870000Y-101020000D03*
%TD*%
D29*
%TO.P,C5,1*%
%TO.N,/3.3V*%
X76762500Y-72550000D03*
%TO.P,C5,2*%
%TO.N,GND*%
X75037500Y-72550000D03*
%TD*%
D10*
%TO.P,R4,1*%
%TO.N,Net-(U1-Pad3)*%
X82000000Y-106912500D03*
%TO.P,R4,2*%
%TO.N,/3.3V*%
X82000000Y-105087500D03*
%TD*%
D23*
%TO.P,R1,1*%
%TO.N,GND*%
X88000000Y-105087500D03*
%TO.P,R1,2*%
%TO.N,Net-(J1-PadA5)*%
X88000000Y-106912500D03*
%TD*%
%TO.P,R7,1*%
%TO.N,Net-(D4-Pad2)*%
X47850000Y-99087500D03*
%TO.P,R7,2*%
%TO.N,/LED*%
X47850000Y-100912500D03*
%TD*%
D24*
%TO.P,C2,1*%
%TO.N,/3.3V*%
X73350000Y-94862500D03*
%TO.P,C2,2*%
%TO.N,GND*%
X73350000Y-93137500D03*
%TD*%
D21*
%TO.P,C3,1*%
%TO.N,/5V*%
X76500000Y-80000000D03*
D22*
%TO.P,C3,2*%
%TO.N,GND*%
X74000000Y-80000000D03*
%TD*%
D23*
%TO.P,R6,1*%
%TO.N,/3.3V*%
X78000000Y-105087500D03*
%TO.P,R6,2*%
%TO.N,Net-(U1-Pad12)*%
X78000000Y-106912500D03*
%TD*%
D30*
%TO.N,/5V*%
X80200000Y-94350000D03*
X88450000Y-67600000D03*
%TO.N,GND*%
X56100000Y-84100000D03*
X54250000Y-86750000D03*
X61100000Y-105550000D03*
X81450000Y-78300000D03*
X50750000Y-76250000D03*
X75350000Y-92200000D03*
X59250000Y-75000000D03*
X66050000Y-88950000D03*
X69300000Y-76000000D03*
X53650000Y-72750000D03*
X77550000Y-97400000D03*
X83750000Y-108850000D03*
X56700000Y-76000000D03*
X75200000Y-104700000D03*
X77400000Y-99350000D03*
X51350000Y-102550000D03*
X46200000Y-107450000D03*
X62550000Y-76700000D03*
X71950000Y-89350000D03*
X73200000Y-73000000D03*
X75200000Y-107200000D03*
X53400000Y-103850000D03*
X88650000Y-108850000D03*
X85450000Y-75500000D03*
X54100000Y-89600000D03*
X88600000Y-89600000D03*
X68900000Y-104300000D03*
X88050000Y-96400000D03*
X71550000Y-81150000D03*
%TO.N,/3.3V*%
X79150000Y-72950000D03*
X85200000Y-81500000D03*
%TD*%
D31*
%TO.N,/3.3V*%
X78500000Y-72300000D02*
X78500000Y-70500000D01*
D32*
%TO.N,/5V*%
X80200000Y-92416726D02*
X80200000Y-94350000D01*
X84650000Y-90250000D02*
X82366726Y-90250000D01*
D33*
X88500000Y-70500000D02*
X88500000Y-67650000D01*
D32*
X84800000Y-87750000D02*
X84800000Y-90100000D01*
X80200000Y-98470000D02*
X80880000Y-99150000D01*
D33*
X88500000Y-67650000D02*
X88450000Y-67600000D01*
D32*
X80880000Y-99150000D02*
X81955000Y-99150000D01*
X80200000Y-94350000D02*
X80200000Y-98470000D01*
X82366726Y-90250000D02*
X80200000Y-92416726D01*
X80200000Y-94350000D02*
X80300000Y-94250000D01*
X80300000Y-94250000D02*
X81955000Y-94250000D01*
X84800000Y-90100000D02*
X84650000Y-90250000D01*
D34*
%TO.N,Net-(J1-PadA5)*%
X88800000Y-106112500D02*
X88800000Y-101303274D01*
X85446726Y-97950000D02*
X81955000Y-97950000D01*
X88000000Y-106912500D02*
X88800000Y-106112500D01*
X88800000Y-101303274D02*
X85446726Y-97950000D01*
%TO.N,Net-(J1-PadB5)*%
X89250000Y-106945495D02*
X89250000Y-101000000D01*
X86812500Y-107725000D02*
X88470495Y-107725000D01*
X85750000Y-97500000D02*
X83750000Y-97500000D01*
X86000000Y-106912500D02*
X86812500Y-107725000D01*
X83750000Y-97500000D02*
X83005000Y-96755000D01*
X88470495Y-107725000D02*
X89250000Y-106945495D01*
X82950000Y-94950000D02*
X81955000Y-94950000D01*
X83005000Y-95005000D02*
X82950000Y-94950000D01*
X83005000Y-96755000D02*
X83005000Y-95005000D01*
X89250000Y-101000000D02*
X85750000Y-97500000D01*
D35*
%TO.N,GND*%
X82870000Y-92535000D02*
X81955000Y-93450000D01*
X82870000Y-92380000D02*
X82870000Y-92535000D01*
X81955000Y-99950000D02*
X81955000Y-100105000D01*
X81955000Y-100105000D02*
X82870000Y-101020000D01*
D31*
%TO.N,/3.3V*%
X76525000Y-94925000D02*
X70000000Y-94925000D01*
X67237500Y-94925000D02*
X66662500Y-94350000D01*
D34*
X84000000Y-105087500D02*
X82000000Y-105087500D01*
D31*
X78250000Y-72550000D02*
X78500000Y-72300000D01*
D34*
X82000000Y-105087500D02*
X82000000Y-103700000D01*
X79546554Y-105946554D02*
X78687500Y-105087500D01*
X73350000Y-99300000D02*
X73350000Y-95212500D01*
X80600000Y-102300000D02*
X76350000Y-102300000D01*
D31*
X82550000Y-81500000D02*
X82500000Y-81450000D01*
X85200000Y-81500000D02*
X82550000Y-81500000D01*
X82500000Y-88950000D02*
X76525000Y-94925000D01*
D34*
X78687500Y-105087500D02*
X78000000Y-105087500D01*
X82000000Y-105087500D02*
X81282995Y-105087500D01*
X80423941Y-105946554D02*
X79546554Y-105946554D01*
X76350000Y-102300000D02*
X73350000Y-99300000D01*
D31*
X82500000Y-87750000D02*
X82500000Y-88950000D01*
D34*
X81282995Y-105087500D02*
X80423941Y-105946554D01*
D31*
X78750000Y-72550000D02*
X78250000Y-72550000D01*
X70000000Y-94925000D02*
X67237500Y-94925000D01*
D34*
X82000000Y-103700000D02*
X80600000Y-102300000D01*
X73350000Y-95212500D02*
X73000000Y-94862500D01*
D31*
X76762500Y-72550000D02*
X78250000Y-72550000D01*
X79150000Y-72950000D02*
X78750000Y-72550000D01*
X82500000Y-87750000D02*
X82500000Y-81450000D01*
D34*
%TO.N,/IR_IN*%
X64950000Y-77350000D02*
X78863604Y-77350000D01*
X78863604Y-77350000D02*
X81431802Y-74781802D01*
X81625000Y-68175000D02*
X81431802Y-68368198D01*
X63787500Y-80462437D02*
X63787500Y-78512500D01*
X84500000Y-68350000D02*
X84325000Y-68175000D01*
X63200000Y-81049937D02*
X63787500Y-80462437D01*
X60662500Y-94350000D02*
X61425063Y-94350000D01*
X61425063Y-94350000D02*
X63200000Y-92575063D01*
X63200000Y-92575063D02*
X63200000Y-81049937D01*
X84325000Y-68175000D02*
X81625000Y-68175000D01*
X63787500Y-78512500D02*
X64950000Y-77350000D01*
X84500000Y-70500000D02*
X84500000Y-68350000D01*
X81431802Y-68368198D02*
X81431802Y-74781802D01*
X84500000Y-72100000D02*
X84500000Y-70500000D01*
%TO.N,/IR_OUT*%
X64662500Y-94350000D02*
X64200000Y-93887500D01*
X79050000Y-77800000D02*
X82500000Y-74350000D01*
X64200000Y-93887500D02*
X64200000Y-82350000D01*
X64200000Y-82350000D02*
X65593198Y-80956802D01*
X65593198Y-80956802D02*
X65593198Y-78781865D01*
X66575063Y-77800000D02*
X79050000Y-77800000D01*
X82500000Y-74350000D02*
X82500000Y-70500000D01*
X65593198Y-78781865D02*
X66575063Y-77800000D01*
%TO.N,Net-(U1-Pad1)*%
X80900000Y-106650000D02*
X80900000Y-108700000D01*
X83187500Y-106100000D02*
X81450000Y-106100000D01*
X80900000Y-108700000D02*
X80225000Y-109375000D01*
X64150000Y-109050000D02*
X64150000Y-108050000D01*
X84000000Y-106912500D02*
X83187500Y-106100000D01*
X81450000Y-106100000D02*
X80900000Y-106650000D01*
X80225000Y-109375000D02*
X64475000Y-109375000D01*
X64150000Y-108050000D02*
X64150000Y-101550000D01*
X64475000Y-109375000D02*
X64150000Y-109050000D01*
%TO.N,Net-(U1-Pad3)*%
X62400000Y-96800000D02*
X62825000Y-97225000D01*
X63700000Y-103000000D02*
X63700000Y-106626167D01*
X56662500Y-94350000D02*
X56662500Y-95936333D01*
X63700000Y-106626167D02*
X62825000Y-107501167D01*
X81350000Y-108886396D02*
X81350000Y-107150000D01*
X80411396Y-109825000D02*
X81350000Y-108886396D01*
X81350000Y-107150000D02*
X81587500Y-106912500D01*
X62825000Y-102125000D02*
X63700000Y-103000000D01*
X57526167Y-96800000D02*
X62400000Y-96800000D01*
X56662500Y-95936333D02*
X57526167Y-96800000D01*
X62825000Y-108598833D02*
X64051167Y-109825000D01*
X62825000Y-97225000D02*
X62825000Y-102125000D01*
X62825000Y-107501167D02*
X62825000Y-108598833D01*
X64051167Y-109825000D02*
X80411396Y-109825000D01*
X81587500Y-106912500D02*
X82000000Y-106912500D01*
%TO.N,Net-(U1-Pad10)*%
X72900000Y-99486396D02*
X72900000Y-98200000D01*
X72900000Y-98200000D02*
X72400000Y-97700000D01*
X80000000Y-105087500D02*
X80000000Y-103250000D01*
X72400000Y-97700000D02*
X65375063Y-97700000D01*
X76163604Y-102750000D02*
X72900000Y-99486396D01*
X65375063Y-97700000D02*
X63750000Y-96074937D01*
X79500000Y-102750000D02*
X76163604Y-102750000D01*
X80000000Y-103250000D02*
X79500000Y-102750000D01*
X63750000Y-81262500D02*
X64662500Y-80350000D01*
X63750000Y-96074937D02*
X63750000Y-81262500D01*
%TO.N,Net-(U1-Pad12)*%
X64600000Y-102973833D02*
X64600000Y-106650000D01*
X66023833Y-101550000D02*
X64600000Y-102973833D01*
X64600000Y-106650000D02*
X64623833Y-106650000D01*
X67500000Y-101550000D02*
X69313604Y-99736396D01*
X66023833Y-108050000D02*
X67500000Y-108050000D01*
X64623833Y-106650000D02*
X66023833Y-108050000D01*
X72513604Y-99736396D02*
X77000000Y-104222792D01*
X69313604Y-99736396D02*
X72513604Y-99736396D01*
X77000000Y-104222792D02*
X77000000Y-106000000D01*
X77912500Y-106912500D02*
X78000000Y-106912500D01*
X67500000Y-101550000D02*
X66023833Y-101550000D01*
X77000000Y-106000000D02*
X77912500Y-106912500D01*
%TO.N,/LED*%
X52200000Y-92900000D02*
X61913604Y-92900000D01*
X51787500Y-93312500D02*
X52200000Y-92900000D01*
X61913604Y-92900000D02*
X62662500Y-92151104D01*
X62662500Y-92151104D02*
X62662500Y-80350000D01*
X49750000Y-99900000D02*
X51787500Y-97862500D01*
X51787500Y-97862500D02*
X51787500Y-93312500D01*
X47850000Y-100912500D02*
X47850000Y-100200000D01*
X48150000Y-99900000D02*
X49750000Y-99900000D01*
X47850000Y-100200000D02*
X48150000Y-99900000D01*
%TO.N,Net-(D4-Pad2)*%
X47812500Y-99125000D02*
X47850000Y-99087500D01*
X45850000Y-99125000D02*
X47812500Y-99125000D01*
%TD*%
%TA.AperFunction,Conductor*%
%TO.N,GND*%
G36*
X85080668Y-107490660D02*
G01*
X85107104Y-107521116D01*
X85155242Y-107598906D01*
X85173884Y-107629031D01*
X85179066Y-107634204D01*
X85291816Y-107746758D01*
X85291821Y-107746762D01*
X85296997Y-107751929D01*
X85303227Y-107755769D01*
X85303228Y-107755770D01*
X85399176Y-107814913D01*
X85445080Y-107843209D01*
X85610191Y-107897974D01*
X85617027Y-107898674D01*
X85617030Y-107898675D01*
X85664370Y-107903525D01*
X85712928Y-107908500D01*
X86047906Y-107908500D01*
X86116027Y-107928502D01*
X86137001Y-107945405D01*
X86308843Y-108117247D01*
X86316387Y-108125537D01*
X86320500Y-108132018D01*
X86326277Y-108137443D01*
X86370167Y-108178658D01*
X86373009Y-108181413D01*
X86392731Y-108201135D01*
X86395855Y-108203558D01*
X86395859Y-108203562D01*
X86395924Y-108203612D01*
X86404945Y-108211317D01*
X86437179Y-108241586D01*
X86444127Y-108245405D01*
X86444129Y-108245407D01*
X86454932Y-108251346D01*
X86471459Y-108262202D01*
X86481198Y-108269757D01*
X86481200Y-108269758D01*
X86487460Y-108274614D01*
X86528040Y-108292174D01*
X86538688Y-108297391D01*
X86563476Y-108311018D01*
X86577440Y-108318695D01*
X86585116Y-108320666D01*
X86585119Y-108320667D01*
X86597062Y-108323733D01*
X86615767Y-108330137D01*
X86634355Y-108338181D01*
X86642178Y-108339420D01*
X86642188Y-108339423D01*
X86678024Y-108345099D01*
X86689644Y-108347505D01*
X86715492Y-108354141D01*
X86732470Y-108358500D01*
X86752724Y-108358500D01*
X86772434Y-108360051D01*
X86792443Y-108363220D01*
X86800335Y-108362474D01*
X86819080Y-108360702D01*
X86836462Y-108359059D01*
X86848319Y-108358500D01*
X88391728Y-108358500D01*
X88402911Y-108359027D01*
X88410404Y-108360702D01*
X88418330Y-108360453D01*
X88418331Y-108360453D01*
X88478481Y-108358562D01*
X88482440Y-108358500D01*
X88510351Y-108358500D01*
X88514286Y-108358003D01*
X88514351Y-108357995D01*
X88526188Y-108357062D01*
X88558446Y-108356048D01*
X88562465Y-108355922D01*
X88570384Y-108355673D01*
X88589838Y-108350021D01*
X88609195Y-108346013D01*
X88621425Y-108344468D01*
X88621426Y-108344468D01*
X88629292Y-108343474D01*
X88636663Y-108340555D01*
X88636665Y-108340555D01*
X88670407Y-108327196D01*
X88681637Y-108323351D01*
X88716478Y-108313229D01*
X88716479Y-108313229D01*
X88724088Y-108311018D01*
X88730907Y-108306985D01*
X88730912Y-108306983D01*
X88741523Y-108300707D01*
X88759271Y-108292012D01*
X88778112Y-108284552D01*
X88813882Y-108258564D01*
X88823802Y-108252048D01*
X88855030Y-108233580D01*
X88855033Y-108233578D01*
X88861857Y-108229542D01*
X88876178Y-108215221D01*
X88891212Y-108202380D01*
X88892926Y-108201135D01*
X88907602Y-108190472D01*
X88935793Y-108156395D01*
X88943783Y-108147616D01*
X89376405Y-107714994D01*
X89438717Y-107680968D01*
X89509532Y-107686033D01*
X89566368Y-107728580D01*
X89591179Y-107795100D01*
X89591500Y-107804089D01*
X89591500Y-109365500D01*
X89571498Y-109433621D01*
X89517842Y-109480114D01*
X89465500Y-109491500D01*
X81941975Y-109491500D01*
X81873854Y-109471498D01*
X81827361Y-109417842D01*
X81817257Y-109347568D01*
X81850123Y-109279249D01*
X81855677Y-109273334D01*
X81866586Y-109261717D01*
X81870407Y-109254767D01*
X81876346Y-109243964D01*
X81887202Y-109227437D01*
X81894757Y-109217698D01*
X81894758Y-109217696D01*
X81899614Y-109211436D01*
X81917174Y-109170856D01*
X81922391Y-109160208D01*
X81939875Y-109128405D01*
X81939876Y-109128403D01*
X81943695Y-109121456D01*
X81948733Y-109101833D01*
X81955137Y-109083130D01*
X81960033Y-109071816D01*
X81960033Y-109071815D01*
X81963181Y-109064541D01*
X81964420Y-109056718D01*
X81964423Y-109056708D01*
X81970099Y-109020872D01*
X81972505Y-109009252D01*
X81981528Y-108974107D01*
X81981528Y-108974106D01*
X81983500Y-108966426D01*
X81983500Y-108946172D01*
X81985051Y-108926461D01*
X81986980Y-108914282D01*
X81988220Y-108906453D01*
X81984059Y-108862434D01*
X81983500Y-108850577D01*
X81983500Y-108034500D01*
X82003502Y-107966379D01*
X82057158Y-107919886D01*
X82109500Y-107908500D01*
X82287072Y-107908500D01*
X82290318Y-107908163D01*
X82290322Y-107908163D01*
X82384235Y-107898419D01*
X82384239Y-107898418D01*
X82391093Y-107897707D01*
X82397629Y-107895526D01*
X82397631Y-107895526D01*
X82541150Y-107847644D01*
X82556107Y-107842654D01*
X82704031Y-107751116D01*
X82729025Y-107726078D01*
X82821758Y-107633184D01*
X82821762Y-107633179D01*
X82826929Y-107628003D01*
X82848004Y-107593814D01*
X82892700Y-107521303D01*
X82945472Y-107473810D01*
X83015544Y-107462386D01*
X83080668Y-107490660D01*
X83107104Y-107521116D01*
X83155242Y-107598906D01*
X83173884Y-107629031D01*
X83179066Y-107634204D01*
X83291816Y-107746758D01*
X83291821Y-107746762D01*
X83296997Y-107751929D01*
X83303227Y-107755769D01*
X83303228Y-107755770D01*
X83399176Y-107814913D01*
X83445080Y-107843209D01*
X83610191Y-107897974D01*
X83617027Y-107898674D01*
X83617030Y-107898675D01*
X83664370Y-107903525D01*
X83712928Y-107908500D01*
X84287072Y-107908500D01*
X84290318Y-107908163D01*
X84290322Y-107908163D01*
X84384235Y-107898419D01*
X84384239Y-107898418D01*
X84391093Y-107897707D01*
X84397629Y-107895526D01*
X84397631Y-107895526D01*
X84541150Y-107847644D01*
X84556107Y-107842654D01*
X84704031Y-107751116D01*
X84729025Y-107726078D01*
X84821758Y-107633184D01*
X84821762Y-107633179D01*
X84826929Y-107628003D01*
X84848004Y-107593814D01*
X84892700Y-107521303D01*
X84945472Y-107473810D01*
X85015544Y-107462386D01*
X85080668Y-107490660D01*
G37*
%TD.AperFunction*%
%TA.AperFunction,Conductor*%
G36*
X51433621Y-67528502D02*
G01*
X51480114Y-67582158D01*
X51491500Y-67634500D01*
X51491500Y-71491377D01*
X51491498Y-71492147D01*
X51491024Y-71569721D01*
X51494350Y-71581358D01*
X51499150Y-71598153D01*
X51502728Y-71614915D01*
X51506920Y-71644187D01*
X51510634Y-71652355D01*
X51510634Y-71652356D01*
X51517548Y-71667562D01*
X51523996Y-71685086D01*
X51531051Y-71709771D01*
X51535843Y-71717365D01*
X51535844Y-71717368D01*
X51546830Y-71734780D01*
X51554969Y-71749863D01*
X51567208Y-71776782D01*
X51573069Y-71783584D01*
X51583970Y-71796235D01*
X51595073Y-71811239D01*
X51608776Y-71832958D01*
X51615501Y-71838897D01*
X51615504Y-71838901D01*
X51630938Y-71852532D01*
X51642982Y-71864724D01*
X51656427Y-71880327D01*
X51656430Y-71880329D01*
X51662287Y-71887127D01*
X51669816Y-71892007D01*
X51669817Y-71892008D01*
X51683835Y-71901094D01*
X51698709Y-71912385D01*
X51709101Y-71921562D01*
X51717951Y-71929378D01*
X51744711Y-71941942D01*
X51759691Y-71950263D01*
X51776983Y-71961471D01*
X51776988Y-71961473D01*
X51784515Y-71966352D01*
X51793108Y-71968922D01*
X51793113Y-71968924D01*
X51809120Y-71973711D01*
X51826564Y-71980372D01*
X51841676Y-71987467D01*
X51841678Y-71987468D01*
X51849800Y-71991281D01*
X51858667Y-71992662D01*
X51858668Y-71992662D01*
X51861353Y-71993080D01*
X51879017Y-71995830D01*
X51895732Y-71999613D01*
X51915466Y-72005515D01*
X51915472Y-72005516D01*
X51924066Y-72008086D01*
X51933037Y-72008141D01*
X51933038Y-72008141D01*
X51943097Y-72008202D01*
X51958506Y-72008296D01*
X51959289Y-72008329D01*
X51960386Y-72008500D01*
X51991377Y-72008500D01*
X51992147Y-72008502D01*
X52065785Y-72008952D01*
X52065786Y-72008952D01*
X52069721Y-72008976D01*
X52071065Y-72008592D01*
X52072410Y-72008500D01*
X52991377Y-72008500D01*
X52992148Y-72008502D01*
X53069721Y-72008976D01*
X53098152Y-72000850D01*
X53114915Y-71997272D01*
X53115753Y-71997152D01*
X53144187Y-71993080D01*
X53167564Y-71982451D01*
X53185087Y-71976004D01*
X53209771Y-71968949D01*
X53217365Y-71964157D01*
X53217368Y-71964156D01*
X53234780Y-71953170D01*
X53249865Y-71945030D01*
X53276782Y-71932792D01*
X53296235Y-71916030D01*
X53311239Y-71904927D01*
X53332958Y-71891224D01*
X53338897Y-71884499D01*
X53338901Y-71884496D01*
X53352532Y-71869062D01*
X53364724Y-71857018D01*
X53380327Y-71843573D01*
X53380329Y-71843570D01*
X53387127Y-71837713D01*
X53401094Y-71816165D01*
X53412385Y-71801291D01*
X53423431Y-71788783D01*
X53423432Y-71788782D01*
X53429378Y-71782049D01*
X53441943Y-71755287D01*
X53450263Y-71740309D01*
X53461471Y-71723017D01*
X53461473Y-71723012D01*
X53466352Y-71715485D01*
X53468922Y-71706892D01*
X53468924Y-71706887D01*
X53473711Y-71690880D01*
X53480372Y-71673436D01*
X53487467Y-71658324D01*
X53487468Y-71658322D01*
X53491281Y-71650200D01*
X53493391Y-71636653D01*
X53495830Y-71620985D01*
X53499613Y-71604268D01*
X53505515Y-71584534D01*
X53505516Y-71584528D01*
X53508086Y-71575934D01*
X53508296Y-71541494D01*
X53508329Y-71540711D01*
X53508500Y-71539614D01*
X53508500Y-71508623D01*
X53508502Y-71507853D01*
X53508952Y-71434215D01*
X53508952Y-71434214D01*
X53508976Y-71430279D01*
X53508592Y-71428935D01*
X53508500Y-71427590D01*
X53508500Y-71134500D01*
X53528502Y-71066379D01*
X53582158Y-71019886D01*
X53634500Y-71008500D01*
X76292700Y-71008500D01*
X76360821Y-71028502D01*
X76407314Y-71082158D01*
X76418700Y-71134500D01*
X76418700Y-71452658D01*
X76398698Y-71520779D01*
X76345042Y-71567272D01*
X76319295Y-71575819D01*
X76315763Y-71576582D01*
X76308907Y-71577293D01*
X76302374Y-71579473D01*
X76302372Y-71579473D01*
X76203391Y-71612496D01*
X76143893Y-71632346D01*
X75995969Y-71723884D01*
X75990797Y-71729065D01*
X75988727Y-71731139D01*
X75986962Y-71732105D01*
X75985059Y-71733613D01*
X75984801Y-71733287D01*
X75926446Y-71765219D01*
X75855625Y-71760218D01*
X75810530Y-71731292D01*
X75807869Y-71728636D01*
X75796460Y-71719625D01*
X75660937Y-71636088D01*
X75647759Y-71629944D01*
X75496234Y-71579685D01*
X75482868Y-71576819D01*
X75390230Y-71567328D01*
X75383815Y-71567000D01*
X75309615Y-71567000D01*
X75294376Y-71571475D01*
X75293171Y-71572865D01*
X75291500Y-71580548D01*
X75291500Y-73514885D01*
X75295975Y-73530124D01*
X75297365Y-73531329D01*
X75305048Y-73533000D01*
X75383766Y-73533000D01*
X75390282Y-73532663D01*
X75484132Y-73522925D01*
X75497528Y-73520032D01*
X75648953Y-73469512D01*
X75662115Y-73463347D01*
X75797492Y-73379574D01*
X75808894Y-73370536D01*
X75810567Y-73368861D01*
X75811993Y-73368081D01*
X75814627Y-73365993D01*
X75814984Y-73366444D01*
X75872849Y-73334781D01*
X75943669Y-73339784D01*
X75988754Y-73368701D01*
X75990593Y-73370536D01*
X75996997Y-73376929D01*
X76003227Y-73380769D01*
X76003228Y-73380770D01*
X76131531Y-73459857D01*
X76145080Y-73468209D01*
X76310191Y-73522974D01*
X76317027Y-73523674D01*
X76317030Y-73523675D01*
X76364370Y-73528525D01*
X76412928Y-73533500D01*
X77112072Y-73533500D01*
X77115318Y-73533163D01*
X77115322Y-73533163D01*
X77209235Y-73523419D01*
X77209239Y-73523418D01*
X77216093Y-73522707D01*
X77222629Y-73520526D01*
X77222631Y-73520526D01*
X77360053Y-73474678D01*
X77381107Y-73467654D01*
X77405829Y-73452355D01*
X77472131Y-73433500D01*
X78170543Y-73433500D01*
X78190255Y-73435051D01*
X78203507Y-73437150D01*
X78210094Y-73436805D01*
X78210098Y-73436805D01*
X78269850Y-73433673D01*
X78276445Y-73433500D01*
X78308784Y-73433500D01*
X78376905Y-73453502D01*
X78409337Y-73484133D01*
X78410960Y-73486944D01*
X78415378Y-73491851D01*
X78415379Y-73491852D01*
X78534325Y-73623955D01*
X78538747Y-73628866D01*
X78693248Y-73741118D01*
X78699276Y-73743802D01*
X78699278Y-73743803D01*
X78777991Y-73778848D01*
X78867712Y-73818794D01*
X78954018Y-73837139D01*
X79048056Y-73857128D01*
X79048061Y-73857128D01*
X79054513Y-73858500D01*
X79245487Y-73858500D01*
X79251939Y-73857128D01*
X79251944Y-73857128D01*
X79345982Y-73837139D01*
X79432288Y-73818794D01*
X79522009Y-73778848D01*
X79600722Y-73743803D01*
X79600724Y-73743802D01*
X79606752Y-73741118D01*
X79761253Y-73628866D01*
X79765675Y-73623955D01*
X79884621Y-73491852D01*
X79884622Y-73491851D01*
X79889040Y-73486944D01*
X79984527Y-73321556D01*
X80043542Y-73139928D01*
X80045787Y-73118567D01*
X80072799Y-73052910D01*
X80131020Y-73012280D01*
X80183936Y-73006392D01*
X80196430Y-73007672D01*
X80202854Y-73008000D01*
X80227885Y-73008000D01*
X80243124Y-73003525D01*
X80244329Y-73002135D01*
X80246000Y-72994452D01*
X80246000Y-68010116D01*
X80241525Y-67994877D01*
X80240135Y-67993672D01*
X80232452Y-67992001D01*
X80202905Y-67992001D01*
X80196386Y-67992338D01*
X80100794Y-68002257D01*
X80087400Y-68005149D01*
X79933216Y-68056588D01*
X79920038Y-68062761D01*
X79782193Y-68148063D01*
X79770792Y-68157099D01*
X79656261Y-68271829D01*
X79647249Y-68283240D01*
X79607549Y-68347646D01*
X79554777Y-68395139D01*
X79484706Y-68406563D01*
X79419582Y-68378289D01*
X79393145Y-68347833D01*
X79352332Y-68281880D01*
X79348478Y-68275652D01*
X79223303Y-68150695D01*
X79217072Y-68146854D01*
X79078968Y-68061725D01*
X79078966Y-68061724D01*
X79072738Y-68057885D01*
X78992995Y-68031436D01*
X78911389Y-68004368D01*
X78911387Y-68004368D01*
X78904861Y-68002203D01*
X78898025Y-68001503D01*
X78898022Y-68001502D01*
X78854969Y-67997091D01*
X78800400Y-67991500D01*
X78561700Y-67991500D01*
X78493579Y-67971498D01*
X78447086Y-67917842D01*
X78435700Y-67865500D01*
X78435700Y-67634500D01*
X78455702Y-67566379D01*
X78509358Y-67519886D01*
X78561700Y-67508500D01*
X81086434Y-67508500D01*
X81154555Y-67528502D01*
X81201048Y-67582158D01*
X81211152Y-67652432D01*
X81183519Y-67714815D01*
X81159712Y-67743593D01*
X81151722Y-67752373D01*
X81039549Y-67864546D01*
X81031263Y-67872086D01*
X81024784Y-67876198D01*
X81019359Y-67881975D01*
X80978159Y-67925849D01*
X80975404Y-67928691D01*
X80955667Y-67948428D01*
X80953236Y-67951562D01*
X80950740Y-67954393D01*
X80890686Y-67992261D01*
X80843387Y-67996408D01*
X80803562Y-67992328D01*
X80797145Y-67992000D01*
X80772115Y-67992000D01*
X80756876Y-67996475D01*
X80755671Y-67997865D01*
X80754000Y-68005548D01*
X80754000Y-72989884D01*
X80759839Y-73009770D01*
X80793198Y-73061677D01*
X80798302Y-73097176D01*
X80798302Y-74467207D01*
X80778300Y-74535328D01*
X80761397Y-74556302D01*
X78638104Y-76679595D01*
X78575792Y-76713621D01*
X78549009Y-76716500D01*
X65028767Y-76716500D01*
X65017584Y-76715973D01*
X65010091Y-76714298D01*
X65002165Y-76714547D01*
X65002164Y-76714547D01*
X64942014Y-76716438D01*
X64938055Y-76716500D01*
X64910144Y-76716500D01*
X64906210Y-76716997D01*
X64906209Y-76716997D01*
X64906144Y-76717005D01*
X64894307Y-76717938D01*
X64862490Y-76718938D01*
X64858029Y-76719078D01*
X64850110Y-76719327D01*
X64832454Y-76724456D01*
X64830658Y-76724978D01*
X64811306Y-76728986D01*
X64804235Y-76729880D01*
X64791203Y-76731526D01*
X64783834Y-76734443D01*
X64783832Y-76734444D01*
X64750097Y-76747800D01*
X64738869Y-76751645D01*
X64696407Y-76763982D01*
X64689585Y-76768016D01*
X64689579Y-76768019D01*
X64678968Y-76774294D01*
X64661218Y-76782990D01*
X64649756Y-76787528D01*
X64649751Y-76787531D01*
X64642383Y-76790448D01*
X64635968Y-76795109D01*
X64606625Y-76816427D01*
X64596707Y-76822943D01*
X64578019Y-76833995D01*
X64558637Y-76845458D01*
X64544313Y-76859782D01*
X64529281Y-76872621D01*
X64512893Y-76884528D01*
X64484712Y-76918593D01*
X64476722Y-76927373D01*
X63395247Y-78008848D01*
X63386961Y-78016388D01*
X63380482Y-78020500D01*
X63375057Y-78026277D01*
X63368948Y-78031331D01*
X63367965Y-78030142D01*
X63314471Y-78061567D01*
X63243531Y-78058723D01*
X63223915Y-78050182D01*
X63080090Y-77972416D01*
X63080085Y-77972414D01*
X63074670Y-77969486D01*
X62876371Y-77908102D01*
X62870246Y-77907458D01*
X62870245Y-77907458D01*
X62676054Y-77887048D01*
X62676052Y-77887048D01*
X62669925Y-77886404D01*
X62584015Y-77894223D01*
X62469336Y-77904659D01*
X62469333Y-77904660D01*
X62463197Y-77905218D01*
X62457291Y-77906956D01*
X62457287Y-77906957D01*
X62309432Y-77950473D01*
X62264060Y-77963827D01*
X62080100Y-78059999D01*
X61918323Y-78190071D01*
X61914365Y-78194788D01*
X61914363Y-78194790D01*
X61855054Y-78265472D01*
X61784891Y-78349089D01*
X61781925Y-78354485D01*
X61781919Y-78354493D01*
X61773613Y-78369601D01*
X61723267Y-78419659D01*
X61653850Y-78434551D01*
X61587401Y-78409549D01*
X61555089Y-78371725D01*
X61554715Y-78371974D01*
X61552663Y-78368885D01*
X61551946Y-78368046D01*
X61551308Y-78366846D01*
X61548413Y-78361401D01*
X61473975Y-78270131D01*
X61421110Y-78205311D01*
X61421107Y-78205308D01*
X61417215Y-78200536D01*
X61410270Y-78194790D01*
X61262018Y-78072145D01*
X61262019Y-78072145D01*
X61257270Y-78068217D01*
X61251853Y-78065288D01*
X61251850Y-78065286D01*
X61080090Y-77972416D01*
X61080085Y-77972414D01*
X61074670Y-77969486D01*
X60876371Y-77908102D01*
X60870246Y-77907458D01*
X60870245Y-77907458D01*
X60676054Y-77887048D01*
X60676052Y-77887048D01*
X60669925Y-77886404D01*
X60584015Y-77894223D01*
X60469336Y-77904659D01*
X60469333Y-77904660D01*
X60463197Y-77905218D01*
X60457291Y-77906956D01*
X60457287Y-77906957D01*
X60309432Y-77950473D01*
X60264060Y-77963827D01*
X60080100Y-78059999D01*
X59918323Y-78190071D01*
X59914365Y-78194788D01*
X59914363Y-78194790D01*
X59855054Y-78265472D01*
X59784891Y-78349089D01*
X59781925Y-78354485D01*
X59781919Y-78354493D01*
X59773613Y-78369601D01*
X59723267Y-78419659D01*
X59653850Y-78434551D01*
X59587401Y-78409549D01*
X59555089Y-78371725D01*
X59554715Y-78371974D01*
X59552663Y-78368885D01*
X59551946Y-78368046D01*
X59551308Y-78366846D01*
X59548413Y-78361401D01*
X59473975Y-78270131D01*
X59421110Y-78205311D01*
X59421107Y-78205308D01*
X59417215Y-78200536D01*
X59410270Y-78194790D01*
X59262018Y-78072145D01*
X59262019Y-78072145D01*
X59257270Y-78068217D01*
X59251853Y-78065288D01*
X59251850Y-78065286D01*
X59080090Y-77972416D01*
X59080085Y-77972414D01*
X59074670Y-77969486D01*
X58876371Y-77908102D01*
X58870246Y-77907458D01*
X58870245Y-77907458D01*
X58676054Y-77887048D01*
X58676052Y-77887048D01*
X58669925Y-77886404D01*
X58584015Y-77894223D01*
X58469336Y-77904659D01*
X58469333Y-77904660D01*
X58463197Y-77905218D01*
X58457291Y-77906956D01*
X58457287Y-77906957D01*
X58309432Y-77950473D01*
X58264060Y-77963827D01*
X58080100Y-78059999D01*
X57918323Y-78190071D01*
X57914365Y-78194788D01*
X57914363Y-78194790D01*
X57855054Y-78265472D01*
X57784891Y-78349089D01*
X57781925Y-78354485D01*
X57781919Y-78354493D01*
X57773613Y-78369601D01*
X57723267Y-78419659D01*
X57653850Y-78434551D01*
X57587401Y-78409549D01*
X57555089Y-78371725D01*
X57554715Y-78371974D01*
X57552663Y-78368885D01*
X57551946Y-78368046D01*
X57551308Y-78366846D01*
X57548413Y-78361401D01*
X57473975Y-78270131D01*
X57421110Y-78205311D01*
X57421107Y-78205308D01*
X57417215Y-78200536D01*
X57410270Y-78194790D01*
X57262018Y-78072145D01*
X57262019Y-78072145D01*
X57257270Y-78068217D01*
X57251853Y-78065288D01*
X57251850Y-78065286D01*
X57080090Y-77972416D01*
X57080085Y-77972414D01*
X57074670Y-77969486D01*
X56876371Y-77908102D01*
X56870246Y-77907458D01*
X56870245Y-77907458D01*
X56676054Y-77887048D01*
X56676052Y-77887048D01*
X56669925Y-77886404D01*
X56584015Y-77894223D01*
X56469336Y-77904659D01*
X56469333Y-77904660D01*
X56463197Y-77905218D01*
X56457291Y-77906956D01*
X56457287Y-77906957D01*
X56309432Y-77950473D01*
X56264060Y-77963827D01*
X56080100Y-78059999D01*
X55918323Y-78190071D01*
X55914365Y-78194788D01*
X55914363Y-78194790D01*
X55855054Y-78265472D01*
X55784891Y-78349089D01*
X55781925Y-78354485D01*
X55781919Y-78354493D01*
X55773613Y-78369601D01*
X55723267Y-78419659D01*
X55653850Y-78434551D01*
X55587401Y-78409549D01*
X55555089Y-78371725D01*
X55554715Y-78371974D01*
X55552663Y-78368885D01*
X55551946Y-78368046D01*
X55551308Y-78366846D01*
X55548413Y-78361401D01*
X55473975Y-78270131D01*
X55421110Y-78205311D01*
X55421107Y-78205308D01*
X55417215Y-78200536D01*
X55410270Y-78194790D01*
X55262018Y-78072145D01*
X55262019Y-78072145D01*
X55257270Y-78068217D01*
X55251853Y-78065288D01*
X55251850Y-78065286D01*
X55080090Y-77972416D01*
X55080085Y-77972414D01*
X55074670Y-77969486D01*
X54876371Y-77908102D01*
X54870246Y-77907458D01*
X54870245Y-77907458D01*
X54676054Y-77887048D01*
X54676052Y-77887048D01*
X54669925Y-77886404D01*
X54584015Y-77894223D01*
X54469336Y-77904659D01*
X54469333Y-77904660D01*
X54463197Y-77905218D01*
X54457291Y-77906956D01*
X54457287Y-77906957D01*
X54309432Y-77950473D01*
X54264060Y-77963827D01*
X54080100Y-78059999D01*
X53918323Y-78190071D01*
X53914365Y-78194788D01*
X53914363Y-78194790D01*
X53855054Y-78265472D01*
X53784891Y-78349089D01*
X53781925Y-78354485D01*
X53781919Y-78354493D01*
X53773613Y-78369601D01*
X53723267Y-78419659D01*
X53653850Y-78434551D01*
X53587401Y-78409549D01*
X53555089Y-78371725D01*
X53554715Y-78371974D01*
X53552663Y-78368885D01*
X53551946Y-78368046D01*
X53551308Y-78366846D01*
X53548413Y-78361401D01*
X53473975Y-78270131D01*
X53421110Y-78205311D01*
X53421107Y-78205308D01*
X53417215Y-78200536D01*
X53410270Y-78194790D01*
X53262018Y-78072145D01*
X53262019Y-78072145D01*
X53257270Y-78068217D01*
X53251853Y-78065288D01*
X53251850Y-78065286D01*
X53080090Y-77972416D01*
X53080085Y-77972414D01*
X53074670Y-77969486D01*
X52876371Y-77908102D01*
X52870246Y-77907458D01*
X52870245Y-77907458D01*
X52676054Y-77887048D01*
X52676052Y-77887048D01*
X52669925Y-77886404D01*
X52584015Y-77894223D01*
X52469336Y-77904659D01*
X52469333Y-77904660D01*
X52463197Y-77905218D01*
X52457291Y-77906956D01*
X52457287Y-77906957D01*
X52309432Y-77950473D01*
X52264060Y-77963827D01*
X52080100Y-78059999D01*
X51918323Y-78190071D01*
X51914365Y-78194788D01*
X51914363Y-78194790D01*
X51855054Y-78265472D01*
X51784891Y-78349089D01*
X51781927Y-78354481D01*
X51781924Y-78354485D01*
X51737703Y-78434923D01*
X51684887Y-78530995D01*
X51622121Y-78728861D01*
X51621435Y-78734978D01*
X51621434Y-78734982D01*
X51612841Y-78811598D01*
X51604000Y-78890413D01*
X51604000Y-80402237D01*
X51604299Y-80405283D01*
X51604300Y-80405300D01*
X51618534Y-80550466D01*
X51619135Y-80556592D01*
X51679132Y-80755315D01*
X51682027Y-80760760D01*
X51682028Y-80760762D01*
X51773054Y-80931954D01*
X51776587Y-80938599D01*
X51792531Y-80958148D01*
X51903890Y-81094689D01*
X51903893Y-81094692D01*
X51907785Y-81099464D01*
X51912533Y-81103392D01*
X51912534Y-81103393D01*
X51949448Y-81133931D01*
X52067730Y-81231783D01*
X52073147Y-81234712D01*
X52073150Y-81234714D01*
X52244910Y-81327584D01*
X52244915Y-81327586D01*
X52250330Y-81330514D01*
X52448629Y-81391898D01*
X52454754Y-81392542D01*
X52454755Y-81392542D01*
X52648946Y-81412952D01*
X52648948Y-81412952D01*
X52655075Y-81413596D01*
X52740985Y-81405777D01*
X52855664Y-81395341D01*
X52855667Y-81395340D01*
X52861803Y-81394782D01*
X52867709Y-81393044D01*
X52867713Y-81393043D01*
X53055031Y-81337912D01*
X53055030Y-81337912D01*
X53060940Y-81336173D01*
X53244900Y-81240001D01*
X53250827Y-81235236D01*
X53304773Y-81191862D01*
X53406677Y-81109929D01*
X53412162Y-81103393D01*
X53536150Y-80955629D01*
X53540109Y-80950911D01*
X53543075Y-80945515D01*
X53543081Y-80945507D01*
X53551387Y-80930399D01*
X53601733Y-80880341D01*
X53671150Y-80865449D01*
X53737599Y-80890451D01*
X53769911Y-80928275D01*
X53770285Y-80928026D01*
X53772337Y-80931115D01*
X53773053Y-80931953D01*
X53776587Y-80938599D01*
X53792531Y-80958148D01*
X53903890Y-81094689D01*
X53903893Y-81094692D01*
X53907785Y-81099464D01*
X53912533Y-81103392D01*
X53912534Y-81103393D01*
X53949448Y-81133931D01*
X54067730Y-81231783D01*
X54073147Y-81234712D01*
X54073150Y-81234714D01*
X54244910Y-81327584D01*
X54244915Y-81327586D01*
X54250330Y-81330514D01*
X54448629Y-81391898D01*
X54454754Y-81392542D01*
X54454755Y-81392542D01*
X54648946Y-81412952D01*
X54648948Y-81412952D01*
X54655075Y-81413596D01*
X54740985Y-81405777D01*
X54855664Y-81395341D01*
X54855667Y-81395340D01*
X54861803Y-81394782D01*
X54867709Y-81393044D01*
X54867713Y-81393043D01*
X55055031Y-81337912D01*
X55055030Y-81337912D01*
X55060940Y-81336173D01*
X55244900Y-81240001D01*
X55250827Y-81235236D01*
X55304773Y-81191862D01*
X55406677Y-81109929D01*
X55412162Y-81103393D01*
X55536150Y-80955629D01*
X55540109Y-80950911D01*
X55543075Y-80945515D01*
X55543081Y-80945507D01*
X55551387Y-80930399D01*
X55601733Y-80880341D01*
X55671150Y-80865449D01*
X55737599Y-80890451D01*
X55769911Y-80928275D01*
X55770285Y-80928026D01*
X55772337Y-80931115D01*
X55773053Y-80931953D01*
X55776587Y-80938599D01*
X55792531Y-80958148D01*
X55903890Y-81094689D01*
X55903893Y-81094692D01*
X55907785Y-81099464D01*
X55912533Y-81103392D01*
X55912534Y-81103393D01*
X55949448Y-81133931D01*
X56067730Y-81231783D01*
X56073147Y-81234712D01*
X56073150Y-81234714D01*
X56244910Y-81327584D01*
X56244915Y-81327586D01*
X56250330Y-81330514D01*
X56448629Y-81391898D01*
X56454754Y-81392542D01*
X56454755Y-81392542D01*
X56648946Y-81412952D01*
X56648948Y-81412952D01*
X56655075Y-81413596D01*
X56740985Y-81405777D01*
X56855664Y-81395341D01*
X56855667Y-81395340D01*
X56861803Y-81394782D01*
X56867709Y-81393044D01*
X56867713Y-81393043D01*
X57055031Y-81337912D01*
X57055030Y-81337912D01*
X57060940Y-81336173D01*
X57244900Y-81240001D01*
X57250827Y-81235236D01*
X57304773Y-81191862D01*
X57406677Y-81109929D01*
X57412162Y-81103393D01*
X57536150Y-80955629D01*
X57540109Y-80950911D01*
X57543075Y-80945515D01*
X57543081Y-80945507D01*
X57551387Y-80930399D01*
X57601733Y-80880341D01*
X57671150Y-80865449D01*
X57737599Y-80890451D01*
X57769911Y-80928275D01*
X57770285Y-80928026D01*
X57772337Y-80931115D01*
X57773053Y-80931953D01*
X57776587Y-80938599D01*
X57792531Y-80958148D01*
X57903890Y-81094689D01*
X57903893Y-81094692D01*
X57907785Y-81099464D01*
X57912533Y-81103392D01*
X57912534Y-81103393D01*
X57949448Y-81133931D01*
X58067730Y-81231783D01*
X58073147Y-81234712D01*
X58073150Y-81234714D01*
X58244910Y-81327584D01*
X58244915Y-81327586D01*
X58250330Y-81330514D01*
X58448629Y-81391898D01*
X58454754Y-81392542D01*
X58454755Y-81392542D01*
X58648946Y-81412952D01*
X58648948Y-81412952D01*
X58655075Y-81413596D01*
X58740985Y-81405777D01*
X58855664Y-81395341D01*
X58855667Y-81395340D01*
X58861803Y-81394782D01*
X58867709Y-81393044D01*
X58867713Y-81393043D01*
X59055031Y-81337912D01*
X59055030Y-81337912D01*
X59060940Y-81336173D01*
X59244900Y-81240001D01*
X59250827Y-81235236D01*
X59304773Y-81191862D01*
X59406677Y-81109929D01*
X59412162Y-81103393D01*
X59536150Y-80955629D01*
X59540109Y-80950911D01*
X59543075Y-80945515D01*
X59543081Y-80945507D01*
X59551387Y-80930399D01*
X59601733Y-80880341D01*
X59671150Y-80865449D01*
X59737599Y-80890451D01*
X59769911Y-80928275D01*
X59770285Y-80928026D01*
X59772337Y-80931115D01*
X59773053Y-80931953D01*
X59776587Y-80938599D01*
X59792531Y-80958148D01*
X59903890Y-81094689D01*
X59903893Y-81094692D01*
X59907785Y-81099464D01*
X59912533Y-81103392D01*
X59912534Y-81103393D01*
X59949448Y-81133931D01*
X60067730Y-81231783D01*
X60073147Y-81234712D01*
X60073150Y-81234714D01*
X60244910Y-81327584D01*
X60244915Y-81327586D01*
X60250330Y-81330514D01*
X60448629Y-81391898D01*
X60454754Y-81392542D01*
X60454755Y-81392542D01*
X60648946Y-81412952D01*
X60648948Y-81412952D01*
X60655075Y-81413596D01*
X60740985Y-81405777D01*
X60855664Y-81395341D01*
X60855667Y-81395340D01*
X60861803Y-81394782D01*
X60867709Y-81393044D01*
X60867713Y-81393043D01*
X61055031Y-81337912D01*
X61055030Y-81337912D01*
X61060940Y-81336173D01*
X61244900Y-81240001D01*
X61250827Y-81235236D01*
X61304773Y-81191862D01*
X61406677Y-81109929D01*
X61412162Y-81103393D01*
X61536150Y-80955629D01*
X61540109Y-80950911D01*
X61543075Y-80945515D01*
X61543081Y-80945507D01*
X61551387Y-80930399D01*
X61601733Y-80880341D01*
X61671150Y-80865449D01*
X61737599Y-80890451D01*
X61769911Y-80928275D01*
X61770285Y-80928026D01*
X61772337Y-80931115D01*
X61773053Y-80931953D01*
X61776587Y-80938599D01*
X61792531Y-80958148D01*
X61903890Y-81094689D01*
X61903893Y-81094692D01*
X61907785Y-81099464D01*
X61912533Y-81103392D01*
X61912534Y-81103393D01*
X61935898Y-81122721D01*
X61983317Y-81161950D01*
X62023054Y-81220782D01*
X62029000Y-81259033D01*
X62029000Y-91836509D01*
X62008998Y-91904630D01*
X61992095Y-91925605D01*
X61688103Y-92229596D01*
X61625791Y-92263621D01*
X61599008Y-92266500D01*
X52278767Y-92266500D01*
X52267584Y-92265973D01*
X52260091Y-92264298D01*
X52252165Y-92264547D01*
X52252164Y-92264547D01*
X52192014Y-92266438D01*
X52188055Y-92266500D01*
X52160144Y-92266500D01*
X52156210Y-92266997D01*
X52156209Y-92266997D01*
X52156144Y-92267005D01*
X52144307Y-92267938D01*
X52112490Y-92268938D01*
X52108029Y-92269078D01*
X52100110Y-92269327D01*
X52082454Y-92274456D01*
X52080658Y-92274978D01*
X52061306Y-92278986D01*
X52054235Y-92279880D01*
X52041203Y-92281526D01*
X52033834Y-92284443D01*
X52033832Y-92284444D01*
X52000097Y-92297800D01*
X51988869Y-92301645D01*
X51946407Y-92313982D01*
X51939584Y-92318017D01*
X51939582Y-92318018D01*
X51928972Y-92324293D01*
X51911224Y-92332988D01*
X51892383Y-92340448D01*
X51885967Y-92345110D01*
X51885966Y-92345110D01*
X51856613Y-92366436D01*
X51846692Y-92372952D01*
X51808638Y-92395458D01*
X51803031Y-92401064D01*
X51794315Y-92409780D01*
X51779282Y-92422620D01*
X51762893Y-92434528D01*
X51757841Y-92440635D01*
X51734712Y-92468593D01*
X51726722Y-92477374D01*
X51395242Y-92808853D01*
X51386963Y-92816387D01*
X51380482Y-92820500D01*
X51334044Y-92869952D01*
X51333856Y-92870152D01*
X51331101Y-92872994D01*
X51311365Y-92892730D01*
X51308885Y-92895927D01*
X51301182Y-92904947D01*
X51270914Y-92937179D01*
X51267095Y-92944125D01*
X51267093Y-92944128D01*
X51261152Y-92954934D01*
X51250301Y-92971453D01*
X51237886Y-92987459D01*
X51234741Y-92994728D01*
X51234738Y-92994732D01*
X51220326Y-93028037D01*
X51215109Y-93038687D01*
X51193805Y-93077440D01*
X51191834Y-93085115D01*
X51191834Y-93085116D01*
X51188767Y-93097062D01*
X51182363Y-93115766D01*
X51174319Y-93134355D01*
X51173080Y-93142177D01*
X51173077Y-93142188D01*
X51167401Y-93178024D01*
X51164995Y-93189644D01*
X51155972Y-93224789D01*
X51154000Y-93232470D01*
X51154000Y-93252724D01*
X51152449Y-93272434D01*
X51149280Y-93292443D01*
X51150026Y-93300335D01*
X51153441Y-93336461D01*
X51154000Y-93348319D01*
X51154000Y-97547906D01*
X51133998Y-97616027D01*
X51117095Y-97637001D01*
X49524500Y-99229595D01*
X49462188Y-99263621D01*
X49435405Y-99266500D01*
X48959500Y-99266500D01*
X48891379Y-99246498D01*
X48844886Y-99192842D01*
X48833500Y-99140500D01*
X48833500Y-98787928D01*
X48832343Y-98776778D01*
X48823419Y-98690765D01*
X48823418Y-98690761D01*
X48822707Y-98683907D01*
X48812247Y-98652553D01*
X48769972Y-98525841D01*
X48767654Y-98518893D01*
X48676116Y-98370969D01*
X48659618Y-98354500D01*
X48558184Y-98253242D01*
X48558179Y-98253238D01*
X48553003Y-98248071D01*
X48546772Y-98244230D01*
X48411150Y-98160631D01*
X48411148Y-98160630D01*
X48404920Y-98156791D01*
X48239809Y-98102026D01*
X48232973Y-98101326D01*
X48232970Y-98101325D01*
X48181474Y-98096049D01*
X48137072Y-98091500D01*
X47562928Y-98091500D01*
X47559682Y-98091837D01*
X47559678Y-98091837D01*
X47465765Y-98101581D01*
X47465761Y-98101582D01*
X47458907Y-98102293D01*
X47452371Y-98104474D01*
X47452369Y-98104474D01*
X47341356Y-98141511D01*
X47293893Y-98157346D01*
X47145969Y-98248884D01*
X47140796Y-98254066D01*
X47028242Y-98366816D01*
X47028238Y-98366821D01*
X47023071Y-98371997D01*
X47019231Y-98378227D01*
X47019230Y-98378228D01*
X46986321Y-98431616D01*
X46933548Y-98479110D01*
X46879061Y-98491500D01*
X46820905Y-98491500D01*
X46752784Y-98471498D01*
X46713764Y-98431807D01*
X46676116Y-98370969D01*
X46659618Y-98354500D01*
X46558184Y-98253242D01*
X46558179Y-98253238D01*
X46553003Y-98248071D01*
X46546772Y-98244230D01*
X46411150Y-98160631D01*
X46411148Y-98160630D01*
X46404920Y-98156791D01*
X46239809Y-98102026D01*
X46232973Y-98101326D01*
X46232970Y-98101325D01*
X46181474Y-98096049D01*
X46137072Y-98091500D01*
X45562928Y-98091500D01*
X45559682Y-98091837D01*
X45559678Y-98091837D01*
X45465765Y-98101581D01*
X45465761Y-98101582D01*
X45458907Y-98102293D01*
X45452371Y-98104474D01*
X45452369Y-98104474D01*
X45341356Y-98141511D01*
X45293893Y-98157346D01*
X45145969Y-98248884D01*
X45140796Y-98254066D01*
X45028242Y-98366816D01*
X45028238Y-98366821D01*
X45023071Y-98371997D01*
X45019231Y-98378227D01*
X45019230Y-98378228D01*
X44936364Y-98512662D01*
X44931791Y-98520080D01*
X44877026Y-98685191D01*
X44866500Y-98787928D01*
X44866500Y-99462072D01*
X44877293Y-99566093D01*
X44932346Y-99731107D01*
X45023884Y-99879031D01*
X45056141Y-99911231D01*
X45090220Y-99973512D01*
X45085218Y-100044332D01*
X45056296Y-100089422D01*
X45028637Y-100117129D01*
X45019625Y-100128540D01*
X44936088Y-100264063D01*
X44929944Y-100277241D01*
X44879685Y-100428766D01*
X44876819Y-100442132D01*
X44867328Y-100534770D01*
X44867000Y-100541185D01*
X44867000Y-100602885D01*
X44871475Y-100618124D01*
X44872865Y-100619329D01*
X44880548Y-100621000D01*
X45978000Y-100621000D01*
X46046121Y-100641002D01*
X46092614Y-100694658D01*
X46104000Y-100747000D01*
X46104000Y-101889885D01*
X46108475Y-101905124D01*
X46109865Y-101906329D01*
X46117548Y-101908000D01*
X46133766Y-101908000D01*
X46140282Y-101907663D01*
X46234132Y-101897925D01*
X46247528Y-101895032D01*
X46398953Y-101844512D01*
X46412115Y-101838347D01*
X46547492Y-101754574D01*
X46558890Y-101745540D01*
X46671363Y-101632871D01*
X46680375Y-101621460D01*
X46742406Y-101520827D01*
X46795178Y-101473334D01*
X46865250Y-101461910D01*
X46930374Y-101490184D01*
X46956807Y-101520635D01*
X47023884Y-101629031D01*
X47029066Y-101634204D01*
X47141816Y-101746758D01*
X47141821Y-101746762D01*
X47146997Y-101751929D01*
X47153227Y-101755769D01*
X47153228Y-101755770D01*
X47230831Y-101803605D01*
X47295080Y-101843209D01*
X47460191Y-101897974D01*
X47467027Y-101898674D01*
X47467030Y-101898675D01*
X47514370Y-101903525D01*
X47562928Y-101908500D01*
X48137072Y-101908500D01*
X48140318Y-101908163D01*
X48140322Y-101908163D01*
X48234235Y-101898419D01*
X48234239Y-101898418D01*
X48241093Y-101897707D01*
X48247629Y-101895526D01*
X48247631Y-101895526D01*
X48395008Y-101846357D01*
X48406107Y-101842654D01*
X48554031Y-101751116D01*
X48577502Y-101727604D01*
X48671758Y-101633184D01*
X48671762Y-101633179D01*
X48676929Y-101628003D01*
X48715347Y-101565678D01*
X48721972Y-101554930D01*
X58137725Y-101554930D01*
X58155572Y-101781699D01*
X58157115Y-101791446D01*
X58210217Y-102012627D01*
X58213266Y-102022012D01*
X58300313Y-102232163D01*
X58304795Y-102240958D01*
X58407432Y-102408445D01*
X58417890Y-102417907D01*
X58426666Y-102414124D01*
X59277978Y-101562812D01*
X59284356Y-101551132D01*
X60014408Y-101551132D01*
X60014539Y-101552965D01*
X60018790Y-101559580D01*
X60870290Y-102411080D01*
X60882670Y-102417840D01*
X60890320Y-102412113D01*
X60995205Y-102240958D01*
X60999687Y-102232163D01*
X61086734Y-102022012D01*
X61089783Y-102012627D01*
X61142885Y-101791446D01*
X61144428Y-101781699D01*
X61162275Y-101554930D01*
X61162275Y-101545070D01*
X61144428Y-101318301D01*
X61142885Y-101308554D01*
X61089783Y-101087373D01*
X61086734Y-101077988D01*
X60999687Y-100867837D01*
X60995205Y-100859042D01*
X60892568Y-100691555D01*
X60882110Y-100682093D01*
X60873334Y-100685876D01*
X60022022Y-101537188D01*
X60014408Y-101551132D01*
X59284356Y-101551132D01*
X59285592Y-101548868D01*
X59285461Y-101547035D01*
X59281210Y-101540420D01*
X58429710Y-100688920D01*
X58417330Y-100682160D01*
X58409680Y-100687887D01*
X58304795Y-100859042D01*
X58300313Y-100867837D01*
X58213266Y-101077988D01*
X58210217Y-101087373D01*
X58157115Y-101308554D01*
X58155572Y-101318301D01*
X58137725Y-101545070D01*
X58137725Y-101554930D01*
X48721972Y-101554930D01*
X48764369Y-101486150D01*
X48764370Y-101486148D01*
X48768209Y-101479920D01*
X48822974Y-101314809D01*
X48825950Y-101285768D01*
X48833172Y-101215271D01*
X48833500Y-101212072D01*
X48833500Y-100659500D01*
X48853502Y-100591379D01*
X48907158Y-100544886D01*
X48959500Y-100533500D01*
X49671233Y-100533500D01*
X49682416Y-100534027D01*
X49689909Y-100535702D01*
X49697835Y-100535453D01*
X49697836Y-100535453D01*
X49757986Y-100533562D01*
X49761945Y-100533500D01*
X49789856Y-100533500D01*
X49793791Y-100533003D01*
X49793856Y-100532995D01*
X49805693Y-100532062D01*
X49837951Y-100531048D01*
X49841970Y-100530922D01*
X49849889Y-100530673D01*
X49869343Y-100525021D01*
X49888700Y-100521013D01*
X49900930Y-100519468D01*
X49900931Y-100519468D01*
X49908797Y-100518474D01*
X49916168Y-100515555D01*
X49916170Y-100515555D01*
X49949912Y-100502196D01*
X49961142Y-100498351D01*
X49995983Y-100488229D01*
X49995984Y-100488229D01*
X50003593Y-100486018D01*
X50010412Y-100481985D01*
X50010417Y-100481983D01*
X50021028Y-100475707D01*
X50038776Y-100467012D01*
X50057617Y-100459552D01*
X50076828Y-100445595D01*
X50093387Y-100433564D01*
X50103307Y-100427048D01*
X50134535Y-100408580D01*
X50134538Y-100408578D01*
X50141362Y-100404542D01*
X50155683Y-100390221D01*
X50170717Y-100377380D01*
X50180694Y-100370131D01*
X50187107Y-100365472D01*
X50215298Y-100331395D01*
X50223288Y-100322616D01*
X50228014Y-100317890D01*
X58782093Y-100317890D01*
X58785876Y-100326666D01*
X59637188Y-101177978D01*
X59651132Y-101185592D01*
X59652965Y-101185461D01*
X59659580Y-101181210D01*
X60511080Y-100329710D01*
X60517840Y-100317330D01*
X60512113Y-100309680D01*
X60340958Y-100204795D01*
X60332163Y-100200313D01*
X60122012Y-100113266D01*
X60112627Y-100110217D01*
X59891446Y-100057115D01*
X59881699Y-100055572D01*
X59654930Y-100037725D01*
X59645070Y-100037725D01*
X59418301Y-100055572D01*
X59408554Y-100057115D01*
X59187373Y-100110217D01*
X59177988Y-100113266D01*
X58967837Y-100200313D01*
X58959042Y-100204795D01*
X58791555Y-100307432D01*
X58782093Y-100317890D01*
X50228014Y-100317890D01*
X52179747Y-98366157D01*
X52188037Y-98358613D01*
X52194518Y-98354500D01*
X52241159Y-98304832D01*
X52243913Y-98301991D01*
X52263634Y-98282270D01*
X52266111Y-98279077D01*
X52273816Y-98270056D01*
X52297316Y-98245030D01*
X52304086Y-98237821D01*
X52313847Y-98220066D01*
X52324698Y-98203547D01*
X52337114Y-98187541D01*
X52350421Y-98156791D01*
X52354674Y-98146963D01*
X52359891Y-98136313D01*
X52381195Y-98097560D01*
X52386233Y-98077937D01*
X52392637Y-98059234D01*
X52397533Y-98047920D01*
X52397533Y-98047919D01*
X52400681Y-98040645D01*
X52401920Y-98032822D01*
X52401923Y-98032812D01*
X52407599Y-97996976D01*
X52410005Y-97985356D01*
X52419028Y-97950211D01*
X52419028Y-97950210D01*
X52421000Y-97942530D01*
X52421000Y-97922276D01*
X52422551Y-97902565D01*
X52424480Y-97890386D01*
X52425720Y-97882557D01*
X52421559Y-97838538D01*
X52421000Y-97826681D01*
X52421000Y-96934500D01*
X52441002Y-96866379D01*
X52494658Y-96819886D01*
X52547000Y-96808500D01*
X53260634Y-96808500D01*
X53322816Y-96801745D01*
X53459205Y-96750615D01*
X53575761Y-96663261D01*
X53663115Y-96546705D01*
X53675301Y-96514199D01*
X53717943Y-96457435D01*
X53784504Y-96432735D01*
X53853853Y-96447942D01*
X53890927Y-96478793D01*
X53907785Y-96499464D01*
X53912533Y-96503392D01*
X53912534Y-96503393D01*
X53964484Y-96546370D01*
X54067730Y-96631783D01*
X54073147Y-96634712D01*
X54073150Y-96634714D01*
X54244910Y-96727584D01*
X54244915Y-96727586D01*
X54250330Y-96730514D01*
X54448629Y-96791898D01*
X54454754Y-96792542D01*
X54454755Y-96792542D01*
X54648946Y-96812952D01*
X54648948Y-96812952D01*
X54655075Y-96813596D01*
X54744133Y-96805491D01*
X54855664Y-96795341D01*
X54855667Y-96795340D01*
X54861803Y-96794782D01*
X54867709Y-96793044D01*
X54867713Y-96793043D01*
X55055031Y-96737912D01*
X55055030Y-96737912D01*
X55060940Y-96736173D01*
X55244900Y-96640001D01*
X55406677Y-96509929D01*
X55412162Y-96503393D01*
X55536150Y-96355629D01*
X55540109Y-96350911D01*
X55543075Y-96345515D01*
X55543081Y-96345507D01*
X55551387Y-96330399D01*
X55601733Y-96280341D01*
X55671150Y-96265449D01*
X55737599Y-96290451D01*
X55769911Y-96328275D01*
X55770285Y-96328026D01*
X55772337Y-96331115D01*
X55773053Y-96331953D01*
X55776587Y-96338599D01*
X55825417Y-96398471D01*
X55903890Y-96494689D01*
X55903893Y-96494692D01*
X55907785Y-96499464D01*
X55912533Y-96503392D01*
X55912534Y-96503393D01*
X55964484Y-96546370D01*
X56067730Y-96631783D01*
X56073147Y-96634712D01*
X56073150Y-96634714D01*
X56244910Y-96727584D01*
X56244915Y-96727586D01*
X56250330Y-96730514D01*
X56315266Y-96750615D01*
X56442742Y-96790076D01*
X56442745Y-96790077D01*
X56448629Y-96791898D01*
X56454756Y-96792542D01*
X56481387Y-96795341D01*
X56598168Y-96807615D01*
X56663825Y-96834628D01*
X56674093Y-96843830D01*
X57022510Y-97192247D01*
X57030054Y-97200537D01*
X57034167Y-97207018D01*
X57039944Y-97212443D01*
X57083834Y-97253658D01*
X57086676Y-97256413D01*
X57106398Y-97276135D01*
X57109522Y-97278558D01*
X57109526Y-97278562D01*
X57109591Y-97278612D01*
X57118612Y-97286317D01*
X57150846Y-97316586D01*
X57157794Y-97320405D01*
X57157796Y-97320407D01*
X57168599Y-97326346D01*
X57185126Y-97337202D01*
X57194865Y-97344757D01*
X57194867Y-97344758D01*
X57201127Y-97349614D01*
X57241707Y-97367174D01*
X57252355Y-97372391D01*
X57291107Y-97393695D01*
X57298783Y-97395666D01*
X57298786Y-97395667D01*
X57310729Y-97398733D01*
X57329434Y-97405137D01*
X57348022Y-97413181D01*
X57355845Y-97414420D01*
X57355855Y-97414423D01*
X57391691Y-97420099D01*
X57403311Y-97422505D01*
X57438456Y-97431528D01*
X57446137Y-97433500D01*
X57466391Y-97433500D01*
X57486101Y-97435051D01*
X57506110Y-97438220D01*
X57514002Y-97437474D01*
X57550128Y-97434059D01*
X57561986Y-97433500D01*
X62065500Y-97433500D01*
X62133621Y-97453502D01*
X62180114Y-97507158D01*
X62191500Y-97559500D01*
X62191500Y-102046233D01*
X62190973Y-102057416D01*
X62189298Y-102064909D01*
X62189547Y-102072835D01*
X62189547Y-102072836D01*
X62191438Y-102132986D01*
X62191500Y-102136945D01*
X62191500Y-102164856D01*
X62191997Y-102168790D01*
X62191997Y-102168791D01*
X62192005Y-102168856D01*
X62192938Y-102180693D01*
X62194327Y-102224889D01*
X62199061Y-102241183D01*
X62199978Y-102244339D01*
X62203987Y-102263700D01*
X62206526Y-102283797D01*
X62209445Y-102291168D01*
X62209445Y-102291170D01*
X62222804Y-102324912D01*
X62226649Y-102336142D01*
X62238982Y-102378593D01*
X62243015Y-102385412D01*
X62243017Y-102385417D01*
X62249293Y-102396028D01*
X62257988Y-102413776D01*
X62265448Y-102432617D01*
X62270110Y-102439033D01*
X62270110Y-102439034D01*
X62291436Y-102468387D01*
X62297952Y-102478307D01*
X62320458Y-102516362D01*
X62334779Y-102530683D01*
X62347619Y-102545716D01*
X62359528Y-102562107D01*
X62365633Y-102567158D01*
X62365638Y-102567163D01*
X62393604Y-102590299D01*
X62402382Y-102598287D01*
X63029595Y-103225500D01*
X63063621Y-103287812D01*
X63066500Y-103314595D01*
X63066500Y-106311572D01*
X63046498Y-106379693D01*
X63029595Y-106400668D01*
X62432742Y-106997520D01*
X62424463Y-107005054D01*
X62417982Y-107009167D01*
X62371357Y-107058818D01*
X62368602Y-107061660D01*
X62348865Y-107081397D01*
X62346385Y-107084594D01*
X62338682Y-107093614D01*
X62308414Y-107125846D01*
X62304595Y-107132792D01*
X62304593Y-107132795D01*
X62298652Y-107143601D01*
X62287801Y-107160120D01*
X62275386Y-107176126D01*
X62272241Y-107183395D01*
X62272238Y-107183399D01*
X62257826Y-107216704D01*
X62252609Y-107227354D01*
X62231305Y-107266107D01*
X62229334Y-107273782D01*
X62229334Y-107273783D01*
X62226267Y-107285729D01*
X62219863Y-107304433D01*
X62211819Y-107323022D01*
X62210580Y-107330845D01*
X62210577Y-107330855D01*
X62204901Y-107366691D01*
X62202495Y-107378311D01*
X62191500Y-107421137D01*
X62191500Y-107441391D01*
X62189949Y-107461101D01*
X62186780Y-107481110D01*
X62187526Y-107489002D01*
X62190941Y-107525128D01*
X62191500Y-107536986D01*
X62191500Y-108520066D01*
X62190973Y-108531249D01*
X62189298Y-108538742D01*
X62189547Y-108546668D01*
X62189547Y-108546669D01*
X62191438Y-108606819D01*
X62191500Y-108610778D01*
X62191500Y-108638689D01*
X62191997Y-108642623D01*
X62191997Y-108642624D01*
X62192005Y-108642689D01*
X62192938Y-108654526D01*
X62194327Y-108698722D01*
X62199978Y-108718172D01*
X62203987Y-108737533D01*
X62206526Y-108757630D01*
X62209445Y-108765001D01*
X62209445Y-108765003D01*
X62222804Y-108798745D01*
X62226649Y-108809975D01*
X62238982Y-108852426D01*
X62243015Y-108859245D01*
X62243017Y-108859250D01*
X62249293Y-108869861D01*
X62257988Y-108887609D01*
X62265448Y-108906450D01*
X62270110Y-108912866D01*
X62270110Y-108912867D01*
X62291436Y-108942220D01*
X62297952Y-108952140D01*
X62301712Y-108958497D01*
X62320458Y-108990195D01*
X62334779Y-109004516D01*
X62347619Y-109019549D01*
X62359528Y-109035940D01*
X62365634Y-109040991D01*
X62393605Y-109064131D01*
X62402384Y-109072121D01*
X62606668Y-109276405D01*
X62640694Y-109338717D01*
X62635629Y-109409532D01*
X62593082Y-109466368D01*
X62526562Y-109491179D01*
X62517573Y-109491500D01*
X60612376Y-109491500D01*
X60544255Y-109471498D01*
X60497762Y-109417842D01*
X60487658Y-109347568D01*
X60518144Y-109282661D01*
X60514124Y-109273334D01*
X59662812Y-108422022D01*
X59648868Y-108414408D01*
X59647035Y-108414539D01*
X59640420Y-108418790D01*
X58788920Y-109270290D01*
X58782160Y-109282670D01*
X58787641Y-109289992D01*
X58812451Y-109356512D01*
X58797359Y-109425886D01*
X58747157Y-109476088D01*
X58686772Y-109491500D01*
X57734500Y-109491500D01*
X57666379Y-109471498D01*
X57619886Y-109417842D01*
X57608500Y-109365500D01*
X57608500Y-108054930D01*
X58137725Y-108054930D01*
X58155572Y-108281699D01*
X58157115Y-108291446D01*
X58210217Y-108512627D01*
X58213266Y-108522012D01*
X58300313Y-108732163D01*
X58304795Y-108740958D01*
X58407432Y-108908445D01*
X58417890Y-108917907D01*
X58426666Y-108914124D01*
X59277978Y-108062812D01*
X59284356Y-108051132D01*
X60014408Y-108051132D01*
X60014539Y-108052965D01*
X60018790Y-108059580D01*
X60870290Y-108911080D01*
X60882670Y-108917840D01*
X60890320Y-108912113D01*
X60995205Y-108740958D01*
X60999687Y-108732163D01*
X61086734Y-108522012D01*
X61089783Y-108512627D01*
X61142885Y-108291446D01*
X61144428Y-108281699D01*
X61162275Y-108054930D01*
X61162275Y-108045070D01*
X61144428Y-107818301D01*
X61142885Y-107808554D01*
X61089783Y-107587373D01*
X61086734Y-107577988D01*
X60999687Y-107367837D01*
X60995205Y-107359042D01*
X60892568Y-107191555D01*
X60882110Y-107182093D01*
X60873334Y-107185876D01*
X60022022Y-108037188D01*
X60014408Y-108051132D01*
X59284356Y-108051132D01*
X59285592Y-108048868D01*
X59285461Y-108047035D01*
X59281210Y-108040420D01*
X58429710Y-107188920D01*
X58417330Y-107182160D01*
X58409680Y-107187887D01*
X58304795Y-107359042D01*
X58300313Y-107367837D01*
X58213266Y-107577988D01*
X58210217Y-107587373D01*
X58157115Y-107808554D01*
X58155572Y-107818301D01*
X58137725Y-108045070D01*
X58137725Y-108054930D01*
X57608500Y-108054930D01*
X57608500Y-108008623D01*
X57608502Y-108007853D01*
X57608800Y-107959102D01*
X57608976Y-107930279D01*
X57602515Y-107907672D01*
X57600850Y-107901847D01*
X57597272Y-107885085D01*
X57594352Y-107864698D01*
X57593080Y-107855813D01*
X57582451Y-107832436D01*
X57576004Y-107814913D01*
X57574348Y-107809120D01*
X57568949Y-107790229D01*
X57564156Y-107782632D01*
X57553170Y-107765220D01*
X57545030Y-107750135D01*
X57532792Y-107723218D01*
X57516030Y-107703765D01*
X57504927Y-107688761D01*
X57491224Y-107667042D01*
X57484499Y-107661103D01*
X57484496Y-107661099D01*
X57469062Y-107647468D01*
X57457018Y-107635276D01*
X57443573Y-107619673D01*
X57443570Y-107619671D01*
X57437713Y-107612873D01*
X57424009Y-107603990D01*
X57416165Y-107598906D01*
X57401291Y-107587615D01*
X57388783Y-107576569D01*
X57388782Y-107576568D01*
X57382049Y-107570622D01*
X57355287Y-107558057D01*
X57340309Y-107549737D01*
X57323017Y-107538529D01*
X57323012Y-107538527D01*
X57315485Y-107533648D01*
X57306892Y-107531078D01*
X57306887Y-107531076D01*
X57290880Y-107526289D01*
X57273436Y-107519628D01*
X57258324Y-107512533D01*
X57258322Y-107512532D01*
X57250200Y-107508719D01*
X57241333Y-107507338D01*
X57241332Y-107507338D01*
X57230478Y-107505648D01*
X57220983Y-107504170D01*
X57204268Y-107500387D01*
X57184534Y-107494485D01*
X57184528Y-107494484D01*
X57175934Y-107491914D01*
X57166963Y-107491859D01*
X57166962Y-107491859D01*
X57156903Y-107491798D01*
X57141494Y-107491704D01*
X57140711Y-107491671D01*
X57139614Y-107491500D01*
X57108623Y-107491500D01*
X57107853Y-107491498D01*
X57034215Y-107491048D01*
X57034214Y-107491048D01*
X57030279Y-107491024D01*
X57028935Y-107491408D01*
X57027590Y-107491500D01*
X55708623Y-107491500D01*
X55707853Y-107491498D01*
X55707037Y-107491493D01*
X55630279Y-107491024D01*
X55607918Y-107497415D01*
X55601847Y-107499150D01*
X55585085Y-107502728D01*
X55555813Y-107506920D01*
X55547645Y-107510634D01*
X55547644Y-107510634D01*
X55532438Y-107517548D01*
X55514914Y-107523996D01*
X55490229Y-107531051D01*
X55482635Y-107535843D01*
X55482632Y-107535844D01*
X55465220Y-107546830D01*
X55450137Y-107554969D01*
X55423218Y-107567208D01*
X55416416Y-107573069D01*
X55403765Y-107583970D01*
X55388761Y-107595073D01*
X55367042Y-107608776D01*
X55361103Y-107615501D01*
X55361099Y-107615504D01*
X55347468Y-107630938D01*
X55335276Y-107642982D01*
X55319673Y-107656427D01*
X55319671Y-107656430D01*
X55312873Y-107662287D01*
X55307993Y-107669816D01*
X55307992Y-107669817D01*
X55298906Y-107683835D01*
X55287615Y-107698709D01*
X55276569Y-107711217D01*
X55270622Y-107717951D01*
X55265632Y-107728580D01*
X55258058Y-107744711D01*
X55249737Y-107759691D01*
X55238529Y-107776983D01*
X55238527Y-107776988D01*
X55233648Y-107784515D01*
X55231078Y-107793108D01*
X55231076Y-107793113D01*
X55226289Y-107809120D01*
X55219628Y-107826564D01*
X55213831Y-107838912D01*
X55208719Y-107849800D01*
X55207338Y-107858667D01*
X55207338Y-107858668D01*
X55204170Y-107879015D01*
X55200387Y-107895732D01*
X55194485Y-107915466D01*
X55194484Y-107915472D01*
X55191914Y-107924066D01*
X55191859Y-107933037D01*
X55191859Y-107933038D01*
X55191704Y-107958497D01*
X55191671Y-107959289D01*
X55191500Y-107960386D01*
X55191500Y-107991377D01*
X55191498Y-107992147D01*
X55191145Y-108050000D01*
X55191024Y-108069721D01*
X55191408Y-108071065D01*
X55191500Y-108072410D01*
X55191500Y-109365500D01*
X55171498Y-109433621D01*
X55117842Y-109480114D01*
X55065500Y-109491500D01*
X50334500Y-109491500D01*
X50266379Y-109471498D01*
X50219886Y-109417842D01*
X50208500Y-109365500D01*
X50208500Y-108008623D01*
X50208502Y-108007853D01*
X50208800Y-107959102D01*
X50208976Y-107930279D01*
X50202515Y-107907672D01*
X50200850Y-107901847D01*
X50197272Y-107885085D01*
X50194352Y-107864698D01*
X50193080Y-107855813D01*
X50182451Y-107832436D01*
X50176004Y-107814913D01*
X50174348Y-107809120D01*
X50168949Y-107790229D01*
X50164156Y-107782632D01*
X50153170Y-107765220D01*
X50145030Y-107750135D01*
X50132792Y-107723218D01*
X50116030Y-107703765D01*
X50104927Y-107688761D01*
X50091224Y-107667042D01*
X50084499Y-107661103D01*
X50084496Y-107661099D01*
X50069062Y-107647468D01*
X50057018Y-107635276D01*
X50043573Y-107619673D01*
X50043570Y-107619671D01*
X50037713Y-107612873D01*
X50024009Y-107603990D01*
X50016165Y-107598906D01*
X50001291Y-107587615D01*
X49988783Y-107576569D01*
X49988782Y-107576568D01*
X49982049Y-107570622D01*
X49955287Y-107558057D01*
X49940309Y-107549737D01*
X49923017Y-107538529D01*
X49923012Y-107538527D01*
X49915485Y-107533648D01*
X49906892Y-107531078D01*
X49906887Y-107531076D01*
X49890880Y-107526289D01*
X49873436Y-107519628D01*
X49858324Y-107512533D01*
X49858322Y-107512532D01*
X49850200Y-107508719D01*
X49841333Y-107507338D01*
X49841332Y-107507338D01*
X49830478Y-107505648D01*
X49820983Y-107504170D01*
X49804268Y-107500387D01*
X49784534Y-107494485D01*
X49784528Y-107494484D01*
X49775934Y-107491914D01*
X49766963Y-107491859D01*
X49766962Y-107491859D01*
X49756903Y-107491798D01*
X49741494Y-107491704D01*
X49740711Y-107491671D01*
X49739614Y-107491500D01*
X49708623Y-107491500D01*
X49707853Y-107491498D01*
X49634215Y-107491048D01*
X49634214Y-107491048D01*
X49630279Y-107491024D01*
X49628935Y-107491408D01*
X49627590Y-107491500D01*
X48408623Y-107491500D01*
X48407853Y-107491498D01*
X48407037Y-107491493D01*
X48330279Y-107491024D01*
X48307918Y-107497415D01*
X48301847Y-107499150D01*
X48285085Y-107502728D01*
X48255813Y-107506920D01*
X48247645Y-107510634D01*
X48247644Y-107510634D01*
X48232438Y-107517548D01*
X48214914Y-107523996D01*
X48190229Y-107531051D01*
X48182635Y-107535843D01*
X48182632Y-107535844D01*
X48165220Y-107546830D01*
X48150137Y-107554969D01*
X48123218Y-107567208D01*
X48116416Y-107573069D01*
X48103765Y-107583970D01*
X48088761Y-107595073D01*
X48067042Y-107608776D01*
X48061103Y-107615501D01*
X48061099Y-107615504D01*
X48047468Y-107630938D01*
X48035276Y-107642982D01*
X48019673Y-107656427D01*
X48019671Y-107656430D01*
X48012873Y-107662287D01*
X48007993Y-107669816D01*
X48007992Y-107669817D01*
X47998906Y-107683835D01*
X47987615Y-107698709D01*
X47976569Y-107711217D01*
X47970622Y-107717951D01*
X47965632Y-107728580D01*
X47958058Y-107744711D01*
X47949737Y-107759691D01*
X47938529Y-107776983D01*
X47938527Y-107776988D01*
X47933648Y-107784515D01*
X47931078Y-107793108D01*
X47931076Y-107793113D01*
X47926289Y-107809120D01*
X47919628Y-107826564D01*
X47913831Y-107838912D01*
X47908719Y-107849800D01*
X47907338Y-107858667D01*
X47907338Y-107858668D01*
X47904170Y-107879015D01*
X47900387Y-107895732D01*
X47894485Y-107915466D01*
X47894484Y-107915472D01*
X47891914Y-107924066D01*
X47891859Y-107933037D01*
X47891859Y-107933038D01*
X47891704Y-107958497D01*
X47891671Y-107959289D01*
X47891500Y-107960386D01*
X47891500Y-107991377D01*
X47891498Y-107992147D01*
X47891145Y-108050000D01*
X47891024Y-108069721D01*
X47891408Y-108071065D01*
X47891500Y-108072410D01*
X47891500Y-109365500D01*
X47871498Y-109433621D01*
X47817842Y-109480114D01*
X47765500Y-109491500D01*
X44434500Y-109491500D01*
X44366379Y-109471498D01*
X44319886Y-109417842D01*
X44308500Y-109365500D01*
X44308500Y-106817890D01*
X58782093Y-106817890D01*
X58785876Y-106826666D01*
X59637188Y-107677978D01*
X59651132Y-107685592D01*
X59652965Y-107685461D01*
X59659580Y-107681210D01*
X60511080Y-106829710D01*
X60517840Y-106817330D01*
X60512113Y-106809680D01*
X60340958Y-106704795D01*
X60332163Y-106700313D01*
X60122012Y-106613266D01*
X60112627Y-106610217D01*
X59891446Y-106557115D01*
X59881699Y-106555572D01*
X59654930Y-106537725D01*
X59645070Y-106537725D01*
X59418301Y-106555572D01*
X59408554Y-106557115D01*
X59187373Y-106610217D01*
X59177988Y-106613266D01*
X58967837Y-106700313D01*
X58959042Y-106704795D01*
X58791555Y-106807432D01*
X58782093Y-106817890D01*
X44308500Y-106817890D01*
X44308500Y-102782670D01*
X58782160Y-102782670D01*
X58787887Y-102790320D01*
X58959042Y-102895205D01*
X58967837Y-102899687D01*
X59177988Y-102986734D01*
X59187373Y-102989783D01*
X59408554Y-103042885D01*
X59418301Y-103044428D01*
X59645070Y-103062275D01*
X59654930Y-103062275D01*
X59881699Y-103044428D01*
X59891446Y-103042885D01*
X60112627Y-102989783D01*
X60122012Y-102986734D01*
X60332163Y-102899687D01*
X60340958Y-102895205D01*
X60508445Y-102792568D01*
X60517907Y-102782110D01*
X60514124Y-102773334D01*
X59662812Y-101922022D01*
X59648868Y-101914408D01*
X59647035Y-101914539D01*
X59640420Y-101918790D01*
X58788920Y-102770290D01*
X58782160Y-102782670D01*
X44308500Y-102782670D01*
X44308500Y-101208766D01*
X44867000Y-101208766D01*
X44867337Y-101215282D01*
X44877075Y-101309132D01*
X44879968Y-101322528D01*
X44930488Y-101473953D01*
X44936653Y-101487115D01*
X45020426Y-101622492D01*
X45029460Y-101633890D01*
X45142129Y-101746363D01*
X45153540Y-101755375D01*
X45289063Y-101838912D01*
X45302241Y-101845056D01*
X45453766Y-101895315D01*
X45467132Y-101898181D01*
X45559770Y-101907672D01*
X45566185Y-101908000D01*
X45577885Y-101908000D01*
X45593124Y-101903525D01*
X45594329Y-101902135D01*
X45596000Y-101894452D01*
X45596000Y-101147115D01*
X45591525Y-101131876D01*
X45590135Y-101130671D01*
X45582452Y-101129000D01*
X44885115Y-101129000D01*
X44869876Y-101133475D01*
X44868671Y-101134865D01*
X44867000Y-101142548D01*
X44867000Y-101208766D01*
X44308500Y-101208766D01*
X44308500Y-96716614D01*
X44328502Y-96648493D01*
X44382158Y-96602000D01*
X44432634Y-96590628D01*
X47420022Y-96546370D01*
X50550000Y-96500000D01*
X50550000Y-78150000D01*
X50536696Y-78149901D01*
X50536694Y-78149901D01*
X44433567Y-78104693D01*
X44365596Y-78084186D01*
X44319502Y-78030188D01*
X44308500Y-77978696D01*
X44308500Y-75394669D01*
X46442001Y-75394669D01*
X46442371Y-75401490D01*
X46447895Y-75452352D01*
X46451521Y-75467604D01*
X46496676Y-75588054D01*
X46505214Y-75603649D01*
X46581715Y-75705724D01*
X46594276Y-75718285D01*
X46696351Y-75794786D01*
X46711946Y-75803324D01*
X46832394Y-75848478D01*
X46847649Y-75852105D01*
X46898514Y-75857631D01*
X46905328Y-75858000D01*
X47527885Y-75858000D01*
X47543124Y-75853525D01*
X47544329Y-75852135D01*
X47546000Y-75844452D01*
X47546000Y-75839884D01*
X48054000Y-75839884D01*
X48058475Y-75855123D01*
X48059865Y-75856328D01*
X48067548Y-75857999D01*
X48694669Y-75857999D01*
X48701490Y-75857629D01*
X48752352Y-75852105D01*
X48767604Y-75848479D01*
X48888054Y-75803324D01*
X48903649Y-75794786D01*
X49005724Y-75718285D01*
X49018285Y-75705724D01*
X49094786Y-75603649D01*
X49103324Y-75588054D01*
X49148478Y-75467606D01*
X49152105Y-75452351D01*
X49157631Y-75401486D01*
X49158000Y-75394672D01*
X49158000Y-74772115D01*
X49153525Y-74756876D01*
X49152135Y-74755671D01*
X49144452Y-74754000D01*
X48072115Y-74754000D01*
X48056876Y-74758475D01*
X48055671Y-74759865D01*
X48054000Y-74767548D01*
X48054000Y-75839884D01*
X47546000Y-75839884D01*
X47546000Y-74772115D01*
X47541525Y-74756876D01*
X47540135Y-74755671D01*
X47532452Y-74754000D01*
X46460116Y-74754000D01*
X46444877Y-74758475D01*
X46443672Y-74759865D01*
X46442001Y-74767548D01*
X46442001Y-75394669D01*
X44308500Y-75394669D01*
X44308500Y-71926695D01*
X46437251Y-71926695D01*
X46437548Y-71931848D01*
X46437548Y-71931851D01*
X46443011Y-72026590D01*
X46450110Y-72149715D01*
X46451247Y-72154761D01*
X46451248Y-72154767D01*
X46454035Y-72167132D01*
X46499222Y-72367639D01*
X46583266Y-72574616D01*
X46629395Y-72649892D01*
X46678192Y-72729521D01*
X46699987Y-72765088D01*
X46846250Y-72933938D01*
X46850225Y-72937238D01*
X46850231Y-72937244D01*
X46855425Y-72941556D01*
X46895059Y-73000460D01*
X46896555Y-73071441D01*
X46859439Y-73131962D01*
X46819168Y-73156480D01*
X46711946Y-73196676D01*
X46696351Y-73205214D01*
X46594276Y-73281715D01*
X46581715Y-73294276D01*
X46505214Y-73396351D01*
X46496676Y-73411946D01*
X46451522Y-73532394D01*
X46447895Y-73547649D01*
X46442369Y-73598514D01*
X46442000Y-73605328D01*
X46442000Y-74227885D01*
X46446475Y-74243124D01*
X46447865Y-74244329D01*
X46455548Y-74246000D01*
X49139884Y-74246000D01*
X49155123Y-74241525D01*
X49156328Y-74240135D01*
X49157999Y-74232452D01*
X49157999Y-73698134D01*
X56401500Y-73698134D01*
X56408255Y-73760316D01*
X56459385Y-73896705D01*
X56546739Y-74013261D01*
X56663295Y-74100615D01*
X56799684Y-74151745D01*
X56861866Y-74158500D01*
X58658134Y-74158500D01*
X58720316Y-74151745D01*
X58856705Y-74100615D01*
X58973261Y-74013261D01*
X59060615Y-73896705D01*
X59066172Y-73881883D01*
X59104798Y-73778848D01*
X59147440Y-73722084D01*
X59214001Y-73697384D01*
X59283350Y-73712592D01*
X59318017Y-73740580D01*
X59343218Y-73769673D01*
X59350580Y-73776883D01*
X59514434Y-73912916D01*
X59522881Y-73918831D01*
X59706756Y-74026279D01*
X59716042Y-74030729D01*
X59915001Y-74106703D01*
X59924899Y-74109579D01*
X60028250Y-74130606D01*
X60042299Y-74129410D01*
X60046000Y-74119065D01*
X60046000Y-74118517D01*
X60554000Y-74118517D01*
X60558064Y-74132359D01*
X60571478Y-74134393D01*
X60578184Y-74133534D01*
X60588262Y-74131392D01*
X60792255Y-74070191D01*
X60801842Y-74066433D01*
X60993095Y-73972739D01*
X61001945Y-73967464D01*
X61175328Y-73843792D01*
X61183200Y-73837139D01*
X61334052Y-73686812D01*
X61340730Y-73678965D01*
X61468022Y-73501819D01*
X61469279Y-73502722D01*
X61516373Y-73459362D01*
X61586311Y-73447145D01*
X61651751Y-73474678D01*
X61679579Y-73506511D01*
X61693069Y-73528525D01*
X61739987Y-73605088D01*
X61886250Y-73773938D01*
X62058126Y-73916632D01*
X62251000Y-74029338D01*
X62459692Y-74109030D01*
X62464760Y-74110061D01*
X62464763Y-74110062D01*
X62559862Y-74129410D01*
X62678597Y-74153567D01*
X62683772Y-74153757D01*
X62683774Y-74153757D01*
X62896673Y-74161564D01*
X62896677Y-74161564D01*
X62901837Y-74161753D01*
X62906957Y-74161097D01*
X62906959Y-74161097D01*
X63118288Y-74134025D01*
X63118289Y-74134025D01*
X63123416Y-74133368D01*
X63128366Y-74131883D01*
X63332429Y-74070661D01*
X63332434Y-74070659D01*
X63337384Y-74069174D01*
X63537994Y-73970896D01*
X63719860Y-73841173D01*
X63742318Y-73818794D01*
X63864152Y-73697384D01*
X63878096Y-73683489D01*
X63917347Y-73628866D01*
X64008453Y-73502077D01*
X64009776Y-73503028D01*
X64056645Y-73459857D01*
X64126580Y-73447625D01*
X64192026Y-73475144D01*
X64219875Y-73506994D01*
X64233069Y-73528525D01*
X64279987Y-73605088D01*
X64426250Y-73773938D01*
X64598126Y-73916632D01*
X64791000Y-74029338D01*
X64999692Y-74109030D01*
X65004760Y-74110061D01*
X65004763Y-74110062D01*
X65099862Y-74129410D01*
X65218597Y-74153567D01*
X65223772Y-74153757D01*
X65223774Y-74153757D01*
X65436673Y-74161564D01*
X65436677Y-74161564D01*
X65441837Y-74161753D01*
X65446957Y-74161097D01*
X65446959Y-74161097D01*
X65658288Y-74134025D01*
X65658289Y-74134025D01*
X65663416Y-74133368D01*
X65668366Y-74131883D01*
X65872429Y-74070661D01*
X65872434Y-74070659D01*
X65877384Y-74069174D01*
X66077994Y-73970896D01*
X66259860Y-73841173D01*
X66282318Y-73818794D01*
X66404152Y-73697384D01*
X66418096Y-73683489D01*
X66457347Y-73628866D01*
X66548453Y-73502077D01*
X66549776Y-73503028D01*
X66596645Y-73459857D01*
X66666580Y-73447625D01*
X66732026Y-73475144D01*
X66759875Y-73506994D01*
X66773069Y-73528525D01*
X66819987Y-73605088D01*
X66966250Y-73773938D01*
X67138126Y-73916632D01*
X67331000Y-74029338D01*
X67539692Y-74109030D01*
X67544760Y-74110061D01*
X67544763Y-74110062D01*
X67639862Y-74129410D01*
X67758597Y-74153567D01*
X67763772Y-74153757D01*
X67763774Y-74153757D01*
X67976673Y-74161564D01*
X67976677Y-74161564D01*
X67981837Y-74161753D01*
X67986957Y-74161097D01*
X67986959Y-74161097D01*
X68198288Y-74134025D01*
X68198289Y-74134025D01*
X68203416Y-74133368D01*
X68208366Y-74131883D01*
X68412429Y-74070661D01*
X68412434Y-74070659D01*
X68417384Y-74069174D01*
X68617994Y-73970896D01*
X68799860Y-73841173D01*
X68822318Y-73818794D01*
X68944152Y-73697384D01*
X68958096Y-73683489D01*
X68997347Y-73628866D01*
X69088453Y-73502077D01*
X69089776Y-73503028D01*
X69136645Y-73459857D01*
X69206580Y-73447625D01*
X69272026Y-73475144D01*
X69299875Y-73506994D01*
X69313069Y-73528525D01*
X69359987Y-73605088D01*
X69506250Y-73773938D01*
X69678126Y-73916632D01*
X69871000Y-74029338D01*
X70079692Y-74109030D01*
X70084760Y-74110061D01*
X70084763Y-74110062D01*
X70179862Y-74129410D01*
X70298597Y-74153567D01*
X70303772Y-74153757D01*
X70303774Y-74153757D01*
X70516673Y-74161564D01*
X70516677Y-74161564D01*
X70521837Y-74161753D01*
X70526957Y-74161097D01*
X70526959Y-74161097D01*
X70738288Y-74134025D01*
X70738289Y-74134025D01*
X70743416Y-74133368D01*
X70748366Y-74131883D01*
X70952429Y-74070661D01*
X70952434Y-74070659D01*
X70957384Y-74069174D01*
X71157994Y-73970896D01*
X71339860Y-73841173D01*
X71362318Y-73818794D01*
X71484152Y-73697384D01*
X71498096Y-73683489D01*
X71628453Y-73502077D01*
X71633507Y-73491852D01*
X71725136Y-73306453D01*
X71725137Y-73306451D01*
X71727430Y-73301811D01*
X71792370Y-73088069D01*
X71821529Y-72866590D01*
X71821611Y-72863240D01*
X71822331Y-72833766D01*
X73992000Y-72833766D01*
X73992337Y-72840282D01*
X74002075Y-72934132D01*
X74004968Y-72947528D01*
X74055488Y-73098953D01*
X74061653Y-73112115D01*
X74145426Y-73247492D01*
X74154460Y-73258890D01*
X74267129Y-73371363D01*
X74278540Y-73380375D01*
X74414063Y-73463912D01*
X74427241Y-73470056D01*
X74578766Y-73520315D01*
X74592132Y-73523181D01*
X74684770Y-73532672D01*
X74691185Y-73533000D01*
X74765385Y-73533000D01*
X74780624Y-73528525D01*
X74781829Y-73527135D01*
X74783500Y-73519452D01*
X74783500Y-72822115D01*
X74779025Y-72806876D01*
X74777635Y-72805671D01*
X74769952Y-72804000D01*
X74010115Y-72804000D01*
X73994876Y-72808475D01*
X73993671Y-72809865D01*
X73992000Y-72817548D01*
X73992000Y-72833766D01*
X71822331Y-72833766D01*
X71823074Y-72803365D01*
X71823074Y-72803361D01*
X71823156Y-72800000D01*
X71804852Y-72577361D01*
X71750431Y-72360702D01*
X71714421Y-72277885D01*
X73992000Y-72277885D01*
X73996475Y-72293124D01*
X73997865Y-72294329D01*
X74005548Y-72296000D01*
X74765385Y-72296000D01*
X74780624Y-72291525D01*
X74781829Y-72290135D01*
X74783500Y-72282452D01*
X74783500Y-71585115D01*
X74779025Y-71569876D01*
X74777635Y-71568671D01*
X74769952Y-71567000D01*
X74691234Y-71567000D01*
X74684718Y-71567337D01*
X74590868Y-71577075D01*
X74577472Y-71579968D01*
X74426047Y-71630488D01*
X74412885Y-71636653D01*
X74277508Y-71720426D01*
X74266110Y-71729460D01*
X74153637Y-71842129D01*
X74144625Y-71853540D01*
X74061088Y-71989063D01*
X74054944Y-72002241D01*
X74004685Y-72153766D01*
X74001819Y-72167132D01*
X73992328Y-72259770D01*
X73992000Y-72266185D01*
X73992000Y-72277885D01*
X71714421Y-72277885D01*
X71661354Y-72155840D01*
X71579885Y-72029908D01*
X71542822Y-71972617D01*
X71542820Y-71972614D01*
X71540014Y-71968277D01*
X71389670Y-71803051D01*
X71385619Y-71799852D01*
X71385615Y-71799848D01*
X71218414Y-71667800D01*
X71218410Y-71667798D01*
X71214359Y-71664598D01*
X71178028Y-71644542D01*
X71105071Y-71604268D01*
X71018789Y-71556638D01*
X71013920Y-71554914D01*
X71013916Y-71554912D01*
X70813087Y-71483795D01*
X70813083Y-71483794D01*
X70808212Y-71482069D01*
X70803119Y-71481162D01*
X70803116Y-71481161D01*
X70593373Y-71443800D01*
X70593367Y-71443799D01*
X70588284Y-71442894D01*
X70514452Y-71441992D01*
X70370081Y-71440228D01*
X70370079Y-71440228D01*
X70364911Y-71440165D01*
X70144091Y-71473955D01*
X69931756Y-71543357D01*
X69898352Y-71560746D01*
X69753403Y-71636202D01*
X69733607Y-71646507D01*
X69729474Y-71649610D01*
X69729471Y-71649612D01*
X69559100Y-71777530D01*
X69554965Y-71780635D01*
X69551393Y-71784373D01*
X69434986Y-71906186D01*
X69400629Y-71942138D01*
X69293201Y-72099621D01*
X69238293Y-72144621D01*
X69167768Y-72152792D01*
X69104021Y-72121538D01*
X69083324Y-72097054D01*
X69002822Y-71972617D01*
X69002820Y-71972614D01*
X69000014Y-71968277D01*
X68849670Y-71803051D01*
X68845619Y-71799852D01*
X68845615Y-71799848D01*
X68678414Y-71667800D01*
X68678410Y-71667798D01*
X68674359Y-71664598D01*
X68638028Y-71644542D01*
X68565071Y-71604268D01*
X68478789Y-71556638D01*
X68473920Y-71554914D01*
X68473916Y-71554912D01*
X68273087Y-71483795D01*
X68273083Y-71483794D01*
X68268212Y-71482069D01*
X68263119Y-71481162D01*
X68263116Y-71481161D01*
X68053373Y-71443800D01*
X68053367Y-71443799D01*
X68048284Y-71442894D01*
X67974452Y-71441992D01*
X67830081Y-71440228D01*
X67830079Y-71440228D01*
X67824911Y-71440165D01*
X67604091Y-71473955D01*
X67391756Y-71543357D01*
X67358352Y-71560746D01*
X67213403Y-71636202D01*
X67193607Y-71646507D01*
X67189474Y-71649610D01*
X67189471Y-71649612D01*
X67019100Y-71777530D01*
X67014965Y-71780635D01*
X67011393Y-71784373D01*
X66894986Y-71906186D01*
X66860629Y-71942138D01*
X66753201Y-72099621D01*
X66698293Y-72144621D01*
X66627768Y-72152792D01*
X66564021Y-72121538D01*
X66543324Y-72097054D01*
X66462822Y-71972617D01*
X66462820Y-71972614D01*
X66460014Y-71968277D01*
X66309670Y-71803051D01*
X66305619Y-71799852D01*
X66305615Y-71799848D01*
X66138414Y-71667800D01*
X66138410Y-71667798D01*
X66134359Y-71664598D01*
X66098028Y-71644542D01*
X66025071Y-71604268D01*
X65938789Y-71556638D01*
X65933920Y-71554914D01*
X65933916Y-71554912D01*
X65733087Y-71483795D01*
X65733083Y-71483794D01*
X65728212Y-71482069D01*
X65723119Y-71481162D01*
X65723116Y-71481161D01*
X65513373Y-71443800D01*
X65513367Y-71443799D01*
X65508284Y-71442894D01*
X65434452Y-71441992D01*
X65290081Y-71440228D01*
X65290079Y-71440228D01*
X65284911Y-71440165D01*
X65064091Y-71473955D01*
X64851756Y-71543357D01*
X64818352Y-71560746D01*
X64673403Y-71636202D01*
X64653607Y-71646507D01*
X64649474Y-71649610D01*
X64649471Y-71649612D01*
X64479100Y-71777530D01*
X64474965Y-71780635D01*
X64471393Y-71784373D01*
X64354986Y-71906186D01*
X64320629Y-71942138D01*
X64213201Y-72099621D01*
X64158293Y-72144621D01*
X64087768Y-72152792D01*
X64024021Y-72121538D01*
X64003324Y-72097054D01*
X63922822Y-71972617D01*
X63922820Y-71972614D01*
X63920014Y-71968277D01*
X63769670Y-71803051D01*
X63765619Y-71799852D01*
X63765615Y-71799848D01*
X63598414Y-71667800D01*
X63598410Y-71667798D01*
X63594359Y-71664598D01*
X63558028Y-71644542D01*
X63485071Y-71604268D01*
X63398789Y-71556638D01*
X63393920Y-71554914D01*
X63393916Y-71554912D01*
X63193087Y-71483795D01*
X63193083Y-71483794D01*
X63188212Y-71482069D01*
X63183119Y-71481162D01*
X63183116Y-71481161D01*
X62973373Y-71443800D01*
X62973367Y-71443799D01*
X62968284Y-71442894D01*
X62894452Y-71441992D01*
X62750081Y-71440228D01*
X62750079Y-71440228D01*
X62744911Y-71440165D01*
X62524091Y-71473955D01*
X62311756Y-71543357D01*
X62278352Y-71560746D01*
X62133403Y-71636202D01*
X62113607Y-71646507D01*
X62109474Y-71649610D01*
X62109471Y-71649612D01*
X61939100Y-71777530D01*
X61934965Y-71780635D01*
X61931393Y-71784373D01*
X61814986Y-71906186D01*
X61780629Y-71942138D01*
X61777720Y-71946403D01*
X61777714Y-71946411D01*
X61737396Y-72005515D01*
X61673204Y-72099618D01*
X61672898Y-72100066D01*
X61617987Y-72145069D01*
X61547462Y-72153240D01*
X61483715Y-72121986D01*
X61463018Y-72097502D01*
X61382426Y-71972926D01*
X61376136Y-71964757D01*
X61232806Y-71807240D01*
X61225273Y-71800215D01*
X61058139Y-71668222D01*
X61049552Y-71662517D01*
X60863117Y-71559599D01*
X60853705Y-71555369D01*
X60652959Y-71484280D01*
X60642988Y-71481646D01*
X60571837Y-71468972D01*
X60558540Y-71470432D01*
X60554000Y-71484989D01*
X60554000Y-74118517D01*
X60046000Y-74118517D01*
X60046000Y-71483102D01*
X60042082Y-71469758D01*
X60027806Y-71467771D01*
X59989324Y-71473660D01*
X59979288Y-71476051D01*
X59776868Y-71542212D01*
X59767359Y-71546209D01*
X59578463Y-71644542D01*
X59569738Y-71650036D01*
X59399433Y-71777905D01*
X59391726Y-71784748D01*
X59314478Y-71865584D01*
X59252954Y-71901014D01*
X59182042Y-71897557D01*
X59124255Y-71856311D01*
X59105402Y-71822763D01*
X59063767Y-71711703D01*
X59060615Y-71703295D01*
X58973261Y-71586739D01*
X58856705Y-71499385D01*
X58720316Y-71448255D01*
X58658134Y-71441500D01*
X56861866Y-71441500D01*
X56799684Y-71448255D01*
X56663295Y-71499385D01*
X56546739Y-71586739D01*
X56459385Y-71703295D01*
X56408255Y-71839684D01*
X56401500Y-71901866D01*
X56401500Y-73698134D01*
X49157999Y-73698134D01*
X49157999Y-73605331D01*
X49157629Y-73598510D01*
X49152105Y-73547648D01*
X49148479Y-73532396D01*
X49103324Y-73411946D01*
X49094786Y-73396351D01*
X49018285Y-73294276D01*
X49005724Y-73281715D01*
X48903649Y-73205214D01*
X48888054Y-73196676D01*
X48777813Y-73155348D01*
X48721049Y-73112706D01*
X48696349Y-73046145D01*
X48711557Y-72976796D01*
X48733104Y-72948115D01*
X48834430Y-72847144D01*
X48834440Y-72847132D01*
X48838096Y-72843489D01*
X48856737Y-72817548D01*
X48965435Y-72666277D01*
X48968453Y-72662077D01*
X48973259Y-72652354D01*
X49065136Y-72466453D01*
X49065137Y-72466451D01*
X49067430Y-72461811D01*
X49126866Y-72266185D01*
X49130865Y-72253023D01*
X49130865Y-72253021D01*
X49132370Y-72248069D01*
X49161529Y-72026590D01*
X49161611Y-72023240D01*
X49163074Y-71963365D01*
X49163074Y-71963361D01*
X49163156Y-71960000D01*
X49144852Y-71737361D01*
X49090431Y-71520702D01*
X49001354Y-71315840D01*
X48880014Y-71128277D01*
X48729670Y-70963051D01*
X48725619Y-70959852D01*
X48725615Y-70959848D01*
X48558414Y-70827800D01*
X48558410Y-70827798D01*
X48554359Y-70824598D01*
X48513053Y-70801796D01*
X48463084Y-70751364D01*
X48448312Y-70681921D01*
X48473428Y-70615516D01*
X48500780Y-70588909D01*
X48544603Y-70557650D01*
X48679860Y-70461173D01*
X48838096Y-70303489D01*
X48897594Y-70220689D01*
X48965435Y-70126277D01*
X48968453Y-70122077D01*
X48982422Y-70093814D01*
X49065136Y-69926453D01*
X49065137Y-69926451D01*
X49067430Y-69921811D01*
X49132370Y-69708069D01*
X49161529Y-69486590D01*
X49163156Y-69420000D01*
X49144852Y-69197361D01*
X49090431Y-68980702D01*
X49001354Y-68775840D01*
X48880014Y-68588277D01*
X48729670Y-68423051D01*
X48725619Y-68419852D01*
X48725615Y-68419848D01*
X48558414Y-68287800D01*
X48558410Y-68287798D01*
X48554359Y-68284598D01*
X48549436Y-68281880D01*
X48455326Y-68229929D01*
X48358789Y-68176638D01*
X48353920Y-68174914D01*
X48353916Y-68174912D01*
X48153087Y-68103795D01*
X48153083Y-68103794D01*
X48148212Y-68102069D01*
X48143119Y-68101162D01*
X48143116Y-68101161D01*
X47933373Y-68063800D01*
X47933367Y-68063799D01*
X47928284Y-68062894D01*
X47854452Y-68061992D01*
X47710081Y-68060228D01*
X47710079Y-68060228D01*
X47704911Y-68060165D01*
X47484091Y-68093955D01*
X47271756Y-68163357D01*
X47241443Y-68179137D01*
X47143873Y-68229929D01*
X47073607Y-68266507D01*
X47069474Y-68269610D01*
X47069471Y-68269612D01*
X46924727Y-68378289D01*
X46894965Y-68400635D01*
X46740629Y-68562138D01*
X46614743Y-68746680D01*
X46520688Y-68949305D01*
X46460989Y-69164570D01*
X46437251Y-69386695D01*
X46437548Y-69391848D01*
X46437548Y-69391851D01*
X46443011Y-69486590D01*
X46450110Y-69609715D01*
X46451247Y-69614761D01*
X46451248Y-69614767D01*
X46471119Y-69702939D01*
X46499222Y-69827639D01*
X46537461Y-69921811D01*
X46565759Y-69991500D01*
X46583266Y-70034616D01*
X46628711Y-70108776D01*
X46661503Y-70162287D01*
X46699987Y-70225088D01*
X46846250Y-70393938D01*
X47018126Y-70536632D01*
X47088595Y-70577811D01*
X47091445Y-70579476D01*
X47140169Y-70631114D01*
X47153240Y-70700897D01*
X47126509Y-70766669D01*
X47086055Y-70800027D01*
X47073607Y-70806507D01*
X47069474Y-70809610D01*
X47069471Y-70809612D01*
X47045247Y-70827800D01*
X46894965Y-70940635D01*
X46891393Y-70944373D01*
X46748584Y-71093814D01*
X46740629Y-71102138D01*
X46614743Y-71286680D01*
X46599003Y-71320590D01*
X46523021Y-71484280D01*
X46520688Y-71489305D01*
X46460989Y-71704570D01*
X46437251Y-71926695D01*
X44308500Y-71926695D01*
X44308500Y-67634500D01*
X44328502Y-67566379D01*
X44382158Y-67519886D01*
X44434500Y-67508500D01*
X51365500Y-67508500D01*
X51433621Y-67528502D01*
G37*
%TD.AperFunction*%
%TA.AperFunction,Conductor*%
G36*
X70819559Y-100389898D02*
G01*
X70866052Y-100443554D01*
X70876156Y-100513828D01*
X70847249Y-100577727D01*
X70779443Y-100657117D01*
X70773643Y-100665101D01*
X70654795Y-100859042D01*
X70650313Y-100867837D01*
X70563266Y-101077988D01*
X70560217Y-101087373D01*
X70507115Y-101308554D01*
X70505572Y-101318301D01*
X70487725Y-101545070D01*
X70487725Y-101554930D01*
X70505572Y-101781699D01*
X70507115Y-101791446D01*
X70560217Y-102012627D01*
X70563266Y-102022012D01*
X70650313Y-102232163D01*
X70654795Y-102240958D01*
X70757432Y-102408445D01*
X70767890Y-102417907D01*
X70776666Y-102414124D01*
X71910905Y-101279885D01*
X71973217Y-101245859D01*
X72044032Y-101250924D01*
X72089095Y-101279885D01*
X73220290Y-102411080D01*
X73232670Y-102417840D01*
X73240320Y-102412113D01*
X73345205Y-102240958D01*
X73349687Y-102232163D01*
X73436734Y-102022012D01*
X73439786Y-102012618D01*
X73475185Y-101865174D01*
X73510537Y-101803605D01*
X73573563Y-101770923D01*
X73644254Y-101777504D01*
X73686797Y-101805493D01*
X75080635Y-103199332D01*
X76329595Y-104448292D01*
X76363621Y-104510604D01*
X76366500Y-104537387D01*
X76366500Y-105921233D01*
X76365973Y-105932416D01*
X76364298Y-105939909D01*
X76364547Y-105947835D01*
X76364547Y-105947836D01*
X76366438Y-106007986D01*
X76366500Y-106011945D01*
X76366500Y-106039856D01*
X76366997Y-106043790D01*
X76366997Y-106043791D01*
X76367005Y-106043856D01*
X76367938Y-106055693D01*
X76369327Y-106099889D01*
X76374978Y-106119339D01*
X76378987Y-106138700D01*
X76381526Y-106158797D01*
X76384445Y-106166168D01*
X76384445Y-106166170D01*
X76397804Y-106199912D01*
X76401649Y-106211142D01*
X76413982Y-106253593D01*
X76418015Y-106260412D01*
X76418017Y-106260417D01*
X76424293Y-106271028D01*
X76432988Y-106288776D01*
X76440448Y-106307617D01*
X76445110Y-106314033D01*
X76445110Y-106314034D01*
X76466436Y-106343387D01*
X76472952Y-106353307D01*
X76488557Y-106379693D01*
X76495458Y-106391362D01*
X76509779Y-106405683D01*
X76522619Y-106420716D01*
X76534528Y-106437107D01*
X76540633Y-106442158D01*
X76540638Y-106442163D01*
X76568604Y-106465299D01*
X76577382Y-106473287D01*
X76979595Y-106875500D01*
X77013621Y-106937812D01*
X77016500Y-106964595D01*
X77016500Y-107212072D01*
X77016837Y-107215318D01*
X77016837Y-107215322D01*
X77022107Y-107266107D01*
X77027293Y-107316093D01*
X77029474Y-107322629D01*
X77029474Y-107322631D01*
X77059776Y-107413456D01*
X77082346Y-107481107D01*
X77173884Y-107629031D01*
X77179066Y-107634204D01*
X77291816Y-107746758D01*
X77291821Y-107746762D01*
X77296997Y-107751929D01*
X77303227Y-107755769D01*
X77303228Y-107755770D01*
X77399176Y-107814913D01*
X77445080Y-107843209D01*
X77610191Y-107897974D01*
X77617027Y-107898674D01*
X77617030Y-107898675D01*
X77664370Y-107903525D01*
X77712928Y-107908500D01*
X78287072Y-107908500D01*
X78290318Y-107908163D01*
X78290322Y-107908163D01*
X78384235Y-107898419D01*
X78384239Y-107898418D01*
X78391093Y-107897707D01*
X78397629Y-107895526D01*
X78397631Y-107895526D01*
X78541150Y-107847644D01*
X78556107Y-107842654D01*
X78704031Y-107751116D01*
X78729025Y-107726078D01*
X78821758Y-107633184D01*
X78821762Y-107633179D01*
X78826929Y-107628003D01*
X78848004Y-107593814D01*
X78892994Y-107520826D01*
X78945766Y-107473333D01*
X79015838Y-107461909D01*
X79080962Y-107490183D01*
X79107399Y-107520640D01*
X79170426Y-107622492D01*
X79179460Y-107633890D01*
X79292129Y-107746363D01*
X79303540Y-107755375D01*
X79439063Y-107838912D01*
X79452241Y-107845056D01*
X79603766Y-107895315D01*
X79617132Y-107898181D01*
X79709770Y-107907672D01*
X79716185Y-107908000D01*
X79727885Y-107908000D01*
X79743124Y-107903525D01*
X79744329Y-107902135D01*
X79746000Y-107894452D01*
X79746000Y-106784500D01*
X79766002Y-106716379D01*
X79819658Y-106669886D01*
X79872000Y-106658500D01*
X80128000Y-106658500D01*
X80196121Y-106678502D01*
X80242614Y-106732158D01*
X80254000Y-106784500D01*
X80254000Y-107889885D01*
X80261396Y-107915073D01*
X80266500Y-107950571D01*
X80266500Y-108385405D01*
X80246498Y-108453526D01*
X80229595Y-108474501D01*
X79999499Y-108704596D01*
X79937187Y-108738621D01*
X79910404Y-108741500D01*
X73534391Y-108741500D01*
X73466270Y-108721498D01*
X73419777Y-108667842D01*
X73409673Y-108597568D01*
X73417982Y-108567281D01*
X73436735Y-108522007D01*
X73439783Y-108512627D01*
X73492885Y-108291446D01*
X73494428Y-108281699D01*
X73512275Y-108054930D01*
X73512275Y-108045070D01*
X73494428Y-107818301D01*
X73492885Y-107808554D01*
X73439783Y-107587373D01*
X73436734Y-107577988D01*
X73349687Y-107367837D01*
X73345205Y-107359042D01*
X73242568Y-107191555D01*
X73232110Y-107182093D01*
X73223334Y-107185876D01*
X72089095Y-108320115D01*
X72026783Y-108354141D01*
X71955968Y-108349076D01*
X71910905Y-108320115D01*
X70779710Y-107188920D01*
X70767330Y-107182160D01*
X70759680Y-107187887D01*
X70654795Y-107359042D01*
X70650313Y-107367837D01*
X70563266Y-107577988D01*
X70560217Y-107587373D01*
X70507115Y-107808554D01*
X70505572Y-107818301D01*
X70487725Y-108045070D01*
X70487725Y-108054930D01*
X70505572Y-108281699D01*
X70507115Y-108291446D01*
X70560217Y-108512627D01*
X70563265Y-108522007D01*
X70582018Y-108567281D01*
X70589607Y-108637871D01*
X70557828Y-108701358D01*
X70496770Y-108737586D01*
X70465609Y-108741500D01*
X69034933Y-108741500D01*
X68966812Y-108721498D01*
X68920319Y-108667842D01*
X68910215Y-108597568D01*
X68918524Y-108567283D01*
X68937209Y-108522172D01*
X68937210Y-108522169D01*
X68939105Y-108517594D01*
X68976465Y-108361980D01*
X68993380Y-108291524D01*
X68993381Y-108291518D01*
X68994535Y-108286711D01*
X69013165Y-108050000D01*
X68994535Y-107813289D01*
X68992327Y-107804089D01*
X68951798Y-107635276D01*
X68939105Y-107582406D01*
X68927507Y-107554406D01*
X68850135Y-107367611D01*
X68850133Y-107367607D01*
X68848240Y-107363037D01*
X68806751Y-107295333D01*
X68726759Y-107164798D01*
X68726755Y-107164792D01*
X68724176Y-107160584D01*
X68569969Y-106980031D01*
X68389416Y-106825824D01*
X68385208Y-106823245D01*
X68385202Y-106823241D01*
X68376470Y-106817890D01*
X71132093Y-106817890D01*
X71135876Y-106826666D01*
X71987188Y-107677978D01*
X72001132Y-107685592D01*
X72002965Y-107685461D01*
X72009580Y-107681210D01*
X72861080Y-106829710D01*
X72867840Y-106817330D01*
X72862113Y-106809680D01*
X72690958Y-106704795D01*
X72682163Y-106700313D01*
X72472012Y-106613266D01*
X72462627Y-106610217D01*
X72241446Y-106557115D01*
X72231699Y-106555572D01*
X72004930Y-106537725D01*
X71995070Y-106537725D01*
X71768301Y-106555572D01*
X71758554Y-106557115D01*
X71537373Y-106610217D01*
X71527988Y-106613266D01*
X71317837Y-106700313D01*
X71309042Y-106704795D01*
X71141555Y-106807432D01*
X71132093Y-106817890D01*
X68376470Y-106817890D01*
X68191183Y-106704346D01*
X68186963Y-106701760D01*
X68182393Y-106699867D01*
X68182389Y-106699865D01*
X67972167Y-106612789D01*
X67972165Y-106612788D01*
X67967594Y-106610895D01*
X67839132Y-106580054D01*
X67741524Y-106556620D01*
X67741518Y-106556619D01*
X67736711Y-106555465D01*
X67500000Y-106536835D01*
X67263289Y-106555465D01*
X67258482Y-106556619D01*
X67258476Y-106556620D01*
X67160868Y-106580054D01*
X67032406Y-106610895D01*
X67027835Y-106612788D01*
X67027833Y-106612789D01*
X66817611Y-106699865D01*
X66817607Y-106699867D01*
X66813037Y-106701760D01*
X66808817Y-106704346D01*
X66614798Y-106823241D01*
X66614792Y-106823245D01*
X66610584Y-106825824D01*
X66430031Y-106980031D01*
X66426823Y-106983787D01*
X66405146Y-107009167D01*
X66275824Y-107160584D01*
X66270136Y-107169866D01*
X66266052Y-107176530D01*
X66213404Y-107224161D01*
X66143362Y-107235766D01*
X66078165Y-107207661D01*
X66069525Y-107199788D01*
X65699448Y-106829710D01*
X65270404Y-106400666D01*
X65236379Y-106338354D01*
X65233500Y-106311571D01*
X65233500Y-103288428D01*
X65253502Y-103220307D01*
X65270405Y-103199332D01*
X66069526Y-102400212D01*
X66131838Y-102366187D01*
X66202654Y-102371252D01*
X66259489Y-102413799D01*
X66266053Y-102423473D01*
X66273235Y-102435193D01*
X66273242Y-102435202D01*
X66275824Y-102439416D01*
X66430031Y-102619969D01*
X66610584Y-102774176D01*
X66614792Y-102776755D01*
X66614798Y-102776759D01*
X66808084Y-102895205D01*
X66813037Y-102898240D01*
X66817607Y-102900133D01*
X66817611Y-102900135D01*
X67027833Y-102987211D01*
X67032406Y-102989105D01*
X67112609Y-103008360D01*
X67258476Y-103043380D01*
X67258482Y-103043381D01*
X67263289Y-103044535D01*
X67500000Y-103063165D01*
X67736711Y-103044535D01*
X67741518Y-103043381D01*
X67741524Y-103043380D01*
X67887391Y-103008360D01*
X67967594Y-102989105D01*
X67972167Y-102987211D01*
X68182389Y-102900135D01*
X68182393Y-102900133D01*
X68186963Y-102898240D01*
X68191916Y-102895205D01*
X68375556Y-102782670D01*
X71132160Y-102782670D01*
X71137887Y-102790320D01*
X71309042Y-102895205D01*
X71317837Y-102899687D01*
X71527988Y-102986734D01*
X71537373Y-102989783D01*
X71758554Y-103042885D01*
X71768301Y-103044428D01*
X71995070Y-103062275D01*
X72004930Y-103062275D01*
X72231699Y-103044428D01*
X72241446Y-103042885D01*
X72462627Y-102989783D01*
X72472012Y-102986734D01*
X72682163Y-102899687D01*
X72690958Y-102895205D01*
X72858445Y-102792568D01*
X72867907Y-102782110D01*
X72864124Y-102773334D01*
X72012812Y-101922022D01*
X71998868Y-101914408D01*
X71997035Y-101914539D01*
X71990420Y-101918790D01*
X71138920Y-102770290D01*
X71132160Y-102782670D01*
X68375556Y-102782670D01*
X68385202Y-102776759D01*
X68385208Y-102776755D01*
X68389416Y-102774176D01*
X68569969Y-102619969D01*
X68724176Y-102439416D01*
X68726755Y-102435208D01*
X68726759Y-102435202D01*
X68845654Y-102241183D01*
X68848240Y-102236963D01*
X68850229Y-102232163D01*
X68937211Y-102022167D01*
X68937212Y-102022165D01*
X68939105Y-102017594D01*
X68966107Y-101905124D01*
X68993380Y-101791524D01*
X68993381Y-101791518D01*
X68994535Y-101786711D01*
X69013165Y-101550000D01*
X68994535Y-101313289D01*
X68993259Y-101307970D01*
X68940940Y-101090049D01*
X68944487Y-101019141D01*
X68974364Y-100971540D01*
X69539103Y-100406801D01*
X69601415Y-100372775D01*
X69628198Y-100369896D01*
X70751438Y-100369896D01*
X70819559Y-100389898D01*
G37*
%TD.AperFunction*%
%TA.AperFunction,Conductor*%
G36*
X79359532Y-93444092D02*
G01*
X79416368Y-93486639D01*
X79441179Y-93553159D01*
X79441500Y-93562148D01*
X79441500Y-93813001D01*
X79424619Y-93876000D01*
X79365473Y-93978444D01*
X79306458Y-94160072D01*
X79286496Y-94350000D01*
X79287186Y-94356565D01*
X79299931Y-94477823D01*
X79306458Y-94539928D01*
X79365473Y-94721556D01*
X79368776Y-94727278D01*
X79368777Y-94727279D01*
X79424619Y-94823999D01*
X79441500Y-94886999D01*
X79441500Y-98402930D01*
X79440067Y-98421880D01*
X79436801Y-98443349D01*
X79437394Y-98450641D01*
X79437394Y-98450644D01*
X79441085Y-98496018D01*
X79441500Y-98506233D01*
X79441500Y-98514293D01*
X79441925Y-98517937D01*
X79444789Y-98542507D01*
X79445222Y-98546882D01*
X79449828Y-98603502D01*
X79451140Y-98619637D01*
X79453396Y-98626601D01*
X79454587Y-98632560D01*
X79455971Y-98638415D01*
X79456818Y-98645681D01*
X79481735Y-98714327D01*
X79483152Y-98718455D01*
X79505649Y-98787899D01*
X79509445Y-98794154D01*
X79511951Y-98799628D01*
X79514670Y-98805058D01*
X79517167Y-98811937D01*
X79521180Y-98818057D01*
X79521180Y-98818058D01*
X79557186Y-98872976D01*
X79559523Y-98876680D01*
X79597405Y-98939107D01*
X79601121Y-98943315D01*
X79601122Y-98943316D01*
X79604803Y-98947484D01*
X79604776Y-98947508D01*
X79607429Y-98950500D01*
X79610132Y-98953733D01*
X79614144Y-98959852D01*
X79619456Y-98964884D01*
X79670383Y-99013128D01*
X79672825Y-99015506D01*
X80296230Y-99638911D01*
X80308616Y-99653323D01*
X80317149Y-99664918D01*
X80317154Y-99664923D01*
X80321492Y-99670818D01*
X80327070Y-99675557D01*
X80327073Y-99675560D01*
X80361768Y-99705035D01*
X80369284Y-99711965D01*
X80374979Y-99717660D01*
X80377861Y-99719940D01*
X80397251Y-99735281D01*
X80400655Y-99738072D01*
X80448244Y-99778502D01*
X80456285Y-99785333D01*
X80462801Y-99788661D01*
X80467850Y-99792028D01*
X80472979Y-99795195D01*
X80478716Y-99799734D01*
X80544875Y-99830655D01*
X80548769Y-99832558D01*
X80613808Y-99865769D01*
X80620916Y-99867508D01*
X80626559Y-99869607D01*
X80632322Y-99871524D01*
X80638950Y-99874622D01*
X80646112Y-99876112D01*
X80646113Y-99876112D01*
X80710412Y-99889486D01*
X80714696Y-99890456D01*
X80785610Y-99907808D01*
X80791212Y-99908156D01*
X80791215Y-99908156D01*
X80796764Y-99908500D01*
X80796762Y-99908536D01*
X80800755Y-99908775D01*
X80804947Y-99909149D01*
X80812115Y-99910640D01*
X80889520Y-99908546D01*
X80892928Y-99908500D01*
X80981487Y-99908500D01*
X81025716Y-99916518D01*
X81112289Y-99948973D01*
X81112291Y-99948973D01*
X81119684Y-99951745D01*
X81127534Y-99952598D01*
X81127535Y-99952598D01*
X81128815Y-99952737D01*
X81129745Y-99953123D01*
X81135223Y-99954426D01*
X81135012Y-99955312D01*
X81194377Y-99979979D01*
X81234804Y-100038341D01*
X81237260Y-100109296D01*
X81200965Y-100170314D01*
X81137443Y-100202023D01*
X81115208Y-100204000D01*
X80740116Y-100204000D01*
X80724877Y-100208475D01*
X80723672Y-100209865D01*
X80722001Y-100217548D01*
X80722001Y-100294669D01*
X80722371Y-100301490D01*
X80727895Y-100352352D01*
X80731521Y-100367604D01*
X80776676Y-100488054D01*
X80785214Y-100503649D01*
X80861715Y-100605724D01*
X80874276Y-100618285D01*
X80976351Y-100694786D01*
X80991946Y-100703324D01*
X81112394Y-100748478D01*
X81127649Y-100752105D01*
X81178514Y-100757631D01*
X81185328Y-100758000D01*
X81310066Y-100758000D01*
X81344108Y-100765665D01*
X81348352Y-100766000D01*
X81682885Y-100766000D01*
X81698124Y-100761525D01*
X81699329Y-100760135D01*
X81701000Y-100752452D01*
X81701000Y-100222115D01*
X81696525Y-100206876D01*
X81685947Y-100197710D01*
X81641786Y-100173596D01*
X81607761Y-100111284D01*
X81612825Y-100040468D01*
X81655372Y-99983632D01*
X81721892Y-99958821D01*
X81730881Y-99958500D01*
X82083000Y-99958500D01*
X82151121Y-99978502D01*
X82197614Y-100032158D01*
X82209000Y-100084500D01*
X82209000Y-100747885D01*
X82213475Y-100763124D01*
X82214865Y-100764329D01*
X82222548Y-100766000D01*
X82597885Y-100766000D01*
X82613124Y-100761525D01*
X82614329Y-100760135D01*
X82616000Y-100752452D01*
X82616000Y-100294126D01*
X82636002Y-100226005D01*
X82689658Y-100179512D01*
X82759932Y-100169408D01*
X82820539Y-100198824D01*
X82821813Y-100197157D01*
X82960257Y-100303006D01*
X82960261Y-100303009D01*
X82965678Y-100307150D01*
X82971858Y-100310032D01*
X82971860Y-100310033D01*
X83051250Y-100347053D01*
X83104535Y-100393970D01*
X83124000Y-100461248D01*
X83124000Y-100747885D01*
X83128475Y-100763124D01*
X83129865Y-100764329D01*
X83137548Y-100766000D01*
X84377924Y-100766000D01*
X84391455Y-100762027D01*
X84392575Y-100754232D01*
X84360862Y-100646479D01*
X84356269Y-100635111D01*
X84270393Y-100470846D01*
X84263679Y-100460585D01*
X84147532Y-100316127D01*
X84138955Y-100307368D01*
X84086890Y-100263681D01*
X84047564Y-100204572D01*
X84046437Y-100133584D01*
X84063669Y-100096336D01*
X84068698Y-100088937D01*
X84140277Y-99983612D01*
X84207530Y-99815466D01*
X84208644Y-99808738D01*
X84208645Y-99808734D01*
X84235993Y-99643539D01*
X84235993Y-99643536D01*
X84237108Y-99636802D01*
X84233403Y-99566093D01*
X84227987Y-99462766D01*
X84227630Y-99455953D01*
X84179539Y-99281359D01*
X84095078Y-99121164D01*
X84090673Y-99115951D01*
X84090670Y-99115947D01*
X83982594Y-98988057D01*
X83982590Y-98988053D01*
X83978187Y-98982843D01*
X83948116Y-98959852D01*
X83839743Y-98876994D01*
X83839739Y-98876991D01*
X83834322Y-98872850D01*
X83828142Y-98869968D01*
X83828140Y-98869967D01*
X83728909Y-98823695D01*
X83675624Y-98776778D01*
X83656163Y-98708500D01*
X83676705Y-98640540D01*
X83730728Y-98594475D01*
X83782159Y-98583500D01*
X85132132Y-98583500D01*
X85200253Y-98603502D01*
X85221227Y-98620405D01*
X86461214Y-99860392D01*
X86495240Y-99922704D01*
X86490175Y-99993519D01*
X86447628Y-100050355D01*
X86408538Y-100070109D01*
X86369921Y-100081768D01*
X86358584Y-100086441D01*
X86194923Y-100173460D01*
X86184706Y-100180249D01*
X86041067Y-100297397D01*
X86032363Y-100306041D01*
X85914216Y-100448856D01*
X85907356Y-100459027D01*
X85819196Y-100622076D01*
X85814444Y-100633381D01*
X85778750Y-100748692D01*
X85778544Y-100762795D01*
X85785299Y-100766000D01*
X87178000Y-100766000D01*
X87246121Y-100786002D01*
X87292614Y-100839658D01*
X87304000Y-100892000D01*
X87304000Y-102009885D01*
X87308475Y-102025124D01*
X87309865Y-102026329D01*
X87317548Y-102028000D01*
X87396657Y-102028000D01*
X87402805Y-102027699D01*
X87540603Y-102014188D01*
X87552638Y-102011805D01*
X87730076Y-101958233D01*
X87741416Y-101953559D01*
X87905077Y-101866540D01*
X87915300Y-101859748D01*
X87960865Y-101822586D01*
X88026296Y-101795032D01*
X88096238Y-101807228D01*
X88148483Y-101855300D01*
X88166500Y-101920229D01*
X88166500Y-105215500D01*
X88146498Y-105283621D01*
X88092842Y-105330114D01*
X88040500Y-105341500D01*
X87017000Y-105341500D01*
X87017000Y-105341395D01*
X86975746Y-105342869D01*
X86969453Y-105341500D01*
X85872000Y-105341500D01*
X85803879Y-105321498D01*
X85757386Y-105267842D01*
X85746000Y-105215500D01*
X85746000Y-104815385D01*
X86254000Y-104815385D01*
X86258475Y-104830624D01*
X86259865Y-104831829D01*
X86267548Y-104833500D01*
X86983000Y-104833500D01*
X86983000Y-104833605D01*
X87024254Y-104832131D01*
X87030547Y-104833500D01*
X87727885Y-104833500D01*
X87743124Y-104829025D01*
X87744329Y-104827635D01*
X87746000Y-104819952D01*
X87746000Y-104110115D01*
X87741525Y-104094876D01*
X87740135Y-104093671D01*
X87732452Y-104092000D01*
X87716234Y-104092000D01*
X87709718Y-104092337D01*
X87615868Y-104102075D01*
X87602472Y-104104968D01*
X87451047Y-104155488D01*
X87437885Y-104161653D01*
X87302508Y-104245426D01*
X87291110Y-104254460D01*
X87178637Y-104367129D01*
X87169623Y-104378543D01*
X87107301Y-104479649D01*
X87054530Y-104527143D01*
X86984458Y-104538567D01*
X86919334Y-104510293D01*
X86892897Y-104479837D01*
X86829575Y-104377510D01*
X86820540Y-104366110D01*
X86707871Y-104253637D01*
X86696460Y-104244625D01*
X86560937Y-104161088D01*
X86547759Y-104154944D01*
X86396234Y-104104685D01*
X86382868Y-104101819D01*
X86290230Y-104092328D01*
X86283815Y-104092000D01*
X86272115Y-104092000D01*
X86256876Y-104096475D01*
X86255671Y-104097865D01*
X86254000Y-104105548D01*
X86254000Y-104815385D01*
X85746000Y-104815385D01*
X85746000Y-104110115D01*
X85741525Y-104094876D01*
X85740135Y-104093671D01*
X85732452Y-104092000D01*
X85716234Y-104092000D01*
X85709718Y-104092337D01*
X85615868Y-104102075D01*
X85602472Y-104104968D01*
X85451047Y-104155488D01*
X85437885Y-104161653D01*
X85302508Y-104245426D01*
X85291110Y-104254460D01*
X85178637Y-104367129D01*
X85169625Y-104378540D01*
X85107594Y-104479173D01*
X85054822Y-104526666D01*
X84984750Y-104538090D01*
X84919626Y-104509816D01*
X84893193Y-104479365D01*
X84826116Y-104370969D01*
X84820934Y-104365796D01*
X84708184Y-104253242D01*
X84708179Y-104253238D01*
X84703003Y-104248071D01*
X84696772Y-104244230D01*
X84561150Y-104160631D01*
X84561148Y-104160630D01*
X84554920Y-104156791D01*
X84389809Y-104102026D01*
X84382973Y-104101326D01*
X84382970Y-104101325D01*
X84331474Y-104096049D01*
X84287072Y-104091500D01*
X83712928Y-104091500D01*
X83709682Y-104091837D01*
X83709678Y-104091837D01*
X83615765Y-104101581D01*
X83615761Y-104101582D01*
X83608907Y-104102293D01*
X83602371Y-104104474D01*
X83602369Y-104104474D01*
X83511226Y-104134882D01*
X83443893Y-104157346D01*
X83295969Y-104248884D01*
X83173071Y-104371997D01*
X83169233Y-104378224D01*
X83169231Y-104378226D01*
X83159436Y-104394116D01*
X83106664Y-104441609D01*
X83052176Y-104454000D01*
X82947699Y-104454000D01*
X82879578Y-104433998D01*
X82840554Y-104394301D01*
X82840440Y-104394116D01*
X82826116Y-104370969D01*
X82820934Y-104365796D01*
X82708184Y-104253242D01*
X82708179Y-104253238D01*
X82703003Y-104248071D01*
X82693386Y-104242143D01*
X82691559Y-104240114D01*
X82691027Y-104239693D01*
X82691099Y-104239602D01*
X82645892Y-104189372D01*
X82633500Y-104134882D01*
X82633500Y-103778767D01*
X82634027Y-103767584D01*
X82635702Y-103760091D01*
X82633562Y-103692014D01*
X82633500Y-103688055D01*
X82633500Y-103660144D01*
X82632995Y-103656144D01*
X82632062Y-103644301D01*
X82630922Y-103608030D01*
X82630673Y-103600111D01*
X82625021Y-103580657D01*
X82621013Y-103561300D01*
X82619468Y-103549070D01*
X82619468Y-103549069D01*
X82618474Y-103541203D01*
X82607072Y-103512405D01*
X82602196Y-103500088D01*
X82598351Y-103488858D01*
X82588229Y-103454017D01*
X82588229Y-103454016D01*
X82586018Y-103446407D01*
X82581985Y-103439588D01*
X82581983Y-103439583D01*
X82575707Y-103428972D01*
X82567012Y-103411224D01*
X82559552Y-103392383D01*
X82553332Y-103383821D01*
X82533564Y-103356613D01*
X82527048Y-103346693D01*
X82508580Y-103315465D01*
X82508578Y-103315462D01*
X82504542Y-103308638D01*
X82490221Y-103294317D01*
X82477380Y-103279283D01*
X82470131Y-103269306D01*
X82465472Y-103262893D01*
X82431395Y-103234702D01*
X82422616Y-103226712D01*
X81103652Y-101907747D01*
X81096112Y-101899461D01*
X81092000Y-101892982D01*
X81042348Y-101846356D01*
X81039507Y-101843602D01*
X81019770Y-101823865D01*
X81016573Y-101821385D01*
X81007551Y-101813680D01*
X80981100Y-101788841D01*
X80975321Y-101783414D01*
X80968375Y-101779595D01*
X80968372Y-101779593D01*
X80957566Y-101773652D01*
X80941047Y-101762801D01*
X80931982Y-101755770D01*
X80925041Y-101750386D01*
X80917772Y-101747241D01*
X80917768Y-101747238D01*
X80884463Y-101732826D01*
X80873813Y-101727609D01*
X80835060Y-101706305D01*
X80815437Y-101701267D01*
X80796734Y-101694863D01*
X80785420Y-101689967D01*
X80785419Y-101689967D01*
X80778145Y-101686819D01*
X80770322Y-101685580D01*
X80770312Y-101685577D01*
X80734476Y-101679901D01*
X80722856Y-101677495D01*
X80687711Y-101668472D01*
X80687710Y-101668472D01*
X80680030Y-101666500D01*
X80659776Y-101666500D01*
X80640065Y-101664949D01*
X80627886Y-101663020D01*
X80620057Y-101661780D01*
X80612165Y-101662526D01*
X80576039Y-101665941D01*
X80564181Y-101666500D01*
X76664594Y-101666500D01*
X76596473Y-101646498D01*
X76575499Y-101629595D01*
X76231672Y-101285768D01*
X81347425Y-101285768D01*
X81379138Y-101393521D01*
X81383731Y-101404889D01*
X81469607Y-101569154D01*
X81476321Y-101579415D01*
X81592468Y-101723873D01*
X81601046Y-101732632D01*
X81743039Y-101851778D01*
X81753159Y-101858708D01*
X81915585Y-101948002D01*
X81926858Y-101952834D01*
X82103538Y-102008880D01*
X82115532Y-102011430D01*
X82259761Y-102027607D01*
X82266785Y-102028000D01*
X82597885Y-102028000D01*
X82613124Y-102023525D01*
X82614329Y-102022135D01*
X82616000Y-102014452D01*
X82616000Y-102009885D01*
X83124000Y-102009885D01*
X83128475Y-102025124D01*
X83129865Y-102026329D01*
X83137548Y-102028000D01*
X83466657Y-102028000D01*
X83472805Y-102027699D01*
X83610603Y-102014188D01*
X83622638Y-102011805D01*
X83800076Y-101958233D01*
X83811416Y-101953559D01*
X83975077Y-101866540D01*
X83985294Y-101859751D01*
X84128933Y-101742603D01*
X84137637Y-101733959D01*
X84255784Y-101591144D01*
X84262644Y-101580973D01*
X84350804Y-101417924D01*
X84355556Y-101406619D01*
X84391250Y-101291308D01*
X84391331Y-101285768D01*
X85777425Y-101285768D01*
X85809138Y-101393521D01*
X85813731Y-101404889D01*
X85899607Y-101569154D01*
X85906321Y-101579415D01*
X86022468Y-101723873D01*
X86031046Y-101732632D01*
X86173039Y-101851778D01*
X86183159Y-101858708D01*
X86345585Y-101948002D01*
X86356858Y-101952834D01*
X86533538Y-102008880D01*
X86545532Y-102011430D01*
X86689761Y-102027607D01*
X86696785Y-102028000D01*
X86777885Y-102028000D01*
X86793124Y-102023525D01*
X86794329Y-102022135D01*
X86796000Y-102014452D01*
X86796000Y-101292115D01*
X86791525Y-101276876D01*
X86790135Y-101275671D01*
X86782452Y-101274000D01*
X85792076Y-101274000D01*
X85778545Y-101277973D01*
X85777425Y-101285768D01*
X84391331Y-101285768D01*
X84391456Y-101277205D01*
X84384701Y-101274000D01*
X83142115Y-101274000D01*
X83126876Y-101278475D01*
X83125671Y-101279865D01*
X83124000Y-101287548D01*
X83124000Y-102009885D01*
X82616000Y-102009885D01*
X82616000Y-101292115D01*
X82611525Y-101276876D01*
X82610135Y-101275671D01*
X82602452Y-101274000D01*
X81362076Y-101274000D01*
X81348545Y-101277973D01*
X81347425Y-101285768D01*
X76231672Y-101285768D01*
X74020405Y-99074500D01*
X73986379Y-99012188D01*
X73983500Y-98985405D01*
X73983500Y-95934500D01*
X74003502Y-95866379D01*
X74057158Y-95819886D01*
X74109500Y-95808500D01*
X76445543Y-95808500D01*
X76465255Y-95810051D01*
X76478507Y-95812150D01*
X76485094Y-95811805D01*
X76485098Y-95811805D01*
X76544850Y-95808673D01*
X76551445Y-95808500D01*
X76571306Y-95808500D01*
X76591069Y-95806423D01*
X76597628Y-95805907D01*
X76613427Y-95805079D01*
X76657377Y-95802776D01*
X76657381Y-95802775D01*
X76663971Y-95802430D01*
X76676929Y-95798958D01*
X76696372Y-95795355D01*
X76696795Y-95795311D01*
X76709702Y-95793954D01*
X76772894Y-95773422D01*
X76779196Y-95771556D01*
X76836985Y-95756071D01*
X76843363Y-95754362D01*
X76849242Y-95751366D01*
X76849251Y-95751363D01*
X76855317Y-95748272D01*
X76873579Y-95740708D01*
X76880043Y-95738608D01*
X76880051Y-95738605D01*
X76886331Y-95736564D01*
X76892050Y-95733262D01*
X76892055Y-95733260D01*
X76943867Y-95703346D01*
X76949637Y-95700213D01*
X77008839Y-95670047D01*
X77019259Y-95661609D01*
X77035552Y-95650411D01*
X77035903Y-95650209D01*
X77047169Y-95643704D01*
X77052075Y-95639287D01*
X77052080Y-95639283D01*
X77096538Y-95599253D01*
X77101554Y-95594969D01*
X77114409Y-95584559D01*
X77114412Y-95584556D01*
X77116986Y-95582472D01*
X77131031Y-95568427D01*
X77135816Y-95563886D01*
X77180274Y-95523856D01*
X77180275Y-95523855D01*
X77185185Y-95519434D01*
X77193075Y-95508574D01*
X77205912Y-95493546D01*
X79226405Y-93473053D01*
X79288717Y-93439027D01*
X79359532Y-93444092D01*
G37*
%TD.AperFunction*%
%TA.AperFunction,Conductor*%
G36*
X87382262Y-67528502D02*
G01*
X87428755Y-67582158D01*
X87439662Y-67623519D01*
X87453913Y-67786413D01*
X87455634Y-67792335D01*
X87486497Y-67898568D01*
X87491500Y-67933721D01*
X87491500Y-68115315D01*
X87471498Y-68183436D01*
X87417842Y-68229929D01*
X87347568Y-68240033D01*
X87282988Y-68210539D01*
X87276482Y-68204488D01*
X87228171Y-68156261D01*
X87216760Y-68147249D01*
X87078757Y-68062184D01*
X87065576Y-68056037D01*
X86911290Y-68004862D01*
X86897914Y-68001995D01*
X86803562Y-67992328D01*
X86797145Y-67992000D01*
X86772115Y-67992000D01*
X86756876Y-67996475D01*
X86755671Y-67997865D01*
X86754000Y-68005548D01*
X86754000Y-72989884D01*
X86758475Y-73005123D01*
X86759865Y-73006328D01*
X86767548Y-73007999D01*
X86797095Y-73007999D01*
X86803614Y-73007662D01*
X86899206Y-72997743D01*
X86912600Y-72994851D01*
X87066784Y-72943412D01*
X87079962Y-72937239D01*
X87217807Y-72851937D01*
X87229208Y-72842901D01*
X87343739Y-72728171D01*
X87352751Y-72716760D01*
X87392451Y-72652354D01*
X87445223Y-72604861D01*
X87515294Y-72593437D01*
X87580418Y-72621711D01*
X87606854Y-72652166D01*
X87651522Y-72724348D01*
X87776697Y-72849305D01*
X87782927Y-72853145D01*
X87782928Y-72853146D01*
X87920288Y-72937816D01*
X87927262Y-72942115D01*
X87943582Y-72947528D01*
X88088611Y-72995632D01*
X88088613Y-72995632D01*
X88095139Y-72997797D01*
X88101975Y-72998497D01*
X88101978Y-72998498D01*
X88145031Y-73002909D01*
X88199600Y-73008500D01*
X88800400Y-73008500D01*
X88803646Y-73008163D01*
X88803650Y-73008163D01*
X88899308Y-72998238D01*
X88899312Y-72998237D01*
X88906166Y-72997526D01*
X88912702Y-72995345D01*
X88912704Y-72995345D01*
X89056028Y-72947528D01*
X89073946Y-72941550D01*
X89224348Y-72848478D01*
X89349305Y-72723303D01*
X89358241Y-72708807D01*
X89411013Y-72661314D01*
X89481085Y-72649892D01*
X89546208Y-72678166D01*
X89585708Y-72737160D01*
X89591500Y-72774924D01*
X89591500Y-100141405D01*
X89571498Y-100209526D01*
X89517842Y-100256019D01*
X89447568Y-100266123D01*
X89382988Y-100236629D01*
X89376405Y-100230500D01*
X86253652Y-97107747D01*
X86246112Y-97099461D01*
X86242000Y-97092982D01*
X86192348Y-97046356D01*
X86189507Y-97043602D01*
X86169770Y-97023865D01*
X86166573Y-97021385D01*
X86157551Y-97013680D01*
X86131100Y-96988841D01*
X86125321Y-96983414D01*
X86118375Y-96979595D01*
X86118372Y-96979593D01*
X86107566Y-96973652D01*
X86091047Y-96962801D01*
X86088989Y-96961205D01*
X86075041Y-96950386D01*
X86067772Y-96947241D01*
X86067768Y-96947238D01*
X86034463Y-96932826D01*
X86023813Y-96927609D01*
X85985060Y-96906305D01*
X85965437Y-96901267D01*
X85946734Y-96894863D01*
X85935420Y-96889967D01*
X85935419Y-96889967D01*
X85928145Y-96886819D01*
X85920322Y-96885580D01*
X85920312Y-96885577D01*
X85884476Y-96879901D01*
X85872856Y-96877495D01*
X85837711Y-96868472D01*
X85837710Y-96868472D01*
X85830030Y-96866500D01*
X85809776Y-96866500D01*
X85790065Y-96864949D01*
X85777886Y-96863020D01*
X85770057Y-96861780D01*
X85762165Y-96862526D01*
X85726039Y-96865941D01*
X85714181Y-96866500D01*
X84064595Y-96866500D01*
X83996474Y-96846498D01*
X83975499Y-96829595D01*
X83675404Y-96529499D01*
X83641379Y-96467187D01*
X83638500Y-96440404D01*
X83638500Y-95083768D01*
X83639027Y-95072585D01*
X83640702Y-95065092D01*
X83638562Y-94997001D01*
X83638500Y-94993044D01*
X83638500Y-94965144D01*
X83637996Y-94961153D01*
X83637063Y-94949311D01*
X83635923Y-94913036D01*
X83635674Y-94905111D01*
X83633462Y-94897497D01*
X83633461Y-94897492D01*
X83630023Y-94885659D01*
X83626012Y-94866295D01*
X83624467Y-94854064D01*
X83623474Y-94846203D01*
X83620557Y-94838836D01*
X83620556Y-94838831D01*
X83607198Y-94805092D01*
X83603354Y-94793865D01*
X83591318Y-94752440D01*
X83591519Y-94681444D01*
X83630072Y-94621827D01*
X83672124Y-94597866D01*
X83751675Y-94571094D01*
X83906905Y-94477823D01*
X83911862Y-94473135D01*
X83911865Y-94473133D01*
X84033527Y-94358082D01*
X84033529Y-94358080D01*
X84038485Y-94353393D01*
X84042317Y-94347755D01*
X84042320Y-94347751D01*
X84136442Y-94209255D01*
X84140277Y-94203612D01*
X84207530Y-94035466D01*
X84208644Y-94028738D01*
X84208645Y-94028734D01*
X84235993Y-93863539D01*
X84235993Y-93863536D01*
X84237108Y-93856802D01*
X84236720Y-93849385D01*
X84227987Y-93682766D01*
X84227630Y-93675953D01*
X84202339Y-93584132D01*
X84181352Y-93507941D01*
X84179539Y-93501359D01*
X84095078Y-93341164D01*
X84090673Y-93335951D01*
X84090670Y-93335947D01*
X84072306Y-93314217D01*
X84043614Y-93249276D01*
X84054587Y-93179132D01*
X84088908Y-93135246D01*
X84128933Y-93102603D01*
X84137637Y-93093959D01*
X84255784Y-92951144D01*
X84262644Y-92940973D01*
X84350804Y-92777924D01*
X84355556Y-92766619D01*
X84391250Y-92651308D01*
X84391331Y-92645768D01*
X85777425Y-92645768D01*
X85809138Y-92753521D01*
X85813731Y-92764889D01*
X85899607Y-92929154D01*
X85906321Y-92939415D01*
X86022468Y-93083873D01*
X86031046Y-93092632D01*
X86173039Y-93211778D01*
X86183159Y-93218708D01*
X86345585Y-93308002D01*
X86356858Y-93312834D01*
X86533538Y-93368880D01*
X86545532Y-93371430D01*
X86689761Y-93387607D01*
X86696785Y-93388000D01*
X86777885Y-93388000D01*
X86793124Y-93383525D01*
X86794329Y-93382135D01*
X86796000Y-93374452D01*
X86796000Y-93369885D01*
X87304000Y-93369885D01*
X87308475Y-93385124D01*
X87309865Y-93386329D01*
X87317548Y-93388000D01*
X87396657Y-93388000D01*
X87402805Y-93387699D01*
X87540603Y-93374188D01*
X87552638Y-93371805D01*
X87730076Y-93318233D01*
X87741416Y-93313559D01*
X87905077Y-93226540D01*
X87915294Y-93219751D01*
X88058933Y-93102603D01*
X88067637Y-93093959D01*
X88185784Y-92951144D01*
X88192644Y-92940973D01*
X88280804Y-92777924D01*
X88285556Y-92766619D01*
X88321250Y-92651308D01*
X88321456Y-92637205D01*
X88314701Y-92634000D01*
X87322115Y-92634000D01*
X87306876Y-92638475D01*
X87305671Y-92639865D01*
X87304000Y-92647548D01*
X87304000Y-93369885D01*
X86796000Y-93369885D01*
X86796000Y-92652115D01*
X86791525Y-92636876D01*
X86790135Y-92635671D01*
X86782452Y-92634000D01*
X85792076Y-92634000D01*
X85778545Y-92637973D01*
X85777425Y-92645768D01*
X84391331Y-92645768D01*
X84391456Y-92637205D01*
X84384701Y-92634000D01*
X83142115Y-92634000D01*
X83126876Y-92638475D01*
X83125671Y-92639865D01*
X83124000Y-92647548D01*
X83124000Y-92934170D01*
X83103998Y-93002291D01*
X83051782Y-93047743D01*
X83048325Y-93048906D01*
X82893095Y-93142177D01*
X82888138Y-93146865D01*
X82888135Y-93146867D01*
X82828573Y-93203193D01*
X82765336Y-93235465D01*
X82694689Y-93228425D01*
X82639063Y-93184309D01*
X82616000Y-93111645D01*
X82616000Y-92107885D01*
X83124000Y-92107885D01*
X83128475Y-92123124D01*
X83129865Y-92124329D01*
X83137548Y-92126000D01*
X84377924Y-92126000D01*
X84388839Y-92122795D01*
X85778544Y-92122795D01*
X85785299Y-92126000D01*
X86777885Y-92126000D01*
X86793124Y-92121525D01*
X86794329Y-92120135D01*
X86796000Y-92112452D01*
X86796000Y-92107885D01*
X87304000Y-92107885D01*
X87308475Y-92123124D01*
X87309865Y-92124329D01*
X87317548Y-92126000D01*
X88307924Y-92126000D01*
X88321455Y-92122027D01*
X88322575Y-92114232D01*
X88290862Y-92006479D01*
X88286269Y-91995111D01*
X88200393Y-91830846D01*
X88193679Y-91820585D01*
X88077532Y-91676127D01*
X88068954Y-91667368D01*
X87926961Y-91548222D01*
X87916841Y-91541292D01*
X87754415Y-91451998D01*
X87743142Y-91447166D01*
X87566462Y-91391120D01*
X87554468Y-91388570D01*
X87410239Y-91372393D01*
X87403215Y-91372000D01*
X87322115Y-91372000D01*
X87306876Y-91376475D01*
X87305671Y-91377865D01*
X87304000Y-91385548D01*
X87304000Y-92107885D01*
X86796000Y-92107885D01*
X86796000Y-91390115D01*
X86791525Y-91374876D01*
X86790135Y-91373671D01*
X86782452Y-91372000D01*
X86703343Y-91372000D01*
X86697195Y-91372301D01*
X86559397Y-91385812D01*
X86547362Y-91388195D01*
X86369924Y-91441767D01*
X86358584Y-91446441D01*
X86194923Y-91533460D01*
X86184706Y-91540249D01*
X86041067Y-91657397D01*
X86032363Y-91666041D01*
X85914216Y-91808856D01*
X85907356Y-91819027D01*
X85819196Y-91982076D01*
X85814444Y-91993381D01*
X85778750Y-92108692D01*
X85778544Y-92122795D01*
X84388839Y-92122795D01*
X84391455Y-92122027D01*
X84392575Y-92114232D01*
X84360862Y-92006479D01*
X84356269Y-91995111D01*
X84270393Y-91830846D01*
X84263679Y-91820585D01*
X84147532Y-91676127D01*
X84138954Y-91667368D01*
X83996961Y-91548222D01*
X83986841Y-91541292D01*
X83824415Y-91451998D01*
X83813142Y-91447166D01*
X83636462Y-91391120D01*
X83624468Y-91388570D01*
X83480239Y-91372393D01*
X83473215Y-91372000D01*
X83142115Y-91372000D01*
X83126876Y-91376475D01*
X83125671Y-91377865D01*
X83124000Y-91385548D01*
X83124000Y-92107885D01*
X82616000Y-92107885D01*
X82616000Y-91390115D01*
X82611525Y-91374876D01*
X82610135Y-91373671D01*
X82593814Y-91370121D01*
X82531502Y-91336096D01*
X82497477Y-91273784D01*
X82502541Y-91202968D01*
X82531502Y-91157905D01*
X82644002Y-91045405D01*
X82706314Y-91011379D01*
X82733097Y-91008500D01*
X84582930Y-91008500D01*
X84601880Y-91009933D01*
X84616115Y-91012099D01*
X84616119Y-91012099D01*
X84623349Y-91013199D01*
X84630641Y-91012606D01*
X84630644Y-91012606D01*
X84676018Y-91008915D01*
X84686233Y-91008500D01*
X84694293Y-91008500D01*
X84707583Y-91006951D01*
X84722507Y-91005211D01*
X84726882Y-91004778D01*
X84792339Y-90999454D01*
X84792342Y-90999453D01*
X84799637Y-90998860D01*
X84806601Y-90996604D01*
X84812560Y-90995413D01*
X84818415Y-90994029D01*
X84825681Y-90993182D01*
X84894327Y-90968265D01*
X84898455Y-90966848D01*
X84960936Y-90946607D01*
X84960938Y-90946606D01*
X84967899Y-90944351D01*
X84974154Y-90940555D01*
X84979628Y-90938049D01*
X84985058Y-90935330D01*
X84991937Y-90932833D01*
X85052976Y-90892814D01*
X85056680Y-90890477D01*
X85119107Y-90852595D01*
X85127484Y-90845197D01*
X85127508Y-90845224D01*
X85130500Y-90842571D01*
X85133733Y-90839868D01*
X85139852Y-90835856D01*
X85193128Y-90779617D01*
X85195506Y-90777175D01*
X85288911Y-90683770D01*
X85303323Y-90671384D01*
X85314918Y-90662851D01*
X85314923Y-90662846D01*
X85320818Y-90658508D01*
X85325557Y-90652930D01*
X85325560Y-90652927D01*
X85355035Y-90618232D01*
X85361965Y-90610716D01*
X85367660Y-90605021D01*
X85385281Y-90582749D01*
X85388072Y-90579345D01*
X85430591Y-90529297D01*
X85430592Y-90529295D01*
X85435333Y-90523715D01*
X85438661Y-90517199D01*
X85442028Y-90512150D01*
X85445195Y-90507021D01*
X85449734Y-90501284D01*
X85480655Y-90435125D01*
X85482561Y-90431225D01*
X85515769Y-90366192D01*
X85517508Y-90359084D01*
X85519607Y-90353441D01*
X85521524Y-90347678D01*
X85524622Y-90341050D01*
X85539487Y-90269583D01*
X85540457Y-90265299D01*
X85556473Y-90199845D01*
X85557808Y-90194390D01*
X85558500Y-90183236D01*
X85558536Y-90183238D01*
X85558775Y-90179245D01*
X85559149Y-90175053D01*
X85560640Y-90167885D01*
X85558546Y-90090479D01*
X85558500Y-90087072D01*
X85558500Y-89374493D01*
X85578502Y-89306372D01*
X85632158Y-89259879D01*
X85653763Y-89252457D01*
X85660316Y-89251745D01*
X85667711Y-89248973D01*
X85667714Y-89248972D01*
X85788297Y-89203767D01*
X85796705Y-89200615D01*
X85913261Y-89113261D01*
X86000615Y-88996705D01*
X86051745Y-88860316D01*
X86058500Y-88798134D01*
X86058500Y-86701866D01*
X86051745Y-86639684D01*
X86000615Y-86503295D01*
X85913261Y-86386739D01*
X85796705Y-86299385D01*
X85660316Y-86248255D01*
X85598134Y-86241500D01*
X84001866Y-86241500D01*
X83939684Y-86248255D01*
X83803295Y-86299385D01*
X83796110Y-86304770D01*
X83796108Y-86304771D01*
X83725565Y-86357640D01*
X83659058Y-86382488D01*
X83589676Y-86367435D01*
X83574435Y-86357640D01*
X83503892Y-86304771D01*
X83503890Y-86304770D01*
X83496705Y-86299385D01*
X83488296Y-86296232D01*
X83488293Y-86296231D01*
X83465269Y-86287599D01*
X83408505Y-86244957D01*
X83383806Y-86178395D01*
X83383500Y-86169618D01*
X83383500Y-83084500D01*
X83403502Y-83016379D01*
X83457158Y-82969886D01*
X83509500Y-82958500D01*
X84448134Y-82958500D01*
X84510316Y-82951745D01*
X84646705Y-82900615D01*
X84763261Y-82813261D01*
X84850615Y-82696705D01*
X84901745Y-82560316D01*
X84907381Y-82508431D01*
X84934622Y-82442870D01*
X84992985Y-82402443D01*
X85058841Y-82398792D01*
X85098056Y-82407128D01*
X85098061Y-82407128D01*
X85104513Y-82408500D01*
X85295487Y-82408500D01*
X85301939Y-82407128D01*
X85301944Y-82407128D01*
X85388887Y-82388647D01*
X85482288Y-82368794D01*
X85532483Y-82346446D01*
X85650722Y-82293803D01*
X85650724Y-82293802D01*
X85656752Y-82291118D01*
X85811253Y-82178866D01*
X85822085Y-82166836D01*
X85934621Y-82041852D01*
X85934622Y-82041851D01*
X85939040Y-82036944D01*
X86034527Y-81871556D01*
X86093542Y-81689928D01*
X86113504Y-81500000D01*
X86108691Y-81454211D01*
X86094232Y-81316635D01*
X86094232Y-81316633D01*
X86093542Y-81310072D01*
X86034527Y-81128444D01*
X85939040Y-80963056D01*
X85906510Y-80926927D01*
X85815675Y-80826045D01*
X85815674Y-80826044D01*
X85811253Y-80821134D01*
X85665279Y-80715077D01*
X85662094Y-80712763D01*
X85662093Y-80712762D01*
X85656752Y-80708882D01*
X85650724Y-80706198D01*
X85650722Y-80706197D01*
X85488319Y-80633891D01*
X85488318Y-80633891D01*
X85482288Y-80631206D01*
X85388887Y-80611353D01*
X85301944Y-80592872D01*
X85301939Y-80592872D01*
X85295487Y-80591500D01*
X85104513Y-80591500D01*
X85098053Y-80592873D01*
X85098054Y-80592873D01*
X85060696Y-80600813D01*
X84989905Y-80595410D01*
X84933273Y-80552593D01*
X84908780Y-80485955D01*
X84908500Y-80477566D01*
X84908500Y-80401866D01*
X84901745Y-80339684D01*
X84850615Y-80203295D01*
X84763261Y-80086739D01*
X84646705Y-79999385D01*
X84510316Y-79948255D01*
X84448134Y-79941500D01*
X80551866Y-79941500D01*
X80489684Y-79948255D01*
X80353295Y-79999385D01*
X80236739Y-80086739D01*
X80149385Y-80203295D01*
X80098255Y-80339684D01*
X80091500Y-80401866D01*
X80091500Y-82498134D01*
X80098255Y-82560316D01*
X80149385Y-82696705D01*
X80236739Y-82813261D01*
X80353295Y-82900615D01*
X80489684Y-82951745D01*
X80551866Y-82958500D01*
X81490500Y-82958500D01*
X81558621Y-82978502D01*
X81605114Y-83032158D01*
X81616500Y-83084500D01*
X81616500Y-86169618D01*
X81596498Y-86237739D01*
X81542842Y-86284232D01*
X81534731Y-86287599D01*
X81511707Y-86296231D01*
X81511704Y-86296232D01*
X81503295Y-86299385D01*
X81440502Y-86346446D01*
X81425148Y-86357953D01*
X81358642Y-86382801D01*
X81289259Y-86367748D01*
X81274018Y-86357953D01*
X81203648Y-86305214D01*
X81188054Y-86296676D01*
X81067606Y-86251522D01*
X81052351Y-86247895D01*
X81001486Y-86242369D01*
X80994672Y-86242000D01*
X80472115Y-86242000D01*
X80456876Y-86246475D01*
X80455671Y-86247865D01*
X80454000Y-86255548D01*
X80454000Y-89239884D01*
X80458475Y-89255123D01*
X80459865Y-89256328D01*
X80467548Y-89257999D01*
X80638353Y-89257999D01*
X80706474Y-89278001D01*
X80752967Y-89331657D01*
X80763071Y-89401931D01*
X80733577Y-89466511D01*
X80727448Y-89473094D01*
X76195947Y-94004595D01*
X76133635Y-94038621D01*
X76106852Y-94041500D01*
X74316653Y-94041500D01*
X74248532Y-94021498D01*
X74202039Y-93967842D01*
X74191935Y-93897568D01*
X74209393Y-93849385D01*
X74263910Y-93760941D01*
X74270056Y-93747759D01*
X74320315Y-93596234D01*
X74323181Y-93582868D01*
X74332672Y-93490230D01*
X74333000Y-93483815D01*
X74333000Y-93409615D01*
X74328525Y-93394376D01*
X74327135Y-93393171D01*
X74319452Y-93391500D01*
X72367000Y-93391500D01*
X72367000Y-93391395D01*
X72325746Y-93392869D01*
X72319453Y-93391500D01*
X70385115Y-93391500D01*
X70369876Y-93395975D01*
X70368671Y-93397365D01*
X70367000Y-93405048D01*
X70367000Y-93483766D01*
X70367337Y-93490282D01*
X70377075Y-93584132D01*
X70379968Y-93597528D01*
X70430488Y-93748953D01*
X70436653Y-93762115D01*
X70490541Y-93849198D01*
X70509378Y-93917650D01*
X70488216Y-93985419D01*
X70433775Y-94030990D01*
X70383396Y-94041500D01*
X67768674Y-94041500D01*
X67700553Y-94021498D01*
X67654060Y-93967842D01*
X67648053Y-93951921D01*
X67647650Y-93950588D01*
X67645868Y-93944685D01*
X67620815Y-93897568D01*
X67551309Y-93766847D01*
X67551308Y-93766845D01*
X67548413Y-93761401D01*
X67430244Y-93616511D01*
X67402690Y-93551079D01*
X67414886Y-93481137D01*
X67462958Y-93428892D01*
X67531645Y-93410931D01*
X67541932Y-93411660D01*
X67555748Y-93413210D01*
X67602913Y-93418500D01*
X69114737Y-93418500D01*
X69117793Y-93418200D01*
X69117800Y-93418200D01*
X69262966Y-93403966D01*
X69262969Y-93403965D01*
X69269092Y-93403365D01*
X69405810Y-93362088D01*
X69461907Y-93345152D01*
X69461910Y-93345151D01*
X69467815Y-93343368D01*
X69473262Y-93340472D01*
X69645653Y-93248809D01*
X69645655Y-93248808D01*
X69651099Y-93245913D01*
X69732981Y-93179132D01*
X69807189Y-93118610D01*
X69807192Y-93118607D01*
X69811964Y-93114715D01*
X69829076Y-93094031D01*
X69926306Y-92976500D01*
X69944283Y-92954770D01*
X69948372Y-92947208D01*
X69992613Y-92865385D01*
X70367000Y-92865385D01*
X70371475Y-92880624D01*
X70372865Y-92881829D01*
X70380548Y-92883500D01*
X71077885Y-92883500D01*
X71093124Y-92879025D01*
X71094329Y-92877635D01*
X71096000Y-92869952D01*
X71096000Y-92865385D01*
X71604000Y-92865385D01*
X71608475Y-92880624D01*
X71609865Y-92881829D01*
X71617548Y-92883500D01*
X72333000Y-92883500D01*
X72333000Y-92883605D01*
X72374254Y-92882131D01*
X72380547Y-92883500D01*
X73077885Y-92883500D01*
X73093124Y-92879025D01*
X73094329Y-92877635D01*
X73096000Y-92869952D01*
X73096000Y-92865385D01*
X73604000Y-92865385D01*
X73608475Y-92880624D01*
X73609865Y-92881829D01*
X73617548Y-92883500D01*
X74314885Y-92883500D01*
X74330124Y-92879025D01*
X74331329Y-92877635D01*
X74333000Y-92869952D01*
X74333000Y-92791234D01*
X74332663Y-92784718D01*
X74322925Y-92690868D01*
X74320032Y-92677472D01*
X74269512Y-92526047D01*
X74263347Y-92512885D01*
X74179574Y-92377508D01*
X74170540Y-92366110D01*
X74057871Y-92253637D01*
X74046460Y-92244625D01*
X73910937Y-92161088D01*
X73897759Y-92154944D01*
X73746234Y-92104685D01*
X73732868Y-92101819D01*
X73640230Y-92092328D01*
X73633815Y-92092000D01*
X73622115Y-92092000D01*
X73606876Y-92096475D01*
X73605671Y-92097865D01*
X73604000Y-92105548D01*
X73604000Y-92865385D01*
X73096000Y-92865385D01*
X73096000Y-92110115D01*
X73091525Y-92094876D01*
X73090135Y-92093671D01*
X73082452Y-92092000D01*
X73066234Y-92092000D01*
X73059718Y-92092337D01*
X72965868Y-92102075D01*
X72952472Y-92104968D01*
X72801047Y-92155488D01*
X72787885Y-92161653D01*
X72652508Y-92245426D01*
X72641110Y-92254460D01*
X72528637Y-92367129D01*
X72519623Y-92378543D01*
X72457301Y-92479649D01*
X72404530Y-92527143D01*
X72334458Y-92538567D01*
X72269334Y-92510293D01*
X72242897Y-92479837D01*
X72179575Y-92377510D01*
X72170540Y-92366110D01*
X72057871Y-92253637D01*
X72046460Y-92244625D01*
X71910937Y-92161088D01*
X71897759Y-92154944D01*
X71746234Y-92104685D01*
X71732868Y-92101819D01*
X71640230Y-92092328D01*
X71633815Y-92092000D01*
X71622115Y-92092000D01*
X71606876Y-92096475D01*
X71605671Y-92097865D01*
X71604000Y-92105548D01*
X71604000Y-92865385D01*
X71096000Y-92865385D01*
X71096000Y-92110115D01*
X71091525Y-92094876D01*
X71090135Y-92093671D01*
X71082452Y-92092000D01*
X71066234Y-92092000D01*
X71059718Y-92092337D01*
X70965868Y-92102075D01*
X70952472Y-92104968D01*
X70801047Y-92155488D01*
X70787885Y-92161653D01*
X70652508Y-92245426D01*
X70641110Y-92254460D01*
X70528637Y-92367129D01*
X70519625Y-92378540D01*
X70436088Y-92514063D01*
X70429944Y-92527241D01*
X70379685Y-92678766D01*
X70376819Y-92692132D01*
X70367328Y-92784770D01*
X70367000Y-92791185D01*
X70367000Y-92865385D01*
X69992613Y-92865385D01*
X70040084Y-92777590D01*
X70040086Y-92777585D01*
X70043014Y-92772170D01*
X70104398Y-92573871D01*
X70105929Y-92559303D01*
X70125452Y-92373554D01*
X70125452Y-92373552D01*
X70126096Y-92367425D01*
X70114920Y-92244625D01*
X70107841Y-92166836D01*
X70107840Y-92166833D01*
X70107282Y-92160697D01*
X70104798Y-92152255D01*
X70050412Y-91967469D01*
X70048673Y-91961560D01*
X69952501Y-91777600D01*
X69822429Y-91615823D01*
X69809871Y-91605285D01*
X69668129Y-91486350D01*
X69663411Y-91482391D01*
X69658015Y-91479425D01*
X69658007Y-91479419D01*
X69642899Y-91471113D01*
X69592841Y-91420767D01*
X69577949Y-91351350D01*
X69602951Y-91284901D01*
X69640775Y-91252589D01*
X69640526Y-91252215D01*
X69643615Y-91250163D01*
X69644454Y-91249446D01*
X69645506Y-91248887D01*
X69651099Y-91245913D01*
X69759008Y-91157905D01*
X69807189Y-91118610D01*
X69807192Y-91118607D01*
X69811964Y-91114715D01*
X69944283Y-90954770D01*
X69949917Y-90944351D01*
X70040084Y-90777590D01*
X70040086Y-90777585D01*
X70043014Y-90772170D01*
X70104398Y-90573871D01*
X70105929Y-90559303D01*
X70125452Y-90373554D01*
X70125452Y-90373552D01*
X70126096Y-90367425D01*
X70110845Y-90199845D01*
X70107841Y-90166836D01*
X70107840Y-90166833D01*
X70107282Y-90160697D01*
X70104798Y-90152255D01*
X70050412Y-89967469D01*
X70048673Y-89961560D01*
X69952501Y-89777600D01*
X69822429Y-89615823D01*
X69809871Y-89605285D01*
X69668129Y-89486350D01*
X69663411Y-89482391D01*
X69658015Y-89479425D01*
X69658007Y-89479419D01*
X69642899Y-89471113D01*
X69592841Y-89420767D01*
X69577949Y-89351350D01*
X69602951Y-89284901D01*
X69640775Y-89252589D01*
X69640526Y-89252215D01*
X69643615Y-89250163D01*
X69644454Y-89249446D01*
X69645506Y-89248887D01*
X69651099Y-89245913D01*
X69790078Y-89132565D01*
X69807189Y-89118610D01*
X69807192Y-89118607D01*
X69811964Y-89114715D01*
X69824656Y-89099374D01*
X69940355Y-88959518D01*
X69944283Y-88954770D01*
X69948376Y-88947201D01*
X70030849Y-88794669D01*
X78942001Y-88794669D01*
X78942371Y-88801490D01*
X78947895Y-88852352D01*
X78951521Y-88867604D01*
X78996676Y-88988054D01*
X79005214Y-89003649D01*
X79081715Y-89105724D01*
X79094276Y-89118285D01*
X79196351Y-89194786D01*
X79211946Y-89203324D01*
X79332394Y-89248478D01*
X79347649Y-89252105D01*
X79398514Y-89257631D01*
X79405328Y-89258000D01*
X79927885Y-89258000D01*
X79943124Y-89253525D01*
X79944329Y-89252135D01*
X79946000Y-89244452D01*
X79946000Y-88022115D01*
X79941525Y-88006876D01*
X79940135Y-88005671D01*
X79932452Y-88004000D01*
X78960116Y-88004000D01*
X78944877Y-88008475D01*
X78943672Y-88009865D01*
X78942001Y-88017548D01*
X78942001Y-88794669D01*
X70030849Y-88794669D01*
X70040084Y-88777590D01*
X70040086Y-88777585D01*
X70043014Y-88772170D01*
X70104398Y-88573871D01*
X70105929Y-88559303D01*
X70125452Y-88373554D01*
X70125452Y-88373552D01*
X70126096Y-88367425D01*
X70107282Y-88160697D01*
X70104798Y-88152255D01*
X70050412Y-87967469D01*
X70048673Y-87961560D01*
X69952501Y-87777600D01*
X69822429Y-87615823D01*
X69809871Y-87605285D01*
X69713819Y-87524688D01*
X69663411Y-87482391D01*
X69658015Y-87479425D01*
X69658007Y-87479419D01*
X69655217Y-87477885D01*
X78942000Y-87477885D01*
X78946475Y-87493124D01*
X78947865Y-87494329D01*
X78955548Y-87496000D01*
X79927885Y-87496000D01*
X79943124Y-87491525D01*
X79944329Y-87490135D01*
X79946000Y-87482452D01*
X79946000Y-86260116D01*
X79941525Y-86244877D01*
X79940135Y-86243672D01*
X79932452Y-86242001D01*
X79405331Y-86242001D01*
X79398510Y-86242371D01*
X79347648Y-86247895D01*
X79332396Y-86251521D01*
X79211946Y-86296676D01*
X79196351Y-86305214D01*
X79094276Y-86381715D01*
X79081715Y-86394276D01*
X79005214Y-86496351D01*
X78996676Y-86511946D01*
X78951522Y-86632394D01*
X78947895Y-86647649D01*
X78942369Y-86698514D01*
X78942000Y-86705328D01*
X78942000Y-87477885D01*
X69655217Y-87477885D01*
X69642899Y-87471113D01*
X69592841Y-87420767D01*
X69577949Y-87351350D01*
X69602951Y-87284901D01*
X69640775Y-87252589D01*
X69640526Y-87252215D01*
X69643615Y-87250163D01*
X69644454Y-87249446D01*
X69645506Y-87248887D01*
X69651099Y-87245913D01*
X69727097Y-87183931D01*
X69785791Y-87136062D01*
X73278493Y-87136062D01*
X73287789Y-87148077D01*
X73338994Y-87183931D01*
X73348489Y-87189414D01*
X73545947Y-87281490D01*
X73556239Y-87285236D01*
X73766688Y-87341625D01*
X73777481Y-87343528D01*
X73994525Y-87362517D01*
X74005475Y-87362517D01*
X74222519Y-87343528D01*
X74233312Y-87341625D01*
X74443761Y-87285236D01*
X74454053Y-87281490D01*
X74651511Y-87189414D01*
X74661006Y-87183931D01*
X74713048Y-87147491D01*
X74721424Y-87137012D01*
X74714356Y-87123566D01*
X74012812Y-86422022D01*
X73998868Y-86414408D01*
X73997035Y-86414539D01*
X73990420Y-86418790D01*
X73284923Y-87124287D01*
X73278493Y-87136062D01*
X69785791Y-87136062D01*
X69807189Y-87118610D01*
X69807192Y-87118607D01*
X69811964Y-87114715D01*
X69820919Y-87103891D01*
X69940355Y-86959518D01*
X69944283Y-86954770D01*
X69948376Y-86947201D01*
X70040084Y-86777590D01*
X70040086Y-86777585D01*
X70043014Y-86772170D01*
X70104398Y-86573871D01*
X70105929Y-86559303D01*
X70125452Y-86373554D01*
X70125452Y-86373552D01*
X70126096Y-86367425D01*
X70116330Y-86260116D01*
X70107841Y-86166836D01*
X70107840Y-86166833D01*
X70107282Y-86160697D01*
X70104798Y-86152255D01*
X70076314Y-86055475D01*
X72687483Y-86055475D01*
X72706472Y-86272519D01*
X72708375Y-86283312D01*
X72764764Y-86493761D01*
X72768510Y-86504053D01*
X72860586Y-86701511D01*
X72866069Y-86711006D01*
X72902509Y-86763048D01*
X72912988Y-86771424D01*
X72926434Y-86764356D01*
X73627978Y-86062812D01*
X73634356Y-86051132D01*
X74364408Y-86051132D01*
X74364539Y-86052965D01*
X74368790Y-86059580D01*
X75074287Y-86765077D01*
X75116029Y-86787871D01*
X75126029Y-86790047D01*
X75176227Y-86840253D01*
X75191451Y-86893814D01*
X75191500Y-86894717D01*
X75191500Y-86898134D01*
X75198255Y-86960316D01*
X75249385Y-87096705D01*
X75336739Y-87213261D01*
X75453295Y-87300615D01*
X75589684Y-87351745D01*
X75651866Y-87358500D01*
X77348134Y-87358500D01*
X77410316Y-87351745D01*
X77546705Y-87300615D01*
X77663261Y-87213261D01*
X77750615Y-87096705D01*
X77801745Y-86960316D01*
X77808500Y-86898134D01*
X77808500Y-85201866D01*
X77801745Y-85139684D01*
X77750615Y-85003295D01*
X77663261Y-84886739D01*
X77546705Y-84799385D01*
X77410316Y-84748255D01*
X77348134Y-84741500D01*
X75651866Y-84741500D01*
X75589684Y-84748255D01*
X75453295Y-84799385D01*
X75336739Y-84886739D01*
X75249385Y-85003295D01*
X75198255Y-85139684D01*
X75191500Y-85201866D01*
X75191500Y-85205185D01*
X75167847Y-85272110D01*
X75121844Y-85307804D01*
X75122859Y-85309734D01*
X75112000Y-85315442D01*
X75111755Y-85315632D01*
X75111597Y-85315653D01*
X75073566Y-85335644D01*
X74372022Y-86037188D01*
X74364408Y-86051132D01*
X73634356Y-86051132D01*
X73635592Y-86048868D01*
X73635461Y-86047035D01*
X73631210Y-86040420D01*
X72925713Y-85334923D01*
X72913938Y-85328493D01*
X72901923Y-85337789D01*
X72866069Y-85388994D01*
X72860586Y-85398489D01*
X72768510Y-85595947D01*
X72764764Y-85606239D01*
X72708375Y-85816688D01*
X72706472Y-85827481D01*
X72687483Y-86044525D01*
X72687483Y-86055475D01*
X70076314Y-86055475D01*
X70050412Y-85967469D01*
X70048673Y-85961560D01*
X69952501Y-85777600D01*
X69822429Y-85615823D01*
X69811008Y-85606239D01*
X69668129Y-85486350D01*
X69663411Y-85482391D01*
X69658015Y-85479425D01*
X69658007Y-85479419D01*
X69642899Y-85471113D01*
X69592841Y-85420767D01*
X69577949Y-85351350D01*
X69602951Y-85284901D01*
X69640775Y-85252589D01*
X69640526Y-85252215D01*
X69643615Y-85250163D01*
X69644454Y-85249446D01*
X69645506Y-85248887D01*
X69651099Y-85245913D01*
X69710971Y-85197083D01*
X69807189Y-85118610D01*
X69807192Y-85118607D01*
X69811964Y-85114715D01*
X69937484Y-84962988D01*
X73278576Y-84962988D01*
X73285644Y-84976434D01*
X73987188Y-85677978D01*
X74001132Y-85685592D01*
X74002965Y-85685461D01*
X74009580Y-85681210D01*
X74715077Y-84975713D01*
X74721507Y-84963938D01*
X74712211Y-84951923D01*
X74661006Y-84916069D01*
X74651511Y-84910586D01*
X74454053Y-84818510D01*
X74443761Y-84814764D01*
X74233312Y-84758375D01*
X74222519Y-84756472D01*
X74005475Y-84737483D01*
X73994525Y-84737483D01*
X73777481Y-84756472D01*
X73766688Y-84758375D01*
X73556239Y-84814764D01*
X73545947Y-84818510D01*
X73348489Y-84910586D01*
X73338994Y-84916069D01*
X73286952Y-84952509D01*
X73278576Y-84962988D01*
X69937484Y-84962988D01*
X69944283Y-84954770D01*
X69948376Y-84947201D01*
X70040084Y-84777590D01*
X70040086Y-84777585D01*
X70043014Y-84772170D01*
X70104398Y-84573871D01*
X70105929Y-84559303D01*
X70125452Y-84373554D01*
X70125452Y-84373552D01*
X70126096Y-84367425D01*
X70107282Y-84160697D01*
X70104798Y-84152255D01*
X70050412Y-83967469D01*
X70048673Y-83961560D01*
X69952501Y-83777600D01*
X69822429Y-83615823D01*
X69809871Y-83605285D01*
X69668129Y-83486350D01*
X69663411Y-83482391D01*
X69658015Y-83479425D01*
X69658007Y-83479419D01*
X69642899Y-83471113D01*
X69592841Y-83420767D01*
X69577949Y-83351350D01*
X69602951Y-83284901D01*
X69640775Y-83252589D01*
X69640526Y-83252215D01*
X69643615Y-83250163D01*
X69644454Y-83249446D01*
X69645506Y-83248887D01*
X69651099Y-83245913D01*
X69710971Y-83197083D01*
X69807189Y-83118610D01*
X69807192Y-83118607D01*
X69811964Y-83114715D01*
X69944283Y-82954770D01*
X69947214Y-82949350D01*
X70040084Y-82777590D01*
X70040086Y-82777585D01*
X70043014Y-82772170D01*
X70104398Y-82573871D01*
X70105929Y-82559303D01*
X70125452Y-82373554D01*
X70125452Y-82373552D01*
X70126096Y-82367425D01*
X70107282Y-82160697D01*
X70104798Y-82152255D01*
X70050412Y-81967469D01*
X70048673Y-81961560D01*
X69952501Y-81777600D01*
X69822429Y-81615823D01*
X69809871Y-81605285D01*
X69692220Y-81506565D01*
X69663411Y-81482391D01*
X69658019Y-81479427D01*
X69658015Y-81479424D01*
X69486902Y-81385354D01*
X69481505Y-81382387D01*
X69283639Y-81319621D01*
X69277522Y-81318935D01*
X69277518Y-81318934D01*
X69198508Y-81310072D01*
X69122087Y-81301500D01*
X67610263Y-81301500D01*
X67607207Y-81301800D01*
X67607200Y-81301800D01*
X67556723Y-81306750D01*
X67519834Y-81310367D01*
X67450088Y-81297108D01*
X67398580Y-81248245D01*
X67381667Y-81179293D01*
X67404717Y-81112142D01*
X67411018Y-81103976D01*
X67426050Y-81086062D01*
X73278493Y-81086062D01*
X73287789Y-81098077D01*
X73338994Y-81133931D01*
X73348489Y-81139414D01*
X73545947Y-81231490D01*
X73556239Y-81235236D01*
X73766688Y-81291625D01*
X73777481Y-81293528D01*
X73994525Y-81312517D01*
X74005475Y-81312517D01*
X74222519Y-81293528D01*
X74233312Y-81291625D01*
X74443761Y-81235236D01*
X74454053Y-81231490D01*
X74651511Y-81139414D01*
X74661006Y-81133931D01*
X74713048Y-81097491D01*
X74721424Y-81087012D01*
X74714356Y-81073566D01*
X74012812Y-80372022D01*
X73998868Y-80364408D01*
X73997035Y-80364539D01*
X73990420Y-80368790D01*
X73284923Y-81074287D01*
X73278493Y-81086062D01*
X67426050Y-81086062D01*
X67535736Y-80955344D01*
X67542660Y-80945233D01*
X67636684Y-80774202D01*
X67641512Y-80762938D01*
X67700525Y-80576905D01*
X67703073Y-80564916D01*
X67720107Y-80413053D01*
X67720500Y-80406029D01*
X67720500Y-80005475D01*
X72687483Y-80005475D01*
X72706472Y-80222519D01*
X72708375Y-80233312D01*
X72764764Y-80443761D01*
X72768510Y-80454053D01*
X72860586Y-80651511D01*
X72866069Y-80661006D01*
X72902509Y-80713048D01*
X72912988Y-80721424D01*
X72926434Y-80714356D01*
X73627978Y-80012812D01*
X73634356Y-80001132D01*
X74364408Y-80001132D01*
X74364539Y-80002965D01*
X74368790Y-80009580D01*
X75074287Y-80715077D01*
X75116029Y-80737871D01*
X75126029Y-80740047D01*
X75176227Y-80790253D01*
X75191451Y-80843814D01*
X75191500Y-80844717D01*
X75191500Y-80848134D01*
X75198255Y-80910316D01*
X75249385Y-81046705D01*
X75336739Y-81163261D01*
X75453295Y-81250615D01*
X75589684Y-81301745D01*
X75651866Y-81308500D01*
X77348134Y-81308500D01*
X77410316Y-81301745D01*
X77546705Y-81250615D01*
X77663261Y-81163261D01*
X77750615Y-81046705D01*
X77801745Y-80910316D01*
X77808500Y-80848134D01*
X77808500Y-79151866D01*
X77801745Y-79089684D01*
X77750615Y-78953295D01*
X77663261Y-78836739D01*
X77546705Y-78749385D01*
X77410316Y-78698255D01*
X77348134Y-78691500D01*
X75651866Y-78691500D01*
X75589684Y-78698255D01*
X75453295Y-78749385D01*
X75336739Y-78836739D01*
X75249385Y-78953295D01*
X75198255Y-79089684D01*
X75191500Y-79151866D01*
X75191500Y-79155185D01*
X75167847Y-79222110D01*
X75121844Y-79257804D01*
X75122859Y-79259734D01*
X75112000Y-79265442D01*
X75111755Y-79265632D01*
X75111597Y-79265653D01*
X75073566Y-79285644D01*
X74372022Y-79987188D01*
X74364408Y-80001132D01*
X73634356Y-80001132D01*
X73635592Y-79998868D01*
X73635461Y-79997035D01*
X73631210Y-79990420D01*
X72925713Y-79284923D01*
X72913938Y-79278493D01*
X72901923Y-79287789D01*
X72866069Y-79338994D01*
X72860586Y-79348489D01*
X72768510Y-79545947D01*
X72764764Y-79556239D01*
X72708375Y-79766688D01*
X72706472Y-79777481D01*
X72687483Y-79994525D01*
X72687483Y-80005475D01*
X67720500Y-80005475D01*
X67720500Y-79922115D01*
X67716025Y-79906876D01*
X67714635Y-79905671D01*
X67706952Y-79904000D01*
X66934615Y-79904000D01*
X66919376Y-79908475D01*
X66918171Y-79909865D01*
X66916500Y-79917548D01*
X66916500Y-81360047D01*
X66920975Y-81375287D01*
X66940595Y-81392288D01*
X66978978Y-81452015D01*
X66978978Y-81523011D01*
X66937717Y-81585155D01*
X66917816Y-81601386D01*
X66917813Y-81601389D01*
X66913036Y-81605285D01*
X66780717Y-81765230D01*
X66777788Y-81770647D01*
X66777786Y-81770650D01*
X66684916Y-81942410D01*
X66684914Y-81942415D01*
X66681986Y-81947830D01*
X66620602Y-82146129D01*
X66619958Y-82152254D01*
X66619958Y-82152255D01*
X66618426Y-82166836D01*
X66598904Y-82352575D01*
X66617718Y-82559303D01*
X66619456Y-82565209D01*
X66619457Y-82565213D01*
X66633346Y-82612404D01*
X66676327Y-82758440D01*
X66772499Y-82942400D01*
X66776359Y-82947200D01*
X66776359Y-82947201D01*
X66780698Y-82952598D01*
X66902571Y-83104177D01*
X66907288Y-83108135D01*
X66907290Y-83108137D01*
X67011181Y-83195312D01*
X67061589Y-83237609D01*
X67066985Y-83240575D01*
X67066993Y-83240581D01*
X67082101Y-83248887D01*
X67132159Y-83299233D01*
X67147051Y-83368650D01*
X67122049Y-83435099D01*
X67084225Y-83467411D01*
X67084474Y-83467785D01*
X67081385Y-83469837D01*
X67080547Y-83470553D01*
X67073901Y-83474087D01*
X67058865Y-83486350D01*
X66917811Y-83601390D01*
X66917808Y-83601393D01*
X66913036Y-83605285D01*
X66780717Y-83765230D01*
X66777788Y-83770647D01*
X66777786Y-83770650D01*
X66684916Y-83942410D01*
X66684914Y-83942415D01*
X66681986Y-83947830D01*
X66620602Y-84146129D01*
X66619958Y-84152254D01*
X66619958Y-84152255D01*
X66618426Y-84166836D01*
X66598904Y-84352575D01*
X66617718Y-84559303D01*
X66619456Y-84565209D01*
X66619457Y-84565213D01*
X66662973Y-84713068D01*
X66676327Y-84758440D01*
X66772499Y-84942400D01*
X66902571Y-85104177D01*
X66907288Y-85108135D01*
X66907290Y-85108137D01*
X66954249Y-85147540D01*
X67061589Y-85237609D01*
X67066985Y-85240575D01*
X67066993Y-85240581D01*
X67082101Y-85248887D01*
X67132159Y-85299233D01*
X67147051Y-85368650D01*
X67122049Y-85435099D01*
X67084225Y-85467411D01*
X67084474Y-85467785D01*
X67081385Y-85469837D01*
X67080547Y-85470553D01*
X67073901Y-85474087D01*
X67058865Y-85486350D01*
X66917811Y-85601390D01*
X66917808Y-85601393D01*
X66913036Y-85605285D01*
X66780717Y-85765230D01*
X66777788Y-85770647D01*
X66777786Y-85770650D01*
X66684916Y-85942410D01*
X66684914Y-85942415D01*
X66681986Y-85947830D01*
X66620602Y-86146129D01*
X66619958Y-86152254D01*
X66619958Y-86152255D01*
X66610526Y-86242001D01*
X66598904Y-86352575D01*
X66617718Y-86559303D01*
X66619456Y-86565209D01*
X66619457Y-86565213D01*
X66658677Y-86698469D01*
X66676327Y-86758440D01*
X66772499Y-86942400D01*
X66902571Y-87104177D01*
X66907288Y-87108135D01*
X66907290Y-87108137D01*
X66954889Y-87148077D01*
X67061589Y-87237609D01*
X67066985Y-87240575D01*
X67066993Y-87240581D01*
X67082101Y-87248887D01*
X67132159Y-87299233D01*
X67147051Y-87368650D01*
X67122049Y-87435099D01*
X67084225Y-87467411D01*
X67084474Y-87467785D01*
X67081385Y-87469837D01*
X67080547Y-87470553D01*
X67073901Y-87474087D01*
X67049082Y-87494329D01*
X66917811Y-87601390D01*
X66917808Y-87601393D01*
X66913036Y-87605285D01*
X66780717Y-87765230D01*
X66777788Y-87770647D01*
X66777786Y-87770650D01*
X66684916Y-87942410D01*
X66684914Y-87942415D01*
X66681986Y-87947830D01*
X66620602Y-88146129D01*
X66619958Y-88152254D01*
X66619958Y-88152255D01*
X66618426Y-88166836D01*
X66598904Y-88352575D01*
X66617718Y-88559303D01*
X66619456Y-88565209D01*
X66619457Y-88565213D01*
X66662973Y-88713068D01*
X66676327Y-88758440D01*
X66772499Y-88942400D01*
X66902571Y-89104177D01*
X66907288Y-89108135D01*
X66907290Y-89108137D01*
X66936402Y-89132565D01*
X67061589Y-89237609D01*
X67066985Y-89240575D01*
X67066993Y-89240581D01*
X67082101Y-89248887D01*
X67132159Y-89299233D01*
X67147051Y-89368650D01*
X67122049Y-89435099D01*
X67084225Y-89467411D01*
X67084474Y-89467785D01*
X67081385Y-89469837D01*
X67080547Y-89470553D01*
X67073901Y-89474087D01*
X67058865Y-89486350D01*
X66917811Y-89601390D01*
X66917808Y-89601393D01*
X66913036Y-89605285D01*
X66780717Y-89765230D01*
X66777788Y-89770647D01*
X66777786Y-89770650D01*
X66684916Y-89942410D01*
X66684914Y-89942415D01*
X66681986Y-89947830D01*
X66620602Y-90146129D01*
X66619958Y-90152254D01*
X66619958Y-90152255D01*
X66615530Y-90194390D01*
X66598904Y-90352575D01*
X66600813Y-90373554D01*
X66613427Y-90512150D01*
X66617718Y-90559303D01*
X66619456Y-90565209D01*
X66619457Y-90565213D01*
X66662973Y-90713068D01*
X66676327Y-90758440D01*
X66772499Y-90942400D01*
X66902571Y-91104177D01*
X66907288Y-91108135D01*
X66907290Y-91108137D01*
X67011181Y-91195312D01*
X67061589Y-91237609D01*
X67066985Y-91240575D01*
X67066993Y-91240581D01*
X67082101Y-91248887D01*
X67132159Y-91299233D01*
X67147051Y-91368650D01*
X67122049Y-91435099D01*
X67084225Y-91467411D01*
X67084474Y-91467785D01*
X67081385Y-91469837D01*
X67080547Y-91470553D01*
X67073901Y-91474087D01*
X67058865Y-91486350D01*
X66917811Y-91601390D01*
X66917808Y-91601393D01*
X66913036Y-91605285D01*
X66780717Y-91765230D01*
X66777788Y-91770647D01*
X66777786Y-91770650D01*
X66684916Y-91942410D01*
X66684914Y-91942415D01*
X66681986Y-91947830D01*
X66620602Y-92146129D01*
X66619958Y-92152254D01*
X66619958Y-92152255D01*
X66599689Y-92345110D01*
X66598904Y-92352575D01*
X66602807Y-92395458D01*
X66613494Y-92512885D01*
X66617718Y-92559303D01*
X66619456Y-92565209D01*
X66619457Y-92565213D01*
X66656812Y-92692132D01*
X66676327Y-92758440D01*
X66772499Y-92942400D01*
X66776355Y-92947196D01*
X66776363Y-92947208D01*
X66894413Y-93094031D01*
X66921510Y-93159653D01*
X66908827Y-93229508D01*
X66860391Y-93281416D01*
X66791580Y-93298898D01*
X66783047Y-93298293D01*
X66676054Y-93287048D01*
X66676052Y-93287048D01*
X66669925Y-93286404D01*
X66603569Y-93292443D01*
X66469336Y-93304659D01*
X66469333Y-93304660D01*
X66463197Y-93305218D01*
X66457291Y-93306956D01*
X66457287Y-93306957D01*
X66336948Y-93342375D01*
X66264060Y-93363827D01*
X66080100Y-93459999D01*
X66075300Y-93463859D01*
X66075299Y-93463859D01*
X66042500Y-93490230D01*
X65918323Y-93590071D01*
X65914365Y-93594788D01*
X65914363Y-93594790D01*
X65912066Y-93597528D01*
X65784891Y-93749089D01*
X65781925Y-93754485D01*
X65781919Y-93754493D01*
X65773613Y-93769601D01*
X65723267Y-93819659D01*
X65653850Y-93834551D01*
X65587401Y-93809549D01*
X65555089Y-93771725D01*
X65554715Y-93771974D01*
X65552663Y-93768885D01*
X65551946Y-93768046D01*
X65551308Y-93766846D01*
X65548413Y-93761401D01*
X65484280Y-93682766D01*
X65421110Y-93605311D01*
X65421107Y-93605308D01*
X65417215Y-93600536D01*
X65410270Y-93594790D01*
X65262018Y-93472145D01*
X65262019Y-93472145D01*
X65257270Y-93468217D01*
X65251853Y-93465288D01*
X65251850Y-93465286D01*
X65080090Y-93372416D01*
X65080085Y-93372414D01*
X65074670Y-93369486D01*
X64966323Y-93335947D01*
X64922241Y-93322301D01*
X64863081Y-93283049D01*
X64834534Y-93218045D01*
X64833500Y-93201936D01*
X64833500Y-82664594D01*
X64853502Y-82596473D01*
X64870405Y-82575499D01*
X65985445Y-81460459D01*
X65993735Y-81452915D01*
X66000216Y-81448802D01*
X66046857Y-81399134D01*
X66049611Y-81396293D01*
X66069333Y-81376571D01*
X66071810Y-81373378D01*
X66079513Y-81364359D01*
X66083562Y-81360047D01*
X66092045Y-81351013D01*
X66153256Y-81315046D01*
X66224196Y-81317882D01*
X66243824Y-81326427D01*
X66245107Y-81327121D01*
X66256408Y-81331871D01*
X66391193Y-81373595D01*
X66405295Y-81373801D01*
X66408500Y-81367045D01*
X66408500Y-79522000D01*
X66428502Y-79453879D01*
X66482158Y-79407386D01*
X66534500Y-79396000D01*
X67702385Y-79396000D01*
X67717624Y-79391525D01*
X67718829Y-79390135D01*
X67720500Y-79382452D01*
X67720500Y-78912988D01*
X73278576Y-78912988D01*
X73285644Y-78926434D01*
X73987188Y-79627978D01*
X74001132Y-79635592D01*
X74002965Y-79635461D01*
X74009580Y-79631210D01*
X74715077Y-78925713D01*
X74721507Y-78913938D01*
X74712211Y-78901923D01*
X74661006Y-78866069D01*
X74651511Y-78860586D01*
X74454053Y-78768510D01*
X74443761Y-78764764D01*
X74233312Y-78708375D01*
X74222519Y-78706472D01*
X74005475Y-78687483D01*
X73994525Y-78687483D01*
X73777481Y-78706472D01*
X73766688Y-78708375D01*
X73556239Y-78764764D01*
X73545947Y-78768510D01*
X73348489Y-78860586D01*
X73338994Y-78866069D01*
X73286952Y-78902509D01*
X73278576Y-78912988D01*
X67720500Y-78912988D01*
X67720500Y-78900876D01*
X67720199Y-78894728D01*
X67705973Y-78749639D01*
X67703590Y-78737604D01*
X67660812Y-78595918D01*
X67660271Y-78524924D01*
X67698198Y-78464907D01*
X67762553Y-78434923D01*
X67781434Y-78433500D01*
X78971233Y-78433500D01*
X78982416Y-78434027D01*
X78989909Y-78435702D01*
X78997835Y-78435453D01*
X78997836Y-78435453D01*
X79057986Y-78433562D01*
X79061945Y-78433500D01*
X79089856Y-78433500D01*
X79093791Y-78433003D01*
X79093856Y-78432995D01*
X79105693Y-78432062D01*
X79137951Y-78431048D01*
X79141970Y-78430922D01*
X79149889Y-78430673D01*
X79169343Y-78425021D01*
X79188700Y-78421013D01*
X79200930Y-78419468D01*
X79200931Y-78419468D01*
X79208797Y-78418474D01*
X79216168Y-78415555D01*
X79216170Y-78415555D01*
X79249912Y-78402196D01*
X79261142Y-78398351D01*
X79295983Y-78388229D01*
X79295984Y-78388229D01*
X79303593Y-78386018D01*
X79310412Y-78381985D01*
X79310417Y-78381983D01*
X79321028Y-78375707D01*
X79338776Y-78367012D01*
X79357617Y-78359552D01*
X79393387Y-78333564D01*
X79403307Y-78327048D01*
X79434535Y-78308580D01*
X79434538Y-78308578D01*
X79441362Y-78304542D01*
X79455683Y-78290221D01*
X79470717Y-78277380D01*
X79480694Y-78270131D01*
X79487107Y-78265472D01*
X79515298Y-78231395D01*
X79523288Y-78222616D01*
X82892253Y-74853652D01*
X82900539Y-74846112D01*
X82907018Y-74842000D01*
X82953644Y-74792348D01*
X82956398Y-74789507D01*
X82976135Y-74769770D01*
X82978615Y-74766573D01*
X82986320Y-74757551D01*
X82986954Y-74756876D01*
X83016586Y-74725321D01*
X83020405Y-74718375D01*
X83020407Y-74718372D01*
X83026348Y-74707566D01*
X83037199Y-74691047D01*
X83044758Y-74681301D01*
X83049614Y-74675041D01*
X83052759Y-74667772D01*
X83052762Y-74667768D01*
X83067174Y-74634463D01*
X83072391Y-74623813D01*
X83093695Y-74585060D01*
X83098733Y-74565437D01*
X83105137Y-74546734D01*
X83110033Y-74535420D01*
X83110033Y-74535419D01*
X83113181Y-74528145D01*
X83114420Y-74520322D01*
X83114423Y-74520312D01*
X83120099Y-74484476D01*
X83122505Y-74472856D01*
X83131528Y-74437711D01*
X83131528Y-74437710D01*
X83133500Y-74430030D01*
X83133500Y-74409776D01*
X83135051Y-74390065D01*
X83136980Y-74377886D01*
X83138220Y-74370057D01*
X83134059Y-74326038D01*
X83133500Y-74314181D01*
X83133500Y-72974899D01*
X83153502Y-72906778D01*
X83193197Y-72867755D01*
X83218120Y-72852332D01*
X83224348Y-72848478D01*
X83349305Y-72723303D01*
X83392746Y-72652829D01*
X83445517Y-72605337D01*
X83515589Y-72593913D01*
X83580712Y-72622187D01*
X83607148Y-72652641D01*
X83651522Y-72724348D01*
X83776697Y-72849305D01*
X83782927Y-72853145D01*
X83782928Y-72853146D01*
X83920288Y-72937816D01*
X83927262Y-72942115D01*
X83943582Y-72947528D01*
X84088611Y-72995632D01*
X84088613Y-72995632D01*
X84095139Y-72997797D01*
X84101975Y-72998497D01*
X84101978Y-72998498D01*
X84145031Y-73002909D01*
X84199600Y-73008500D01*
X84800400Y-73008500D01*
X84803646Y-73008163D01*
X84803650Y-73008163D01*
X84899308Y-72998238D01*
X84899312Y-72998237D01*
X84906166Y-72997526D01*
X84912702Y-72995345D01*
X84912704Y-72995345D01*
X85056028Y-72947528D01*
X85073946Y-72941550D01*
X85224348Y-72848478D01*
X85349305Y-72723303D01*
X85393040Y-72652352D01*
X85445811Y-72604860D01*
X85515883Y-72593436D01*
X85581006Y-72621710D01*
X85607443Y-72652166D01*
X85648063Y-72717807D01*
X85657099Y-72729208D01*
X85771829Y-72843739D01*
X85783240Y-72852751D01*
X85921243Y-72937816D01*
X85934424Y-72943963D01*
X86088710Y-72995138D01*
X86102086Y-72998005D01*
X86196438Y-73007672D01*
X86202854Y-73008000D01*
X86227885Y-73008000D01*
X86243124Y-73003525D01*
X86244329Y-73002135D01*
X86246000Y-72994452D01*
X86246000Y-68010116D01*
X86241525Y-67994877D01*
X86240135Y-67993672D01*
X86232452Y-67992001D01*
X86202905Y-67992001D01*
X86196386Y-67992338D01*
X86100794Y-68002257D01*
X86087400Y-68005149D01*
X85933216Y-68056588D01*
X85920038Y-68062761D01*
X85782193Y-68148063D01*
X85770792Y-68157099D01*
X85656261Y-68271829D01*
X85647249Y-68283240D01*
X85607549Y-68347646D01*
X85554777Y-68395139D01*
X85484706Y-68406563D01*
X85419582Y-68378289D01*
X85393145Y-68347833D01*
X85352332Y-68281880D01*
X85348478Y-68275652D01*
X85223303Y-68150695D01*
X85217072Y-68146854D01*
X85090444Y-68068799D01*
X85054625Y-68035602D01*
X85033564Y-68006614D01*
X85027053Y-67996701D01*
X85008578Y-67965460D01*
X85008574Y-67965455D01*
X85004542Y-67958637D01*
X84990218Y-67944313D01*
X84977376Y-67929278D01*
X84976950Y-67928691D01*
X84965472Y-67912893D01*
X84931406Y-67884711D01*
X84922627Y-67876722D01*
X84828652Y-67782747D01*
X84821112Y-67774461D01*
X84817000Y-67767982D01*
X84800378Y-67752373D01*
X84772667Y-67726350D01*
X84736701Y-67665138D01*
X84739538Y-67594198D01*
X84780278Y-67536054D01*
X84845986Y-67509165D01*
X84858919Y-67508500D01*
X87314141Y-67508500D01*
X87382262Y-67528502D01*
G37*
%TD.AperFunction*%
%TA.AperFunction,Conductor*%
G36*
X82151121Y-92622002D02*
G01*
X82197614Y-92675658D01*
X82209000Y-92728000D01*
X82209000Y-93315500D01*
X82188998Y-93383621D01*
X82135342Y-93430114D01*
X82083000Y-93441500D01*
X81723137Y-93441500D01*
X81655016Y-93421498D01*
X81608523Y-93367842D01*
X81598419Y-93297568D01*
X81627913Y-93232988D01*
X81687639Y-93194604D01*
X81698124Y-93191525D01*
X81699329Y-93190135D01*
X81701000Y-93182452D01*
X81701000Y-92728000D01*
X81721002Y-92659879D01*
X81774658Y-92613386D01*
X81827000Y-92602000D01*
X82083000Y-92602000D01*
X82151121Y-92622002D01*
G37*
%TD.AperFunction*%
%TD*%
M02*
