%TF.GenerationSoftware,KiCad,Pcbnew,(6.0.9-0)*%
%TF.CreationDate,2022-12-26T10:40:34+01:00*%
%TF.ProjectId,RM3 mini ESP,524d3320-6d69-46e6-9920-4553502e6b69,rev?*%
%TF.SameCoordinates,Original*%
%TF.FileFunction,Profile,NP*%
%FSLAX46Y46*%
G04 Gerber Fmt 4.6, Leading zero omitted, Abs format (unit mm)*
G04 Created by KiCad (PCBNEW (6.0.9-0)) date 2022-12-26 10:40:34*
%MOMM*%
%LPD*%
G01*
G04 APERTURE LIST*
%TA.AperFunction,Profile*%
%ADD10C,0.100000*%
%TD*%
G04 APERTURE END LIST*
D10*
X55700000Y-108000000D02*
X57100000Y-108000000D01*
X49700000Y-110000000D02*
X55700000Y-110000000D01*
X48400000Y-108000000D02*
X49700000Y-108000000D01*
X77600000Y-67000000D02*
X77600000Y-71500000D01*
X57100000Y-110000000D02*
X90100000Y-110000000D01*
X53000000Y-70500000D02*
X53000000Y-71500000D01*
X49700000Y-108000000D02*
X49700000Y-110000000D01*
X77600000Y-71500000D02*
X76500000Y-71500000D01*
X89100000Y-67000000D02*
X77600000Y-67000000D01*
X48400000Y-110000000D02*
X48400000Y-108000000D01*
X76500000Y-71500000D02*
X76500000Y-70500000D01*
X57100000Y-108000000D02*
X57100000Y-110000000D01*
X52000000Y-67000000D02*
X43800000Y-67000000D01*
X43800000Y-110000000D02*
X48400000Y-110000000D01*
X53000000Y-71500000D02*
X52000000Y-71500000D01*
X90100000Y-110000000D02*
X90100000Y-71500000D01*
X76500000Y-70500000D02*
X53000000Y-70500000D01*
X89100000Y-71500000D02*
X89100000Y-67000000D01*
X55700000Y-110000000D02*
X55700000Y-108000000D01*
X90100000Y-71500000D02*
X89100000Y-71500000D01*
X43800000Y-67000000D02*
X43800000Y-110000000D01*
X52000000Y-71500000D02*
X52000000Y-67000000D01*
M02*
