%TF.GenerationSoftware,KiCad,Pcbnew,(6.0.9-0)*%
%TF.CreationDate,2022-12-26T10:40:34+01:00*%
%TF.ProjectId,RM3 mini ESP,524d3320-6d69-46e6-9920-4553502e6b69,rev?*%
%TF.SameCoordinates,Original*%
%TF.FileFunction,Soldermask,Top*%
%TF.FilePolarity,Negative*%
%FSLAX46Y46*%
G04 Gerber Fmt 4.6, Leading zero omitted, Abs format (unit mm)*
G04 Created by KiCad (PCBNEW (6.0.9-0)) date 2022-12-26 10:40:34*
%MOMM*%
%LPD*%
G01*
G04 APERTURE LIST*
G04 Aperture macros list*
%AMRoundRect*
0 Rectangle with rounded corners*
0 $1 Rounding radius*
0 $2 $3 $4 $5 $6 $7 $8 $9 X,Y pos of 4 corners*
0 Add a 4 corners polygon primitive as box body*
4,1,4,$2,$3,$4,$5,$6,$7,$8,$9,$2,$3,0*
0 Add four circle primitives for the rounded corners*
1,1,$1+$1,$2,$3*
1,1,$1+$1,$4,$5*
1,1,$1+$1,$6,$7*
1,1,$1+$1,$8,$9*
0 Add four rect primitives between the rounded corners*
20,1,$1+$1,$2,$3,$4,$5,0*
20,1,$1+$1,$4,$5,$6,$7,0*
20,1,$1+$1,$6,$7,$8,$9,0*
20,1,$1+$1,$8,$9,$2,$3,0*%
G04 Aperture macros list end*
%ADD10RoundRect,0.237500X0.237500X-0.250000X0.237500X0.250000X-0.237500X0.250000X-0.237500X-0.250000X0*%
%ADD11RoundRect,0.237500X0.237500X-0.287500X0.237500X0.287500X-0.237500X0.287500X-0.237500X-0.287500X0*%
%ADD12RoundRect,0.250000X-0.250000X-1.750000X0.250000X-1.750000X0.250000X1.750000X-0.250000X1.750000X0*%
%ADD13C,2.000000*%
%ADD14R,1.100000X2.500000*%
%ADD15O,1.100000X2.500000*%
%ADD16O,2.500000X1.100000*%
%ADD17R,1.500000X2.000000*%
%ADD18R,3.800000X2.000000*%
%ADD19R,1.700000X1.700000*%
%ADD20O,1.700000X1.700000*%
%ADD21R,1.600000X1.600000*%
%ADD22C,1.600000*%
%ADD23RoundRect,0.237500X-0.237500X0.250000X-0.237500X-0.250000X0.237500X-0.250000X0.237500X0.250000X0*%
%ADD24RoundRect,0.237500X0.237500X-0.300000X0.237500X0.300000X-0.237500X0.300000X-0.237500X-0.300000X0*%
%ADD25C,0.650000*%
%ADD26R,1.450000X0.600000*%
%ADD27R,1.450000X0.300000*%
%ADD28O,1.600000X1.000000*%
%ADD29O,2.100000X1.000000*%
%ADD30RoundRect,0.237500X0.300000X0.237500X-0.300000X0.237500X-0.300000X-0.237500X0.300000X-0.237500X0*%
G04 APERTURE END LIST*
D10*
%TO.C,R3*%
X84000000Y-106912500D03*
X84000000Y-105087500D03*
%TD*%
D11*
%TO.C,D4*%
X45850000Y-100875000D03*
X45850000Y-99125000D03*
%TD*%
D12*
%TO.C,J2*%
X88500000Y-70500000D03*
X86500000Y-70500000D03*
X84500000Y-70500000D03*
X82500000Y-70500000D03*
X80500000Y-70500000D03*
X78500000Y-70500000D03*
%TD*%
D13*
%TO.C,RST*%
X59650000Y-108050000D03*
X59650000Y-101550000D03*
X64150000Y-108050000D03*
X64150000Y-101550000D03*
%TD*%
D14*
%TO.C,U1*%
X52662500Y-95050000D03*
D15*
X54662500Y-95050000D03*
X56662500Y-95050000D03*
X58662500Y-95050000D03*
X60662500Y-95050000D03*
X62662500Y-95050000D03*
X64662500Y-95050000D03*
X66662500Y-95050000D03*
X66662500Y-79650000D03*
X64662500Y-79750000D03*
X62662500Y-79650000D03*
X60662500Y-79650000D03*
X58662500Y-79650000D03*
X56662500Y-79650000D03*
X54662500Y-79650000D03*
X52662500Y-79650000D03*
D16*
X68362500Y-92360000D03*
X68362500Y-90360000D03*
X68362500Y-88360000D03*
X68362500Y-86360000D03*
X68362500Y-84360000D03*
X68362500Y-82360000D03*
%TD*%
D17*
%TO.C,U2*%
X80200000Y-87750000D03*
D18*
X82500000Y-81450000D03*
D17*
X82500000Y-87750000D03*
X84800000Y-87750000D03*
%TD*%
D19*
%TO.C,J4*%
X47800000Y-74500000D03*
D20*
X47800000Y-71960000D03*
X47800000Y-69420000D03*
%TD*%
D13*
%TO.C,FLASH*%
X67500000Y-108050000D03*
X67500000Y-101550000D03*
X72000000Y-101550000D03*
X72000000Y-108050000D03*
%TD*%
D21*
%TO.C,C4*%
X76500000Y-86050000D03*
D22*
X74000000Y-86050000D03*
%TD*%
D23*
%TO.C,R2*%
X86000000Y-105087500D03*
X86000000Y-106912500D03*
%TD*%
D24*
%TO.C,C1*%
X71350000Y-94862500D03*
X71350000Y-93137500D03*
%TD*%
D19*
%TO.C,J3*%
X57760000Y-72800000D03*
D20*
X60300000Y-72800000D03*
X62840000Y-72800000D03*
X65380000Y-72800000D03*
X67920000Y-72800000D03*
X70460000Y-72800000D03*
%TD*%
D23*
%TO.C,R5*%
X80000000Y-105087500D03*
X80000000Y-106912500D03*
%TD*%
D25*
%TO.C,J1*%
X83400000Y-93810000D03*
X83400000Y-99590000D03*
D26*
X81955000Y-99950000D03*
X81955000Y-99150000D03*
D27*
X81955000Y-97950000D03*
X81955000Y-96950000D03*
X81955000Y-96450000D03*
X81955000Y-95450000D03*
D26*
X81955000Y-94250000D03*
X81955000Y-93450000D03*
X81955000Y-93450000D03*
X81955000Y-94250000D03*
D27*
X81955000Y-94950000D03*
X81955000Y-95950000D03*
X81955000Y-97450000D03*
X81955000Y-98450000D03*
D26*
X81955000Y-99150000D03*
X81955000Y-99950000D03*
D28*
X87050000Y-92380000D03*
D29*
X82870000Y-92380000D03*
D28*
X87050000Y-101020000D03*
D29*
X82870000Y-101020000D03*
%TD*%
D30*
%TO.C,C5*%
X76762500Y-72550000D03*
X75037500Y-72550000D03*
%TD*%
D10*
%TO.C,R4*%
X82000000Y-106912500D03*
X82000000Y-105087500D03*
%TD*%
D23*
%TO.C,R1*%
X88000000Y-105087500D03*
X88000000Y-106912500D03*
%TD*%
%TO.C,R7*%
X47850000Y-99087500D03*
X47850000Y-100912500D03*
%TD*%
D24*
%TO.C,C2*%
X73350000Y-94862500D03*
X73350000Y-93137500D03*
%TD*%
D21*
%TO.C,C3*%
X76500000Y-80000000D03*
D22*
X74000000Y-80000000D03*
%TD*%
D23*
%TO.C,R6*%
X78000000Y-105087500D03*
X78000000Y-106912500D03*
%TD*%
M02*
