%TF.GenerationSoftware,KiCad,Pcbnew,(6.0.9)*%
%TF.CreationDate,2022-12-26T20:31:52+01:00*%
%TF.ProjectId,RM3 mini ESP,524d3320-6d69-46e6-9920-4553502e6b69,rev?*%
%TF.SameCoordinates,Original*%
%TF.FileFunction,Legend,Bot*%
%TF.FilePolarity,Positive*%
%FSLAX46Y46*%
G04 Gerber Fmt 4.6, Leading zero omitted, Abs format (unit mm)*
G04 Created by KiCad (PCBNEW (6.0.9)) date 2022-12-26 20:31:52*
%MOMM*%
%LPD*%
G01*
G04 APERTURE LIST*
%ADD10C,0.150000*%
G04 APERTURE END LIST*
D10*
X87547380Y-69971428D02*
X87071190Y-69638095D01*
X87547380Y-69400000D02*
X86547380Y-69400000D01*
X86547380Y-69780952D01*
X86595000Y-69876190D01*
X86642619Y-69923809D01*
X86737857Y-69971428D01*
X86880714Y-69971428D01*
X86975952Y-69923809D01*
X87023571Y-69876190D01*
X87071190Y-69780952D01*
X87071190Y-69400000D01*
X87547380Y-70400000D02*
X86547380Y-70400000D01*
X87261666Y-70733333D01*
X86547380Y-71066666D01*
X87547380Y-71066666D01*
X86547380Y-71447619D02*
X86547380Y-72066666D01*
X86928333Y-71733333D01*
X86928333Y-71876190D01*
X86975952Y-71971428D01*
X87023571Y-72019047D01*
X87118809Y-72066666D01*
X87356904Y-72066666D01*
X87452142Y-72019047D01*
X87499761Y-71971428D01*
X87547380Y-71876190D01*
X87547380Y-71590476D01*
X87499761Y-71495238D01*
X87452142Y-71447619D01*
X87547380Y-73257142D02*
X86880714Y-73257142D01*
X86975952Y-73257142D02*
X86928333Y-73304761D01*
X86880714Y-73400000D01*
X86880714Y-73542857D01*
X86928333Y-73638095D01*
X87023571Y-73685714D01*
X87547380Y-73685714D01*
X87023571Y-73685714D02*
X86928333Y-73733333D01*
X86880714Y-73828571D01*
X86880714Y-73971428D01*
X86928333Y-74066666D01*
X87023571Y-74114285D01*
X87547380Y-74114285D01*
X87547380Y-74590476D02*
X86880714Y-74590476D01*
X86547380Y-74590476D02*
X86595000Y-74542857D01*
X86642619Y-74590476D01*
X86595000Y-74638095D01*
X86547380Y-74590476D01*
X86642619Y-74590476D01*
X86880714Y-75066666D02*
X87547380Y-75066666D01*
X86975952Y-75066666D02*
X86928333Y-75114285D01*
X86880714Y-75209523D01*
X86880714Y-75352380D01*
X86928333Y-75447619D01*
X87023571Y-75495238D01*
X87547380Y-75495238D01*
X87547380Y-75971428D02*
X86880714Y-75971428D01*
X86547380Y-75971428D02*
X86595000Y-75923809D01*
X86642619Y-75971428D01*
X86595000Y-76019047D01*
X86547380Y-75971428D01*
X86642619Y-75971428D01*
X87023571Y-77209523D02*
X87023571Y-77542857D01*
X87547380Y-77685714D02*
X87547380Y-77209523D01*
X86547380Y-77209523D01*
X86547380Y-77685714D01*
X87499761Y-78066666D02*
X87547380Y-78209523D01*
X87547380Y-78447619D01*
X87499761Y-78542857D01*
X87452142Y-78590476D01*
X87356904Y-78638095D01*
X87261666Y-78638095D01*
X87166428Y-78590476D01*
X87118809Y-78542857D01*
X87071190Y-78447619D01*
X87023571Y-78257142D01*
X86975952Y-78161904D01*
X86928333Y-78114285D01*
X86833095Y-78066666D01*
X86737857Y-78066666D01*
X86642619Y-78114285D01*
X86595000Y-78161904D01*
X86547380Y-78257142D01*
X86547380Y-78495238D01*
X86595000Y-78638095D01*
X87547380Y-79066666D02*
X86547380Y-79066666D01*
X86547380Y-79447619D01*
X86595000Y-79542857D01*
X86642619Y-79590476D01*
X86737857Y-79638095D01*
X86880714Y-79638095D01*
X86975952Y-79590476D01*
X87023571Y-79542857D01*
X87071190Y-79447619D01*
X87071190Y-79066666D01*
X86975952Y-80209523D02*
X86928333Y-80114285D01*
X86880714Y-80066666D01*
X86785476Y-80019047D01*
X86737857Y-80019047D01*
X86642619Y-80066666D01*
X86595000Y-80114285D01*
X86547380Y-80209523D01*
X86547380Y-80400000D01*
X86595000Y-80495238D01*
X86642619Y-80542857D01*
X86737857Y-80590476D01*
X86785476Y-80590476D01*
X86880714Y-80542857D01*
X86928333Y-80495238D01*
X86975952Y-80400000D01*
X86975952Y-80209523D01*
X87023571Y-80114285D01*
X87071190Y-80066666D01*
X87166428Y-80019047D01*
X87356904Y-80019047D01*
X87452142Y-80066666D01*
X87499761Y-80114285D01*
X87547380Y-80209523D01*
X87547380Y-80400000D01*
X87499761Y-80495238D01*
X87452142Y-80542857D01*
X87356904Y-80590476D01*
X87166428Y-80590476D01*
X87071190Y-80542857D01*
X87023571Y-80495238D01*
X86975952Y-80400000D01*
X86642619Y-80971428D02*
X86595000Y-81019047D01*
X86547380Y-81114285D01*
X86547380Y-81352380D01*
X86595000Y-81447619D01*
X86642619Y-81495238D01*
X86737857Y-81542857D01*
X86833095Y-81542857D01*
X86975952Y-81495238D01*
X87547380Y-80923809D01*
X87547380Y-81542857D01*
X86547380Y-82400000D02*
X86547380Y-82209523D01*
X86595000Y-82114285D01*
X86642619Y-82066666D01*
X86785476Y-81971428D01*
X86975952Y-81923809D01*
X87356904Y-81923809D01*
X87452142Y-81971428D01*
X87499761Y-82019047D01*
X87547380Y-82114285D01*
X87547380Y-82304761D01*
X87499761Y-82400000D01*
X87452142Y-82447619D01*
X87356904Y-82495238D01*
X87118809Y-82495238D01*
X87023571Y-82447619D01*
X86975952Y-82400000D01*
X86928333Y-82304761D01*
X86928333Y-82114285D01*
X86975952Y-82019047D01*
X87023571Y-81971428D01*
X87118809Y-81923809D01*
X86547380Y-83352380D02*
X86547380Y-83161904D01*
X86595000Y-83066666D01*
X86642619Y-83019047D01*
X86785476Y-82923809D01*
X86975952Y-82876190D01*
X87356904Y-82876190D01*
X87452142Y-82923809D01*
X87499761Y-82971428D01*
X87547380Y-83066666D01*
X87547380Y-83257142D01*
X87499761Y-83352380D01*
X87452142Y-83400000D01*
X87356904Y-83447619D01*
X87118809Y-83447619D01*
X87023571Y-83400000D01*
X86975952Y-83352380D01*
X86928333Y-83257142D01*
X86928333Y-83066666D01*
X86975952Y-82971428D01*
X87023571Y-82923809D01*
X87118809Y-82876190D01*
X87166428Y-83876190D02*
X87166428Y-84638095D01*
X87547380Y-85638095D02*
X87547380Y-85066666D01*
X87547380Y-85352380D02*
X86547380Y-85352380D01*
X86690238Y-85257142D01*
X86785476Y-85161904D01*
X86833095Y-85066666D01*
X86642619Y-86019047D02*
X86595000Y-86066666D01*
X86547380Y-86161904D01*
X86547380Y-86400000D01*
X86595000Y-86495238D01*
X86642619Y-86542857D01*
X86737857Y-86590476D01*
X86833095Y-86590476D01*
X86975952Y-86542857D01*
X87547380Y-85971428D01*
X87547380Y-86590476D01*
X87023571Y-87352380D02*
X87023571Y-87019047D01*
X87547380Y-87019047D02*
X86547380Y-87019047D01*
X86547380Y-87495238D01*
X88490714Y-73447619D02*
X89157380Y-73447619D01*
X88490714Y-73019047D02*
X89014523Y-73019047D01*
X89109761Y-73066666D01*
X89157380Y-73161904D01*
X89157380Y-73304761D01*
X89109761Y-73400000D01*
X89062142Y-73447619D01*
X88109761Y-74638095D02*
X89395476Y-73780952D01*
X88157380Y-74828571D02*
X88157380Y-75400000D01*
X89157380Y-75114285D02*
X88157380Y-75114285D01*
X89157380Y-75733333D02*
X88157380Y-75733333D01*
X89157380Y-76161904D02*
X88633571Y-76161904D01*
X88538333Y-76114285D01*
X88490714Y-76019047D01*
X88490714Y-75876190D01*
X88538333Y-75780952D01*
X88585952Y-75733333D01*
X89157380Y-76542857D02*
X88490714Y-77066666D01*
X88490714Y-76542857D02*
X89157380Y-77066666D01*
X89252619Y-77209523D02*
X89252619Y-77971428D01*
X88871666Y-78161904D02*
X88871666Y-78638095D01*
X89157380Y-78066666D02*
X88157380Y-78400000D01*
X89157380Y-78733333D01*
X88490714Y-79066666D02*
X89157380Y-79066666D01*
X88585952Y-79066666D02*
X88538333Y-79114285D01*
X88490714Y-79209523D01*
X88490714Y-79352380D01*
X88538333Y-79447619D01*
X88633571Y-79495238D01*
X89157380Y-79495238D01*
X89157380Y-80400000D02*
X88157380Y-80400000D01*
X89109761Y-80400000D02*
X89157380Y-80304761D01*
X89157380Y-80114285D01*
X89109761Y-80019047D01*
X89062142Y-79971428D01*
X88966904Y-79923809D01*
X88681190Y-79923809D01*
X88585952Y-79971428D01*
X88538333Y-80019047D01*
X88490714Y-80114285D01*
X88490714Y-80304761D01*
X88538333Y-80400000D01*
X89252619Y-80638095D02*
X89252619Y-81400000D01*
X88633571Y-81971428D02*
X88681190Y-82114285D01*
X88728809Y-82161904D01*
X88824047Y-82209523D01*
X88966904Y-82209523D01*
X89062142Y-82161904D01*
X89109761Y-82114285D01*
X89157380Y-82019047D01*
X89157380Y-81638095D01*
X88157380Y-81638095D01*
X88157380Y-81971428D01*
X88205000Y-82066666D01*
X88252619Y-82114285D01*
X88347857Y-82161904D01*
X88443095Y-82161904D01*
X88538333Y-82114285D01*
X88585952Y-82066666D01*
X88633571Y-81971428D01*
X88633571Y-81638095D01*
X88490714Y-82542857D02*
X89157380Y-82780952D01*
X88490714Y-83019047D02*
X89157380Y-82780952D01*
X89395476Y-82685714D01*
X89443095Y-82638095D01*
X89490714Y-82542857D01*
X89109761Y-83780952D02*
X89157380Y-83685714D01*
X89157380Y-83495238D01*
X89109761Y-83400000D01*
X89014523Y-83352380D01*
X88633571Y-83352380D01*
X88538333Y-83400000D01*
X88490714Y-83495238D01*
X88490714Y-83685714D01*
X88538333Y-83780952D01*
X88633571Y-83828571D01*
X88728809Y-83828571D01*
X88824047Y-83352380D01*
M02*
