%TF.GenerationSoftware,KiCad,Pcbnew,(6.0.9-0)*%
%TF.CreationDate,2022-12-26T10:40:34+01:00*%
%TF.ProjectId,RM3 mini ESP,524d3320-6d69-46e6-9920-4553502e6b69,rev?*%
%TF.SameCoordinates,Original*%
%TF.FileFunction,Legend,Top*%
%TF.FilePolarity,Positive*%
%FSLAX46Y46*%
G04 Gerber Fmt 4.6, Leading zero omitted, Abs format (unit mm)*
G04 Created by KiCad (PCBNEW (6.0.9-0)) date 2022-12-26 10:40:34*
%MOMM*%
%LPD*%
G01*
G04 APERTURE LIST*
%ADD10C,0.150000*%
%ADD11C,0.120000*%
%ADD12C,0.152400*%
%ADD13R,1.100000X2.500000*%
%ADD14O,1.100000X2.500000*%
%ADD15O,2.500000X1.100000*%
G04 APERTURE END LIST*
D10*
X49988095Y-68904742D02*
X50559523Y-68904742D01*
X50273809Y-69699742D02*
X50273809Y-68904742D01*
X50797619Y-68904742D02*
X51464285Y-69699742D01*
X51464285Y-68904742D02*
X50797619Y-69699742D01*
X50583333Y-72259642D02*
X50250000Y-71881071D01*
X50011904Y-72259642D02*
X50011904Y-71464642D01*
X50392857Y-71464642D01*
X50488095Y-71502500D01*
X50535714Y-71540357D01*
X50583333Y-71616071D01*
X50583333Y-71729642D01*
X50535714Y-71805357D01*
X50488095Y-71843214D01*
X50392857Y-71881071D01*
X50011904Y-71881071D01*
X50916666Y-71464642D02*
X51583333Y-72259642D01*
X51583333Y-71464642D02*
X50916666Y-72259642D01*
X49988095Y-74062400D02*
X49892857Y-74024542D01*
X49750000Y-74024542D01*
X49607142Y-74062400D01*
X49511904Y-74138114D01*
X49464285Y-74213828D01*
X49416666Y-74365257D01*
X49416666Y-74478828D01*
X49464285Y-74630257D01*
X49511904Y-74705971D01*
X49607142Y-74781685D01*
X49750000Y-74819542D01*
X49845238Y-74819542D01*
X49988095Y-74781685D01*
X50035714Y-74743828D01*
X50035714Y-74478828D01*
X49845238Y-74478828D01*
X50464285Y-74819542D02*
X50464285Y-74024542D01*
X51035714Y-74819542D01*
X51035714Y-74024542D01*
X51511904Y-74819542D02*
X51511904Y-74024542D01*
X51750000Y-74024542D01*
X51892857Y-74062400D01*
X51988095Y-74138114D01*
X52035714Y-74213828D01*
X52083333Y-74365257D01*
X52083333Y-74478828D01*
X52035714Y-74630257D01*
X51988095Y-74705971D01*
X51892857Y-74781685D01*
X51750000Y-74819542D01*
X51511904Y-74819542D01*
X57982750Y-77766547D02*
X57982750Y-77290357D01*
X58209892Y-77861785D02*
X57414892Y-77528452D01*
X58209892Y-77195119D01*
X58209892Y-76861785D02*
X57414892Y-76861785D01*
X57414892Y-76623690D01*
X57452750Y-76480833D01*
X57528464Y-76385595D01*
X57604178Y-76337976D01*
X57755607Y-76290357D01*
X57869178Y-76290357D01*
X58020607Y-76337976D01*
X58096321Y-76385595D01*
X58172035Y-76480833D01*
X58209892Y-76623690D01*
X58209892Y-76861785D01*
X58134178Y-75290357D02*
X58172035Y-75337976D01*
X58209892Y-75480833D01*
X58209892Y-75576071D01*
X58172035Y-75718928D01*
X58096321Y-75814166D01*
X58020607Y-75861785D01*
X57869178Y-75909404D01*
X57755607Y-75909404D01*
X57604178Y-75861785D01*
X57528464Y-75814166D01*
X57452750Y-75718928D01*
X57414892Y-75576071D01*
X57414892Y-75480833D01*
X57452750Y-75337976D01*
X57490607Y-75290357D01*
X57414892Y-74671309D02*
X57414892Y-74576071D01*
X57452750Y-74480833D01*
X57490607Y-74433214D01*
X57566321Y-74385595D01*
X57717750Y-74337976D01*
X57907035Y-74337976D01*
X58058464Y-74385595D01*
X58134178Y-74433214D01*
X58172035Y-74480833D01*
X58209892Y-74576071D01*
X58209892Y-74671309D01*
X58172035Y-74766547D01*
X58134178Y-74814166D01*
X58058464Y-74861785D01*
X57907035Y-74909404D01*
X57717750Y-74909404D01*
X57566321Y-74861785D01*
X57490607Y-74814166D01*
X57452750Y-74766547D01*
X57414892Y-74671309D01*
X60012650Y-76433214D02*
X59974792Y-76528452D01*
X59974792Y-76671309D01*
X60012650Y-76814166D01*
X60088364Y-76909404D01*
X60164078Y-76957023D01*
X60315507Y-77004642D01*
X60429078Y-77004642D01*
X60580507Y-76957023D01*
X60656221Y-76909404D01*
X60731935Y-76814166D01*
X60769792Y-76671309D01*
X60769792Y-76576071D01*
X60731935Y-76433214D01*
X60694078Y-76385595D01*
X60429078Y-76385595D01*
X60429078Y-76576071D01*
X60769792Y-75957023D02*
X59974792Y-75957023D01*
X60769792Y-75385595D01*
X59974792Y-75385595D01*
X60769792Y-74909404D02*
X59974792Y-74909404D01*
X59974792Y-74671309D01*
X60012650Y-74528452D01*
X60088364Y-74433214D01*
X60164078Y-74385595D01*
X60315507Y-74337976D01*
X60429078Y-74337976D01*
X60580507Y-74385595D01*
X60656221Y-74433214D01*
X60731935Y-74528452D01*
X60769792Y-74671309D01*
X60769792Y-74909404D01*
X63329692Y-75861785D02*
X62534692Y-75861785D01*
X62534692Y-75623690D01*
X62572550Y-75480833D01*
X62648264Y-75385595D01*
X62723978Y-75337976D01*
X62875407Y-75290357D01*
X62988978Y-75290357D01*
X63140407Y-75337976D01*
X63216121Y-75385595D01*
X63291835Y-75480833D01*
X63329692Y-75623690D01*
X63329692Y-75861785D01*
X62534692Y-74433214D02*
X62534692Y-74623690D01*
X62572550Y-74718928D01*
X62610407Y-74766547D01*
X62723978Y-74861785D01*
X62875407Y-74909404D01*
X63178264Y-74909404D01*
X63253978Y-74861785D01*
X63291835Y-74814166D01*
X63329692Y-74718928D01*
X63329692Y-74528452D01*
X63291835Y-74433214D01*
X63253978Y-74385595D01*
X63178264Y-74337976D01*
X62988978Y-74337976D01*
X62913264Y-74385595D01*
X62875407Y-74433214D01*
X62837550Y-74528452D01*
X62837550Y-74718928D01*
X62875407Y-74814166D01*
X62913264Y-74861785D01*
X62988978Y-74909404D01*
X65889592Y-75861785D02*
X65094592Y-75861785D01*
X65094592Y-75623690D01*
X65132450Y-75480833D01*
X65208164Y-75385595D01*
X65283878Y-75337976D01*
X65435307Y-75290357D01*
X65548878Y-75290357D01*
X65700307Y-75337976D01*
X65776021Y-75385595D01*
X65851735Y-75480833D01*
X65889592Y-75623690D01*
X65889592Y-75861785D01*
X65170307Y-74909404D02*
X65132450Y-74861785D01*
X65094592Y-74766547D01*
X65094592Y-74528452D01*
X65132450Y-74433214D01*
X65170307Y-74385595D01*
X65246021Y-74337976D01*
X65321735Y-74337976D01*
X65435307Y-74385595D01*
X65889592Y-74957023D01*
X65889592Y-74337976D01*
X68449492Y-75861785D02*
X67654492Y-75861785D01*
X67654492Y-75623690D01*
X67692350Y-75480833D01*
X67768064Y-75385595D01*
X67843778Y-75337976D01*
X67995207Y-75290357D01*
X68108778Y-75290357D01*
X68260207Y-75337976D01*
X68335921Y-75385595D01*
X68411635Y-75480833D01*
X68449492Y-75623690D01*
X68449492Y-75861785D01*
X68449492Y-74337976D02*
X68449492Y-74909404D01*
X68449492Y-74623690D02*
X67654492Y-74623690D01*
X67768064Y-74718928D01*
X67843778Y-74814166D01*
X67881635Y-74909404D01*
X71009392Y-75861785D02*
X70214392Y-75861785D01*
X70214392Y-75623690D01*
X70252250Y-75480833D01*
X70327964Y-75385595D01*
X70403678Y-75337976D01*
X70555107Y-75290357D01*
X70668678Y-75290357D01*
X70820107Y-75337976D01*
X70895821Y-75385595D01*
X70971535Y-75480833D01*
X71009392Y-75623690D01*
X71009392Y-75861785D01*
X70214392Y-74671309D02*
X70214392Y-74576071D01*
X70252250Y-74480833D01*
X70290107Y-74433214D01*
X70365821Y-74385595D01*
X70517250Y-74337976D01*
X70706535Y-74337976D01*
X70857964Y-74385595D01*
X70933678Y-74433214D01*
X70971535Y-74480833D01*
X71009392Y-74576071D01*
X71009392Y-74671309D01*
X70971535Y-74766547D01*
X70933678Y-74814166D01*
X70857964Y-74861785D01*
X70706535Y-74909404D01*
X70517250Y-74909404D01*
X70365821Y-74861785D01*
X70290107Y-74814166D01*
X70252250Y-74766547D01*
X70214392Y-74671309D01*
X79857142Y-68152380D02*
X79285714Y-68152380D01*
X79571428Y-68152380D02*
X79571428Y-67152380D01*
X79476190Y-67295238D01*
X79380952Y-67390476D01*
X79285714Y-67438095D01*
X80285714Y-68057142D02*
X80333333Y-68104761D01*
X80285714Y-68152380D01*
X80238095Y-68104761D01*
X80285714Y-68057142D01*
X80285714Y-68152380D01*
X81190476Y-67152380D02*
X81000000Y-67152380D01*
X80904761Y-67200000D01*
X80857142Y-67247619D01*
X80761904Y-67390476D01*
X80714285Y-67580952D01*
X80714285Y-67961904D01*
X80761904Y-68057142D01*
X80809523Y-68104761D01*
X80904761Y-68152380D01*
X81095238Y-68152380D01*
X81190476Y-68104761D01*
X81238095Y-68057142D01*
X81285714Y-67961904D01*
X81285714Y-67723809D01*
X81238095Y-67628571D01*
X81190476Y-67580952D01*
X81095238Y-67533333D01*
X80904761Y-67533333D01*
X80809523Y-67580952D01*
X80761904Y-67628571D01*
X80714285Y-67723809D01*
X81714285Y-68152380D02*
X81714285Y-67485714D01*
X81714285Y-67580952D02*
X81761904Y-67533333D01*
X81857142Y-67485714D01*
X82000000Y-67485714D01*
X82095238Y-67533333D01*
X82142857Y-67628571D01*
X82142857Y-68152380D01*
X82142857Y-67628571D02*
X82190476Y-67533333D01*
X82285714Y-67485714D01*
X82428571Y-67485714D01*
X82523809Y-67533333D01*
X82571428Y-67628571D01*
X82571428Y-68152380D01*
X83047619Y-68152380D02*
X83047619Y-67485714D01*
X83047619Y-67580952D02*
X83095238Y-67533333D01*
X83190476Y-67485714D01*
X83333333Y-67485714D01*
X83428571Y-67533333D01*
X83476190Y-67628571D01*
X83476190Y-68152380D01*
X83476190Y-67628571D02*
X83523809Y-67533333D01*
X83619047Y-67485714D01*
X83761904Y-67485714D01*
X83857142Y-67533333D01*
X83904761Y-67628571D01*
X83904761Y-68152380D01*
X85142857Y-68152380D02*
X85142857Y-67152380D01*
X85523809Y-67152380D01*
X85619047Y-67200000D01*
X85666666Y-67247619D01*
X85714285Y-67342857D01*
X85714285Y-67485714D01*
X85666666Y-67580952D01*
X85619047Y-67628571D01*
X85523809Y-67676190D01*
X85142857Y-67676190D01*
X86714285Y-68057142D02*
X86666666Y-68104761D01*
X86523809Y-68152380D01*
X86428571Y-68152380D01*
X86285714Y-68104761D01*
X86190476Y-68009523D01*
X86142857Y-67914285D01*
X86095238Y-67723809D01*
X86095238Y-67580952D01*
X86142857Y-67390476D01*
X86190476Y-67295238D01*
X86285714Y-67200000D01*
X86428571Y-67152380D01*
X86523809Y-67152380D01*
X86666666Y-67200000D01*
X86714285Y-67247619D01*
X87476190Y-67628571D02*
X87619047Y-67676190D01*
X87666666Y-67723809D01*
X87714285Y-67819047D01*
X87714285Y-67961904D01*
X87666666Y-68057142D01*
X87619047Y-68104761D01*
X87523809Y-68152380D01*
X87142857Y-68152380D01*
X87142857Y-67152380D01*
X87476190Y-67152380D01*
X87571428Y-67200000D01*
X87619047Y-67247619D01*
X87666666Y-67342857D01*
X87666666Y-67438095D01*
X87619047Y-67533333D01*
X87571428Y-67580952D01*
X87476190Y-67628571D01*
X87142857Y-67628571D01*
%TO.C,R3*%
X83833333Y-104039880D02*
X83500000Y-103563690D01*
X83261904Y-104039880D02*
X83261904Y-103039880D01*
X83642857Y-103039880D01*
X83738095Y-103087500D01*
X83785714Y-103135119D01*
X83833333Y-103230357D01*
X83833333Y-103373214D01*
X83785714Y-103468452D01*
X83738095Y-103516071D01*
X83642857Y-103563690D01*
X83261904Y-103563690D01*
X84166666Y-103039880D02*
X84785714Y-103039880D01*
X84452380Y-103420833D01*
X84595238Y-103420833D01*
X84690476Y-103468452D01*
X84738095Y-103516071D01*
X84785714Y-103611309D01*
X84785714Y-103849404D01*
X84738095Y-103944642D01*
X84690476Y-103992261D01*
X84595238Y-104039880D01*
X84309523Y-104039880D01*
X84214285Y-103992261D01*
X84166666Y-103944642D01*
%TO.C,D4*%
X46302380Y-97738095D02*
X45302380Y-97738095D01*
X45302380Y-97500000D01*
X45350000Y-97357142D01*
X45445238Y-97261904D01*
X45540476Y-97214285D01*
X45730952Y-97166666D01*
X45873809Y-97166666D01*
X46064285Y-97214285D01*
X46159523Y-97261904D01*
X46254761Y-97357142D01*
X46302380Y-97500000D01*
X46302380Y-97738095D01*
X45635714Y-96309523D02*
X46302380Y-96309523D01*
X45254761Y-96547619D02*
X45969047Y-96785714D01*
X45969047Y-96166666D01*
%TO.C,J2*%
X82816666Y-73552380D02*
X82816666Y-74266666D01*
X82769047Y-74409523D01*
X82673809Y-74504761D01*
X82530952Y-74552380D01*
X82435714Y-74552380D01*
X83245238Y-73647619D02*
X83292857Y-73600000D01*
X83388095Y-73552380D01*
X83626190Y-73552380D01*
X83721428Y-73600000D01*
X83769047Y-73647619D01*
X83816666Y-73742857D01*
X83816666Y-73838095D01*
X83769047Y-73980952D01*
X83197619Y-74552380D01*
X83816666Y-74552380D01*
%TO.C,RST*%
X61602380Y-99702380D02*
X61269047Y-99226190D01*
X61030952Y-99702380D02*
X61030952Y-98702380D01*
X61411904Y-98702380D01*
X61507142Y-98750000D01*
X61554761Y-98797619D01*
X61602380Y-98892857D01*
X61602380Y-99035714D01*
X61554761Y-99130952D01*
X61507142Y-99178571D01*
X61411904Y-99226190D01*
X61030952Y-99226190D01*
X61983333Y-99654761D02*
X62126190Y-99702380D01*
X62364285Y-99702380D01*
X62459523Y-99654761D01*
X62507142Y-99607142D01*
X62554761Y-99511904D01*
X62554761Y-99416666D01*
X62507142Y-99321428D01*
X62459523Y-99273809D01*
X62364285Y-99226190D01*
X62173809Y-99178571D01*
X62078571Y-99130952D01*
X62030952Y-99083333D01*
X61983333Y-98988095D01*
X61983333Y-98892857D01*
X62030952Y-98797619D01*
X62078571Y-98750000D01*
X62173809Y-98702380D01*
X62411904Y-98702380D01*
X62554761Y-98750000D01*
X62840476Y-98702380D02*
X63411904Y-98702380D01*
X63126190Y-99702380D02*
X63126190Y-98702380D01*
%TO.C,U1*%
X70002380Y-87761904D02*
X70811904Y-87761904D01*
X70907142Y-87714285D01*
X70954761Y-87666666D01*
X71002380Y-87571428D01*
X71002380Y-87380952D01*
X70954761Y-87285714D01*
X70907142Y-87238095D01*
X70811904Y-87190476D01*
X70002380Y-87190476D01*
X71002380Y-86190476D02*
X71002380Y-86761904D01*
X71002380Y-86476190D02*
X70002380Y-86476190D01*
X70145238Y-86571428D01*
X70240476Y-86666666D01*
X70288095Y-86761904D01*
%TO.C,U2*%
X81738095Y-89302380D02*
X81738095Y-90111904D01*
X81785714Y-90207142D01*
X81833333Y-90254761D01*
X81928571Y-90302380D01*
X82119047Y-90302380D01*
X82214285Y-90254761D01*
X82261904Y-90207142D01*
X82309523Y-90111904D01*
X82309523Y-89302380D01*
X82738095Y-89397619D02*
X82785714Y-89350000D01*
X82880952Y-89302380D01*
X83119047Y-89302380D01*
X83214285Y-89350000D01*
X83261904Y-89397619D01*
X83309523Y-89492857D01*
X83309523Y-89588095D01*
X83261904Y-89730952D01*
X82690476Y-90302380D01*
X83309523Y-90302380D01*
%TO.C,J4*%
X47466666Y-76282380D02*
X47466666Y-76996666D01*
X47419047Y-77139523D01*
X47323809Y-77234761D01*
X47180952Y-77282380D01*
X47085714Y-77282380D01*
X48371428Y-76615714D02*
X48371428Y-77282380D01*
X48133333Y-76234761D02*
X47895238Y-76949047D01*
X48514285Y-76949047D01*
%TO.C,FLASH*%
X68009523Y-99178571D02*
X67676190Y-99178571D01*
X67676190Y-99702380D02*
X67676190Y-98702380D01*
X68152380Y-98702380D01*
X69009523Y-99702380D02*
X68533333Y-99702380D01*
X68533333Y-98702380D01*
X69295238Y-99416666D02*
X69771428Y-99416666D01*
X69200000Y-99702380D02*
X69533333Y-98702380D01*
X69866666Y-99702380D01*
X70152380Y-99654761D02*
X70295238Y-99702380D01*
X70533333Y-99702380D01*
X70628571Y-99654761D01*
X70676190Y-99607142D01*
X70723809Y-99511904D01*
X70723809Y-99416666D01*
X70676190Y-99321428D01*
X70628571Y-99273809D01*
X70533333Y-99226190D01*
X70342857Y-99178571D01*
X70247619Y-99130952D01*
X70200000Y-99083333D01*
X70152380Y-98988095D01*
X70152380Y-98892857D01*
X70200000Y-98797619D01*
X70247619Y-98750000D01*
X70342857Y-98702380D01*
X70580952Y-98702380D01*
X70723809Y-98750000D01*
X71152380Y-99702380D02*
X71152380Y-98702380D01*
X71152380Y-99178571D02*
X71723809Y-99178571D01*
X71723809Y-99702380D02*
X71723809Y-98702380D01*
%TO.C,C4*%
X77683333Y-77757142D02*
X77635714Y-77804761D01*
X77492857Y-77852380D01*
X77397619Y-77852380D01*
X77254761Y-77804761D01*
X77159523Y-77709523D01*
X77111904Y-77614285D01*
X77064285Y-77423809D01*
X77064285Y-77280952D01*
X77111904Y-77090476D01*
X77159523Y-76995238D01*
X77254761Y-76900000D01*
X77397619Y-76852380D01*
X77492857Y-76852380D01*
X77635714Y-76900000D01*
X77683333Y-76947619D01*
X78540476Y-77185714D02*
X78540476Y-77852380D01*
X78302380Y-76804761D02*
X78064285Y-77519047D01*
X78683333Y-77519047D01*
%TO.C,R2*%
X85833333Y-104039880D02*
X85500000Y-103563690D01*
X85261904Y-104039880D02*
X85261904Y-103039880D01*
X85642857Y-103039880D01*
X85738095Y-103087500D01*
X85785714Y-103135119D01*
X85833333Y-103230357D01*
X85833333Y-103373214D01*
X85785714Y-103468452D01*
X85738095Y-103516071D01*
X85642857Y-103563690D01*
X85261904Y-103563690D01*
X86214285Y-103135119D02*
X86261904Y-103087500D01*
X86357142Y-103039880D01*
X86595238Y-103039880D01*
X86690476Y-103087500D01*
X86738095Y-103135119D01*
X86785714Y-103230357D01*
X86785714Y-103325595D01*
X86738095Y-103468452D01*
X86166666Y-104039880D01*
X86785714Y-104039880D01*
%TO.C,C1*%
X71707142Y-91466666D02*
X71754761Y-91514285D01*
X71802380Y-91657142D01*
X71802380Y-91752380D01*
X71754761Y-91895238D01*
X71659523Y-91990476D01*
X71564285Y-92038095D01*
X71373809Y-92085714D01*
X71230952Y-92085714D01*
X71040476Y-92038095D01*
X70945238Y-91990476D01*
X70850000Y-91895238D01*
X70802380Y-91752380D01*
X70802380Y-91657142D01*
X70850000Y-91514285D01*
X70897619Y-91466666D01*
X71802380Y-90514285D02*
X71802380Y-91085714D01*
X71802380Y-90800000D02*
X70802380Y-90800000D01*
X70945238Y-90895238D01*
X71040476Y-90990476D01*
X71088095Y-91085714D01*
%TO.C,J3*%
X54882380Y-73133333D02*
X55596666Y-73133333D01*
X55739523Y-73180952D01*
X55834761Y-73276190D01*
X55882380Y-73419047D01*
X55882380Y-73514285D01*
X54882380Y-72752380D02*
X54882380Y-72133333D01*
X55263333Y-72466666D01*
X55263333Y-72323809D01*
X55310952Y-72228571D01*
X55358571Y-72180952D01*
X55453809Y-72133333D01*
X55691904Y-72133333D01*
X55787142Y-72180952D01*
X55834761Y-72228571D01*
X55882380Y-72323809D01*
X55882380Y-72609523D01*
X55834761Y-72704761D01*
X55787142Y-72752380D01*
%TO.C,R5*%
X79833333Y-104039880D02*
X79500000Y-103563690D01*
X79261904Y-104039880D02*
X79261904Y-103039880D01*
X79642857Y-103039880D01*
X79738095Y-103087500D01*
X79785714Y-103135119D01*
X79833333Y-103230357D01*
X79833333Y-103373214D01*
X79785714Y-103468452D01*
X79738095Y-103516071D01*
X79642857Y-103563690D01*
X79261904Y-103563690D01*
X80738095Y-103039880D02*
X80261904Y-103039880D01*
X80214285Y-103516071D01*
X80261904Y-103468452D01*
X80357142Y-103420833D01*
X80595238Y-103420833D01*
X80690476Y-103468452D01*
X80738095Y-103516071D01*
X80785714Y-103611309D01*
X80785714Y-103849404D01*
X80738095Y-103944642D01*
X80690476Y-103992261D01*
X80595238Y-104039880D01*
X80357142Y-104039880D01*
X80261904Y-103992261D01*
X80214285Y-103944642D01*
%TO.C,J1*%
X79807380Y-97033333D02*
X80521666Y-97033333D01*
X80664523Y-97080952D01*
X80759761Y-97176190D01*
X80807380Y-97319047D01*
X80807380Y-97414285D01*
X80807380Y-96033333D02*
X80807380Y-96604761D01*
X80807380Y-96319047D02*
X79807380Y-96319047D01*
X79950238Y-96414285D01*
X80045476Y-96509523D01*
X80093095Y-96604761D01*
%TO.C,C5*%
X75233333Y-71607142D02*
X75185714Y-71654761D01*
X75042857Y-71702380D01*
X74947619Y-71702380D01*
X74804761Y-71654761D01*
X74709523Y-71559523D01*
X74661904Y-71464285D01*
X74614285Y-71273809D01*
X74614285Y-71130952D01*
X74661904Y-70940476D01*
X74709523Y-70845238D01*
X74804761Y-70750000D01*
X74947619Y-70702380D01*
X75042857Y-70702380D01*
X75185714Y-70750000D01*
X75233333Y-70797619D01*
X76138095Y-70702380D02*
X75661904Y-70702380D01*
X75614285Y-71178571D01*
X75661904Y-71130952D01*
X75757142Y-71083333D01*
X75995238Y-71083333D01*
X76090476Y-71130952D01*
X76138095Y-71178571D01*
X76185714Y-71273809D01*
X76185714Y-71511904D01*
X76138095Y-71607142D01*
X76090476Y-71654761D01*
X75995238Y-71702380D01*
X75757142Y-71702380D01*
X75661904Y-71654761D01*
X75614285Y-71607142D01*
%TO.C,R4*%
X81833333Y-104039880D02*
X81500000Y-103563690D01*
X81261904Y-104039880D02*
X81261904Y-103039880D01*
X81642857Y-103039880D01*
X81738095Y-103087500D01*
X81785714Y-103135119D01*
X81833333Y-103230357D01*
X81833333Y-103373214D01*
X81785714Y-103468452D01*
X81738095Y-103516071D01*
X81642857Y-103563690D01*
X81261904Y-103563690D01*
X82690476Y-103373214D02*
X82690476Y-104039880D01*
X82452380Y-102992261D02*
X82214285Y-103706547D01*
X82833333Y-103706547D01*
%TO.C,R1*%
X87833333Y-104039880D02*
X87500000Y-103563690D01*
X87261904Y-104039880D02*
X87261904Y-103039880D01*
X87642857Y-103039880D01*
X87738095Y-103087500D01*
X87785714Y-103135119D01*
X87833333Y-103230357D01*
X87833333Y-103373214D01*
X87785714Y-103468452D01*
X87738095Y-103516071D01*
X87642857Y-103563690D01*
X87261904Y-103563690D01*
X88785714Y-104039880D02*
X88214285Y-104039880D01*
X88500000Y-104039880D02*
X88500000Y-103039880D01*
X88404761Y-103182738D01*
X88309523Y-103277976D01*
X88214285Y-103325595D01*
%TO.C,R7*%
X48302380Y-97166666D02*
X47826190Y-97500000D01*
X48302380Y-97738095D02*
X47302380Y-97738095D01*
X47302380Y-97357142D01*
X47350000Y-97261904D01*
X47397619Y-97214285D01*
X47492857Y-97166666D01*
X47635714Y-97166666D01*
X47730952Y-97214285D01*
X47778571Y-97261904D01*
X47826190Y-97357142D01*
X47826190Y-97738095D01*
X47302380Y-96833333D02*
X47302380Y-96166666D01*
X48302380Y-96595238D01*
%TO.C,C2*%
X73807142Y-91466666D02*
X73854761Y-91514285D01*
X73902380Y-91657142D01*
X73902380Y-91752380D01*
X73854761Y-91895238D01*
X73759523Y-91990476D01*
X73664285Y-92038095D01*
X73473809Y-92085714D01*
X73330952Y-92085714D01*
X73140476Y-92038095D01*
X73045238Y-91990476D01*
X72950000Y-91895238D01*
X72902380Y-91752380D01*
X72902380Y-91657142D01*
X72950000Y-91514285D01*
X72997619Y-91466666D01*
X72997619Y-91085714D02*
X72950000Y-91038095D01*
X72902380Y-90942857D01*
X72902380Y-90704761D01*
X72950000Y-90609523D01*
X72997619Y-90561904D01*
X73092857Y-90514285D01*
X73188095Y-90514285D01*
X73330952Y-90561904D01*
X73902380Y-91133333D01*
X73902380Y-90514285D01*
%TO.C,C3*%
X77533333Y-83657142D02*
X77485714Y-83704761D01*
X77342857Y-83752380D01*
X77247619Y-83752380D01*
X77104761Y-83704761D01*
X77009523Y-83609523D01*
X76961904Y-83514285D01*
X76914285Y-83323809D01*
X76914285Y-83180952D01*
X76961904Y-82990476D01*
X77009523Y-82895238D01*
X77104761Y-82800000D01*
X77247619Y-82752380D01*
X77342857Y-82752380D01*
X77485714Y-82800000D01*
X77533333Y-82847619D01*
X77866666Y-82752380D02*
X78485714Y-82752380D01*
X78152380Y-83133333D01*
X78295238Y-83133333D01*
X78390476Y-83180952D01*
X78438095Y-83228571D01*
X78485714Y-83323809D01*
X78485714Y-83561904D01*
X78438095Y-83657142D01*
X78390476Y-83704761D01*
X78295238Y-83752380D01*
X78009523Y-83752380D01*
X77914285Y-83704761D01*
X77866666Y-83657142D01*
%TO.C,R6*%
X77833333Y-104039880D02*
X77500000Y-103563690D01*
X77261904Y-104039880D02*
X77261904Y-103039880D01*
X77642857Y-103039880D01*
X77738095Y-103087500D01*
X77785714Y-103135119D01*
X77833333Y-103230357D01*
X77833333Y-103373214D01*
X77785714Y-103468452D01*
X77738095Y-103516071D01*
X77642857Y-103563690D01*
X77261904Y-103563690D01*
X78690476Y-103039880D02*
X78500000Y-103039880D01*
X78404761Y-103087500D01*
X78357142Y-103135119D01*
X78261904Y-103277976D01*
X78214285Y-103468452D01*
X78214285Y-103849404D01*
X78261904Y-103944642D01*
X78309523Y-103992261D01*
X78404761Y-104039880D01*
X78595238Y-104039880D01*
X78690476Y-103992261D01*
X78738095Y-103944642D01*
X78785714Y-103849404D01*
X78785714Y-103611309D01*
X78738095Y-103516071D01*
X78690476Y-103468452D01*
X78595238Y-103420833D01*
X78404761Y-103420833D01*
X78309523Y-103468452D01*
X78261904Y-103516071D01*
X78214285Y-103611309D01*
D11*
%TO.C,R3*%
X84522500Y-106254724D02*
X84522500Y-105745276D01*
X83477500Y-106254724D02*
X83477500Y-105745276D01*
%TO.C,D4*%
X46585000Y-101660000D02*
X46585000Y-99200000D01*
X45115000Y-101660000D02*
X46585000Y-101660000D01*
X45115000Y-99200000D02*
X45115000Y-101660000D01*
%TO.C,RST*%
X58650000Y-102550000D02*
X58650000Y-107050000D01*
X65150000Y-107050000D02*
X65150000Y-102550000D01*
X62650000Y-101300000D02*
X61150000Y-101300000D01*
X61150000Y-108300000D02*
X62650000Y-108300000D01*
D12*
%TO.C,U1*%
X68283500Y-79364000D02*
X67521500Y-79364000D01*
X67521500Y-95366000D02*
X68283500Y-95366000D01*
X68283500Y-95366000D02*
X68283500Y-79364000D01*
D11*
%TO.C,U2*%
X79090000Y-88700000D02*
X79090000Y-82690000D01*
X85910000Y-86450000D02*
X85910000Y-82690000D01*
X85910000Y-82690000D02*
X84650000Y-82690000D01*
X79090000Y-82690000D02*
X80350000Y-82690000D01*
%TO.C,J4*%
X49130000Y-75830000D02*
X47800000Y-75830000D01*
X49130000Y-68090000D02*
X46470000Y-68090000D01*
X46470000Y-73230000D02*
X46470000Y-68090000D01*
X49130000Y-73230000D02*
X49130000Y-68090000D01*
X49130000Y-73230000D02*
X46470000Y-73230000D01*
X49130000Y-74500000D02*
X49130000Y-75830000D01*
%TO.C,FLASH*%
X70500000Y-101300000D02*
X69000000Y-101300000D01*
X73000000Y-107050000D02*
X73000000Y-102550000D01*
X66500000Y-102550000D02*
X66500000Y-107050000D01*
X69000000Y-108300000D02*
X70500000Y-108300000D01*
%TO.C,C4*%
X73569000Y-88021000D02*
X73569000Y-87090000D01*
X73769000Y-85010000D02*
X73769000Y-83928000D01*
X74449000Y-85010000D02*
X74449000Y-83595000D01*
X74489000Y-85010000D02*
X74489000Y-83582000D01*
X74570000Y-85010000D02*
X74570000Y-83559000D01*
X73209000Y-85010000D02*
X73209000Y-84445000D01*
X73849000Y-88225000D02*
X73849000Y-87090000D01*
X73009000Y-87369000D02*
X73009000Y-87090000D01*
X73969000Y-88297000D02*
X73969000Y-87090000D01*
X73769000Y-88172000D02*
X73769000Y-87090000D01*
X74690000Y-85010000D02*
X74690000Y-83530000D01*
X73649000Y-85010000D02*
X73649000Y-84015000D01*
X74529000Y-88530000D02*
X74529000Y-87090000D01*
X73129000Y-87550000D02*
X73129000Y-87090000D01*
X74089000Y-85010000D02*
X74089000Y-83740000D01*
X74650000Y-88561000D02*
X74650000Y-87090000D01*
X73809000Y-85010000D02*
X73809000Y-83901000D01*
X73489000Y-87951000D02*
X73489000Y-87090000D01*
X73049000Y-87433000D02*
X73049000Y-87090000D01*
X75050000Y-88623000D02*
X75050000Y-83477000D01*
X72969000Y-85010000D02*
X72969000Y-84799000D01*
X74930000Y-85010000D02*
X74930000Y-83489000D01*
X74409000Y-88492000D02*
X74409000Y-87090000D01*
X73289000Y-85010000D02*
X73289000Y-84351000D01*
X73409000Y-85010000D02*
X73409000Y-84224000D01*
X74169000Y-88398000D02*
X74169000Y-87090000D01*
X74129000Y-88379000D02*
X74129000Y-87090000D01*
X73849000Y-85010000D02*
X73849000Y-83875000D01*
X72729000Y-86727000D02*
X72729000Y-85373000D01*
X74409000Y-85010000D02*
X74409000Y-83608000D01*
X73529000Y-85010000D02*
X73529000Y-84113000D01*
X74970000Y-85010000D02*
X74970000Y-83485000D01*
X74930000Y-88611000D02*
X74930000Y-87090000D01*
X73929000Y-85010000D02*
X73929000Y-83826000D01*
X74890000Y-85010000D02*
X74890000Y-83494000D01*
X74129000Y-85010000D02*
X74129000Y-83721000D01*
X73249000Y-85010000D02*
X73249000Y-84397000D01*
X75130000Y-88628000D02*
X75130000Y-83472000D01*
X74009000Y-88318000D02*
X74009000Y-87090000D01*
X72849000Y-87061000D02*
X72849000Y-85039000D01*
X73169000Y-85010000D02*
X73169000Y-84496000D01*
X74730000Y-85010000D02*
X74730000Y-83522000D01*
X73089000Y-85010000D02*
X73089000Y-84607000D01*
X77804775Y-87775000D02*
X77804775Y-87275000D01*
X75090000Y-88626000D02*
X75090000Y-83474000D01*
X72689000Y-86568000D02*
X72689000Y-85532000D01*
X73929000Y-88274000D02*
X73929000Y-87090000D01*
X74169000Y-85010000D02*
X74169000Y-83702000D01*
X74289000Y-88448000D02*
X74289000Y-87090000D01*
X73489000Y-85010000D02*
X73489000Y-84149000D01*
X74770000Y-85010000D02*
X74770000Y-83514000D01*
X73969000Y-85010000D02*
X73969000Y-83803000D01*
X74610000Y-88551000D02*
X74610000Y-87090000D01*
X74529000Y-85010000D02*
X74529000Y-83570000D01*
X72929000Y-87228000D02*
X72929000Y-84872000D01*
X74970000Y-88615000D02*
X74970000Y-87090000D01*
X74329000Y-85010000D02*
X74329000Y-83636000D01*
X74089000Y-88360000D02*
X74089000Y-87090000D01*
X73209000Y-87655000D02*
X73209000Y-87090000D01*
X73689000Y-88115000D02*
X73689000Y-87090000D01*
X74810000Y-85010000D02*
X74810000Y-83507000D01*
X73889000Y-88250000D02*
X73889000Y-87090000D01*
X74570000Y-88541000D02*
X74570000Y-87090000D01*
X74489000Y-88518000D02*
X74489000Y-87090000D01*
X73129000Y-85010000D02*
X73129000Y-84550000D01*
X73369000Y-87835000D02*
X73369000Y-87090000D01*
X75210000Y-88630000D02*
X75210000Y-83470000D01*
X73049000Y-85010000D02*
X73049000Y-84667000D01*
X72889000Y-87148000D02*
X72889000Y-84952000D01*
X74850000Y-85010000D02*
X74850000Y-83500000D01*
X74890000Y-88606000D02*
X74890000Y-87090000D01*
X75170000Y-88629000D02*
X75170000Y-83471000D01*
X72649000Y-86334000D02*
X72649000Y-85766000D01*
X74209000Y-88415000D02*
X74209000Y-87090000D01*
X73329000Y-87793000D02*
X73329000Y-87090000D01*
X72969000Y-87301000D02*
X72969000Y-87090000D01*
X73529000Y-87987000D02*
X73529000Y-87090000D01*
X73569000Y-85010000D02*
X73569000Y-84079000D01*
X74850000Y-88600000D02*
X74850000Y-87090000D01*
X73609000Y-88054000D02*
X73609000Y-87090000D01*
X74289000Y-85010000D02*
X74289000Y-83652000D01*
X74369000Y-85010000D02*
X74369000Y-83622000D01*
X74650000Y-85010000D02*
X74650000Y-83539000D01*
X73609000Y-85010000D02*
X73609000Y-84046000D01*
X74049000Y-88340000D02*
X74049000Y-87090000D01*
X74329000Y-88464000D02*
X74329000Y-87090000D01*
X74369000Y-88478000D02*
X74369000Y-87090000D01*
X73169000Y-87604000D02*
X73169000Y-87090000D01*
X73369000Y-85010000D02*
X73369000Y-84265000D01*
X75010000Y-88619000D02*
X75010000Y-87090000D01*
X73809000Y-88199000D02*
X73809000Y-87090000D01*
X75250000Y-88630000D02*
X75250000Y-83470000D01*
X74249000Y-85010000D02*
X74249000Y-83668000D01*
X78054775Y-87525000D02*
X77554775Y-87525000D01*
X73889000Y-85010000D02*
X73889000Y-83850000D01*
X73249000Y-87703000D02*
X73249000Y-87090000D01*
X73729000Y-85010000D02*
X73729000Y-83955000D01*
X73409000Y-87876000D02*
X73409000Y-87090000D01*
X73689000Y-85010000D02*
X73689000Y-83985000D01*
X73449000Y-85010000D02*
X73449000Y-84186000D01*
X73449000Y-87914000D02*
X73449000Y-87090000D01*
X73089000Y-87493000D02*
X73089000Y-87090000D01*
X73289000Y-87749000D02*
X73289000Y-87090000D01*
X74249000Y-88432000D02*
X74249000Y-87090000D01*
X73729000Y-88145000D02*
X73729000Y-87090000D01*
X74209000Y-85010000D02*
X74209000Y-83685000D01*
X73329000Y-85010000D02*
X73329000Y-84307000D01*
X73649000Y-88085000D02*
X73649000Y-87090000D01*
X74810000Y-88593000D02*
X74810000Y-87090000D01*
X74449000Y-88505000D02*
X74449000Y-87090000D01*
X74770000Y-88586000D02*
X74770000Y-87090000D01*
X73009000Y-85010000D02*
X73009000Y-84731000D01*
X74730000Y-88578000D02*
X74730000Y-87090000D01*
X74690000Y-88570000D02*
X74690000Y-87090000D01*
X74610000Y-85010000D02*
X74610000Y-83549000D01*
X72809000Y-86965000D02*
X72809000Y-85135000D01*
X74049000Y-85010000D02*
X74049000Y-83760000D01*
X72769000Y-86855000D02*
X72769000Y-85245000D01*
X74009000Y-85010000D02*
X74009000Y-83782000D01*
X75010000Y-85010000D02*
X75010000Y-83481000D01*
X77870000Y-86050000D02*
G75*
G03*
X77870000Y-86050000I-2620000J0D01*
G01*
%TO.C,R2*%
X86522500Y-105745276D02*
X86522500Y-106254724D01*
X85477500Y-105745276D02*
X85477500Y-106254724D01*
%TO.C,C1*%
X71860000Y-94146267D02*
X71860000Y-93853733D01*
X70840000Y-94146267D02*
X70840000Y-93853733D01*
%TO.C,J3*%
X59030000Y-74130000D02*
X59030000Y-71470000D01*
X59030000Y-74130000D02*
X71790000Y-74130000D01*
X56430000Y-74130000D02*
X56430000Y-72800000D01*
X71790000Y-74130000D02*
X71790000Y-71470000D01*
X57760000Y-74130000D02*
X56430000Y-74130000D01*
X59030000Y-71470000D02*
X71790000Y-71470000D01*
%TO.C,R5*%
X80522500Y-105745276D02*
X80522500Y-106254724D01*
X79477500Y-105745276D02*
X79477500Y-106254724D01*
%TO.C,J1*%
X84100000Y-92000000D02*
X86100000Y-92000000D01*
X84100000Y-101400000D02*
X86100000Y-101400000D01*
X88000000Y-101400000D02*
X89900000Y-101400000D01*
X89900000Y-101400000D02*
X89900000Y-92000000D01*
X88000000Y-92000000D02*
X89900000Y-92000000D01*
%TO.C,C5*%
X76046267Y-72040000D02*
X75753733Y-72040000D01*
X76046267Y-73060000D02*
X75753733Y-73060000D01*
%TO.C,R4*%
X82522500Y-106254724D02*
X82522500Y-105745276D01*
X81477500Y-106254724D02*
X81477500Y-105745276D01*
%TO.C,R1*%
X88522500Y-105745276D02*
X88522500Y-106254724D01*
X87477500Y-105745276D02*
X87477500Y-106254724D01*
%TO.C,R7*%
X48372500Y-99745276D02*
X48372500Y-100254724D01*
X47327500Y-99745276D02*
X47327500Y-100254724D01*
%TO.C,C2*%
X72840000Y-94146267D02*
X72840000Y-93853733D01*
X73860000Y-94146267D02*
X73860000Y-93853733D01*
%TO.C,C3*%
X73409000Y-81826000D02*
X73409000Y-81040000D01*
X73169000Y-81554000D02*
X73169000Y-81040000D01*
X74610000Y-78960000D02*
X74610000Y-77499000D01*
X72969000Y-81251000D02*
X72969000Y-81040000D01*
X73529000Y-78960000D02*
X73529000Y-78063000D01*
X73729000Y-78960000D02*
X73729000Y-77905000D01*
X73049000Y-81383000D02*
X73049000Y-81040000D01*
X73609000Y-78960000D02*
X73609000Y-77996000D01*
X73489000Y-81901000D02*
X73489000Y-81040000D01*
X73809000Y-78960000D02*
X73809000Y-77851000D01*
X73129000Y-78960000D02*
X73129000Y-78500000D01*
X74930000Y-78960000D02*
X74930000Y-77439000D01*
X75210000Y-82580000D02*
X75210000Y-77420000D01*
X74169000Y-78960000D02*
X74169000Y-77652000D01*
X74369000Y-78960000D02*
X74369000Y-77572000D01*
X73609000Y-82004000D02*
X73609000Y-81040000D01*
X73849000Y-78960000D02*
X73849000Y-77825000D01*
X74770000Y-78960000D02*
X74770000Y-77464000D01*
X75170000Y-82579000D02*
X75170000Y-77421000D01*
X73969000Y-82247000D02*
X73969000Y-81040000D01*
X74489000Y-78960000D02*
X74489000Y-77532000D01*
X72649000Y-80284000D02*
X72649000Y-79716000D01*
X74409000Y-82442000D02*
X74409000Y-81040000D01*
X75050000Y-82573000D02*
X75050000Y-77427000D01*
X74329000Y-78960000D02*
X74329000Y-77586000D01*
X73249000Y-78960000D02*
X73249000Y-78347000D01*
X73889000Y-78960000D02*
X73889000Y-77800000D01*
X75010000Y-82569000D02*
X75010000Y-81040000D01*
X73929000Y-82224000D02*
X73929000Y-81040000D01*
X77804775Y-81725000D02*
X77804775Y-81225000D01*
X75090000Y-82576000D02*
X75090000Y-77424000D01*
X75130000Y-82578000D02*
X75130000Y-77422000D01*
X73089000Y-78960000D02*
X73089000Y-78557000D01*
X74289000Y-78960000D02*
X74289000Y-77602000D01*
X74009000Y-78960000D02*
X74009000Y-77732000D01*
X73089000Y-81443000D02*
X73089000Y-81040000D01*
X73969000Y-78960000D02*
X73969000Y-77753000D01*
X73489000Y-78960000D02*
X73489000Y-78099000D01*
X74610000Y-82501000D02*
X74610000Y-81040000D01*
X72969000Y-78960000D02*
X72969000Y-78749000D01*
X74169000Y-82348000D02*
X74169000Y-81040000D01*
X73929000Y-78960000D02*
X73929000Y-77776000D01*
X73569000Y-78960000D02*
X73569000Y-78029000D01*
X72769000Y-80805000D02*
X72769000Y-79195000D01*
X72929000Y-81178000D02*
X72929000Y-78822000D01*
X73769000Y-82122000D02*
X73769000Y-81040000D01*
X73329000Y-81743000D02*
X73329000Y-81040000D01*
X74890000Y-82556000D02*
X74890000Y-81040000D01*
X73889000Y-82200000D02*
X73889000Y-81040000D01*
X74650000Y-82511000D02*
X74650000Y-81040000D01*
X73409000Y-78960000D02*
X73409000Y-78174000D01*
X74570000Y-82491000D02*
X74570000Y-81040000D01*
X72809000Y-80915000D02*
X72809000Y-79085000D01*
X74890000Y-78960000D02*
X74890000Y-77444000D01*
X74529000Y-82480000D02*
X74529000Y-81040000D01*
X73329000Y-78960000D02*
X73329000Y-78257000D01*
X74369000Y-82428000D02*
X74369000Y-81040000D01*
X74850000Y-82550000D02*
X74850000Y-81040000D01*
X74129000Y-82329000D02*
X74129000Y-81040000D01*
X73289000Y-78960000D02*
X73289000Y-78301000D01*
X73049000Y-78960000D02*
X73049000Y-78617000D01*
X73369000Y-81785000D02*
X73369000Y-81040000D01*
X72729000Y-80677000D02*
X72729000Y-79323000D01*
X73369000Y-78960000D02*
X73369000Y-78215000D01*
X73169000Y-78960000D02*
X73169000Y-78446000D01*
X74690000Y-82520000D02*
X74690000Y-81040000D01*
X75250000Y-82580000D02*
X75250000Y-77420000D01*
X74449000Y-78960000D02*
X74449000Y-77545000D01*
X74850000Y-78960000D02*
X74850000Y-77450000D01*
X73569000Y-81971000D02*
X73569000Y-81040000D01*
X74449000Y-82455000D02*
X74449000Y-81040000D01*
X73649000Y-82035000D02*
X73649000Y-81040000D01*
X74209000Y-82365000D02*
X74209000Y-81040000D01*
X74810000Y-78960000D02*
X74810000Y-77457000D01*
X74089000Y-78960000D02*
X74089000Y-77690000D01*
X74049000Y-82290000D02*
X74049000Y-81040000D01*
X74409000Y-78960000D02*
X74409000Y-77558000D01*
X72689000Y-80518000D02*
X72689000Y-79482000D01*
X74049000Y-78960000D02*
X74049000Y-77710000D01*
X73209000Y-78960000D02*
X73209000Y-78395000D01*
X73689000Y-82065000D02*
X73689000Y-81040000D01*
X74209000Y-78960000D02*
X74209000Y-77635000D01*
X75010000Y-78960000D02*
X75010000Y-77431000D01*
X74650000Y-78960000D02*
X74650000Y-77489000D01*
X74489000Y-82468000D02*
X74489000Y-81040000D01*
X73449000Y-81864000D02*
X73449000Y-81040000D01*
X74289000Y-82398000D02*
X74289000Y-81040000D01*
X74529000Y-78960000D02*
X74529000Y-77520000D01*
X73809000Y-82149000D02*
X73809000Y-81040000D01*
X73289000Y-81699000D02*
X73289000Y-81040000D01*
X74930000Y-82561000D02*
X74930000Y-81040000D01*
X74129000Y-78960000D02*
X74129000Y-77671000D01*
X73689000Y-78960000D02*
X73689000Y-77935000D01*
X74970000Y-78960000D02*
X74970000Y-77435000D01*
X74810000Y-82543000D02*
X74810000Y-81040000D01*
X74329000Y-82414000D02*
X74329000Y-81040000D01*
X73529000Y-81937000D02*
X73529000Y-81040000D01*
X72849000Y-81011000D02*
X72849000Y-78989000D01*
X74970000Y-82565000D02*
X74970000Y-81040000D01*
X73449000Y-78960000D02*
X73449000Y-78136000D01*
X74770000Y-82536000D02*
X74770000Y-81040000D01*
X74249000Y-82382000D02*
X74249000Y-81040000D01*
X72889000Y-81098000D02*
X72889000Y-78902000D01*
X73249000Y-81653000D02*
X73249000Y-81040000D01*
X74730000Y-78960000D02*
X74730000Y-77472000D01*
X73849000Y-82175000D02*
X73849000Y-81040000D01*
X73009000Y-81319000D02*
X73009000Y-81040000D01*
X74009000Y-82268000D02*
X74009000Y-81040000D01*
X74089000Y-82310000D02*
X74089000Y-81040000D01*
X74249000Y-78960000D02*
X74249000Y-77618000D01*
X73129000Y-81500000D02*
X73129000Y-81040000D01*
X73649000Y-78960000D02*
X73649000Y-77965000D01*
X73729000Y-82095000D02*
X73729000Y-81040000D01*
X74570000Y-78960000D02*
X74570000Y-77509000D01*
X73769000Y-78960000D02*
X73769000Y-77878000D01*
X74730000Y-82528000D02*
X74730000Y-81040000D01*
X78054775Y-81475000D02*
X77554775Y-81475000D01*
X73009000Y-78960000D02*
X73009000Y-78681000D01*
X73209000Y-81605000D02*
X73209000Y-81040000D01*
X74690000Y-78960000D02*
X74690000Y-77480000D01*
X77870000Y-80000000D02*
G75*
G03*
X77870000Y-80000000I-2620000J0D01*
G01*
%TO.C,R6*%
X77477500Y-105745276D02*
X77477500Y-106254724D01*
X78522500Y-105745276D02*
X78522500Y-106254724D01*
%TD*%
D13*
%TO.C,U1*%
X52662500Y-95050000D03*
D14*
X54662500Y-95050000D03*
X56662500Y-95050000D03*
X58662500Y-95050000D03*
X60662500Y-95050000D03*
X62662500Y-95050000D03*
X64662500Y-95050000D03*
X66662500Y-95050000D03*
X66662500Y-79650000D03*
X64662500Y-79750000D03*
X62662500Y-79650000D03*
X60662500Y-79650000D03*
X58662500Y-79650000D03*
X56662500Y-79650000D03*
X54662500Y-79650000D03*
X52662500Y-79650000D03*
D15*
X68362500Y-92360000D03*
X68362500Y-90360000D03*
X68362500Y-88360000D03*
X68362500Y-86360000D03*
X68362500Y-84360000D03*
X68362500Y-82360000D03*
%TD*%
M02*
