%TF.GenerationSoftware,KiCad,Pcbnew,(6.0.9)*%
%TF.CreationDate,2022-12-26T20:31:52+01:00*%
%TF.ProjectId,RM3 mini ESP,524d3320-6d69-46e6-9920-4553502e6b69,rev?*%
%TF.SameCoordinates,Original*%
%TF.FileFunction,Copper,L2,Bot*%
%TF.FilePolarity,Positive*%
%FSLAX46Y46*%
G04 Gerber Fmt 4.6, Leading zero omitted, Abs format (unit mm)*
G04 Created by KiCad (PCBNEW (6.0.9)) date 2022-12-26 20:31:52*
%MOMM*%
%LPD*%
G01*
G04 APERTURE LIST*
%TA.AperFunction,ComponentPad*%
%ADD10C,2.000000*%
%TD*%
%TA.AperFunction,ComponentPad*%
%ADD11R,1.100000X2.500000*%
%TD*%
%TA.AperFunction,ComponentPad*%
%ADD12O,1.100000X2.500000*%
%TD*%
%TA.AperFunction,ComponentPad*%
%ADD13O,2.500000X1.100000*%
%TD*%
%TA.AperFunction,ComponentPad*%
%ADD14R,1.700000X1.700000*%
%TD*%
%TA.AperFunction,ComponentPad*%
%ADD15O,1.700000X1.700000*%
%TD*%
%TA.AperFunction,ComponentPad*%
%ADD16R,1.600000X1.600000*%
%TD*%
%TA.AperFunction,ComponentPad*%
%ADD17C,1.600000*%
%TD*%
%TA.AperFunction,ComponentPad*%
%ADD18O,1.600000X1.000000*%
%TD*%
%TA.AperFunction,ComponentPad*%
%ADD19O,2.100000X1.000000*%
%TD*%
%TA.AperFunction,ViaPad*%
%ADD20C,0.800000*%
%TD*%
%TA.AperFunction,Conductor*%
%ADD21C,1.000000*%
%TD*%
%TA.AperFunction,Conductor*%
%ADD22C,0.750000*%
%TD*%
%TA.AperFunction,Conductor*%
%ADD23C,0.250000*%
%TD*%
G04 APERTURE END LIST*
D10*
%TO.P,RST,1,1*%
%TO.N,GND*%
X59650000Y-108050000D03*
X59650000Y-101550000D03*
%TO.P,RST,2,2*%
%TO.N,Net-(U1-Pad1)*%
X64150000Y-108050000D03*
X64150000Y-101550000D03*
%TD*%
D11*
%TO.P,U1,1,REST*%
%TO.N,Net-(U1-Pad1)*%
X52662500Y-95050000D03*
D12*
%TO.P,U1,2,ADC*%
%TO.N,/ADC0*%
X54662500Y-95050000D03*
%TO.P,U1,3,CH_PD*%
%TO.N,Net-(U1-Pad3)*%
X56662500Y-95050000D03*
%TO.P,U1,4,GPIO16*%
%TO.N,/D0*%
X58662500Y-95050000D03*
%TO.P,U1,5,GPIO14*%
%TO.N,/IR_IN*%
X60662500Y-95050000D03*
%TO.P,U1,6,GPIO12*%
%TO.N,/D6*%
X62662500Y-95050000D03*
%TO.P,U1,7,GPIO13*%
%TO.N,/IR_OUT*%
X64662500Y-95050000D03*
%TO.P,U1,8,VCC*%
%TO.N,/3.3V*%
X66662500Y-95050000D03*
%TO.P,U1,9,GND*%
%TO.N,GND*%
X66662500Y-79650000D03*
%TO.P,U1,10,GPIO15*%
%TO.N,Net-(U1-Pad10)*%
X64662500Y-79750000D03*
%TO.P,U1,11,GPIO2*%
%TO.N,/LED*%
X62662500Y-79650000D03*
%TO.P,U1,12,GPIO0*%
%TO.N,Net-(U1-Pad12)*%
X60662500Y-79650000D03*
%TO.P,U1,13,GPIO4*%
%TO.N,/D2*%
X58662500Y-79650000D03*
%TO.P,U1,14,GPIO5*%
%TO.N,/D1*%
X56662500Y-79650000D03*
%TO.P,U1,15,RXD*%
%TO.N,/RX*%
X54662500Y-79650000D03*
%TO.P,U1,16,TXD*%
%TO.N,/TX*%
X52662500Y-79650000D03*
D13*
%TO.P,U1,17,CS0*%
%TO.N,unconnected-(U1-Pad17)*%
X68362500Y-92360000D03*
%TO.P,U1,18,MISO*%
%TO.N,unconnected-(U1-Pad18)*%
X68362500Y-90360000D03*
%TO.P,U1,19,GPIO9*%
%TO.N,unconnected-(U1-Pad19)*%
X68362500Y-88360000D03*
%TO.P,U1,20,GPIO10*%
%TO.N,unconnected-(U1-Pad20)*%
X68362500Y-86360000D03*
%TO.P,U1,21,MOSI*%
%TO.N,unconnected-(U1-Pad21)*%
X68362500Y-84360000D03*
%TO.P,U1,22,SCLK*%
%TO.N,unconnected-(U1-Pad22)*%
X68362500Y-82360000D03*
%TD*%
D14*
%TO.P,J4,1,Pin_1*%
%TO.N,GND*%
X47800000Y-74500000D03*
D15*
%TO.P,J4,2,Pin_2*%
%TO.N,/RX*%
X47800000Y-71960000D03*
%TO.P,J4,3,Pin_3*%
%TO.N,/TX*%
X47800000Y-69420000D03*
%TD*%
D10*
%TO.P,FLASH,1,1*%
%TO.N,Net-(U1-Pad12)*%
X67500000Y-108050000D03*
X67500000Y-101550000D03*
%TO.P,FLASH,2,2*%
%TO.N,GND*%
X72000000Y-101550000D03*
X72000000Y-108050000D03*
%TD*%
D16*
%TO.P,C4,1*%
%TO.N,/5V*%
X76500000Y-86050000D03*
D17*
%TO.P,C4,2*%
%TO.N,GND*%
X74000000Y-86050000D03*
%TD*%
D14*
%TO.P,J3,1,Pin_1*%
%TO.N,/ADC0*%
X57760000Y-72800000D03*
D15*
%TO.P,J3,2,Pin_2*%
%TO.N,GND*%
X60300000Y-72800000D03*
%TO.P,J3,3,Pin_3*%
%TO.N,/D6*%
X62840000Y-72800000D03*
%TO.P,J3,4,Pin_4*%
%TO.N,/D2*%
X65380000Y-72800000D03*
%TO.P,J3,5,Pin_5*%
%TO.N,/D1*%
X67920000Y-72800000D03*
%TO.P,J3,6,Pin_6*%
%TO.N,/D0*%
X70460000Y-72800000D03*
%TD*%
D18*
%TO.P,J1,S1,SHIELD*%
%TO.N,GND*%
X87050000Y-92380000D03*
D19*
X82870000Y-92380000D03*
D18*
X87050000Y-101020000D03*
D19*
X82870000Y-101020000D03*
%TD*%
D16*
%TO.P,C3,1*%
%TO.N,/5V*%
X76500000Y-80000000D03*
D17*
%TO.P,C3,2*%
%TO.N,GND*%
X74000000Y-80000000D03*
%TD*%
D20*
%TO.N,/5V*%
X80200000Y-94350000D03*
X88450000Y-67600000D03*
%TO.N,GND*%
X56100000Y-84100000D03*
X54250000Y-86750000D03*
X61100000Y-105550000D03*
X81450000Y-78300000D03*
X50750000Y-76250000D03*
X75350000Y-92200000D03*
X59250000Y-75000000D03*
X66050000Y-88950000D03*
X69300000Y-76000000D03*
X53650000Y-72750000D03*
X77550000Y-97400000D03*
X83750000Y-108850000D03*
X56700000Y-76000000D03*
X75200000Y-104700000D03*
X77400000Y-99350000D03*
X51350000Y-102550000D03*
X46200000Y-107450000D03*
X62550000Y-76700000D03*
X71950000Y-89350000D03*
X73200000Y-73000000D03*
X75200000Y-107200000D03*
X53400000Y-103850000D03*
X88650000Y-108850000D03*
X85450000Y-75500000D03*
X54100000Y-89600000D03*
X88600000Y-89600000D03*
X68900000Y-104300000D03*
X88050000Y-96400000D03*
X71550000Y-81150000D03*
%TO.N,/3.3V*%
X79150000Y-72950000D03*
X85200000Y-81500000D03*
%TD*%
D21*
%TO.N,/5V*%
X78600000Y-71944365D02*
X78433765Y-72110600D01*
X78433765Y-72110600D02*
X76911200Y-72110600D01*
X76911200Y-72110600D02*
X76500000Y-72521800D01*
X78600000Y-67600000D02*
X78600000Y-71944365D01*
X76500000Y-72521800D02*
X76500000Y-80000000D01*
X88450000Y-67600000D02*
X78600000Y-67600000D01*
X76500000Y-80000000D02*
X76500000Y-86050000D01*
X76500000Y-86050000D02*
X76500000Y-90650000D01*
X76500000Y-90650000D02*
X80200000Y-94350000D01*
D22*
%TO.N,/3.3V*%
X82500000Y-76300000D02*
X79150000Y-72950000D01*
X82500000Y-76300000D02*
X85200000Y-79000000D01*
X85200000Y-79000000D02*
X85200000Y-81500000D01*
D23*
%TO.N,Net-(U1-Pad1)*%
X58788667Y-97750000D02*
X58044333Y-97005666D01*
X62900000Y-97750000D02*
X58788667Y-97750000D01*
X52662500Y-94987437D02*
X52662500Y-94350000D01*
X54680729Y-97005666D02*
X52662500Y-94987437D01*
X64150000Y-101550000D02*
X64150000Y-99000000D01*
X58044333Y-97005666D02*
X54680729Y-97005666D01*
X64150000Y-99000000D02*
X62900000Y-97750000D01*
%TO.N,Net-(U1-Pad12)*%
X57650000Y-95974937D02*
X57650000Y-91998896D01*
X63050000Y-97100000D02*
X58775063Y-97100000D01*
X67500000Y-101550000D02*
X63050000Y-97100000D01*
X60150000Y-80862500D02*
X60662500Y-80350000D01*
X60150000Y-89498896D02*
X60150000Y-80862500D01*
X58775063Y-97100000D02*
X57650000Y-95974937D01*
X57650000Y-91998896D02*
X60150000Y-89498896D01*
%TO.N,/ADC0*%
X57700000Y-72650000D02*
X57700000Y-74750000D01*
X59700000Y-89312500D02*
X54662500Y-94350000D01*
X57700000Y-74750000D02*
X59700000Y-76750000D01*
X59700000Y-76750000D02*
X59700000Y-89312500D01*
%TO.N,/D6*%
X61537500Y-73892500D02*
X61537500Y-93225000D01*
X61537500Y-93225000D02*
X62662500Y-94350000D01*
X62780000Y-72650000D02*
X61537500Y-73892500D01*
%TO.N,/D2*%
X65380000Y-72800000D02*
X65380000Y-71597919D01*
X56286396Y-77700000D02*
X58150000Y-77700000D01*
X58150000Y-77700000D02*
X58662500Y-78212500D01*
X55786396Y-71075000D02*
X55330698Y-71530698D01*
X55330698Y-76744302D02*
X56286396Y-77700000D01*
X65380000Y-71597919D02*
X64857081Y-71075000D01*
X64857081Y-71075000D02*
X55786396Y-71075000D01*
X55330698Y-71530698D02*
X55330698Y-76744302D01*
X58662500Y-78212500D02*
X58662500Y-80350000D01*
%TO.N,/D1*%
X56662500Y-78712500D02*
X56662500Y-80350000D01*
X55600000Y-70625000D02*
X54800000Y-71425000D01*
X67920000Y-72800000D02*
X65745000Y-70625000D01*
X54800000Y-76850000D02*
X56662500Y-78712500D01*
X54800000Y-71425000D02*
X54800000Y-76850000D01*
X65745000Y-70625000D02*
X55600000Y-70625000D01*
%TO.N,/D0*%
X58662500Y-94350000D02*
X58662500Y-94987437D01*
X63787500Y-75862500D02*
X65150000Y-74500000D01*
X68760000Y-74500000D02*
X65150000Y-74500000D01*
X58662500Y-94987437D02*
X60325063Y-96650000D01*
X70460000Y-72800000D02*
X68760000Y-74500000D01*
X63787500Y-95862500D02*
X63787500Y-75862500D01*
X60325063Y-96650000D02*
X63000000Y-96650000D01*
X63000000Y-96650000D02*
X63787500Y-95862500D01*
%TO.N,/RX*%
X47458299Y-68100000D02*
X48525000Y-68100000D01*
X46625000Y-70785000D02*
X46625000Y-68933299D01*
X49133198Y-70116802D02*
X53112500Y-74096104D01*
X53112500Y-77562500D02*
X54662500Y-79112500D01*
X48525000Y-68100000D02*
X49133198Y-68708198D01*
X46625000Y-68933299D02*
X47458299Y-68100000D01*
X49133198Y-68708198D02*
X49133198Y-70116802D01*
X47800000Y-71960000D02*
X46625000Y-70785000D01*
X53112500Y-74096104D02*
X53112500Y-77562500D01*
X54662500Y-79112500D02*
X54662500Y-80350000D01*
%TO.N,/TX*%
X52662500Y-80350000D02*
X52662500Y-74282500D01*
X52662500Y-74282500D02*
X47800000Y-69420000D01*
%TD*%
%TA.AperFunction,Conductor*%
%TO.N,GND*%
G36*
X46917825Y-67528502D02*
G01*
X46964318Y-67582158D01*
X46974422Y-67652432D01*
X46944928Y-67717012D01*
X46938799Y-67723595D01*
X46232747Y-68429647D01*
X46224461Y-68437187D01*
X46217982Y-68441299D01*
X46212557Y-68447076D01*
X46171357Y-68490950D01*
X46168602Y-68493792D01*
X46148865Y-68513529D01*
X46146385Y-68516726D01*
X46138682Y-68525746D01*
X46108414Y-68557978D01*
X46104595Y-68564924D01*
X46104593Y-68564927D01*
X46098652Y-68575733D01*
X46087801Y-68592252D01*
X46075386Y-68608258D01*
X46072241Y-68615527D01*
X46072238Y-68615531D01*
X46057826Y-68648836D01*
X46052609Y-68659486D01*
X46031305Y-68698239D01*
X46029334Y-68705914D01*
X46029334Y-68705915D01*
X46026267Y-68717861D01*
X46019863Y-68736565D01*
X46011819Y-68755154D01*
X46010580Y-68762977D01*
X46010577Y-68762987D01*
X46004901Y-68798823D01*
X46002495Y-68810443D01*
X45991500Y-68853269D01*
X45991500Y-68873523D01*
X45989949Y-68893233D01*
X45986780Y-68913242D01*
X45987526Y-68921134D01*
X45990941Y-68957260D01*
X45991500Y-68969118D01*
X45991500Y-70706233D01*
X45990973Y-70717416D01*
X45989298Y-70724909D01*
X45989547Y-70732835D01*
X45989547Y-70732836D01*
X45991438Y-70792986D01*
X45991500Y-70796945D01*
X45991500Y-70824856D01*
X45991997Y-70828790D01*
X45991997Y-70828791D01*
X45992005Y-70828856D01*
X45992938Y-70840693D01*
X45994327Y-70884889D01*
X45999978Y-70904339D01*
X46003987Y-70923700D01*
X46006526Y-70943797D01*
X46009445Y-70951168D01*
X46009445Y-70951170D01*
X46022804Y-70984912D01*
X46026649Y-70996142D01*
X46036050Y-71028502D01*
X46038982Y-71038593D01*
X46043015Y-71045412D01*
X46043017Y-71045417D01*
X46049293Y-71056028D01*
X46057988Y-71073776D01*
X46065448Y-71092617D01*
X46070110Y-71099033D01*
X46070110Y-71099034D01*
X46091436Y-71128387D01*
X46097952Y-71138307D01*
X46106306Y-71152432D01*
X46120458Y-71176362D01*
X46134779Y-71190683D01*
X46147619Y-71205716D01*
X46159528Y-71222107D01*
X46165634Y-71227158D01*
X46193605Y-71250298D01*
X46202384Y-71258288D01*
X46449778Y-71505682D01*
X46483804Y-71567994D01*
X46482100Y-71628448D01*
X46460989Y-71704570D01*
X46460441Y-71709700D01*
X46460440Y-71709704D01*
X46453564Y-71774047D01*
X46437251Y-71926695D01*
X46437548Y-71931848D01*
X46437548Y-71931851D01*
X46449115Y-72132452D01*
X46450110Y-72149715D01*
X46451247Y-72154761D01*
X46451248Y-72154767D01*
X46466367Y-72221851D01*
X46499222Y-72367639D01*
X46583266Y-72574616D01*
X46699987Y-72765088D01*
X46846250Y-72933938D01*
X46850225Y-72937238D01*
X46850231Y-72937244D01*
X46855425Y-72941556D01*
X46895059Y-73000460D01*
X46896555Y-73071441D01*
X46859439Y-73131962D01*
X46819168Y-73156480D01*
X46711946Y-73196676D01*
X46696351Y-73205214D01*
X46594276Y-73281715D01*
X46581715Y-73294276D01*
X46505214Y-73396351D01*
X46496676Y-73411946D01*
X46451522Y-73532394D01*
X46447895Y-73547649D01*
X46442369Y-73598514D01*
X46442000Y-73605328D01*
X46442000Y-74227885D01*
X46446475Y-74243124D01*
X46447865Y-74244329D01*
X46455548Y-74246000D01*
X49139884Y-74246000D01*
X49155123Y-74241525D01*
X49156328Y-74240135D01*
X49157999Y-74232452D01*
X49157999Y-73605331D01*
X49157629Y-73598510D01*
X49152105Y-73547648D01*
X49148479Y-73532396D01*
X49103324Y-73411946D01*
X49094786Y-73396351D01*
X49018285Y-73294276D01*
X49005724Y-73281715D01*
X48903649Y-73205214D01*
X48888054Y-73196676D01*
X48777813Y-73155348D01*
X48721049Y-73112706D01*
X48696349Y-73046145D01*
X48711557Y-72976796D01*
X48733104Y-72948115D01*
X48834430Y-72847144D01*
X48834440Y-72847132D01*
X48838096Y-72843489D01*
X48897594Y-72760689D01*
X48965435Y-72666277D01*
X48968453Y-72662077D01*
X49007772Y-72582522D01*
X49065136Y-72466453D01*
X49065137Y-72466451D01*
X49067430Y-72461811D01*
X49109687Y-72322728D01*
X49130865Y-72253023D01*
X49130865Y-72253021D01*
X49132370Y-72248069D01*
X49161529Y-72026590D01*
X49161611Y-72023240D01*
X49162676Y-71979654D01*
X49184336Y-71912042D01*
X49239111Y-71866874D01*
X49309611Y-71858490D01*
X49377733Y-71893637D01*
X51992095Y-74507999D01*
X52026121Y-74570311D01*
X52029000Y-74597094D01*
X52029000Y-78040716D01*
X52008998Y-78108837D01*
X51981956Y-78138908D01*
X51918323Y-78190071D01*
X51784891Y-78349089D01*
X51781927Y-78354481D01*
X51781924Y-78354485D01*
X51723147Y-78461401D01*
X51684887Y-78530995D01*
X51622121Y-78728861D01*
X51621435Y-78734978D01*
X51621434Y-78734982D01*
X51613129Y-78809025D01*
X51604000Y-78890413D01*
X51604000Y-80402237D01*
X51604300Y-80405293D01*
X51604300Y-80405300D01*
X51614526Y-80509587D01*
X51619135Y-80556592D01*
X51679132Y-80755315D01*
X51682027Y-80760760D01*
X51682028Y-80760762D01*
X51773054Y-80931954D01*
X51776587Y-80938599D01*
X51805332Y-80973844D01*
X51903890Y-81094689D01*
X51903893Y-81094692D01*
X51907785Y-81099464D01*
X51912533Y-81103392D01*
X51912534Y-81103393D01*
X51949448Y-81133931D01*
X52067730Y-81231783D01*
X52073147Y-81234712D01*
X52073150Y-81234714D01*
X52244910Y-81327584D01*
X52244915Y-81327586D01*
X52250330Y-81330514D01*
X52448629Y-81391898D01*
X52454754Y-81392542D01*
X52454755Y-81392542D01*
X52648946Y-81412952D01*
X52648948Y-81412952D01*
X52655075Y-81413596D01*
X52740985Y-81405777D01*
X52855664Y-81395341D01*
X52855667Y-81395340D01*
X52861803Y-81394782D01*
X52867709Y-81393044D01*
X52867713Y-81393043D01*
X53040207Y-81342275D01*
X53060940Y-81336173D01*
X53244900Y-81240001D01*
X53250827Y-81235236D01*
X53288451Y-81204985D01*
X53406677Y-81109929D01*
X53412162Y-81103393D01*
X53536150Y-80955629D01*
X53540109Y-80950911D01*
X53543075Y-80945515D01*
X53543081Y-80945507D01*
X53551387Y-80930399D01*
X53601733Y-80880341D01*
X53671150Y-80865449D01*
X53737599Y-80890451D01*
X53769911Y-80928275D01*
X53770285Y-80928026D01*
X53772337Y-80931115D01*
X53773053Y-80931953D01*
X53776587Y-80938599D01*
X53805332Y-80973844D01*
X53903890Y-81094689D01*
X53903893Y-81094692D01*
X53907785Y-81099464D01*
X53912533Y-81103392D01*
X53912534Y-81103393D01*
X53949448Y-81133931D01*
X54067730Y-81231783D01*
X54073147Y-81234712D01*
X54073150Y-81234714D01*
X54244910Y-81327584D01*
X54244915Y-81327586D01*
X54250330Y-81330514D01*
X54448629Y-81391898D01*
X54454754Y-81392542D01*
X54454755Y-81392542D01*
X54648946Y-81412952D01*
X54648948Y-81412952D01*
X54655075Y-81413596D01*
X54740985Y-81405777D01*
X54855664Y-81395341D01*
X54855667Y-81395340D01*
X54861803Y-81394782D01*
X54867709Y-81393044D01*
X54867713Y-81393043D01*
X55040207Y-81342275D01*
X55060940Y-81336173D01*
X55244900Y-81240001D01*
X55250827Y-81235236D01*
X55288451Y-81204985D01*
X55406677Y-81109929D01*
X55412162Y-81103393D01*
X55536150Y-80955629D01*
X55540109Y-80950911D01*
X55543075Y-80945515D01*
X55543081Y-80945507D01*
X55551387Y-80930399D01*
X55601733Y-80880341D01*
X55671150Y-80865449D01*
X55737599Y-80890451D01*
X55769911Y-80928275D01*
X55770285Y-80928026D01*
X55772337Y-80931115D01*
X55773053Y-80931953D01*
X55776587Y-80938599D01*
X55805332Y-80973844D01*
X55903890Y-81094689D01*
X55903893Y-81094692D01*
X55907785Y-81099464D01*
X55912533Y-81103392D01*
X55912534Y-81103393D01*
X55949448Y-81133931D01*
X56067730Y-81231783D01*
X56073147Y-81234712D01*
X56073150Y-81234714D01*
X56244910Y-81327584D01*
X56244915Y-81327586D01*
X56250330Y-81330514D01*
X56448629Y-81391898D01*
X56454754Y-81392542D01*
X56454755Y-81392542D01*
X56648946Y-81412952D01*
X56648948Y-81412952D01*
X56655075Y-81413596D01*
X56740985Y-81405777D01*
X56855664Y-81395341D01*
X56855667Y-81395340D01*
X56861803Y-81394782D01*
X56867709Y-81393044D01*
X56867713Y-81393043D01*
X57040207Y-81342275D01*
X57060940Y-81336173D01*
X57244900Y-81240001D01*
X57250827Y-81235236D01*
X57288451Y-81204985D01*
X57406677Y-81109929D01*
X57412162Y-81103393D01*
X57536150Y-80955629D01*
X57540109Y-80950911D01*
X57543075Y-80945515D01*
X57543081Y-80945507D01*
X57551387Y-80930399D01*
X57601733Y-80880341D01*
X57671150Y-80865449D01*
X57737599Y-80890451D01*
X57769911Y-80928275D01*
X57770285Y-80928026D01*
X57772337Y-80931115D01*
X57773053Y-80931953D01*
X57776587Y-80938599D01*
X57805332Y-80973844D01*
X57903890Y-81094689D01*
X57903893Y-81094692D01*
X57907785Y-81099464D01*
X57912533Y-81103392D01*
X57912534Y-81103393D01*
X57949448Y-81133931D01*
X58067730Y-81231783D01*
X58073147Y-81234712D01*
X58073150Y-81234714D01*
X58244910Y-81327584D01*
X58244915Y-81327586D01*
X58250330Y-81330514D01*
X58448629Y-81391898D01*
X58454754Y-81392542D01*
X58454755Y-81392542D01*
X58648946Y-81412952D01*
X58648948Y-81412952D01*
X58655075Y-81413596D01*
X58740985Y-81405777D01*
X58855664Y-81395341D01*
X58855667Y-81395340D01*
X58861803Y-81394782D01*
X58867713Y-81393043D01*
X58867716Y-81393042D01*
X58904926Y-81382091D01*
X58975923Y-81382047D01*
X59035673Y-81420393D01*
X59065206Y-81484955D01*
X59066500Y-81502965D01*
X59066500Y-88997906D01*
X59046498Y-89066027D01*
X59029595Y-89087001D01*
X54857446Y-93259149D01*
X54795134Y-93293175D01*
X54755182Y-93295364D01*
X54676055Y-93287048D01*
X54676052Y-93287048D01*
X54669925Y-93286404D01*
X54584015Y-93294223D01*
X54469336Y-93304659D01*
X54469333Y-93304660D01*
X54463197Y-93305218D01*
X54457291Y-93306956D01*
X54457287Y-93306957D01*
X54333574Y-93343368D01*
X54264060Y-93363827D01*
X54080100Y-93459999D01*
X53918323Y-93590071D01*
X53914365Y-93594789D01*
X53914362Y-93594791D01*
X53890191Y-93623597D01*
X53831082Y-93662923D01*
X53760094Y-93664049D01*
X53699766Y-93626618D01*
X53675689Y-93586837D01*
X53663115Y-93553295D01*
X53575761Y-93436739D01*
X53459205Y-93349385D01*
X53322816Y-93298255D01*
X53260634Y-93291500D01*
X52064366Y-93291500D01*
X52002184Y-93298255D01*
X51865795Y-93349385D01*
X51749239Y-93436739D01*
X51661885Y-93553295D01*
X51610755Y-93689684D01*
X51604000Y-93751866D01*
X51604000Y-96348134D01*
X51610755Y-96410316D01*
X51661885Y-96546705D01*
X51749239Y-96663261D01*
X51865795Y-96750615D01*
X52002184Y-96801745D01*
X52064366Y-96808500D01*
X53260634Y-96808500D01*
X53322816Y-96801745D01*
X53434571Y-96759850D01*
X53505377Y-96754667D01*
X53567895Y-96788737D01*
X54177077Y-97397919D01*
X54184617Y-97406205D01*
X54188729Y-97412684D01*
X54194506Y-97418109D01*
X54238380Y-97459309D01*
X54241222Y-97462064D01*
X54260959Y-97481801D01*
X54264156Y-97484281D01*
X54273176Y-97491984D01*
X54305408Y-97522252D01*
X54312354Y-97526071D01*
X54312357Y-97526073D01*
X54323163Y-97532014D01*
X54339682Y-97542865D01*
X54355688Y-97555280D01*
X54362957Y-97558425D01*
X54362961Y-97558428D01*
X54396266Y-97572840D01*
X54406916Y-97578057D01*
X54445669Y-97599361D01*
X54453344Y-97601332D01*
X54453345Y-97601332D01*
X54465291Y-97604399D01*
X54483996Y-97610803D01*
X54502584Y-97618847D01*
X54510407Y-97620086D01*
X54510417Y-97620089D01*
X54546253Y-97625765D01*
X54557873Y-97628171D01*
X54593018Y-97637194D01*
X54600699Y-97639166D01*
X54620953Y-97639166D01*
X54640663Y-97640717D01*
X54660672Y-97643886D01*
X54668564Y-97643140D01*
X54704690Y-97639725D01*
X54716548Y-97639166D01*
X57729739Y-97639166D01*
X57797860Y-97659168D01*
X57818834Y-97676071D01*
X58285010Y-98142247D01*
X58292554Y-98150537D01*
X58296667Y-98157018D01*
X58302444Y-98162443D01*
X58346334Y-98203658D01*
X58349176Y-98206413D01*
X58368897Y-98226134D01*
X58372092Y-98228612D01*
X58381114Y-98236318D01*
X58413346Y-98266586D01*
X58420295Y-98270406D01*
X58431099Y-98276346D01*
X58447623Y-98287199D01*
X58463626Y-98299613D01*
X58504210Y-98317176D01*
X58514840Y-98322383D01*
X58553607Y-98343695D01*
X58561284Y-98345666D01*
X58561289Y-98345668D01*
X58573225Y-98348732D01*
X58591933Y-98355137D01*
X58610522Y-98363181D01*
X58618350Y-98364421D01*
X58618357Y-98364423D01*
X58654191Y-98370099D01*
X58665811Y-98372505D01*
X58700956Y-98381528D01*
X58708637Y-98383500D01*
X58728891Y-98383500D01*
X58748601Y-98385051D01*
X58768610Y-98388220D01*
X58776502Y-98387474D01*
X58812628Y-98384059D01*
X58824486Y-98383500D01*
X62585405Y-98383500D01*
X62653526Y-98403502D01*
X62674501Y-98420405D01*
X63479596Y-99225501D01*
X63513621Y-99287813D01*
X63516500Y-99314596D01*
X63516500Y-100098434D01*
X63496498Y-100166555D01*
X63456335Y-100205867D01*
X63264798Y-100323241D01*
X63264792Y-100323245D01*
X63260584Y-100325824D01*
X63080031Y-100480031D01*
X62925824Y-100660584D01*
X62923245Y-100664792D01*
X62923241Y-100664798D01*
X62804346Y-100858817D01*
X62801760Y-100863037D01*
X62799867Y-100867607D01*
X62799865Y-100867611D01*
X62712789Y-101077833D01*
X62710895Y-101082406D01*
X62709740Y-101087218D01*
X62661645Y-101287548D01*
X62655465Y-101313289D01*
X62636835Y-101550000D01*
X62655465Y-101786711D01*
X62710895Y-102017594D01*
X62712788Y-102022165D01*
X62712789Y-102022167D01*
X62799772Y-102232163D01*
X62801760Y-102236963D01*
X62804346Y-102241183D01*
X62923241Y-102435202D01*
X62923245Y-102435208D01*
X62925824Y-102439416D01*
X63080031Y-102619969D01*
X63260584Y-102774176D01*
X63264792Y-102776755D01*
X63264798Y-102776759D01*
X63458084Y-102895205D01*
X63463037Y-102898240D01*
X63467607Y-102900133D01*
X63467611Y-102900135D01*
X63677833Y-102987211D01*
X63682406Y-102989105D01*
X63762609Y-103008360D01*
X63908476Y-103043380D01*
X63908482Y-103043381D01*
X63913289Y-103044535D01*
X64150000Y-103063165D01*
X64386711Y-103044535D01*
X64391518Y-103043381D01*
X64391524Y-103043380D01*
X64537391Y-103008360D01*
X64617594Y-102989105D01*
X64622167Y-102987211D01*
X64832389Y-102900135D01*
X64832393Y-102900133D01*
X64836963Y-102898240D01*
X64841916Y-102895205D01*
X65035202Y-102776759D01*
X65035208Y-102776755D01*
X65039416Y-102774176D01*
X65219969Y-102619969D01*
X65374176Y-102439416D01*
X65376755Y-102435208D01*
X65376759Y-102435202D01*
X65495654Y-102241183D01*
X65498240Y-102236963D01*
X65500229Y-102232163D01*
X65587211Y-102022167D01*
X65587212Y-102022165D01*
X65589105Y-102017594D01*
X65644535Y-101786711D01*
X65663165Y-101550000D01*
X65644535Y-101313289D01*
X65638356Y-101287548D01*
X65590260Y-101087218D01*
X65589105Y-101082406D01*
X65587211Y-101077833D01*
X65500135Y-100867611D01*
X65500133Y-100867607D01*
X65498240Y-100863037D01*
X65428169Y-100748692D01*
X65391513Y-100688875D01*
X65372975Y-100620341D01*
X65394431Y-100552665D01*
X65449070Y-100507332D01*
X65519545Y-100498735D01*
X65588041Y-100533945D01*
X66025636Y-100971540D01*
X66059662Y-101033852D01*
X66059060Y-101090049D01*
X66011645Y-101287548D01*
X66005465Y-101313289D01*
X65986835Y-101550000D01*
X66005465Y-101786711D01*
X66060895Y-102017594D01*
X66062788Y-102022165D01*
X66062789Y-102022167D01*
X66149772Y-102232163D01*
X66151760Y-102236963D01*
X66154346Y-102241183D01*
X66273241Y-102435202D01*
X66273245Y-102435208D01*
X66275824Y-102439416D01*
X66430031Y-102619969D01*
X66610584Y-102774176D01*
X66614792Y-102776755D01*
X66614798Y-102776759D01*
X66808084Y-102895205D01*
X66813037Y-102898240D01*
X66817607Y-102900133D01*
X66817611Y-102900135D01*
X67027833Y-102987211D01*
X67032406Y-102989105D01*
X67112609Y-103008360D01*
X67258476Y-103043380D01*
X67258482Y-103043381D01*
X67263289Y-103044535D01*
X67500000Y-103063165D01*
X67736711Y-103044535D01*
X67741518Y-103043381D01*
X67741524Y-103043380D01*
X67887391Y-103008360D01*
X67967594Y-102989105D01*
X67972167Y-102987211D01*
X68182389Y-102900135D01*
X68182393Y-102900133D01*
X68186963Y-102898240D01*
X68191916Y-102895205D01*
X68375556Y-102782670D01*
X71132160Y-102782670D01*
X71137887Y-102790320D01*
X71309042Y-102895205D01*
X71317837Y-102899687D01*
X71527988Y-102986734D01*
X71537373Y-102989783D01*
X71758554Y-103042885D01*
X71768301Y-103044428D01*
X71995070Y-103062275D01*
X72004930Y-103062275D01*
X72231699Y-103044428D01*
X72241446Y-103042885D01*
X72462627Y-102989783D01*
X72472012Y-102986734D01*
X72682163Y-102899687D01*
X72690958Y-102895205D01*
X72858445Y-102792568D01*
X72867907Y-102782110D01*
X72864124Y-102773334D01*
X72012812Y-101922022D01*
X71998868Y-101914408D01*
X71997035Y-101914539D01*
X71990420Y-101918790D01*
X71138920Y-102770290D01*
X71132160Y-102782670D01*
X68375556Y-102782670D01*
X68385202Y-102776759D01*
X68385208Y-102776755D01*
X68389416Y-102774176D01*
X68569969Y-102619969D01*
X68724176Y-102439416D01*
X68726755Y-102435208D01*
X68726759Y-102435202D01*
X68845654Y-102241183D01*
X68848240Y-102236963D01*
X68850229Y-102232163D01*
X68937211Y-102022167D01*
X68937212Y-102022165D01*
X68939105Y-102017594D01*
X68994535Y-101786711D01*
X69012777Y-101554930D01*
X70487725Y-101554930D01*
X70505572Y-101781699D01*
X70507115Y-101791446D01*
X70560217Y-102012627D01*
X70563266Y-102022012D01*
X70650313Y-102232163D01*
X70654795Y-102240958D01*
X70757432Y-102408445D01*
X70767890Y-102417907D01*
X70776666Y-102414124D01*
X71627978Y-101562812D01*
X71634356Y-101551132D01*
X72364408Y-101551132D01*
X72364539Y-101552965D01*
X72368790Y-101559580D01*
X73220290Y-102411080D01*
X73232670Y-102417840D01*
X73240320Y-102412113D01*
X73345205Y-102240958D01*
X73349687Y-102232163D01*
X73436734Y-102022012D01*
X73439783Y-102012627D01*
X73492885Y-101791446D01*
X73494428Y-101781699D01*
X73512275Y-101554930D01*
X73512275Y-101545070D01*
X73494428Y-101318301D01*
X73492885Y-101308554D01*
X73487414Y-101285768D01*
X81347425Y-101285768D01*
X81379138Y-101393521D01*
X81383731Y-101404889D01*
X81469607Y-101569154D01*
X81476321Y-101579415D01*
X81592468Y-101723873D01*
X81601046Y-101732632D01*
X81743039Y-101851778D01*
X81753159Y-101858708D01*
X81915585Y-101948002D01*
X81926858Y-101952834D01*
X82103538Y-102008880D01*
X82115532Y-102011430D01*
X82259761Y-102027607D01*
X82266785Y-102028000D01*
X82597885Y-102028000D01*
X82613124Y-102023525D01*
X82614329Y-102022135D01*
X82616000Y-102014452D01*
X82616000Y-102009885D01*
X83124000Y-102009885D01*
X83128475Y-102025124D01*
X83129865Y-102026329D01*
X83137548Y-102028000D01*
X83466657Y-102028000D01*
X83472805Y-102027699D01*
X83610603Y-102014188D01*
X83622638Y-102011805D01*
X83800076Y-101958233D01*
X83811416Y-101953559D01*
X83975077Y-101866540D01*
X83985294Y-101859751D01*
X84128933Y-101742603D01*
X84137637Y-101733959D01*
X84255784Y-101591144D01*
X84262644Y-101580973D01*
X84350804Y-101417924D01*
X84355556Y-101406619D01*
X84391250Y-101291308D01*
X84391331Y-101285768D01*
X85777425Y-101285768D01*
X85809138Y-101393521D01*
X85813731Y-101404889D01*
X85899607Y-101569154D01*
X85906321Y-101579415D01*
X86022468Y-101723873D01*
X86031046Y-101732632D01*
X86173039Y-101851778D01*
X86183159Y-101858708D01*
X86345585Y-101948002D01*
X86356858Y-101952834D01*
X86533538Y-102008880D01*
X86545532Y-102011430D01*
X86689761Y-102027607D01*
X86696785Y-102028000D01*
X86777885Y-102028000D01*
X86793124Y-102023525D01*
X86794329Y-102022135D01*
X86796000Y-102014452D01*
X86796000Y-102009885D01*
X87304000Y-102009885D01*
X87308475Y-102025124D01*
X87309865Y-102026329D01*
X87317548Y-102028000D01*
X87396657Y-102028000D01*
X87402805Y-102027699D01*
X87540603Y-102014188D01*
X87552638Y-102011805D01*
X87730076Y-101958233D01*
X87741416Y-101953559D01*
X87905077Y-101866540D01*
X87915294Y-101859751D01*
X88058933Y-101742603D01*
X88067637Y-101733959D01*
X88185784Y-101591144D01*
X88192644Y-101580973D01*
X88280804Y-101417924D01*
X88285556Y-101406619D01*
X88321250Y-101291308D01*
X88321456Y-101277205D01*
X88314701Y-101274000D01*
X87322115Y-101274000D01*
X87306876Y-101278475D01*
X87305671Y-101279865D01*
X87304000Y-101287548D01*
X87304000Y-102009885D01*
X86796000Y-102009885D01*
X86796000Y-101292115D01*
X86791525Y-101276876D01*
X86790135Y-101275671D01*
X86782452Y-101274000D01*
X85792076Y-101274000D01*
X85778545Y-101277973D01*
X85777425Y-101285768D01*
X84391331Y-101285768D01*
X84391456Y-101277205D01*
X84384701Y-101274000D01*
X83142115Y-101274000D01*
X83126876Y-101278475D01*
X83125671Y-101279865D01*
X83124000Y-101287548D01*
X83124000Y-102009885D01*
X82616000Y-102009885D01*
X82616000Y-101292115D01*
X82611525Y-101276876D01*
X82610135Y-101275671D01*
X82602452Y-101274000D01*
X81362076Y-101274000D01*
X81348545Y-101277973D01*
X81347425Y-101285768D01*
X73487414Y-101285768D01*
X73439783Y-101087373D01*
X73436734Y-101077988D01*
X73349687Y-100867837D01*
X73345205Y-100859042D01*
X73286224Y-100762795D01*
X81348544Y-100762795D01*
X81355299Y-100766000D01*
X84377924Y-100766000D01*
X84388839Y-100762795D01*
X85778544Y-100762795D01*
X85785299Y-100766000D01*
X86777885Y-100766000D01*
X86793124Y-100761525D01*
X86794329Y-100760135D01*
X86796000Y-100752452D01*
X86796000Y-100747885D01*
X87304000Y-100747885D01*
X87308475Y-100763124D01*
X87309865Y-100764329D01*
X87317548Y-100766000D01*
X88307924Y-100766000D01*
X88321455Y-100762027D01*
X88322575Y-100754232D01*
X88290862Y-100646479D01*
X88286269Y-100635111D01*
X88200393Y-100470846D01*
X88193679Y-100460585D01*
X88077532Y-100316127D01*
X88068954Y-100307368D01*
X87926961Y-100188222D01*
X87916841Y-100181292D01*
X87754415Y-100091998D01*
X87743142Y-100087166D01*
X87566462Y-100031120D01*
X87554468Y-100028570D01*
X87410239Y-100012393D01*
X87403215Y-100012000D01*
X87322115Y-100012000D01*
X87306876Y-100016475D01*
X87305671Y-100017865D01*
X87304000Y-100025548D01*
X87304000Y-100747885D01*
X86796000Y-100747885D01*
X86796000Y-100030115D01*
X86791525Y-100014876D01*
X86790135Y-100013671D01*
X86782452Y-100012000D01*
X86703343Y-100012000D01*
X86697195Y-100012301D01*
X86559397Y-100025812D01*
X86547362Y-100028195D01*
X86369924Y-100081767D01*
X86358584Y-100086441D01*
X86194923Y-100173460D01*
X86184706Y-100180249D01*
X86041067Y-100297397D01*
X86032363Y-100306041D01*
X85914216Y-100448856D01*
X85907356Y-100459027D01*
X85819196Y-100622076D01*
X85814444Y-100633381D01*
X85778750Y-100748692D01*
X85778544Y-100762795D01*
X84388839Y-100762795D01*
X84391455Y-100762027D01*
X84392575Y-100754232D01*
X84360862Y-100646479D01*
X84356269Y-100635111D01*
X84270393Y-100470846D01*
X84263679Y-100460585D01*
X84147532Y-100316127D01*
X84138955Y-100307368D01*
X84086890Y-100263681D01*
X84047564Y-100204572D01*
X84046437Y-100133584D01*
X84063669Y-100096336D01*
X84103502Y-100037725D01*
X84140277Y-99983612D01*
X84207530Y-99815466D01*
X84208644Y-99808738D01*
X84208645Y-99808734D01*
X84235993Y-99643539D01*
X84235993Y-99643536D01*
X84237108Y-99636802D01*
X84232203Y-99543198D01*
X84227987Y-99462766D01*
X84227630Y-99455953D01*
X84204304Y-99371266D01*
X84181352Y-99287941D01*
X84179539Y-99281359D01*
X84095078Y-99121164D01*
X84090673Y-99115951D01*
X84090670Y-99115947D01*
X83982594Y-98988057D01*
X83982590Y-98988053D01*
X83978187Y-98982843D01*
X83972762Y-98978695D01*
X83839743Y-98876994D01*
X83839739Y-98876991D01*
X83834322Y-98872850D01*
X83729186Y-98823825D01*
X83676369Y-98799195D01*
X83676366Y-98799194D01*
X83670192Y-98796315D01*
X83663544Y-98794829D01*
X83663541Y-98794828D01*
X83498494Y-98757936D01*
X83498495Y-98757936D01*
X83493457Y-98756810D01*
X83487912Y-98756500D01*
X83354756Y-98756500D01*
X83219963Y-98771143D01*
X83136609Y-98799195D01*
X83054796Y-98826728D01*
X83054794Y-98826729D01*
X83048325Y-98828906D01*
X82893095Y-98922177D01*
X82888138Y-98926865D01*
X82888135Y-98926867D01*
X82833329Y-98978695D01*
X82761515Y-99046607D01*
X82757683Y-99052245D01*
X82757680Y-99052249D01*
X82706740Y-99127205D01*
X82659723Y-99196388D01*
X82592470Y-99364534D01*
X82591356Y-99371262D01*
X82591355Y-99371266D01*
X82564007Y-99536461D01*
X82562892Y-99543198D01*
X82563249Y-99550015D01*
X82563249Y-99550019D01*
X82568151Y-99643539D01*
X82572370Y-99724047D01*
X82599297Y-99821803D01*
X82607763Y-99852540D01*
X82606569Y-99923526D01*
X82567186Y-99982599D01*
X82502119Y-100011001D01*
X82486287Y-100012000D01*
X82273343Y-100012000D01*
X82267195Y-100012301D01*
X82129397Y-100025812D01*
X82117362Y-100028195D01*
X81939924Y-100081767D01*
X81928584Y-100086441D01*
X81764923Y-100173460D01*
X81754706Y-100180249D01*
X81611067Y-100297397D01*
X81602363Y-100306041D01*
X81484216Y-100448856D01*
X81477356Y-100459027D01*
X81389196Y-100622076D01*
X81384444Y-100633381D01*
X81348750Y-100748692D01*
X81348544Y-100762795D01*
X73286224Y-100762795D01*
X73242568Y-100691555D01*
X73232110Y-100682093D01*
X73223334Y-100685876D01*
X72372022Y-101537188D01*
X72364408Y-101551132D01*
X71634356Y-101551132D01*
X71635592Y-101548868D01*
X71635461Y-101547035D01*
X71631210Y-101540420D01*
X70779710Y-100688920D01*
X70767330Y-100682160D01*
X70759680Y-100687887D01*
X70654795Y-100859042D01*
X70650313Y-100867837D01*
X70563266Y-101077988D01*
X70560217Y-101087373D01*
X70507115Y-101308554D01*
X70505572Y-101318301D01*
X70487725Y-101545070D01*
X70487725Y-101554930D01*
X69012777Y-101554930D01*
X69013165Y-101550000D01*
X68994535Y-101313289D01*
X68988356Y-101287548D01*
X68940260Y-101087218D01*
X68939105Y-101082406D01*
X68937211Y-101077833D01*
X68850135Y-100867611D01*
X68850133Y-100867607D01*
X68848240Y-100863037D01*
X68845654Y-100858817D01*
X68726759Y-100664798D01*
X68726755Y-100664792D01*
X68724176Y-100660584D01*
X68569969Y-100480031D01*
X68389416Y-100325824D01*
X68385208Y-100323245D01*
X68385202Y-100323241D01*
X68376470Y-100317890D01*
X71132093Y-100317890D01*
X71135876Y-100326666D01*
X71987188Y-101177978D01*
X72001132Y-101185592D01*
X72002965Y-101185461D01*
X72009580Y-101181210D01*
X72861080Y-100329710D01*
X72867840Y-100317330D01*
X72862113Y-100309680D01*
X72690958Y-100204795D01*
X72682163Y-100200313D01*
X72472012Y-100113266D01*
X72462627Y-100110217D01*
X72241446Y-100057115D01*
X72231699Y-100055572D01*
X72004930Y-100037725D01*
X71995070Y-100037725D01*
X71768301Y-100055572D01*
X71758554Y-100057115D01*
X71537373Y-100110217D01*
X71527988Y-100113266D01*
X71317837Y-100200313D01*
X71309042Y-100204795D01*
X71141555Y-100307432D01*
X71132093Y-100317890D01*
X68376470Y-100317890D01*
X68191183Y-100204346D01*
X68186963Y-100201760D01*
X68182393Y-100199867D01*
X68182389Y-100199865D01*
X67972167Y-100112789D01*
X67972165Y-100112788D01*
X67967594Y-100110895D01*
X67887391Y-100091640D01*
X67741524Y-100056620D01*
X67741518Y-100056619D01*
X67736711Y-100055465D01*
X67500000Y-100036835D01*
X67263289Y-100055465D01*
X67258482Y-100056619D01*
X67258476Y-100056620D01*
X67111118Y-100091998D01*
X67040049Y-100109060D01*
X66969142Y-100105513D01*
X66921541Y-100075636D01*
X63785000Y-96939095D01*
X63750974Y-96876783D01*
X63756039Y-96805968D01*
X63784999Y-96760906D01*
X63902986Y-96642919D01*
X63965298Y-96608894D01*
X64036114Y-96613960D01*
X64062540Y-96627556D01*
X64062976Y-96627850D01*
X64067730Y-96631783D01*
X64073151Y-96634714D01*
X64073157Y-96634718D01*
X64244910Y-96727584D01*
X64244915Y-96727586D01*
X64250330Y-96730514D01*
X64448629Y-96791898D01*
X64454754Y-96792542D01*
X64454755Y-96792542D01*
X64648946Y-96812952D01*
X64648948Y-96812952D01*
X64655075Y-96813596D01*
X64740985Y-96805777D01*
X64855664Y-96795341D01*
X64855667Y-96795340D01*
X64861803Y-96794782D01*
X64867709Y-96793044D01*
X64867713Y-96793043D01*
X65055031Y-96737912D01*
X65055030Y-96737912D01*
X65060940Y-96736173D01*
X65244900Y-96640001D01*
X65260379Y-96627556D01*
X65360937Y-96546705D01*
X65406677Y-96509929D01*
X65412162Y-96503393D01*
X65536150Y-96355629D01*
X65540109Y-96350911D01*
X65543075Y-96345515D01*
X65543081Y-96345507D01*
X65551387Y-96330399D01*
X65601733Y-96280341D01*
X65671150Y-96265449D01*
X65737599Y-96290451D01*
X65769911Y-96328275D01*
X65770285Y-96328026D01*
X65772337Y-96331115D01*
X65773053Y-96331953D01*
X65776587Y-96338599D01*
X65803964Y-96372166D01*
X65903890Y-96494689D01*
X65903893Y-96494692D01*
X65907785Y-96499464D01*
X65912533Y-96503392D01*
X65912534Y-96503393D01*
X65964484Y-96546370D01*
X66067730Y-96631783D01*
X66073147Y-96634712D01*
X66073150Y-96634714D01*
X66244910Y-96727584D01*
X66244915Y-96727586D01*
X66250330Y-96730514D01*
X66448629Y-96791898D01*
X66454754Y-96792542D01*
X66454755Y-96792542D01*
X66648946Y-96812952D01*
X66648948Y-96812952D01*
X66655075Y-96813596D01*
X66740985Y-96805777D01*
X66855664Y-96795341D01*
X66855667Y-96795340D01*
X66861803Y-96794782D01*
X66867709Y-96793044D01*
X66867713Y-96793043D01*
X67055031Y-96737912D01*
X67055030Y-96737912D01*
X67060940Y-96736173D01*
X67244900Y-96640001D01*
X67260379Y-96627556D01*
X67360937Y-96546705D01*
X67406677Y-96509929D01*
X67412162Y-96503393D01*
X67536150Y-96355629D01*
X67540109Y-96350911D01*
X67543073Y-96345519D01*
X67543076Y-96345515D01*
X67637146Y-96174402D01*
X67640113Y-96169005D01*
X67702879Y-95971139D01*
X67721000Y-95809587D01*
X67721000Y-94297763D01*
X67711769Y-94203612D01*
X67706466Y-94149534D01*
X67706465Y-94149531D01*
X67705865Y-94143408D01*
X67645868Y-93944685D01*
X67603661Y-93865306D01*
X67551309Y-93766847D01*
X67551308Y-93766845D01*
X67548413Y-93761401D01*
X67430244Y-93616511D01*
X67402690Y-93551079D01*
X67414886Y-93481137D01*
X67462958Y-93428892D01*
X67531645Y-93410931D01*
X67541932Y-93411660D01*
X67548343Y-93412379D01*
X67602913Y-93418500D01*
X69114737Y-93418500D01*
X69117793Y-93418200D01*
X69117800Y-93418200D01*
X69262966Y-93403966D01*
X69262969Y-93403965D01*
X69269092Y-93403365D01*
X69440950Y-93351479D01*
X69461907Y-93345152D01*
X69461910Y-93345151D01*
X69467815Y-93343368D01*
X69473262Y-93340472D01*
X69645653Y-93248809D01*
X69645655Y-93248808D01*
X69651099Y-93245913D01*
X69750420Y-93164909D01*
X69807189Y-93118610D01*
X69807192Y-93118607D01*
X69811964Y-93114715D01*
X69829076Y-93094031D01*
X69926306Y-92976500D01*
X69944283Y-92954770D01*
X69948372Y-92947208D01*
X70040084Y-92777590D01*
X70040086Y-92777585D01*
X70043014Y-92772170D01*
X70104398Y-92573871D01*
X70105929Y-92559303D01*
X70125452Y-92373554D01*
X70125452Y-92373552D01*
X70126096Y-92367425D01*
X70107282Y-92160697D01*
X70104798Y-92152255D01*
X70050412Y-91967469D01*
X70048673Y-91961560D01*
X69952501Y-91777600D01*
X69822429Y-91615823D01*
X69809871Y-91605285D01*
X69668129Y-91486350D01*
X69663411Y-91482391D01*
X69658015Y-91479425D01*
X69658007Y-91479419D01*
X69642899Y-91471113D01*
X69592841Y-91420767D01*
X69577949Y-91351350D01*
X69602951Y-91284901D01*
X69640775Y-91252589D01*
X69640526Y-91252215D01*
X69643615Y-91250163D01*
X69644454Y-91249446D01*
X69645506Y-91248887D01*
X69651099Y-91245913D01*
X69806920Y-91118829D01*
X69807189Y-91118610D01*
X69807192Y-91118607D01*
X69811964Y-91114715D01*
X69944283Y-90954770D01*
X69948376Y-90947201D01*
X70040084Y-90777590D01*
X70040086Y-90777585D01*
X70043014Y-90772170D01*
X70104398Y-90573871D01*
X70105929Y-90559303D01*
X70125452Y-90373554D01*
X70125452Y-90373552D01*
X70126096Y-90367425D01*
X70117154Y-90269171D01*
X70107841Y-90166836D01*
X70107840Y-90166833D01*
X70107282Y-90160697D01*
X70104798Y-90152255D01*
X70050412Y-89967469D01*
X70048673Y-89961560D01*
X69952501Y-89777600D01*
X69822429Y-89615823D01*
X69809871Y-89605285D01*
X69668129Y-89486350D01*
X69663411Y-89482391D01*
X69658015Y-89479425D01*
X69658007Y-89479419D01*
X69642899Y-89471113D01*
X69592841Y-89420767D01*
X69577949Y-89351350D01*
X69602951Y-89284901D01*
X69640775Y-89252589D01*
X69640526Y-89252215D01*
X69643615Y-89250163D01*
X69644454Y-89249446D01*
X69645506Y-89248887D01*
X69651099Y-89245913D01*
X69710971Y-89197083D01*
X69807189Y-89118610D01*
X69807192Y-89118607D01*
X69811964Y-89114715D01*
X69944283Y-88954770D01*
X69948376Y-88947201D01*
X70040084Y-88777590D01*
X70040086Y-88777585D01*
X70043014Y-88772170D01*
X70104398Y-88573871D01*
X70105929Y-88559303D01*
X70125452Y-88373554D01*
X70125452Y-88373552D01*
X70126096Y-88367425D01*
X70107282Y-88160697D01*
X70104798Y-88152255D01*
X70050412Y-87967469D01*
X70048673Y-87961560D01*
X69952501Y-87777600D01*
X69822429Y-87615823D01*
X69809871Y-87605285D01*
X69668129Y-87486350D01*
X69663411Y-87482391D01*
X69658015Y-87479425D01*
X69658007Y-87479419D01*
X69642899Y-87471113D01*
X69592841Y-87420767D01*
X69577949Y-87351350D01*
X69602951Y-87284901D01*
X69640775Y-87252589D01*
X69640526Y-87252215D01*
X69643615Y-87250163D01*
X69644454Y-87249446D01*
X69645506Y-87248887D01*
X69651099Y-87245913D01*
X69727097Y-87183931D01*
X69785791Y-87136062D01*
X73278493Y-87136062D01*
X73287789Y-87148077D01*
X73338994Y-87183931D01*
X73348489Y-87189414D01*
X73545947Y-87281490D01*
X73556239Y-87285236D01*
X73766688Y-87341625D01*
X73777481Y-87343528D01*
X73994525Y-87362517D01*
X74005475Y-87362517D01*
X74222519Y-87343528D01*
X74233312Y-87341625D01*
X74443761Y-87285236D01*
X74454053Y-87281490D01*
X74651511Y-87189414D01*
X74661006Y-87183931D01*
X74713048Y-87147491D01*
X74721424Y-87137012D01*
X74714356Y-87123566D01*
X74012812Y-86422022D01*
X73998868Y-86414408D01*
X73997035Y-86414539D01*
X73990420Y-86418790D01*
X73284923Y-87124287D01*
X73278493Y-87136062D01*
X69785791Y-87136062D01*
X69807189Y-87118610D01*
X69807192Y-87118607D01*
X69811964Y-87114715D01*
X69820919Y-87103891D01*
X69940355Y-86959518D01*
X69944283Y-86954770D01*
X69948376Y-86947201D01*
X70040084Y-86777590D01*
X70040086Y-86777585D01*
X70043014Y-86772170D01*
X70104398Y-86573871D01*
X70105929Y-86559303D01*
X70125452Y-86373554D01*
X70125452Y-86373552D01*
X70126096Y-86367425D01*
X70107282Y-86160697D01*
X70104798Y-86152255D01*
X70076314Y-86055475D01*
X72687483Y-86055475D01*
X72706472Y-86272519D01*
X72708375Y-86283312D01*
X72764764Y-86493761D01*
X72768510Y-86504053D01*
X72860586Y-86701511D01*
X72866069Y-86711006D01*
X72902509Y-86763048D01*
X72912988Y-86771424D01*
X72926434Y-86764356D01*
X73627978Y-86062812D01*
X73635592Y-86048868D01*
X73635461Y-86047035D01*
X73631210Y-86040420D01*
X72925713Y-85334923D01*
X72913938Y-85328493D01*
X72901923Y-85337789D01*
X72866069Y-85388994D01*
X72860586Y-85398489D01*
X72768510Y-85595947D01*
X72764764Y-85606239D01*
X72708375Y-85816688D01*
X72706472Y-85827481D01*
X72687483Y-86044525D01*
X72687483Y-86055475D01*
X70076314Y-86055475D01*
X70050412Y-85967469D01*
X70048673Y-85961560D01*
X69952501Y-85777600D01*
X69822429Y-85615823D01*
X69811008Y-85606239D01*
X69668129Y-85486350D01*
X69663411Y-85482391D01*
X69658015Y-85479425D01*
X69658007Y-85479419D01*
X69642899Y-85471113D01*
X69592841Y-85420767D01*
X69577949Y-85351350D01*
X69602951Y-85284901D01*
X69640775Y-85252589D01*
X69640526Y-85252215D01*
X69643615Y-85250163D01*
X69644454Y-85249446D01*
X69645506Y-85248887D01*
X69651099Y-85245913D01*
X69710971Y-85197083D01*
X69807189Y-85118610D01*
X69807192Y-85118607D01*
X69811964Y-85114715D01*
X69937484Y-84962988D01*
X73278576Y-84962988D01*
X73285644Y-84976434D01*
X73987188Y-85677978D01*
X74001132Y-85685592D01*
X74002965Y-85685461D01*
X74009580Y-85681210D01*
X74715077Y-84975713D01*
X74721507Y-84963938D01*
X74712211Y-84951923D01*
X74661006Y-84916069D01*
X74651511Y-84910586D01*
X74454053Y-84818510D01*
X74443761Y-84814764D01*
X74233312Y-84758375D01*
X74222519Y-84756472D01*
X74005475Y-84737483D01*
X73994525Y-84737483D01*
X73777481Y-84756472D01*
X73766688Y-84758375D01*
X73556239Y-84814764D01*
X73545947Y-84818510D01*
X73348489Y-84910586D01*
X73338994Y-84916069D01*
X73286952Y-84952509D01*
X73278576Y-84962988D01*
X69937484Y-84962988D01*
X69944283Y-84954770D01*
X69948376Y-84947201D01*
X70040084Y-84777590D01*
X70040086Y-84777585D01*
X70043014Y-84772170D01*
X70104398Y-84573871D01*
X70105929Y-84559303D01*
X70125452Y-84373554D01*
X70125452Y-84373552D01*
X70126096Y-84367425D01*
X70107282Y-84160697D01*
X70104798Y-84152255D01*
X70050412Y-83967469D01*
X70048673Y-83961560D01*
X69952501Y-83777600D01*
X69822429Y-83615823D01*
X69809871Y-83605285D01*
X69668129Y-83486350D01*
X69663411Y-83482391D01*
X69658015Y-83479425D01*
X69658007Y-83479419D01*
X69642899Y-83471113D01*
X69592841Y-83420767D01*
X69577949Y-83351350D01*
X69602951Y-83284901D01*
X69640775Y-83252589D01*
X69640526Y-83252215D01*
X69643615Y-83250163D01*
X69644454Y-83249446D01*
X69645506Y-83248887D01*
X69651099Y-83245913D01*
X69710971Y-83197083D01*
X69807189Y-83118610D01*
X69807192Y-83118607D01*
X69811964Y-83114715D01*
X69944283Y-82954770D01*
X69948376Y-82947201D01*
X70040084Y-82777590D01*
X70040086Y-82777585D01*
X70043014Y-82772170D01*
X70104398Y-82573871D01*
X70105929Y-82559303D01*
X70125452Y-82373554D01*
X70125452Y-82373552D01*
X70126096Y-82367425D01*
X70107282Y-82160697D01*
X70104798Y-82152255D01*
X70050412Y-81967469D01*
X70048673Y-81961560D01*
X69952501Y-81777600D01*
X69822429Y-81615823D01*
X69809871Y-81605285D01*
X69687930Y-81502965D01*
X69663411Y-81482391D01*
X69658019Y-81479427D01*
X69658015Y-81479424D01*
X69486902Y-81385354D01*
X69481505Y-81382387D01*
X69283639Y-81319621D01*
X69277522Y-81318935D01*
X69277518Y-81318934D01*
X69198508Y-81310072D01*
X69122087Y-81301500D01*
X67610263Y-81301500D01*
X67607207Y-81301800D01*
X67607200Y-81301800D01*
X67556723Y-81306750D01*
X67519834Y-81310367D01*
X67450088Y-81297108D01*
X67398580Y-81248245D01*
X67381667Y-81179293D01*
X67404717Y-81112142D01*
X67411018Y-81103976D01*
X67426050Y-81086062D01*
X73278493Y-81086062D01*
X73287789Y-81098077D01*
X73338994Y-81133931D01*
X73348489Y-81139414D01*
X73545947Y-81231490D01*
X73556239Y-81235236D01*
X73766688Y-81291625D01*
X73777481Y-81293528D01*
X73994525Y-81312517D01*
X74005475Y-81312517D01*
X74222519Y-81293528D01*
X74233312Y-81291625D01*
X74443761Y-81235236D01*
X74454053Y-81231490D01*
X74651511Y-81139414D01*
X74661006Y-81133931D01*
X74713048Y-81097491D01*
X74721424Y-81087012D01*
X74714356Y-81073566D01*
X74012812Y-80372022D01*
X73998868Y-80364408D01*
X73997035Y-80364539D01*
X73990420Y-80368790D01*
X73284923Y-81074287D01*
X73278493Y-81086062D01*
X67426050Y-81086062D01*
X67535736Y-80955344D01*
X67542660Y-80945233D01*
X67636684Y-80774202D01*
X67641512Y-80762938D01*
X67700525Y-80576905D01*
X67703073Y-80564916D01*
X67720107Y-80413053D01*
X67720500Y-80406029D01*
X67720500Y-80005475D01*
X72687483Y-80005475D01*
X72706472Y-80222519D01*
X72708375Y-80233312D01*
X72764764Y-80443761D01*
X72768510Y-80454053D01*
X72860586Y-80651511D01*
X72866069Y-80661006D01*
X72902509Y-80713048D01*
X72912988Y-80721424D01*
X72926434Y-80714356D01*
X73627978Y-80012812D01*
X73635592Y-79998868D01*
X73635461Y-79997035D01*
X73631210Y-79990420D01*
X72925713Y-79284923D01*
X72913938Y-79278493D01*
X72901923Y-79287789D01*
X72866069Y-79338994D01*
X72860586Y-79348489D01*
X72768510Y-79545947D01*
X72764764Y-79556239D01*
X72708375Y-79766688D01*
X72706472Y-79777481D01*
X72687483Y-79994525D01*
X72687483Y-80005475D01*
X67720500Y-80005475D01*
X67720500Y-79922115D01*
X67716025Y-79906876D01*
X67714635Y-79905671D01*
X67706952Y-79904000D01*
X66934615Y-79904000D01*
X66919376Y-79908475D01*
X66918171Y-79909865D01*
X66916500Y-79917548D01*
X66916500Y-81360047D01*
X66920975Y-81375287D01*
X66940595Y-81392288D01*
X66978978Y-81452015D01*
X66978978Y-81523011D01*
X66937717Y-81585155D01*
X66917816Y-81601386D01*
X66917813Y-81601389D01*
X66913036Y-81605285D01*
X66780717Y-81765230D01*
X66777788Y-81770647D01*
X66777786Y-81770650D01*
X66684916Y-81942410D01*
X66684914Y-81942415D01*
X66681986Y-81947830D01*
X66620602Y-82146129D01*
X66619958Y-82152254D01*
X66619958Y-82152255D01*
X66618426Y-82166836D01*
X66598904Y-82352575D01*
X66617718Y-82559303D01*
X66619456Y-82565209D01*
X66619457Y-82565213D01*
X66662973Y-82713068D01*
X66676327Y-82758440D01*
X66772499Y-82942400D01*
X66902571Y-83104177D01*
X66907288Y-83108135D01*
X66907290Y-83108137D01*
X67011181Y-83195312D01*
X67061589Y-83237609D01*
X67066985Y-83240575D01*
X67066993Y-83240581D01*
X67082101Y-83248887D01*
X67132159Y-83299233D01*
X67147051Y-83368650D01*
X67122049Y-83435099D01*
X67084225Y-83467411D01*
X67084474Y-83467785D01*
X67081385Y-83469837D01*
X67080547Y-83470553D01*
X67073901Y-83474087D01*
X67058865Y-83486350D01*
X66917811Y-83601390D01*
X66917808Y-83601393D01*
X66913036Y-83605285D01*
X66780717Y-83765230D01*
X66777788Y-83770647D01*
X66777786Y-83770650D01*
X66684916Y-83942410D01*
X66684914Y-83942415D01*
X66681986Y-83947830D01*
X66620602Y-84146129D01*
X66619958Y-84152254D01*
X66619958Y-84152255D01*
X66618426Y-84166836D01*
X66598904Y-84352575D01*
X66617718Y-84559303D01*
X66619456Y-84565209D01*
X66619457Y-84565213D01*
X66661401Y-84707725D01*
X66676327Y-84758440D01*
X66772499Y-84942400D01*
X66902571Y-85104177D01*
X66907288Y-85108135D01*
X66907290Y-85108137D01*
X66954249Y-85147540D01*
X67061589Y-85237609D01*
X67066985Y-85240575D01*
X67066993Y-85240581D01*
X67082101Y-85248887D01*
X67132159Y-85299233D01*
X67147051Y-85368650D01*
X67122049Y-85435099D01*
X67084225Y-85467411D01*
X67084474Y-85467785D01*
X67081385Y-85469837D01*
X67080547Y-85470553D01*
X67073901Y-85474087D01*
X67058865Y-85486350D01*
X66917811Y-85601390D01*
X66917808Y-85601393D01*
X66913036Y-85605285D01*
X66780717Y-85765230D01*
X66777788Y-85770647D01*
X66777786Y-85770650D01*
X66684916Y-85942410D01*
X66684914Y-85942415D01*
X66681986Y-85947830D01*
X66620602Y-86146129D01*
X66619958Y-86152254D01*
X66619958Y-86152255D01*
X66618426Y-86166836D01*
X66598904Y-86352575D01*
X66617718Y-86559303D01*
X66619456Y-86565209D01*
X66619457Y-86565213D01*
X66659572Y-86701511D01*
X66676327Y-86758440D01*
X66772499Y-86942400D01*
X66902571Y-87104177D01*
X66907288Y-87108135D01*
X66907290Y-87108137D01*
X66954889Y-87148077D01*
X67061589Y-87237609D01*
X67066985Y-87240575D01*
X67066993Y-87240581D01*
X67082101Y-87248887D01*
X67132159Y-87299233D01*
X67147051Y-87368650D01*
X67122049Y-87435099D01*
X67084225Y-87467411D01*
X67084474Y-87467785D01*
X67081385Y-87469837D01*
X67080547Y-87470553D01*
X67073901Y-87474087D01*
X67058865Y-87486350D01*
X66917811Y-87601390D01*
X66917808Y-87601393D01*
X66913036Y-87605285D01*
X66780717Y-87765230D01*
X66777788Y-87770647D01*
X66777786Y-87770650D01*
X66684916Y-87942410D01*
X66684914Y-87942415D01*
X66681986Y-87947830D01*
X66620602Y-88146129D01*
X66619958Y-88152254D01*
X66619958Y-88152255D01*
X66618426Y-88166836D01*
X66598904Y-88352575D01*
X66617718Y-88559303D01*
X66619456Y-88565209D01*
X66619457Y-88565213D01*
X66662973Y-88713068D01*
X66676327Y-88758440D01*
X66772499Y-88942400D01*
X66902571Y-89104177D01*
X66907288Y-89108135D01*
X66907290Y-89108137D01*
X67011181Y-89195312D01*
X67061589Y-89237609D01*
X67066985Y-89240575D01*
X67066993Y-89240581D01*
X67082101Y-89248887D01*
X67132159Y-89299233D01*
X67147051Y-89368650D01*
X67122049Y-89435099D01*
X67084225Y-89467411D01*
X67084474Y-89467785D01*
X67081385Y-89469837D01*
X67080547Y-89470553D01*
X67073901Y-89474087D01*
X67058865Y-89486350D01*
X66917811Y-89601390D01*
X66917808Y-89601393D01*
X66913036Y-89605285D01*
X66780717Y-89765230D01*
X66777788Y-89770647D01*
X66777786Y-89770650D01*
X66684916Y-89942410D01*
X66684914Y-89942415D01*
X66681986Y-89947830D01*
X66620602Y-90146129D01*
X66619958Y-90152254D01*
X66619958Y-90152255D01*
X66618426Y-90166836D01*
X66598904Y-90352575D01*
X66617718Y-90559303D01*
X66619456Y-90565209D01*
X66619457Y-90565213D01*
X66630215Y-90601764D01*
X66676327Y-90758440D01*
X66772499Y-90942400D01*
X66902571Y-91104177D01*
X66907288Y-91108135D01*
X66907290Y-91108137D01*
X66920744Y-91119426D01*
X67061589Y-91237609D01*
X67066985Y-91240575D01*
X67066993Y-91240581D01*
X67082101Y-91248887D01*
X67132159Y-91299233D01*
X67147051Y-91368650D01*
X67122049Y-91435099D01*
X67084225Y-91467411D01*
X67084474Y-91467785D01*
X67081385Y-91469837D01*
X67080547Y-91470553D01*
X67073901Y-91474087D01*
X67058865Y-91486350D01*
X66917811Y-91601390D01*
X66917808Y-91601393D01*
X66913036Y-91605285D01*
X66780717Y-91765230D01*
X66777788Y-91770647D01*
X66777786Y-91770650D01*
X66684916Y-91942410D01*
X66684914Y-91942415D01*
X66681986Y-91947830D01*
X66620602Y-92146129D01*
X66619958Y-92152254D01*
X66619958Y-92152255D01*
X66610172Y-92245369D01*
X66598904Y-92352575D01*
X66617718Y-92559303D01*
X66619456Y-92565209D01*
X66619457Y-92565213D01*
X66643166Y-92645768D01*
X66676327Y-92758440D01*
X66772499Y-92942400D01*
X66776355Y-92947196D01*
X66776363Y-92947208D01*
X66894413Y-93094031D01*
X66921510Y-93159653D01*
X66908827Y-93229508D01*
X66860391Y-93281416D01*
X66791580Y-93298898D01*
X66783047Y-93298293D01*
X66676054Y-93287048D01*
X66676052Y-93287048D01*
X66669925Y-93286404D01*
X66584015Y-93294223D01*
X66469336Y-93304659D01*
X66469333Y-93304660D01*
X66463197Y-93305218D01*
X66457291Y-93306956D01*
X66457287Y-93306957D01*
X66333574Y-93343368D01*
X66264060Y-93363827D01*
X66080100Y-93459999D01*
X65918323Y-93590071D01*
X65914365Y-93594788D01*
X65914363Y-93594790D01*
X65909542Y-93600536D01*
X65784891Y-93749089D01*
X65781925Y-93754485D01*
X65781919Y-93754493D01*
X65773613Y-93769601D01*
X65723267Y-93819659D01*
X65653850Y-93834551D01*
X65587401Y-93809549D01*
X65555089Y-93771725D01*
X65554715Y-93771974D01*
X65552663Y-93768885D01*
X65551946Y-93768046D01*
X65551308Y-93766846D01*
X65548413Y-93761401D01*
X65481842Y-93679777D01*
X65421110Y-93605311D01*
X65421107Y-93605308D01*
X65417215Y-93600536D01*
X65410270Y-93594790D01*
X65262018Y-93472145D01*
X65262019Y-93472145D01*
X65257270Y-93468217D01*
X65251853Y-93465288D01*
X65251850Y-93465286D01*
X65080090Y-93372416D01*
X65080085Y-93372414D01*
X65074670Y-93369486D01*
X64876371Y-93308102D01*
X64870246Y-93307458D01*
X64870245Y-93307458D01*
X64676054Y-93287048D01*
X64676052Y-93287048D01*
X64669925Y-93286404D01*
X64558420Y-93296552D01*
X64488767Y-93282807D01*
X64437602Y-93233586D01*
X64421000Y-93171071D01*
X64421000Y-81628931D01*
X64441002Y-81560810D01*
X64494658Y-81514317D01*
X64560170Y-81503621D01*
X64655075Y-81513596D01*
X64740985Y-81505777D01*
X64855664Y-81495341D01*
X64855667Y-81495340D01*
X64861803Y-81494782D01*
X64867709Y-81493044D01*
X64867713Y-81493043D01*
X65055031Y-81437912D01*
X65055030Y-81437912D01*
X65060940Y-81436173D01*
X65244900Y-81340001D01*
X65256700Y-81330514D01*
X65310171Y-81287522D01*
X65406677Y-81209929D01*
X65540109Y-81050911D01*
X65543073Y-81045519D01*
X65543076Y-81045515D01*
X65582477Y-80973844D01*
X65632823Y-80923785D01*
X65702240Y-80908892D01*
X65768689Y-80933893D01*
X65790535Y-80954909D01*
X65904247Y-81094335D01*
X65912891Y-81103039D01*
X66063263Y-81227438D01*
X66073431Y-81234297D01*
X66245107Y-81327121D01*
X66256407Y-81331871D01*
X66391193Y-81373595D01*
X66405295Y-81373801D01*
X66408500Y-81367045D01*
X66408500Y-79377885D01*
X66916500Y-79377885D01*
X66920975Y-79393124D01*
X66922365Y-79394329D01*
X66930048Y-79396000D01*
X67702385Y-79396000D01*
X67717624Y-79391525D01*
X67718829Y-79390135D01*
X67720500Y-79382452D01*
X67720500Y-78912988D01*
X73278576Y-78912988D01*
X73285644Y-78926434D01*
X73987188Y-79627978D01*
X74001132Y-79635592D01*
X74002965Y-79635461D01*
X74009580Y-79631210D01*
X74715077Y-78925713D01*
X74721507Y-78913938D01*
X74712211Y-78901923D01*
X74661006Y-78866069D01*
X74651511Y-78860586D01*
X74454053Y-78768510D01*
X74443761Y-78764764D01*
X74233312Y-78708375D01*
X74222519Y-78706472D01*
X74005475Y-78687483D01*
X73994525Y-78687483D01*
X73777481Y-78706472D01*
X73766688Y-78708375D01*
X73556239Y-78764764D01*
X73545947Y-78768510D01*
X73348489Y-78860586D01*
X73338994Y-78866069D01*
X73286952Y-78902509D01*
X73278576Y-78912988D01*
X67720500Y-78912988D01*
X67720500Y-78900876D01*
X67720199Y-78894728D01*
X67705973Y-78749639D01*
X67703590Y-78737604D01*
X67647183Y-78550777D01*
X67642508Y-78539435D01*
X67550888Y-78367121D01*
X67544101Y-78356905D01*
X67420753Y-78205665D01*
X67412109Y-78196961D01*
X67261737Y-78072562D01*
X67251569Y-78065703D01*
X67079893Y-77972879D01*
X67068593Y-77968129D01*
X66933807Y-77926405D01*
X66919705Y-77926199D01*
X66916500Y-77932955D01*
X66916500Y-79377885D01*
X66408500Y-79377885D01*
X66408500Y-77939953D01*
X66404527Y-77926422D01*
X66396732Y-77925302D01*
X66270158Y-77962554D01*
X66258790Y-77967147D01*
X66085834Y-78057566D01*
X66075572Y-78064282D01*
X65923480Y-78186568D01*
X65914714Y-78195152D01*
X65789264Y-78344656D01*
X65782335Y-78354775D01*
X65743123Y-78426101D01*
X65692778Y-78476160D01*
X65623361Y-78491053D01*
X65556912Y-78466052D01*
X65535066Y-78445036D01*
X65421110Y-78305311D01*
X65421107Y-78305308D01*
X65417215Y-78300536D01*
X65257270Y-78168217D01*
X65251853Y-78165288D01*
X65251850Y-78165286D01*
X65080090Y-78072416D01*
X65080085Y-78072414D01*
X65074670Y-78069486D01*
X64876371Y-78008102D01*
X64870246Y-78007458D01*
X64870245Y-78007458D01*
X64676054Y-77987048D01*
X64676052Y-77987048D01*
X64669925Y-77986404D01*
X64558420Y-77996552D01*
X64488767Y-77982807D01*
X64437602Y-77933586D01*
X64421000Y-77871071D01*
X64421000Y-76177094D01*
X64441002Y-76108973D01*
X64457901Y-76088003D01*
X65375502Y-75170403D01*
X65437812Y-75136379D01*
X65464595Y-75133500D01*
X68681233Y-75133500D01*
X68692416Y-75134027D01*
X68699909Y-75135702D01*
X68707835Y-75135453D01*
X68707836Y-75135453D01*
X68767986Y-75133562D01*
X68771945Y-75133500D01*
X68799856Y-75133500D01*
X68803791Y-75133003D01*
X68803856Y-75132995D01*
X68815693Y-75132062D01*
X68847951Y-75131048D01*
X68851970Y-75130922D01*
X68859889Y-75130673D01*
X68879343Y-75125021D01*
X68898700Y-75121013D01*
X68910930Y-75119468D01*
X68910931Y-75119468D01*
X68918797Y-75118474D01*
X68926168Y-75115555D01*
X68926170Y-75115555D01*
X68959912Y-75102196D01*
X68971142Y-75098351D01*
X69005983Y-75088229D01*
X69005984Y-75088229D01*
X69013593Y-75086018D01*
X69020412Y-75081985D01*
X69020417Y-75081983D01*
X69031028Y-75075707D01*
X69048776Y-75067012D01*
X69067617Y-75059552D01*
X69103387Y-75033564D01*
X69113307Y-75027048D01*
X69144535Y-75008580D01*
X69144538Y-75008578D01*
X69151362Y-75004542D01*
X69165683Y-74990221D01*
X69180717Y-74977380D01*
X69190694Y-74970131D01*
X69197107Y-74965472D01*
X69225298Y-74931395D01*
X69233288Y-74922616D01*
X70004549Y-74151355D01*
X70066861Y-74117329D01*
X70118762Y-74116979D01*
X70298597Y-74153567D01*
X70303772Y-74153757D01*
X70303774Y-74153757D01*
X70516673Y-74161564D01*
X70516677Y-74161564D01*
X70521837Y-74161753D01*
X70526957Y-74161097D01*
X70526959Y-74161097D01*
X70738288Y-74134025D01*
X70738289Y-74134025D01*
X70743416Y-74133368D01*
X70786674Y-74120390D01*
X70952429Y-74070661D01*
X70952434Y-74070659D01*
X70957384Y-74069174D01*
X71157994Y-73970896D01*
X71339860Y-73841173D01*
X71356014Y-73825076D01*
X71469918Y-73711569D01*
X71498096Y-73683489D01*
X71628453Y-73502077D01*
X71633507Y-73491852D01*
X71725136Y-73306453D01*
X71725137Y-73306451D01*
X71727430Y-73301811D01*
X71792370Y-73088069D01*
X71821529Y-72866590D01*
X71822004Y-72847144D01*
X71823074Y-72803365D01*
X71823074Y-72803361D01*
X71823156Y-72800000D01*
X71804852Y-72577361D01*
X71750431Y-72360702D01*
X71661354Y-72155840D01*
X71578975Y-72028502D01*
X71542822Y-71972617D01*
X71542820Y-71972614D01*
X71540014Y-71968277D01*
X71389670Y-71803051D01*
X71385619Y-71799852D01*
X71385615Y-71799848D01*
X71218414Y-71667800D01*
X71218410Y-71667798D01*
X71214359Y-71664598D01*
X71018789Y-71556638D01*
X71013920Y-71554914D01*
X71013916Y-71554912D01*
X70813087Y-71483795D01*
X70813083Y-71483794D01*
X70808212Y-71482069D01*
X70803119Y-71481162D01*
X70803116Y-71481161D01*
X70593373Y-71443800D01*
X70593367Y-71443799D01*
X70588284Y-71442894D01*
X70514452Y-71441992D01*
X70370081Y-71440228D01*
X70370079Y-71440228D01*
X70364911Y-71440165D01*
X70144091Y-71473955D01*
X69931756Y-71543357D01*
X69904317Y-71557641D01*
X69755132Y-71635302D01*
X69733607Y-71646507D01*
X69729474Y-71649610D01*
X69729471Y-71649612D01*
X69559100Y-71777530D01*
X69554965Y-71780635D01*
X69551393Y-71784373D01*
X69422454Y-71919300D01*
X69400629Y-71942138D01*
X69293201Y-72099621D01*
X69238293Y-72144621D01*
X69167768Y-72152792D01*
X69104021Y-72121538D01*
X69083324Y-72097054D01*
X69002822Y-71972617D01*
X69002820Y-71972614D01*
X69000014Y-71968277D01*
X68849670Y-71803051D01*
X68845619Y-71799852D01*
X68845615Y-71799848D01*
X68678414Y-71667800D01*
X68678410Y-71667798D01*
X68674359Y-71664598D01*
X68478789Y-71556638D01*
X68473920Y-71554914D01*
X68473916Y-71554912D01*
X68273087Y-71483795D01*
X68273083Y-71483794D01*
X68268212Y-71482069D01*
X68263119Y-71481162D01*
X68263116Y-71481161D01*
X68053373Y-71443800D01*
X68053367Y-71443799D01*
X68048284Y-71442894D01*
X67974452Y-71441992D01*
X67830081Y-71440228D01*
X67830079Y-71440228D01*
X67824911Y-71440165D01*
X67604091Y-71473955D01*
X67591532Y-71478060D01*
X67520568Y-71480210D01*
X67463294Y-71447389D01*
X67239500Y-71223595D01*
X67205474Y-71161283D01*
X67210539Y-71090468D01*
X67253086Y-71033632D01*
X67319606Y-71008821D01*
X67328595Y-71008500D01*
X76292700Y-71008500D01*
X76360821Y-71028502D01*
X76407314Y-71082158D01*
X76418700Y-71134500D01*
X76418700Y-71154421D01*
X76398698Y-71222542D01*
X76362202Y-71259191D01*
X76359274Y-71260708D01*
X76355111Y-71264031D01*
X76350404Y-71266534D01*
X76345629Y-71270428D01*
X76345628Y-71270429D01*
X76278302Y-71325339D01*
X76277275Y-71326167D01*
X76240992Y-71355131D01*
X76240987Y-71355136D01*
X76238228Y-71357338D01*
X76235727Y-71359839D01*
X76235009Y-71360481D01*
X76230661Y-71364194D01*
X76197138Y-71391535D01*
X76193215Y-71396277D01*
X76193213Y-71396279D01*
X76167903Y-71426873D01*
X76159913Y-71435653D01*
X75830621Y-71764945D01*
X75820478Y-71774047D01*
X75790975Y-71797768D01*
X75761447Y-71832958D01*
X75758709Y-71836221D01*
X75755528Y-71839869D01*
X75753885Y-71841681D01*
X75751691Y-71843875D01*
X75724358Y-71877149D01*
X75723696Y-71877947D01*
X75663846Y-71949274D01*
X75661278Y-71953944D01*
X75657897Y-71958061D01*
X75630959Y-72008300D01*
X75614023Y-72039886D01*
X75613394Y-72041045D01*
X75571538Y-72117181D01*
X75571535Y-72117189D01*
X75568567Y-72122587D01*
X75566955Y-72127669D01*
X75564438Y-72132363D01*
X75537238Y-72221331D01*
X75536918Y-72222359D01*
X75508765Y-72311106D01*
X75508171Y-72316402D01*
X75506613Y-72321498D01*
X75497313Y-72413056D01*
X75497218Y-72413987D01*
X75497089Y-72415193D01*
X75491500Y-72465027D01*
X75491500Y-72468554D01*
X75491445Y-72469539D01*
X75490998Y-72475219D01*
X75486626Y-72518262D01*
X75487206Y-72524393D01*
X75490941Y-72563909D01*
X75491500Y-72575767D01*
X75491500Y-78657725D01*
X75471498Y-78725846D01*
X75441065Y-78758551D01*
X75336739Y-78836739D01*
X75249385Y-78953295D01*
X75198255Y-79089684D01*
X75191500Y-79151866D01*
X75191500Y-79155185D01*
X75167847Y-79222110D01*
X75121844Y-79257804D01*
X75122859Y-79259734D01*
X75112000Y-79265442D01*
X75111755Y-79265632D01*
X75111597Y-79265653D01*
X75073566Y-79285644D01*
X74372022Y-79987188D01*
X74364408Y-80001132D01*
X74364539Y-80002965D01*
X74368790Y-80009580D01*
X75074287Y-80715077D01*
X75116029Y-80737871D01*
X75126029Y-80740047D01*
X75176227Y-80790253D01*
X75191451Y-80843814D01*
X75191500Y-80844717D01*
X75191500Y-80848134D01*
X75198255Y-80910316D01*
X75249385Y-81046705D01*
X75336739Y-81163261D01*
X75439133Y-81240001D01*
X75441065Y-81241449D01*
X75483580Y-81298308D01*
X75491500Y-81342275D01*
X75491500Y-84707725D01*
X75471498Y-84775846D01*
X75441065Y-84808551D01*
X75336739Y-84886739D01*
X75249385Y-85003295D01*
X75198255Y-85139684D01*
X75191500Y-85201866D01*
X75191500Y-85205185D01*
X75167847Y-85272110D01*
X75121844Y-85307804D01*
X75122859Y-85309734D01*
X75112000Y-85315442D01*
X75111755Y-85315632D01*
X75111597Y-85315653D01*
X75073566Y-85335644D01*
X74372022Y-86037188D01*
X74364408Y-86051132D01*
X74364539Y-86052965D01*
X74368790Y-86059580D01*
X75074287Y-86765077D01*
X75116029Y-86787871D01*
X75126029Y-86790047D01*
X75176227Y-86840253D01*
X75191451Y-86893814D01*
X75191500Y-86894717D01*
X75191500Y-86898134D01*
X75198255Y-86960316D01*
X75249385Y-87096705D01*
X75336739Y-87213261D01*
X75385977Y-87250163D01*
X75441065Y-87291449D01*
X75483580Y-87348308D01*
X75491500Y-87392275D01*
X75491500Y-90588157D01*
X75490763Y-90601764D01*
X75486676Y-90639388D01*
X75487213Y-90645523D01*
X75491050Y-90689388D01*
X75491379Y-90694214D01*
X75491500Y-90696686D01*
X75491500Y-90699769D01*
X75491801Y-90702837D01*
X75495690Y-90742506D01*
X75495812Y-90743819D01*
X75498293Y-90772170D01*
X75503913Y-90836413D01*
X75505400Y-90841532D01*
X75505920Y-90846833D01*
X75532791Y-90935834D01*
X75533126Y-90936967D01*
X75538299Y-90954770D01*
X75559091Y-91026336D01*
X75561544Y-91031068D01*
X75563084Y-91036169D01*
X75565978Y-91041612D01*
X75606731Y-91118260D01*
X75607343Y-91119426D01*
X75650108Y-91201926D01*
X75653431Y-91206089D01*
X75655934Y-91210796D01*
X75714755Y-91282918D01*
X75715446Y-91283774D01*
X75746738Y-91322973D01*
X75749242Y-91325477D01*
X75749884Y-91326195D01*
X75753585Y-91330528D01*
X75780935Y-91364062D01*
X75785682Y-91367989D01*
X75785684Y-91367991D01*
X75797620Y-91377865D01*
X75813643Y-91391120D01*
X75816262Y-91393287D01*
X75825042Y-91401277D01*
X79522075Y-95098309D01*
X79636261Y-95192103D01*
X79810563Y-95285562D01*
X79919219Y-95318782D01*
X79993800Y-95341584D01*
X79993802Y-95341584D01*
X79999698Y-95343387D01*
X80057551Y-95349264D01*
X80190334Y-95362752D01*
X80190339Y-95362752D01*
X80196462Y-95363374D01*
X80320525Y-95351646D01*
X80387229Y-95345341D01*
X80387231Y-95345341D01*
X80393362Y-95344761D01*
X80488129Y-95316510D01*
X80576993Y-95290019D01*
X80576995Y-95290018D01*
X80582896Y-95288259D01*
X80757846Y-95196018D01*
X80911547Y-95071553D01*
X81038146Y-94919604D01*
X81132822Y-94745959D01*
X81169519Y-94628857D01*
X81190122Y-94563114D01*
X81190123Y-94563111D01*
X81191965Y-94557232D01*
X81200210Y-94481339D01*
X81212659Y-94366736D01*
X81212659Y-94366732D01*
X81213324Y-94360611D01*
X81196087Y-94163587D01*
X81194368Y-94157670D01*
X81194367Y-94157665D01*
X81142627Y-93979578D01*
X81140909Y-93973664D01*
X81049892Y-93798074D01*
X81022051Y-93763198D01*
X80955458Y-93679777D01*
X80955451Y-93679770D01*
X80953262Y-93677027D01*
X79922003Y-92645768D01*
X81347425Y-92645768D01*
X81379138Y-92753521D01*
X81383731Y-92764889D01*
X81469607Y-92929154D01*
X81476321Y-92939415D01*
X81592468Y-93083873D01*
X81601046Y-93092632D01*
X81743039Y-93211778D01*
X81753159Y-93218708D01*
X81915585Y-93308002D01*
X81926858Y-93312834D01*
X82103538Y-93368880D01*
X82115532Y-93371430D01*
X82259761Y-93387607D01*
X82266785Y-93388000D01*
X82484977Y-93388000D01*
X82553098Y-93408002D01*
X82599591Y-93461658D01*
X82609695Y-93531932D01*
X82601966Y-93560792D01*
X82592470Y-93584534D01*
X82591356Y-93591262D01*
X82591355Y-93591266D01*
X82564768Y-93751866D01*
X82562892Y-93763198D01*
X82563249Y-93770015D01*
X82563249Y-93770019D01*
X82568151Y-93863539D01*
X82572370Y-93944047D01*
X82574181Y-93950620D01*
X82574181Y-93950623D01*
X82597551Y-94035466D01*
X82620461Y-94118641D01*
X82704922Y-94278836D01*
X82709327Y-94284049D01*
X82709330Y-94284053D01*
X82817406Y-94411943D01*
X82817410Y-94411947D01*
X82821813Y-94417157D01*
X82827237Y-94421304D01*
X82827238Y-94421305D01*
X82960257Y-94523006D01*
X82960261Y-94523009D01*
X82965678Y-94527150D01*
X83052372Y-94567576D01*
X83123631Y-94600805D01*
X83123634Y-94600806D01*
X83129808Y-94603685D01*
X83136456Y-94605171D01*
X83136459Y-94605172D01*
X83242421Y-94628857D01*
X83306543Y-94643190D01*
X83312088Y-94643500D01*
X83445244Y-94643500D01*
X83580037Y-94628857D01*
X83698190Y-94589094D01*
X83745204Y-94573272D01*
X83745206Y-94573271D01*
X83751675Y-94571094D01*
X83906905Y-94477823D01*
X83911862Y-94473135D01*
X83911865Y-94473133D01*
X84033527Y-94358082D01*
X84033529Y-94358080D01*
X84038485Y-94353393D01*
X84042317Y-94347755D01*
X84042320Y-94347751D01*
X84136442Y-94209255D01*
X84140277Y-94203612D01*
X84207530Y-94035466D01*
X84208644Y-94028738D01*
X84208645Y-94028734D01*
X84235993Y-93863539D01*
X84235993Y-93863536D01*
X84237108Y-93856802D01*
X84235162Y-93819659D01*
X84227987Y-93682766D01*
X84227630Y-93675953D01*
X84205275Y-93594791D01*
X84181352Y-93507941D01*
X84179539Y-93501359D01*
X84095078Y-93341164D01*
X84090673Y-93335951D01*
X84090670Y-93335947D01*
X84072306Y-93314217D01*
X84043614Y-93249276D01*
X84054587Y-93179132D01*
X84088908Y-93135246D01*
X84128933Y-93102603D01*
X84137637Y-93093959D01*
X84255784Y-92951144D01*
X84262644Y-92940973D01*
X84350804Y-92777924D01*
X84355556Y-92766619D01*
X84391250Y-92651308D01*
X84391331Y-92645768D01*
X85777425Y-92645768D01*
X85809138Y-92753521D01*
X85813731Y-92764889D01*
X85899607Y-92929154D01*
X85906321Y-92939415D01*
X86022468Y-93083873D01*
X86031046Y-93092632D01*
X86173039Y-93211778D01*
X86183159Y-93218708D01*
X86345585Y-93308002D01*
X86356858Y-93312834D01*
X86533538Y-93368880D01*
X86545532Y-93371430D01*
X86689761Y-93387607D01*
X86696785Y-93388000D01*
X86777885Y-93388000D01*
X86793124Y-93383525D01*
X86794329Y-93382135D01*
X86796000Y-93374452D01*
X86796000Y-93369885D01*
X87304000Y-93369885D01*
X87308475Y-93385124D01*
X87309865Y-93386329D01*
X87317548Y-93388000D01*
X87396657Y-93388000D01*
X87402805Y-93387699D01*
X87540603Y-93374188D01*
X87552638Y-93371805D01*
X87730076Y-93318233D01*
X87741416Y-93313559D01*
X87905077Y-93226540D01*
X87915294Y-93219751D01*
X88058933Y-93102603D01*
X88067637Y-93093959D01*
X88185784Y-92951144D01*
X88192644Y-92940973D01*
X88280804Y-92777924D01*
X88285556Y-92766619D01*
X88321250Y-92651308D01*
X88321456Y-92637205D01*
X88314701Y-92634000D01*
X87322115Y-92634000D01*
X87306876Y-92638475D01*
X87305671Y-92639865D01*
X87304000Y-92647548D01*
X87304000Y-93369885D01*
X86796000Y-93369885D01*
X86796000Y-92652115D01*
X86791525Y-92636876D01*
X86790135Y-92635671D01*
X86782452Y-92634000D01*
X85792076Y-92634000D01*
X85778545Y-92637973D01*
X85777425Y-92645768D01*
X84391331Y-92645768D01*
X84391456Y-92637205D01*
X84384701Y-92634000D01*
X81362076Y-92634000D01*
X81348545Y-92637973D01*
X81347425Y-92645768D01*
X79922003Y-92645768D01*
X79399030Y-92122795D01*
X81348544Y-92122795D01*
X81355299Y-92126000D01*
X82597885Y-92126000D01*
X82613124Y-92121525D01*
X82614329Y-92120135D01*
X82616000Y-92112452D01*
X82616000Y-92107885D01*
X83124000Y-92107885D01*
X83128475Y-92123124D01*
X83129865Y-92124329D01*
X83137548Y-92126000D01*
X84377924Y-92126000D01*
X84388839Y-92122795D01*
X85778544Y-92122795D01*
X85785299Y-92126000D01*
X86777885Y-92126000D01*
X86793124Y-92121525D01*
X86794329Y-92120135D01*
X86796000Y-92112452D01*
X86796000Y-92107885D01*
X87304000Y-92107885D01*
X87308475Y-92123124D01*
X87309865Y-92124329D01*
X87317548Y-92126000D01*
X88307924Y-92126000D01*
X88321455Y-92122027D01*
X88322575Y-92114232D01*
X88290862Y-92006479D01*
X88286269Y-91995111D01*
X88200393Y-91830846D01*
X88193679Y-91820585D01*
X88077532Y-91676127D01*
X88068954Y-91667368D01*
X87926961Y-91548222D01*
X87916841Y-91541292D01*
X87754415Y-91451998D01*
X87743142Y-91447166D01*
X87566462Y-91391120D01*
X87554468Y-91388570D01*
X87410239Y-91372393D01*
X87403215Y-91372000D01*
X87322115Y-91372000D01*
X87306876Y-91376475D01*
X87305671Y-91377865D01*
X87304000Y-91385548D01*
X87304000Y-92107885D01*
X86796000Y-92107885D01*
X86796000Y-91390115D01*
X86791525Y-91374876D01*
X86790135Y-91373671D01*
X86782452Y-91372000D01*
X86703343Y-91372000D01*
X86697195Y-91372301D01*
X86559397Y-91385812D01*
X86547362Y-91388195D01*
X86369924Y-91441767D01*
X86358584Y-91446441D01*
X86194923Y-91533460D01*
X86184706Y-91540249D01*
X86041067Y-91657397D01*
X86032363Y-91666041D01*
X85914216Y-91808856D01*
X85907356Y-91819027D01*
X85819196Y-91982076D01*
X85814444Y-91993381D01*
X85778750Y-92108692D01*
X85778544Y-92122795D01*
X84388839Y-92122795D01*
X84391455Y-92122027D01*
X84392575Y-92114232D01*
X84360862Y-92006479D01*
X84356269Y-91995111D01*
X84270393Y-91830846D01*
X84263679Y-91820585D01*
X84147532Y-91676127D01*
X84138954Y-91667368D01*
X83996961Y-91548222D01*
X83986841Y-91541292D01*
X83824415Y-91451998D01*
X83813142Y-91447166D01*
X83636462Y-91391120D01*
X83624468Y-91388570D01*
X83480239Y-91372393D01*
X83473215Y-91372000D01*
X83142115Y-91372000D01*
X83126876Y-91376475D01*
X83125671Y-91377865D01*
X83124000Y-91385548D01*
X83124000Y-92107885D01*
X82616000Y-92107885D01*
X82616000Y-91390115D01*
X82611525Y-91374876D01*
X82610135Y-91373671D01*
X82602452Y-91372000D01*
X82273343Y-91372000D01*
X82267195Y-91372301D01*
X82129397Y-91385812D01*
X82117362Y-91388195D01*
X81939924Y-91441767D01*
X81928584Y-91446441D01*
X81764923Y-91533460D01*
X81754706Y-91540249D01*
X81611067Y-91657397D01*
X81602363Y-91666041D01*
X81484216Y-91808856D01*
X81477356Y-91819027D01*
X81389196Y-91982076D01*
X81384444Y-91993381D01*
X81348750Y-92108692D01*
X81348544Y-92122795D01*
X79399030Y-92122795D01*
X77545405Y-90269171D01*
X77511379Y-90206859D01*
X77508500Y-90180076D01*
X77508500Y-87392275D01*
X77528502Y-87324154D01*
X77558935Y-87291449D01*
X77614023Y-87250163D01*
X77663261Y-87213261D01*
X77750615Y-87096705D01*
X77801745Y-86960316D01*
X77808500Y-86898134D01*
X77808500Y-85201866D01*
X77801745Y-85139684D01*
X77750615Y-85003295D01*
X77663261Y-84886739D01*
X77558935Y-84808551D01*
X77516420Y-84751692D01*
X77508500Y-84707725D01*
X77508500Y-81342275D01*
X77528502Y-81274154D01*
X77558935Y-81241449D01*
X77560867Y-81240001D01*
X77663261Y-81163261D01*
X77750615Y-81046705D01*
X77801745Y-80910316D01*
X77808500Y-80848134D01*
X77808500Y-79151866D01*
X77801745Y-79089684D01*
X77750615Y-78953295D01*
X77663261Y-78836739D01*
X77558935Y-78758551D01*
X77516420Y-78701692D01*
X77508500Y-78657725D01*
X77508500Y-73245100D01*
X77528502Y-73176979D01*
X77582158Y-73130486D01*
X77634500Y-73119100D01*
X78158147Y-73119100D01*
X78226268Y-73139102D01*
X78272761Y-73192758D01*
X78277977Y-73206157D01*
X78315473Y-73321556D01*
X78410960Y-73486944D01*
X78415378Y-73491851D01*
X78415379Y-73491852D01*
X78534325Y-73623955D01*
X78538747Y-73628866D01*
X78656412Y-73714355D01*
X78679421Y-73731072D01*
X78694455Y-73743913D01*
X81842528Y-76891986D01*
X84279595Y-79329052D01*
X84313621Y-79391364D01*
X84316500Y-79418147D01*
X84316500Y-81259210D01*
X84310333Y-81298146D01*
X84306458Y-81310072D01*
X84305768Y-81316633D01*
X84305768Y-81316635D01*
X84297570Y-81394639D01*
X84286496Y-81500000D01*
X84306458Y-81689928D01*
X84365473Y-81871556D01*
X84460960Y-82036944D01*
X84465378Y-82041851D01*
X84465379Y-82041852D01*
X84577915Y-82166836D01*
X84588747Y-82178866D01*
X84743248Y-82291118D01*
X84749276Y-82293802D01*
X84749278Y-82293803D01*
X84867517Y-82346446D01*
X84917712Y-82368794D01*
X85011113Y-82388647D01*
X85098056Y-82407128D01*
X85098061Y-82407128D01*
X85104513Y-82408500D01*
X85295487Y-82408500D01*
X85301939Y-82407128D01*
X85301944Y-82407128D01*
X85388887Y-82388647D01*
X85482288Y-82368794D01*
X85532483Y-82346446D01*
X85650722Y-82293803D01*
X85650724Y-82293802D01*
X85656752Y-82291118D01*
X85811253Y-82178866D01*
X85822085Y-82166836D01*
X85934621Y-82041852D01*
X85934622Y-82041851D01*
X85939040Y-82036944D01*
X86034527Y-81871556D01*
X86093542Y-81689928D01*
X86113504Y-81500000D01*
X86102430Y-81394639D01*
X86094232Y-81316635D01*
X86094232Y-81316633D01*
X86093542Y-81310072D01*
X86089667Y-81298146D01*
X86083500Y-81259210D01*
X86083500Y-79079457D01*
X86085051Y-79059745D01*
X86086118Y-79053008D01*
X86087150Y-79046493D01*
X86083673Y-78980150D01*
X86083500Y-78973555D01*
X86083500Y-78953694D01*
X86081423Y-78933931D01*
X86080907Y-78927367D01*
X86077776Y-78867623D01*
X86077775Y-78867619D01*
X86077430Y-78861029D01*
X86073958Y-78848071D01*
X86070355Y-78828628D01*
X86069644Y-78821866D01*
X86068954Y-78815298D01*
X86048422Y-78752106D01*
X86046556Y-78745804D01*
X86031071Y-78688015D01*
X86029362Y-78681637D01*
X86026366Y-78675758D01*
X86026363Y-78675749D01*
X86023272Y-78669683D01*
X86015708Y-78651421D01*
X86013608Y-78644958D01*
X86013606Y-78644953D01*
X86011564Y-78638669D01*
X85978337Y-78581119D01*
X85975214Y-78575366D01*
X85945048Y-78516161D01*
X85936607Y-78505737D01*
X85925412Y-78489449D01*
X85922005Y-78483548D01*
X85922004Y-78483547D01*
X85918704Y-78477831D01*
X85914287Y-78472925D01*
X85914283Y-78472920D01*
X85874253Y-78428462D01*
X85869969Y-78423447D01*
X85859548Y-78410579D01*
X85857472Y-78408015D01*
X85843436Y-78393979D01*
X85838895Y-78389194D01*
X85798856Y-78344726D01*
X85798855Y-78344725D01*
X85794434Y-78339815D01*
X85789094Y-78335935D01*
X85789086Y-78335928D01*
X85783578Y-78331927D01*
X85768543Y-78319086D01*
X83091986Y-75642528D01*
X79937006Y-72487548D01*
X79916982Y-72461453D01*
X79892341Y-72418774D01*
X79889040Y-72413056D01*
X79848147Y-72367639D01*
X79765675Y-72276045D01*
X79765674Y-72276044D01*
X79761253Y-72271134D01*
X79736326Y-72253023D01*
X79692497Y-72221180D01*
X79651576Y-72191449D01*
X79608223Y-72135228D01*
X79600283Y-72076782D01*
X79602785Y-72052149D01*
X79602925Y-72050835D01*
X79604024Y-72041045D01*
X79607621Y-72008976D01*
X79608108Y-72004635D01*
X79608108Y-72004630D01*
X79608500Y-72001138D01*
X79608500Y-71997613D01*
X79608555Y-71996628D01*
X79609004Y-71990924D01*
X79612752Y-71954031D01*
X79612752Y-71954026D01*
X79613374Y-71947903D01*
X79609059Y-71902254D01*
X79608500Y-71890397D01*
X79608500Y-68734500D01*
X79628502Y-68666379D01*
X79682158Y-68619886D01*
X79734500Y-68608500D01*
X88465500Y-68608500D01*
X88533621Y-68628502D01*
X88580114Y-68682158D01*
X88591500Y-68734500D01*
X88591500Y-71491377D01*
X88591498Y-71492147D01*
X88591024Y-71569721D01*
X88593491Y-71578352D01*
X88599150Y-71598153D01*
X88602728Y-71614915D01*
X88606920Y-71644187D01*
X88610634Y-71652355D01*
X88610634Y-71652356D01*
X88617548Y-71667562D01*
X88623996Y-71685086D01*
X88631051Y-71709771D01*
X88635843Y-71717365D01*
X88635844Y-71717368D01*
X88646830Y-71734780D01*
X88654969Y-71749863D01*
X88667208Y-71776782D01*
X88673069Y-71783584D01*
X88683970Y-71796235D01*
X88695073Y-71811239D01*
X88708776Y-71832958D01*
X88715501Y-71838897D01*
X88715504Y-71838901D01*
X88730938Y-71852532D01*
X88742982Y-71864724D01*
X88756427Y-71880327D01*
X88756430Y-71880329D01*
X88762287Y-71887127D01*
X88769816Y-71892007D01*
X88769817Y-71892008D01*
X88783835Y-71901094D01*
X88798709Y-71912385D01*
X88809087Y-71921550D01*
X88817951Y-71929378D01*
X88844349Y-71941772D01*
X88844711Y-71941942D01*
X88859691Y-71950263D01*
X88876983Y-71961471D01*
X88876988Y-71961473D01*
X88884515Y-71966352D01*
X88893108Y-71968922D01*
X88893113Y-71968924D01*
X88909120Y-71973711D01*
X88926564Y-71980372D01*
X88941676Y-71987467D01*
X88941678Y-71987468D01*
X88949800Y-71991281D01*
X88958667Y-71992662D01*
X88958668Y-71992662D01*
X88961353Y-71993080D01*
X88979017Y-71995830D01*
X88995732Y-71999613D01*
X89015466Y-72005515D01*
X89015472Y-72005516D01*
X89024066Y-72008086D01*
X89033037Y-72008141D01*
X89033038Y-72008141D01*
X89043097Y-72008202D01*
X89058506Y-72008296D01*
X89059289Y-72008329D01*
X89060386Y-72008500D01*
X89091377Y-72008500D01*
X89092147Y-72008502D01*
X89165785Y-72008952D01*
X89165786Y-72008952D01*
X89169721Y-72008976D01*
X89171065Y-72008592D01*
X89172410Y-72008500D01*
X89465500Y-72008500D01*
X89533621Y-72028502D01*
X89580114Y-72082158D01*
X89591500Y-72134500D01*
X89591500Y-109365500D01*
X89571498Y-109433621D01*
X89517842Y-109480114D01*
X89465500Y-109491500D01*
X72962376Y-109491500D01*
X72894255Y-109471498D01*
X72847762Y-109417842D01*
X72837658Y-109347568D01*
X72868144Y-109282661D01*
X72864124Y-109273334D01*
X72012812Y-108422022D01*
X71998868Y-108414408D01*
X71997035Y-108414539D01*
X71990420Y-108418790D01*
X71138920Y-109270290D01*
X71132160Y-109282670D01*
X71137641Y-109289992D01*
X71162451Y-109356512D01*
X71147359Y-109425886D01*
X71097157Y-109476088D01*
X71036772Y-109491500D01*
X68476501Y-109491500D01*
X68408380Y-109471498D01*
X68361887Y-109417842D01*
X68351783Y-109347568D01*
X68381277Y-109282988D01*
X68394670Y-109269689D01*
X68566213Y-109123177D01*
X68569969Y-109119969D01*
X68724176Y-108939416D01*
X68726755Y-108935208D01*
X68726759Y-108935202D01*
X68845654Y-108741183D01*
X68848240Y-108736963D01*
X68850229Y-108732163D01*
X68937211Y-108522167D01*
X68937212Y-108522165D01*
X68939105Y-108517594D01*
X68994535Y-108286711D01*
X69012777Y-108054930D01*
X70487725Y-108054930D01*
X70505572Y-108281699D01*
X70507115Y-108291446D01*
X70560217Y-108512627D01*
X70563266Y-108522012D01*
X70650313Y-108732163D01*
X70654795Y-108740958D01*
X70757432Y-108908445D01*
X70767890Y-108917907D01*
X70776666Y-108914124D01*
X71627978Y-108062812D01*
X71634356Y-108051132D01*
X72364408Y-108051132D01*
X72364539Y-108052965D01*
X72368790Y-108059580D01*
X73220290Y-108911080D01*
X73232670Y-108917840D01*
X73240320Y-108912113D01*
X73345205Y-108740958D01*
X73349687Y-108732163D01*
X73436734Y-108522012D01*
X73439783Y-108512627D01*
X73492885Y-108291446D01*
X73494428Y-108281699D01*
X73512275Y-108054930D01*
X73512275Y-108045070D01*
X73494428Y-107818301D01*
X73492885Y-107808554D01*
X73439783Y-107587373D01*
X73436734Y-107577988D01*
X73349687Y-107367837D01*
X73345205Y-107359042D01*
X73242568Y-107191555D01*
X73232110Y-107182093D01*
X73223334Y-107185876D01*
X72372022Y-108037188D01*
X72364408Y-108051132D01*
X71634356Y-108051132D01*
X71635592Y-108048868D01*
X71635461Y-108047035D01*
X71631210Y-108040420D01*
X70779710Y-107188920D01*
X70767330Y-107182160D01*
X70759680Y-107187887D01*
X70654795Y-107359042D01*
X70650313Y-107367837D01*
X70563266Y-107577988D01*
X70560217Y-107587373D01*
X70507115Y-107808554D01*
X70505572Y-107818301D01*
X70487725Y-108045070D01*
X70487725Y-108054930D01*
X69012777Y-108054930D01*
X69013165Y-108050000D01*
X68994535Y-107813289D01*
X68991072Y-107798862D01*
X68945436Y-107608776D01*
X68939105Y-107582406D01*
X68927507Y-107554406D01*
X68850135Y-107367611D01*
X68850133Y-107367607D01*
X68848240Y-107363037D01*
X68845654Y-107358817D01*
X68726759Y-107164798D01*
X68726755Y-107164792D01*
X68724176Y-107160584D01*
X68569969Y-106980031D01*
X68389416Y-106825824D01*
X68385208Y-106823245D01*
X68385202Y-106823241D01*
X68376470Y-106817890D01*
X71132093Y-106817890D01*
X71135876Y-106826666D01*
X71987188Y-107677978D01*
X72001132Y-107685592D01*
X72002965Y-107685461D01*
X72009580Y-107681210D01*
X72861080Y-106829710D01*
X72867840Y-106817330D01*
X72862113Y-106809680D01*
X72690958Y-106704795D01*
X72682163Y-106700313D01*
X72472012Y-106613266D01*
X72462627Y-106610217D01*
X72241446Y-106557115D01*
X72231699Y-106555572D01*
X72004930Y-106537725D01*
X71995070Y-106537725D01*
X71768301Y-106555572D01*
X71758554Y-106557115D01*
X71537373Y-106610217D01*
X71527988Y-106613266D01*
X71317837Y-106700313D01*
X71309042Y-106704795D01*
X71141555Y-106807432D01*
X71132093Y-106817890D01*
X68376470Y-106817890D01*
X68191183Y-106704346D01*
X68186963Y-106701760D01*
X68182393Y-106699867D01*
X68182389Y-106699865D01*
X67972167Y-106612789D01*
X67972165Y-106612788D01*
X67967594Y-106610895D01*
X67887391Y-106591640D01*
X67741524Y-106556620D01*
X67741518Y-106556619D01*
X67736711Y-106555465D01*
X67500000Y-106536835D01*
X67263289Y-106555465D01*
X67258482Y-106556619D01*
X67258476Y-106556620D01*
X67112609Y-106591640D01*
X67032406Y-106610895D01*
X67027835Y-106612788D01*
X67027833Y-106612789D01*
X66817611Y-106699865D01*
X66817607Y-106699867D01*
X66813037Y-106701760D01*
X66808817Y-106704346D01*
X66614798Y-106823241D01*
X66614792Y-106823245D01*
X66610584Y-106825824D01*
X66430031Y-106980031D01*
X66275824Y-107160584D01*
X66273245Y-107164792D01*
X66273241Y-107164798D01*
X66154346Y-107358817D01*
X66151760Y-107363037D01*
X66149867Y-107367607D01*
X66149865Y-107367611D01*
X66072493Y-107554406D01*
X66060895Y-107582406D01*
X66054564Y-107608776D01*
X66008929Y-107798862D01*
X66005465Y-107813289D01*
X65986835Y-108050000D01*
X66005465Y-108286711D01*
X66060895Y-108517594D01*
X66062788Y-108522165D01*
X66062789Y-108522167D01*
X66149772Y-108732163D01*
X66151760Y-108736963D01*
X66154346Y-108741183D01*
X66273241Y-108935202D01*
X66273245Y-108935208D01*
X66275824Y-108939416D01*
X66430031Y-109119969D01*
X66433787Y-109123177D01*
X66605330Y-109269689D01*
X66644139Y-109329140D01*
X66644645Y-109400134D01*
X66606689Y-109460133D01*
X66542320Y-109490086D01*
X66523499Y-109491500D01*
X65126501Y-109491500D01*
X65058380Y-109471498D01*
X65011887Y-109417842D01*
X65001783Y-109347568D01*
X65031277Y-109282988D01*
X65044670Y-109269689D01*
X65216213Y-109123177D01*
X65219969Y-109119969D01*
X65374176Y-108939416D01*
X65376755Y-108935208D01*
X65376759Y-108935202D01*
X65495654Y-108741183D01*
X65498240Y-108736963D01*
X65500229Y-108732163D01*
X65587211Y-108522167D01*
X65587212Y-108522165D01*
X65589105Y-108517594D01*
X65644535Y-108286711D01*
X65663165Y-108050000D01*
X65644535Y-107813289D01*
X65641072Y-107798862D01*
X65595436Y-107608776D01*
X65589105Y-107582406D01*
X65577507Y-107554406D01*
X65500135Y-107367611D01*
X65500133Y-107367607D01*
X65498240Y-107363037D01*
X65495654Y-107358817D01*
X65376759Y-107164798D01*
X65376755Y-107164792D01*
X65374176Y-107160584D01*
X65219969Y-106980031D01*
X65039416Y-106825824D01*
X65035208Y-106823245D01*
X65035202Y-106823241D01*
X64841183Y-106704346D01*
X64836963Y-106701760D01*
X64832393Y-106699867D01*
X64832389Y-106699865D01*
X64622167Y-106612789D01*
X64622165Y-106612788D01*
X64617594Y-106610895D01*
X64537391Y-106591640D01*
X64391524Y-106556620D01*
X64391518Y-106556619D01*
X64386711Y-106555465D01*
X64150000Y-106536835D01*
X63913289Y-106555465D01*
X63908482Y-106556619D01*
X63908476Y-106556620D01*
X63762609Y-106591640D01*
X63682406Y-106610895D01*
X63677835Y-106612788D01*
X63677833Y-106612789D01*
X63467611Y-106699865D01*
X63467607Y-106699867D01*
X63463037Y-106701760D01*
X63458817Y-106704346D01*
X63264798Y-106823241D01*
X63264792Y-106823245D01*
X63260584Y-106825824D01*
X63080031Y-106980031D01*
X62925824Y-107160584D01*
X62923245Y-107164792D01*
X62923241Y-107164798D01*
X62804346Y-107358817D01*
X62801760Y-107363037D01*
X62799867Y-107367607D01*
X62799865Y-107367611D01*
X62722493Y-107554406D01*
X62710895Y-107582406D01*
X62704564Y-107608776D01*
X62658929Y-107798862D01*
X62655465Y-107813289D01*
X62636835Y-108050000D01*
X62655465Y-108286711D01*
X62710895Y-108517594D01*
X62712788Y-108522165D01*
X62712789Y-108522167D01*
X62799772Y-108732163D01*
X62801760Y-108736963D01*
X62804346Y-108741183D01*
X62923241Y-108935202D01*
X62923245Y-108935208D01*
X62925824Y-108939416D01*
X63080031Y-109119969D01*
X63083787Y-109123177D01*
X63255330Y-109269689D01*
X63294139Y-109329140D01*
X63294645Y-109400134D01*
X63256689Y-109460133D01*
X63192320Y-109490086D01*
X63173499Y-109491500D01*
X60612376Y-109491500D01*
X60544255Y-109471498D01*
X60497762Y-109417842D01*
X60487658Y-109347568D01*
X60518144Y-109282661D01*
X60514124Y-109273334D01*
X59662812Y-108422022D01*
X59648868Y-108414408D01*
X59647035Y-108414539D01*
X59640420Y-108418790D01*
X58788920Y-109270290D01*
X58782160Y-109282670D01*
X58787641Y-109289992D01*
X58812451Y-109356512D01*
X58797359Y-109425886D01*
X58747157Y-109476088D01*
X58686772Y-109491500D01*
X57734500Y-109491500D01*
X57666379Y-109471498D01*
X57619886Y-109417842D01*
X57608500Y-109365500D01*
X57608500Y-108054930D01*
X58137725Y-108054930D01*
X58155572Y-108281699D01*
X58157115Y-108291446D01*
X58210217Y-108512627D01*
X58213266Y-108522012D01*
X58300313Y-108732163D01*
X58304795Y-108740958D01*
X58407432Y-108908445D01*
X58417890Y-108917907D01*
X58426666Y-108914124D01*
X59277978Y-108062812D01*
X59284356Y-108051132D01*
X60014408Y-108051132D01*
X60014539Y-108052965D01*
X60018790Y-108059580D01*
X60870290Y-108911080D01*
X60882670Y-108917840D01*
X60890320Y-108912113D01*
X60995205Y-108740958D01*
X60999687Y-108732163D01*
X61086734Y-108522012D01*
X61089783Y-108512627D01*
X61142885Y-108291446D01*
X61144428Y-108281699D01*
X61162275Y-108054930D01*
X61162275Y-108045070D01*
X61144428Y-107818301D01*
X61142885Y-107808554D01*
X61089783Y-107587373D01*
X61086734Y-107577988D01*
X60999687Y-107367837D01*
X60995205Y-107359042D01*
X60892568Y-107191555D01*
X60882110Y-107182093D01*
X60873334Y-107185876D01*
X60022022Y-108037188D01*
X60014408Y-108051132D01*
X59284356Y-108051132D01*
X59285592Y-108048868D01*
X59285461Y-108047035D01*
X59281210Y-108040420D01*
X58429710Y-107188920D01*
X58417330Y-107182160D01*
X58409680Y-107187887D01*
X58304795Y-107359042D01*
X58300313Y-107367837D01*
X58213266Y-107577988D01*
X58210217Y-107587373D01*
X58157115Y-107808554D01*
X58155572Y-107818301D01*
X58137725Y-108045070D01*
X58137725Y-108054930D01*
X57608500Y-108054930D01*
X57608500Y-108008623D01*
X57608502Y-108007853D01*
X57608800Y-107959102D01*
X57608976Y-107930279D01*
X57600850Y-107901847D01*
X57597272Y-107885085D01*
X57594352Y-107864698D01*
X57593080Y-107855813D01*
X57582451Y-107832436D01*
X57576004Y-107814913D01*
X57574348Y-107809120D01*
X57568949Y-107790229D01*
X57564156Y-107782632D01*
X57553170Y-107765220D01*
X57545030Y-107750135D01*
X57542564Y-107744711D01*
X57532792Y-107723218D01*
X57516030Y-107703765D01*
X57504927Y-107688761D01*
X57491224Y-107667042D01*
X57484499Y-107661103D01*
X57484496Y-107661099D01*
X57469062Y-107647468D01*
X57457018Y-107635276D01*
X57443573Y-107619673D01*
X57443570Y-107619671D01*
X57437713Y-107612873D01*
X57424009Y-107603990D01*
X57416165Y-107598906D01*
X57401291Y-107587615D01*
X57388783Y-107576569D01*
X57388782Y-107576568D01*
X57382049Y-107570622D01*
X57355287Y-107558057D01*
X57340309Y-107549737D01*
X57323017Y-107538529D01*
X57323012Y-107538527D01*
X57315485Y-107533648D01*
X57306892Y-107531078D01*
X57306887Y-107531076D01*
X57290880Y-107526289D01*
X57273436Y-107519628D01*
X57258324Y-107512533D01*
X57258322Y-107512532D01*
X57250200Y-107508719D01*
X57241333Y-107507338D01*
X57241332Y-107507338D01*
X57230478Y-107505648D01*
X57220983Y-107504170D01*
X57204268Y-107500387D01*
X57184534Y-107494485D01*
X57184528Y-107494484D01*
X57175934Y-107491914D01*
X57166963Y-107491859D01*
X57166962Y-107491859D01*
X57156903Y-107491798D01*
X57141494Y-107491704D01*
X57140711Y-107491671D01*
X57139614Y-107491500D01*
X57108623Y-107491500D01*
X57107853Y-107491498D01*
X57034215Y-107491048D01*
X57034214Y-107491048D01*
X57030279Y-107491024D01*
X57028935Y-107491408D01*
X57027590Y-107491500D01*
X55708623Y-107491500D01*
X55707853Y-107491498D01*
X55707037Y-107491493D01*
X55630279Y-107491024D01*
X55607918Y-107497415D01*
X55601847Y-107499150D01*
X55585085Y-107502728D01*
X55555813Y-107506920D01*
X55547645Y-107510634D01*
X55547644Y-107510634D01*
X55532438Y-107517548D01*
X55514914Y-107523996D01*
X55490229Y-107531051D01*
X55482635Y-107535843D01*
X55482632Y-107535844D01*
X55465220Y-107546830D01*
X55450137Y-107554969D01*
X55423218Y-107567208D01*
X55416416Y-107573069D01*
X55403765Y-107583970D01*
X55388761Y-107595073D01*
X55367042Y-107608776D01*
X55361103Y-107615501D01*
X55361099Y-107615504D01*
X55347468Y-107630938D01*
X55335276Y-107642982D01*
X55319673Y-107656427D01*
X55319671Y-107656430D01*
X55312873Y-107662287D01*
X55307993Y-107669816D01*
X55307992Y-107669817D01*
X55298906Y-107683835D01*
X55287615Y-107698709D01*
X55276569Y-107711217D01*
X55270622Y-107717951D01*
X55264312Y-107731391D01*
X55258058Y-107744711D01*
X55249737Y-107759691D01*
X55238529Y-107776983D01*
X55238527Y-107776988D01*
X55233648Y-107784515D01*
X55231078Y-107793108D01*
X55231076Y-107793113D01*
X55226289Y-107809120D01*
X55219628Y-107826564D01*
X55212533Y-107841676D01*
X55208719Y-107849800D01*
X55207338Y-107858667D01*
X55207338Y-107858668D01*
X55204170Y-107879015D01*
X55200387Y-107895732D01*
X55194485Y-107915466D01*
X55194484Y-107915472D01*
X55191914Y-107924066D01*
X55191859Y-107933037D01*
X55191859Y-107933038D01*
X55191704Y-107958497D01*
X55191671Y-107959289D01*
X55191500Y-107960386D01*
X55191500Y-107991377D01*
X55191498Y-107992147D01*
X55191145Y-108050000D01*
X55191024Y-108069721D01*
X55191408Y-108071065D01*
X55191500Y-108072410D01*
X55191500Y-109365500D01*
X55171498Y-109433621D01*
X55117842Y-109480114D01*
X55065500Y-109491500D01*
X50334500Y-109491500D01*
X50266379Y-109471498D01*
X50219886Y-109417842D01*
X50208500Y-109365500D01*
X50208500Y-108008623D01*
X50208502Y-108007853D01*
X50208800Y-107959102D01*
X50208976Y-107930279D01*
X50200850Y-107901847D01*
X50197272Y-107885085D01*
X50194352Y-107864698D01*
X50193080Y-107855813D01*
X50182451Y-107832436D01*
X50176004Y-107814913D01*
X50174348Y-107809120D01*
X50168949Y-107790229D01*
X50164156Y-107782632D01*
X50153170Y-107765220D01*
X50145030Y-107750135D01*
X50142564Y-107744711D01*
X50132792Y-107723218D01*
X50116030Y-107703765D01*
X50104927Y-107688761D01*
X50091224Y-107667042D01*
X50084499Y-107661103D01*
X50084496Y-107661099D01*
X50069062Y-107647468D01*
X50057018Y-107635276D01*
X50043573Y-107619673D01*
X50043570Y-107619671D01*
X50037713Y-107612873D01*
X50024009Y-107603990D01*
X50016165Y-107598906D01*
X50001291Y-107587615D01*
X49988783Y-107576569D01*
X49988782Y-107576568D01*
X49982049Y-107570622D01*
X49955287Y-107558057D01*
X49940309Y-107549737D01*
X49923017Y-107538529D01*
X49923012Y-107538527D01*
X49915485Y-107533648D01*
X49906892Y-107531078D01*
X49906887Y-107531076D01*
X49890880Y-107526289D01*
X49873436Y-107519628D01*
X49858324Y-107512533D01*
X49858322Y-107512532D01*
X49850200Y-107508719D01*
X49841333Y-107507338D01*
X49841332Y-107507338D01*
X49830478Y-107505648D01*
X49820983Y-107504170D01*
X49804268Y-107500387D01*
X49784534Y-107494485D01*
X49784528Y-107494484D01*
X49775934Y-107491914D01*
X49766963Y-107491859D01*
X49766962Y-107491859D01*
X49756903Y-107491798D01*
X49741494Y-107491704D01*
X49740711Y-107491671D01*
X49739614Y-107491500D01*
X49708623Y-107491500D01*
X49707853Y-107491498D01*
X49634215Y-107491048D01*
X49634214Y-107491048D01*
X49630279Y-107491024D01*
X49628935Y-107491408D01*
X49627590Y-107491500D01*
X48408623Y-107491500D01*
X48407853Y-107491498D01*
X48407037Y-107491493D01*
X48330279Y-107491024D01*
X48307918Y-107497415D01*
X48301847Y-107499150D01*
X48285085Y-107502728D01*
X48255813Y-107506920D01*
X48247645Y-107510634D01*
X48247644Y-107510634D01*
X48232438Y-107517548D01*
X48214914Y-107523996D01*
X48190229Y-107531051D01*
X48182635Y-107535843D01*
X48182632Y-107535844D01*
X48165220Y-107546830D01*
X48150137Y-107554969D01*
X48123218Y-107567208D01*
X48116416Y-107573069D01*
X48103765Y-107583970D01*
X48088761Y-107595073D01*
X48067042Y-107608776D01*
X48061103Y-107615501D01*
X48061099Y-107615504D01*
X48047468Y-107630938D01*
X48035276Y-107642982D01*
X48019673Y-107656427D01*
X48019671Y-107656430D01*
X48012873Y-107662287D01*
X48007993Y-107669816D01*
X48007992Y-107669817D01*
X47998906Y-107683835D01*
X47987615Y-107698709D01*
X47976569Y-107711217D01*
X47970622Y-107717951D01*
X47964312Y-107731391D01*
X47958058Y-107744711D01*
X47949737Y-107759691D01*
X47938529Y-107776983D01*
X47938527Y-107776988D01*
X47933648Y-107784515D01*
X47931078Y-107793108D01*
X47931076Y-107793113D01*
X47926289Y-107809120D01*
X47919628Y-107826564D01*
X47912533Y-107841676D01*
X47908719Y-107849800D01*
X47907338Y-107858667D01*
X47907338Y-107858668D01*
X47904170Y-107879015D01*
X47900387Y-107895732D01*
X47894485Y-107915466D01*
X47894484Y-107915472D01*
X47891914Y-107924066D01*
X47891859Y-107933037D01*
X47891859Y-107933038D01*
X47891704Y-107958497D01*
X47891671Y-107959289D01*
X47891500Y-107960386D01*
X47891500Y-107991377D01*
X47891498Y-107992147D01*
X47891145Y-108050000D01*
X47891024Y-108069721D01*
X47891408Y-108071065D01*
X47891500Y-108072410D01*
X47891500Y-109365500D01*
X47871498Y-109433621D01*
X47817842Y-109480114D01*
X47765500Y-109491500D01*
X44434500Y-109491500D01*
X44366379Y-109471498D01*
X44319886Y-109417842D01*
X44308500Y-109365500D01*
X44308500Y-106817890D01*
X58782093Y-106817890D01*
X58785876Y-106826666D01*
X59637188Y-107677978D01*
X59651132Y-107685592D01*
X59652965Y-107685461D01*
X59659580Y-107681210D01*
X60511080Y-106829710D01*
X60517840Y-106817330D01*
X60512113Y-106809680D01*
X60340958Y-106704795D01*
X60332163Y-106700313D01*
X60122012Y-106613266D01*
X60112627Y-106610217D01*
X59891446Y-106557115D01*
X59881699Y-106555572D01*
X59654930Y-106537725D01*
X59645070Y-106537725D01*
X59418301Y-106555572D01*
X59408554Y-106557115D01*
X59187373Y-106610217D01*
X59177988Y-106613266D01*
X58967837Y-106700313D01*
X58959042Y-106704795D01*
X58791555Y-106807432D01*
X58782093Y-106817890D01*
X44308500Y-106817890D01*
X44308500Y-102782670D01*
X58782160Y-102782670D01*
X58787887Y-102790320D01*
X58959042Y-102895205D01*
X58967837Y-102899687D01*
X59177988Y-102986734D01*
X59187373Y-102989783D01*
X59408554Y-103042885D01*
X59418301Y-103044428D01*
X59645070Y-103062275D01*
X59654930Y-103062275D01*
X59881699Y-103044428D01*
X59891446Y-103042885D01*
X60112627Y-102989783D01*
X60122012Y-102986734D01*
X60332163Y-102899687D01*
X60340958Y-102895205D01*
X60508445Y-102792568D01*
X60517907Y-102782110D01*
X60514124Y-102773334D01*
X59662812Y-101922022D01*
X59648868Y-101914408D01*
X59647035Y-101914539D01*
X59640420Y-101918790D01*
X58788920Y-102770290D01*
X58782160Y-102782670D01*
X44308500Y-102782670D01*
X44308500Y-101554930D01*
X58137725Y-101554930D01*
X58155572Y-101781699D01*
X58157115Y-101791446D01*
X58210217Y-102012627D01*
X58213266Y-102022012D01*
X58300313Y-102232163D01*
X58304795Y-102240958D01*
X58407432Y-102408445D01*
X58417890Y-102417907D01*
X58426666Y-102414124D01*
X59277978Y-101562812D01*
X59284356Y-101551132D01*
X60014408Y-101551132D01*
X60014539Y-101552965D01*
X60018790Y-101559580D01*
X60870290Y-102411080D01*
X60882670Y-102417840D01*
X60890320Y-102412113D01*
X60995205Y-102240958D01*
X60999687Y-102232163D01*
X61086734Y-102022012D01*
X61089783Y-102012627D01*
X61142885Y-101791446D01*
X61144428Y-101781699D01*
X61162275Y-101554930D01*
X61162275Y-101545070D01*
X61144428Y-101318301D01*
X61142885Y-101308554D01*
X61089783Y-101087373D01*
X61086734Y-101077988D01*
X60999687Y-100867837D01*
X60995205Y-100859042D01*
X60892568Y-100691555D01*
X60882110Y-100682093D01*
X60873334Y-100685876D01*
X60022022Y-101537188D01*
X60014408Y-101551132D01*
X59284356Y-101551132D01*
X59285592Y-101548868D01*
X59285461Y-101547035D01*
X59281210Y-101540420D01*
X58429710Y-100688920D01*
X58417330Y-100682160D01*
X58409680Y-100687887D01*
X58304795Y-100859042D01*
X58300313Y-100867837D01*
X58213266Y-101077988D01*
X58210217Y-101087373D01*
X58157115Y-101308554D01*
X58155572Y-101318301D01*
X58137725Y-101545070D01*
X58137725Y-101554930D01*
X44308500Y-101554930D01*
X44308500Y-100317890D01*
X58782093Y-100317890D01*
X58785876Y-100326666D01*
X59637188Y-101177978D01*
X59651132Y-101185592D01*
X59652965Y-101185461D01*
X59659580Y-101181210D01*
X60511080Y-100329710D01*
X60517840Y-100317330D01*
X60512113Y-100309680D01*
X60340958Y-100204795D01*
X60332163Y-100200313D01*
X60122012Y-100113266D01*
X60112627Y-100110217D01*
X59891446Y-100057115D01*
X59881699Y-100055572D01*
X59654930Y-100037725D01*
X59645070Y-100037725D01*
X59418301Y-100055572D01*
X59408554Y-100057115D01*
X59187373Y-100110217D01*
X59177988Y-100113266D01*
X58967837Y-100200313D01*
X58959042Y-100204795D01*
X58791555Y-100307432D01*
X58782093Y-100317890D01*
X44308500Y-100317890D01*
X44308500Y-96716614D01*
X44328502Y-96648493D01*
X44382158Y-96602000D01*
X44432634Y-96590628D01*
X47420022Y-96546370D01*
X50550000Y-96500000D01*
X50550000Y-78150000D01*
X50536696Y-78149901D01*
X50536694Y-78149901D01*
X44433567Y-78104693D01*
X44365596Y-78084186D01*
X44319502Y-78030188D01*
X44308500Y-77978696D01*
X44308500Y-75394669D01*
X46442001Y-75394669D01*
X46442371Y-75401490D01*
X46447895Y-75452352D01*
X46451521Y-75467604D01*
X46496676Y-75588054D01*
X46505214Y-75603649D01*
X46581715Y-75705724D01*
X46594276Y-75718285D01*
X46696351Y-75794786D01*
X46711946Y-75803324D01*
X46832394Y-75848478D01*
X46847649Y-75852105D01*
X46898514Y-75857631D01*
X46905328Y-75858000D01*
X47527885Y-75858000D01*
X47543124Y-75853525D01*
X47544329Y-75852135D01*
X47546000Y-75844452D01*
X47546000Y-75839884D01*
X48054000Y-75839884D01*
X48058475Y-75855123D01*
X48059865Y-75856328D01*
X48067548Y-75857999D01*
X48694669Y-75857999D01*
X48701490Y-75857629D01*
X48752352Y-75852105D01*
X48767604Y-75848479D01*
X48888054Y-75803324D01*
X48903649Y-75794786D01*
X49005724Y-75718285D01*
X49018285Y-75705724D01*
X49094786Y-75603649D01*
X49103324Y-75588054D01*
X49148478Y-75467606D01*
X49152105Y-75452351D01*
X49157631Y-75401486D01*
X49158000Y-75394672D01*
X49158000Y-74772115D01*
X49153525Y-74756876D01*
X49152135Y-74755671D01*
X49144452Y-74754000D01*
X48072115Y-74754000D01*
X48056876Y-74758475D01*
X48055671Y-74759865D01*
X48054000Y-74767548D01*
X48054000Y-75839884D01*
X47546000Y-75839884D01*
X47546000Y-74772115D01*
X47541525Y-74756876D01*
X47540135Y-74755671D01*
X47532452Y-74754000D01*
X46460116Y-74754000D01*
X46444877Y-74758475D01*
X46443672Y-74759865D01*
X46442001Y-74767548D01*
X46442001Y-75394669D01*
X44308500Y-75394669D01*
X44308500Y-67634500D01*
X44328502Y-67566379D01*
X44382158Y-67519886D01*
X44434500Y-67508500D01*
X46849704Y-67508500D01*
X46917825Y-67528502D01*
G37*
%TD.AperFunction*%
%TA.AperFunction,Conductor*%
G36*
X64192026Y-73475144D02*
G01*
X64219875Y-73506994D01*
X64279987Y-73605088D01*
X64426250Y-73773938D01*
X64598126Y-73916632D01*
X64608177Y-73922506D01*
X64656902Y-73974140D01*
X64669977Y-74043922D01*
X64643248Y-74109696D01*
X64633706Y-74120390D01*
X63395247Y-75358848D01*
X63386961Y-75366388D01*
X63380482Y-75370500D01*
X63375057Y-75376277D01*
X63333857Y-75420151D01*
X63331102Y-75422993D01*
X63311365Y-75442730D01*
X63308885Y-75445927D01*
X63301182Y-75454947D01*
X63270914Y-75487179D01*
X63267095Y-75494125D01*
X63267093Y-75494128D01*
X63261152Y-75504934D01*
X63250301Y-75521453D01*
X63237886Y-75537459D01*
X63234741Y-75544728D01*
X63234738Y-75544732D01*
X63220326Y-75578037D01*
X63215109Y-75588687D01*
X63193805Y-75627440D01*
X63191834Y-75635115D01*
X63191834Y-75635116D01*
X63188767Y-75647062D01*
X63182363Y-75665766D01*
X63174319Y-75684355D01*
X63173080Y-75692178D01*
X63173077Y-75692188D01*
X63167401Y-75728024D01*
X63164995Y-75739644D01*
X63154000Y-75782470D01*
X63154000Y-75802724D01*
X63152449Y-75822434D01*
X63149280Y-75842443D01*
X63150026Y-75850335D01*
X63153441Y-75886461D01*
X63154000Y-75898319D01*
X63154000Y-77823141D01*
X63133998Y-77891262D01*
X63080342Y-77937755D01*
X63010068Y-77947859D01*
X62990749Y-77943508D01*
X62876371Y-77908102D01*
X62870246Y-77907458D01*
X62870245Y-77907458D01*
X62676054Y-77887048D01*
X62676052Y-77887048D01*
X62669925Y-77886404D01*
X62584015Y-77894223D01*
X62469336Y-77904659D01*
X62469333Y-77904660D01*
X62463197Y-77905218D01*
X62457291Y-77906956D01*
X62457287Y-77906957D01*
X62332575Y-77943662D01*
X62261578Y-77943707D01*
X62201828Y-77905361D01*
X62172294Y-77840799D01*
X62171000Y-77822788D01*
X62171000Y-74207094D01*
X62191002Y-74138973D01*
X62207905Y-74117999D01*
X62226225Y-74099679D01*
X62288537Y-74065653D01*
X62360269Y-74071064D01*
X62459692Y-74109030D01*
X62464760Y-74110061D01*
X62464763Y-74110062D01*
X62559862Y-74129410D01*
X62678597Y-74153567D01*
X62683772Y-74153757D01*
X62683774Y-74153757D01*
X62896673Y-74161564D01*
X62896677Y-74161564D01*
X62901837Y-74161753D01*
X62906957Y-74161097D01*
X62906959Y-74161097D01*
X63118288Y-74134025D01*
X63118289Y-74134025D01*
X63123416Y-74133368D01*
X63166674Y-74120390D01*
X63332429Y-74070661D01*
X63332434Y-74070659D01*
X63337384Y-74069174D01*
X63537994Y-73970896D01*
X63719860Y-73841173D01*
X63736014Y-73825076D01*
X63849918Y-73711569D01*
X63878096Y-73683489D01*
X63917347Y-73628866D01*
X64008453Y-73502077D01*
X64009776Y-73503028D01*
X64056645Y-73459857D01*
X64126580Y-73447625D01*
X64192026Y-73475144D01*
G37*
%TD.AperFunction*%
%TA.AperFunction,Conductor*%
G36*
X54161928Y-71028502D02*
G01*
X54208421Y-71082158D01*
X54218525Y-71152432D01*
X54210960Y-71180880D01*
X54210122Y-71182997D01*
X54206305Y-71189940D01*
X54204334Y-71197615D01*
X54204334Y-71197616D01*
X54201267Y-71209562D01*
X54194863Y-71228266D01*
X54186819Y-71246855D01*
X54185580Y-71254678D01*
X54185577Y-71254688D01*
X54179901Y-71290524D01*
X54177495Y-71302144D01*
X54168472Y-71337289D01*
X54166500Y-71344970D01*
X54166500Y-71365224D01*
X54164949Y-71384934D01*
X54161780Y-71404943D01*
X54165362Y-71442831D01*
X54165941Y-71448961D01*
X54166500Y-71460819D01*
X54166500Y-76771233D01*
X54165973Y-76782416D01*
X54164298Y-76789909D01*
X54164547Y-76797835D01*
X54164547Y-76797836D01*
X54166438Y-76857986D01*
X54166500Y-76861945D01*
X54166500Y-76889856D01*
X54166997Y-76893790D01*
X54166997Y-76893791D01*
X54167005Y-76893856D01*
X54167938Y-76905693D01*
X54169327Y-76949889D01*
X54174978Y-76969339D01*
X54178987Y-76988700D01*
X54181526Y-77008797D01*
X54184445Y-77016168D01*
X54184445Y-77016170D01*
X54197804Y-77049912D01*
X54201649Y-77061142D01*
X54202051Y-77062526D01*
X54213982Y-77103593D01*
X54218015Y-77110412D01*
X54218017Y-77110417D01*
X54224293Y-77121028D01*
X54232988Y-77138776D01*
X54240448Y-77157617D01*
X54245110Y-77164033D01*
X54245110Y-77164034D01*
X54266436Y-77193387D01*
X54272952Y-77203307D01*
X54283677Y-77221441D01*
X54295458Y-77241362D01*
X54309779Y-77255683D01*
X54322619Y-77270716D01*
X54334528Y-77287107D01*
X54368605Y-77315298D01*
X54377384Y-77323288D01*
X54727732Y-77673636D01*
X54761758Y-77735948D01*
X54756693Y-77806763D01*
X54714146Y-77863599D01*
X54650057Y-77888212D01*
X54469338Y-77904659D01*
X54469337Y-77904659D01*
X54463197Y-77905218D01*
X54448376Y-77909580D01*
X54377382Y-77909626D01*
X54323706Y-77877802D01*
X53782904Y-77336999D01*
X53748879Y-77274687D01*
X53746000Y-77247904D01*
X53746000Y-74174871D01*
X53746527Y-74163688D01*
X53748202Y-74156195D01*
X53747423Y-74131391D01*
X53746062Y-74088105D01*
X53746000Y-74084147D01*
X53746000Y-74056248D01*
X53745496Y-74052257D01*
X53744563Y-74040415D01*
X53743423Y-74004140D01*
X53743174Y-73996215D01*
X53740962Y-73988601D01*
X53740961Y-73988596D01*
X53737523Y-73976763D01*
X53733512Y-73957399D01*
X53731967Y-73945168D01*
X53730974Y-73937307D01*
X53728057Y-73929940D01*
X53728056Y-73929935D01*
X53714698Y-73896196D01*
X53710854Y-73884969D01*
X53708732Y-73877665D01*
X53698518Y-73842511D01*
X53688207Y-73825076D01*
X53679512Y-73807328D01*
X53672052Y-73788487D01*
X53656961Y-73767715D01*
X53646064Y-73752717D01*
X53639548Y-73742797D01*
X53621080Y-73711569D01*
X53621078Y-73711566D01*
X53617042Y-73704742D01*
X53602721Y-73690421D01*
X53589880Y-73675387D01*
X53577972Y-73658997D01*
X53543895Y-73630806D01*
X53535116Y-73622816D01*
X52135896Y-72223595D01*
X52101870Y-72161283D01*
X52106935Y-72090467D01*
X52149482Y-72033632D01*
X52216002Y-72008821D01*
X52224991Y-72008500D01*
X52991377Y-72008500D01*
X52992148Y-72008502D01*
X53069721Y-72008976D01*
X53098152Y-72000850D01*
X53114915Y-71997272D01*
X53115753Y-71997152D01*
X53144187Y-71993080D01*
X53167564Y-71982451D01*
X53185087Y-71976004D01*
X53209771Y-71968949D01*
X53217365Y-71964157D01*
X53217368Y-71964156D01*
X53234780Y-71953170D01*
X53249865Y-71945030D01*
X53276782Y-71932792D01*
X53296235Y-71916030D01*
X53311239Y-71904927D01*
X53332958Y-71891224D01*
X53338897Y-71884499D01*
X53338901Y-71884496D01*
X53352532Y-71869062D01*
X53364724Y-71857018D01*
X53380327Y-71843573D01*
X53380329Y-71843570D01*
X53387127Y-71837713D01*
X53401094Y-71816165D01*
X53412385Y-71801291D01*
X53423431Y-71788783D01*
X53423432Y-71788782D01*
X53429378Y-71782049D01*
X53441943Y-71755287D01*
X53450263Y-71740309D01*
X53461471Y-71723017D01*
X53461473Y-71723012D01*
X53466352Y-71715485D01*
X53468922Y-71706892D01*
X53468924Y-71706887D01*
X53473711Y-71690880D01*
X53480372Y-71673436D01*
X53487467Y-71658324D01*
X53487468Y-71658322D01*
X53491281Y-71650200D01*
X53493639Y-71635060D01*
X53495830Y-71620985D01*
X53499613Y-71604268D01*
X53505515Y-71584534D01*
X53505516Y-71584528D01*
X53508086Y-71575934D01*
X53508296Y-71541494D01*
X53508329Y-71540711D01*
X53508500Y-71539614D01*
X53508500Y-71508623D01*
X53508502Y-71507853D01*
X53508952Y-71434215D01*
X53508952Y-71434214D01*
X53508976Y-71430279D01*
X53508592Y-71428935D01*
X53508500Y-71427590D01*
X53508500Y-71134500D01*
X53528502Y-71066379D01*
X53582158Y-71019886D01*
X53634500Y-71008500D01*
X54093807Y-71008500D01*
X54161928Y-71028502D01*
G37*
%TD.AperFunction*%
%TA.AperFunction,Conductor*%
G36*
X60496121Y-72566002D02*
G01*
X60542614Y-72619658D01*
X60554000Y-72672000D01*
X60554000Y-74118517D01*
X60558064Y-74132359D01*
X60571478Y-74134393D01*
X60578184Y-74133534D01*
X60588266Y-74131391D01*
X60741793Y-74085331D01*
X60812788Y-74084915D01*
X60872739Y-74122947D01*
X60902610Y-74187354D01*
X60904000Y-74206017D01*
X60904000Y-77771069D01*
X60883998Y-77839190D01*
X60830342Y-77885683D01*
X60764830Y-77896379D01*
X60669925Y-77886404D01*
X60560320Y-77896379D01*
X60470920Y-77904515D01*
X60401267Y-77890770D01*
X60350102Y-77841549D01*
X60333500Y-77779034D01*
X60333500Y-76828767D01*
X60334027Y-76817584D01*
X60335702Y-76810091D01*
X60334481Y-76771233D01*
X60333562Y-76742014D01*
X60333500Y-76738055D01*
X60333500Y-76710144D01*
X60332995Y-76706144D01*
X60332062Y-76694301D01*
X60330922Y-76658029D01*
X60330673Y-76650110D01*
X60325022Y-76630658D01*
X60321014Y-76611306D01*
X60319467Y-76599063D01*
X60318474Y-76591203D01*
X60315556Y-76583832D01*
X60302200Y-76550097D01*
X60298355Y-76538870D01*
X60292524Y-76518801D01*
X60286018Y-76496407D01*
X60275707Y-76478972D01*
X60267012Y-76461224D01*
X60259552Y-76442383D01*
X60233564Y-76406613D01*
X60227048Y-76396693D01*
X60208580Y-76365465D01*
X60208578Y-76365462D01*
X60204542Y-76358638D01*
X60190221Y-76344317D01*
X60177380Y-76329283D01*
X60170131Y-76319306D01*
X60165472Y-76312893D01*
X60131395Y-76284702D01*
X60122616Y-76276712D01*
X58370405Y-74524500D01*
X58336379Y-74462188D01*
X58333500Y-74435405D01*
X58333500Y-74284500D01*
X58353502Y-74216379D01*
X58407158Y-74169886D01*
X58459500Y-74158500D01*
X58658134Y-74158500D01*
X58720316Y-74151745D01*
X58856705Y-74100615D01*
X58973261Y-74013261D01*
X59060615Y-73896705D01*
X59080882Y-73842642D01*
X59104798Y-73778848D01*
X59147440Y-73722084D01*
X59214001Y-73697384D01*
X59283350Y-73712592D01*
X59318017Y-73740580D01*
X59343218Y-73769673D01*
X59350580Y-73776883D01*
X59514434Y-73912916D01*
X59522881Y-73918831D01*
X59706756Y-74026279D01*
X59716042Y-74030729D01*
X59915001Y-74106703D01*
X59924899Y-74109579D01*
X60028250Y-74130606D01*
X60042299Y-74129410D01*
X60046000Y-74119065D01*
X60046000Y-72672000D01*
X60066002Y-72603879D01*
X60119658Y-72557386D01*
X60172000Y-72546000D01*
X60428000Y-72546000D01*
X60496121Y-72566002D01*
G37*
%TD.AperFunction*%
%TA.AperFunction,Conductor*%
G36*
X56350198Y-71728502D02*
G01*
X56396691Y-71782158D01*
X56407340Y-71848108D01*
X56401500Y-71901866D01*
X56401500Y-73698134D01*
X56408255Y-73760316D01*
X56459385Y-73896705D01*
X56546739Y-74013261D01*
X56663295Y-74100615D01*
X56799684Y-74151745D01*
X56861866Y-74158500D01*
X56940500Y-74158500D01*
X57008621Y-74178502D01*
X57055114Y-74232158D01*
X57066500Y-74284500D01*
X57066500Y-74671233D01*
X57065973Y-74682416D01*
X57064298Y-74689909D01*
X57064547Y-74697835D01*
X57064547Y-74697836D01*
X57066438Y-74757986D01*
X57066500Y-74761945D01*
X57066500Y-74789856D01*
X57066997Y-74793790D01*
X57066997Y-74793791D01*
X57067005Y-74793856D01*
X57067938Y-74805693D01*
X57069327Y-74849889D01*
X57074978Y-74869339D01*
X57078987Y-74888700D01*
X57081526Y-74908797D01*
X57084445Y-74916168D01*
X57084445Y-74916170D01*
X57097804Y-74949912D01*
X57101649Y-74961142D01*
X57108059Y-74983207D01*
X57113982Y-75003593D01*
X57118015Y-75010412D01*
X57118017Y-75010417D01*
X57124293Y-75021028D01*
X57132988Y-75038776D01*
X57140448Y-75057617D01*
X57145110Y-75064033D01*
X57145110Y-75064034D01*
X57166436Y-75093387D01*
X57172952Y-75103307D01*
X57191139Y-75134059D01*
X57195458Y-75141362D01*
X57209779Y-75155683D01*
X57222619Y-75170716D01*
X57234528Y-75187107D01*
X57240634Y-75192158D01*
X57268605Y-75215298D01*
X57277384Y-75223288D01*
X59029595Y-76975500D01*
X59063621Y-77037812D01*
X59066500Y-77064595D01*
X59066500Y-77416405D01*
X59046498Y-77484526D01*
X58992842Y-77531019D01*
X58922568Y-77541123D01*
X58857988Y-77511629D01*
X58851405Y-77505500D01*
X58653652Y-77307747D01*
X58646112Y-77299461D01*
X58642000Y-77292982D01*
X58609750Y-77262697D01*
X58592349Y-77246357D01*
X58589507Y-77243602D01*
X58569770Y-77223865D01*
X58566573Y-77221385D01*
X58557551Y-77213680D01*
X58531100Y-77188841D01*
X58525321Y-77183414D01*
X58518375Y-77179595D01*
X58518372Y-77179593D01*
X58507566Y-77173652D01*
X58491047Y-77162801D01*
X58490583Y-77162441D01*
X58475041Y-77150386D01*
X58467772Y-77147241D01*
X58467768Y-77147238D01*
X58434463Y-77132826D01*
X58423813Y-77127609D01*
X58385060Y-77106305D01*
X58365437Y-77101267D01*
X58346734Y-77094863D01*
X58335420Y-77089967D01*
X58335419Y-77089967D01*
X58328145Y-77086819D01*
X58320322Y-77085580D01*
X58320312Y-77085577D01*
X58284476Y-77079901D01*
X58272856Y-77077495D01*
X58237711Y-77068472D01*
X58237710Y-77068472D01*
X58230030Y-77066500D01*
X58209776Y-77066500D01*
X58190065Y-77064949D01*
X58177886Y-77063020D01*
X58170057Y-77061780D01*
X58162165Y-77062526D01*
X58126039Y-77065941D01*
X58114181Y-77066500D01*
X56600991Y-77066500D01*
X56532870Y-77046498D01*
X56511895Y-77029595D01*
X56001102Y-76518801D01*
X55967077Y-76456489D01*
X55964198Y-76429706D01*
X55964198Y-71845292D01*
X55984200Y-71777171D01*
X56001103Y-71756197D01*
X56011895Y-71745405D01*
X56074207Y-71711379D01*
X56100990Y-71708500D01*
X56282077Y-71708500D01*
X56350198Y-71728502D01*
G37*
%TD.AperFunction*%
%TD*%
M02*
