M48
; DRILL file {KiCad (6.0.9-0)} date 2022 December 26, Monday 10:40:37
; FORMAT={-:-/ absolute / inch / decimal}
; #@! TF.CreationDate,2022-12-26T10:40:37+01:00
; #@! TF.GenerationSoftware,Kicad,Pcbnew,(6.0.9-0)
; #@! TF.FileFunction,Plated,1,2,PTH
FMAT,2
INCH
; #@! TA.AperFunction,Plated,PTH,ViaDrill
T1C0.0157
; #@! TA.AperFunction,Plated,PTH,ComponentDrill
T2C0.0236
; #@! TA.AperFunction,Plated,PTH,ComponentDrill
T3C0.0256
; #@! TA.AperFunction,Plated,PTH,ComponentDrill
T4C0.0315
; #@! TA.AperFunction,Plated,PTH,ComponentDrill
T5C0.0394
; #@! TA.AperFunction,Plated,PTH,ComponentDrill
T6C0.0433
%
G90
G05
T1
X1.8189Y-4.2303
X1.998Y-3.002
X2.0217Y-4.0374
X2.1024Y-4.0886
X2.1122Y-2.8642
X2.1299Y-3.5276
X2.1358Y-3.4154
X2.2087Y-3.311
X2.2323Y-2.9921
X2.3327Y-2.9528
X2.4055Y-4.1555
X2.4626Y-3.0197
X2.6004Y-3.502
X2.7126Y-4.1063
X2.7283Y-2.9921
X2.8169Y-3.1949
X2.8327Y-3.5177
X2.8819Y-2.874
X2.9606Y-4.122
X2.9606Y-4.2205
X2.9665Y-3.6299
X3.0472Y-3.9114
X3.0531Y-3.8346
X3.1161Y-2.872
X3.1575Y-3.7146
X3.2067Y-3.0827
X3.2972Y-4.2854
X3.3543Y-3.2087
X3.3642Y-2.9724
X3.4665Y-3.7953
X3.4823Y-2.6614
X3.4882Y-3.5276
X3.4902Y-4.2854
T3
X2.0733Y-3.1634
X2.0733Y-3.7146
X2.1521Y-3.1634
X2.1521Y-3.7146
X2.2308Y-3.1634
X2.2308Y-3.7146
X2.3095Y-3.1634
X2.3095Y-3.7146
X2.3883Y-3.1634
X2.3883Y-3.7146
X2.467Y-3.1634
X2.467Y-3.7146
X2.5458Y-3.1634
X2.5458Y-3.7146
X2.6245Y-3.1634
X2.6245Y-3.7146
X2.6639Y-3.2425
X2.6639Y-3.3213
X2.6639Y-3.4
X2.6639Y-3.4787
X2.6639Y-3.5575
X2.6639Y-3.6362
T4
X2.9134Y-3.1496
X2.9134Y-3.3878
X3.0118Y-3.1496
X3.0118Y-3.3878
T5
X1.8819Y-2.7331
X1.8819Y-2.8331
X1.8819Y-2.9331
X2.274Y-2.8661
X2.374Y-2.8661
X2.474Y-2.8661
X2.574Y-2.8661
X2.674Y-2.8661
X2.774Y-2.8661
T6
X2.3484Y-3.998
X2.3484Y-4.2539
X2.5256Y-3.998
X2.5256Y-4.2539
X2.6575Y-3.998
X2.6575Y-4.2539
X2.8346Y-3.998
X2.8346Y-4.2539
T2
G00X3.2409Y-3.637
M15
G01X3.2843Y-3.637
M16
G05
G00X3.2409Y-3.9772
M15
G01X3.2843Y-3.9772
M16
G05
G00X3.4154Y-3.637
M15
G01X3.439Y-3.637
M16
G05
G00X3.4154Y-3.9772
M15
G01X3.439Y-3.9772
M16
G05
T0
M30
